<svg width="46" height="57" viewBox="0 0 46 57" fill="none" xmlns="http://www.w3.org/2000/svg">
<g clip-path="url(#clip0_550_35184)">
<path d="M11.512 28.8661C11.8675 28.7008 12.061 29.8115 12.7616 30.5605C14.0581 31.9605 15.8827 30.8085 16.2801 30.5605C17.2264 29.9613 17.4669 29.2897 17.9269 29.61C18.3922 29.9355 18.455 30.7517 19.2915 31.9811C19.4483 32.2136 19.647 32.4461 19.9136 32.6837C20.6717 33.3552 21.2729 33.4431 21.503 34.3781C21.7278 35.3079 21.4193 36.3979 21.2782 36.9197C20.5567 39.5284 20.1489 42.4368 19.349 44.968C17.1898 51.7817 17.2996 56.4361 16.4003 56.4C15.7102 56.3741 14.9469 53.6311 14.2463 51.105C13.8124 49.5397 13.6399 48.5221 13.0543 48.0365C12.5211 47.5922 12.0139 47.9022 11.1827 48.3516C8.85092 49.6224 7.67982 50.2475 7.43933 49.8342C6.99494 49.0593 7.98828 46.8948 9.25349 40.3084C10.9317 31.573 10.9579 31.4181 10.9579 31.4181C11.0206 30.3177 11.167 29.0418 11.5277 28.8765L11.512 28.8661Z" stroke="black" stroke-width="1.54616" stroke-miterlimit="10"/>
<path d="M31.1004 27.6408C30.6089 27.2172 30.3632 28.6533 29.6365 29.5367C28.3713 31.0761 26.3532 30.0946 26.0029 29.9241C25.0985 29.485 24.5077 28.8083 24.1888 29.4076C23.9326 29.8828 24.1574 30.575 23.9117 31.7425C23.7287 32.6052 23.4359 33.0391 23.0334 33.6332C22.2125 34.842 21.7838 34.5992 21.7629 35.3069C21.742 36.0353 22.1759 36.7172 23.2163 39.0056C23.6869 40.044 24.1208 41.1495 24.5809 42.1981C27.2681 48.2473 28.5543 53.1393 29.3594 52.9844C29.8561 52.8914 30.107 50.1535 30.6089 44.6829C30.6403 44.3316 30.7448 43.4173 31.1213 42.725C31.2101 42.5597 31.3199 42.4254 31.4663 42.3118C32.2139 41.7384 33.27 42.2498 33.4373 42.3376C35.0894 43.1848 36.8722 44.0991 37.029 43.1796C37.0604 42.9833 37.0238 42.694 36.2553 40.6949C35.4606 38.613 34.8332 37.1821 34.4516 36.2523C34.0333 35.2398 33.4687 33.7572 32.8675 31.8097C32.3708 30.6887 31.9734 29.6865 31.6598 28.86C31.3618 28.0748 31.2729 27.7907 31.1004 27.6357V27.6408Z" stroke="black" stroke-width="1.54616" stroke-miterlimit="10"/>
<path d="M18.3179 3.44463C20.681 2.7834 20.7019 1.20266 22.5318 1.12001C24.5916 1.03219 24.9472 3.02103 27.7285 3.55311C30.6144 4.10585 32.094 2.31848 33.9082 3.10885C35.7275 3.90438 34.5983 5.8519 36.7157 7.42231C38.7599 8.93589 41.0759 8.06803 42.0536 9.41114C42.9737 10.6768 41.0864 11.6634 41.6301 13.7246C42.2732 16.1319 45.3055 16.4935 45.1434 18.1465C44.9918 19.6963 42.2993 19.7376 41.6301 21.6851C40.94 23.6946 43.3763 24.9034 42.4718 26.3292C41.6458 27.6362 39.4343 26.8819 37.2751 28.4317C34.9538 30.1002 35.989 32.0788 34.0441 32.8536C32.1045 33.6285 30.672 31.8205 27.8645 32.4094C25.1615 32.9776 24.8687 34.9923 22.8089 34.9509C21.1045 34.92 21.0522 33.5355 18.7361 32.8485C15.662 31.9393 13.7433 33.7731 11.7095 32.74C10.0679 31.9031 11.0299 30.5497 9.17914 29.0877C7.01992 27.383 4.57839 28.3387 3.41775 26.8768C2.32507 25.4975 4.28039 24.361 3.41775 22.1191C2.57079 19.9236 0.249505 19.8461 0.186767 18.2499C0.118802 16.4935 2.91062 16.1784 3.41775 13.8279C3.836 11.8959 2.14731 11.245 2.85834 9.95872C3.7994 8.24367 6.9781 9.05987 9.17914 6.97288C10.8521 5.38697 9.88494 4.09035 11.4272 3.32065C13.393 2.34431 15.3536 4.25566 18.3127 3.42913L18.3179 3.44463Z" fill="#F9F9F9" stroke="black" stroke-width="1.54616" stroke-miterlimit="10"/>
<path d="M24.2206 29.4333C30.9701 28.8186 37.9026 24.4225 38.1274 18.3733C38.3731 11.8024 30.578 6.77604 22.9554 6.53842C17.2096 6.35761 10.617 8.8682 8.20682 13.8377C6.24627 17.8722 7.63172 22.3097 10.8784 25.342C14.4126 28.6429 19.6982 29.8466 24.2258 29.4333H24.2206Z" stroke="black" stroke-width="1.54616" stroke-miterlimit="10"/>
<path d="M12.6295 18.5384C12.457 19.055 13.8059 19.3649 16.0017 21.08C18.2236 22.8157 18.1609 23.5234 19.7973 24.1743C20.0273 24.2673 22.5107 25.2281 24.0112 24.3964C24.8215 23.947 24.8006 23.2754 25.4175 21.7412C26.0188 20.2431 26.7089 19.2099 27.3833 18.2026C28.3871 16.7045 29.5059 15.0308 31.5972 13.3364C32.4546 12.6442 32.9826 12.3446 32.8624 12.0088C32.6062 11.3217 29.7569 11.0118 27.6656 11.9003C26.8971 12.2258 26.4945 12.5977 25.6999 13.3364C25.2136 13.7858 23.9171 15.0515 22.3277 17.7583C21.4128 19.3133 21.2559 19.8918 20.6443 19.9693C19.6666 20.0933 19.264 18.7398 17.4133 18.089C15.4475 17.3967 12.8596 17.8565 12.6348 18.5332L12.6295 18.5384Z" fill="#3F6B68"/>
</g>
<defs>
<clipPath id="clip0_550_35184">
<rect width="45.354" height="55.6617" fill="white" transform="translate(0 0.923828)"/>
</clipPath>
</defs>
</svg>
