<svg width="36" height="51" viewBox="0 0 36 51" fill="none" xmlns="http://www.w3.org/2000/svg">
<g clip-path="url(#clip0_550_35192)">
<path d="M17.0071 47.4193C17.7845 47.4193 18.4146 46.9809 18.4146 46.4401C18.4146 45.8993 17.7845 45.4609 17.0071 45.4609C16.2298 45.4609 15.5996 45.8993 15.5996 46.4401C15.5996 46.9809 16.2298 47.4193 17.0071 47.4193Z" stroke="black" stroke-width="1.54616" stroke-miterlimit="10"/>
<path d="M30.7262 0.774553H4.32782C2.06597 0.774553 0.234375 2.23079 0.234375 4.0285V46.616C0.234375 48.4137 2.06597 49.875 4.32782 49.875H30.7262C32.9881 49.875 34.8197 48.4188 34.8197 46.616V4.0285C34.8197 2.23079 32.9881 0.769531 30.7262 0.769531V0.774553Z" stroke="black" stroke-width="1.54616" stroke-miterlimit="10"/>
<path d="M3.68821 4.58705H31.365C31.4019 4.58705 31.4326 4.61216 31.4326 4.64229V43.2076C31.4326 43.2377 31.4019 43.2678 31.3589 43.2678H3.68821C3.65134 43.2678 3.62061 43.2427 3.62061 43.2126V4.64229C3.62061 4.61216 3.65134 4.58203 3.69436 4.58203L3.68821 4.58705Z" stroke="black" stroke-width="0.515386" stroke-miterlimit="10"/>
<path d="M19.5957 20.2321C19.5957 19.0671 18.434 18.123 17.0019 18.123C15.5699 18.123 14.4082 19.0671 14.4082 20.2321C14.4082 21.0255 14.9429 21.7134 15.7358 22.075L15.7911 20.674C15.7911 20.1015 16.3627 19.6345 17.0696 19.6345H17.1433C17.6965 19.6345 18.1513 20.0011 18.1513 20.453V22.1252C19.0118 21.7837 19.6018 21.0657 19.6018 20.2321H19.5957Z" fill="#3F6B68"/>
<path d="M18.5269 20.1379C18.5269 19.4902 17.7955 18.9629 16.8858 18.9629H16.769C15.6197 18.9629 14.6854 19.6308 14.6854 20.4543L14.5994 22.4679L14.4027 26.9019C14.3597 27.0375 14.3351 30.1207 14.3351 30.1207C13.9725 29.8546 13.5668 29.5533 13.2042 29.262C12.356 28.5841 10.7948 28.1272 9.76223 28.0418C9.21521 27.9966 8.79726 28.0518 8.52068 28.2025C8.43463 28.2527 8.34243 28.3029 8.26253 28.3632C7.7278 28.7398 7.32215 29.3524 7.69707 29.7993C7.85687 29.9952 8.13346 30.1257 8.42848 30.2613C8.82184 30.4421 9.4795 30.6379 9.9712 31.0899C10.801 31.8481 12.7186 33.5504 13.8925 34.4543C14.1384 34.5648 14.6547 34.9364 14.9005 35.0267C15.6442 35.3682 16.2527 35.6896 16.4617 35.8603C16.6277 35.9959 17.5988 36.3524 17.5988 36.3524C18.3855 36.709 19.8176 37.0454 21.4709 37.0454C23.1243 37.0454 24.624 37.1157 25.7303 36.4177H25.7918L25.8225 36.3625C26.9535 35.6193 27.6541 34.5949 27.6541 33.46V28.0318C27.6541 27.7656 27.5742 26.8718 26.5294 26.6056C26.0254 26.4751 25.5521 26.5253 25.1464 26.6508H25.0235C24.8391 26.1638 24.3904 25.8474 23.7143 25.7671C22.903 25.6666 22.3437 25.8424 22.0057 26.0181C21.6676 25.5009 20.9977 25.2298 20.0819 25.285C19.3996 25.3252 18.8895 25.5662 18.5207 25.8825V20.1379H18.5269Z" fill="#FCFCFC" stroke="black" stroke-width="1.54616" stroke-miterlimit="10"/>
<path d="M22.7931 23.7383L23.3094 24.2053C23.4077 24.2957 23.586 24.2907 23.6782 24.1903C24.6739 23.0705 25.2209 21.7197 25.2209 20.3036C25.2209 16.6228 21.5393 13.625 17.0094 13.625C16.696 13.625 16.3825 13.6401 16.0752 13.6652C12.2952 14.0066 9.25894 16.4873 8.85329 19.5655C8.63202 21.2376 9.1729 22.8696 10.3407 24.1903C10.4267 24.2907 10.605 24.2957 10.7095 24.2053L11.2258 23.7383C11.2995 23.6731 11.3057 23.5726 11.2442 23.5023C10.4206 22.5231 9.99036 21.3531 10.0334 20.1379C10.1379 17.1853 13.0574 14.7649 16.6837 14.6243C20.6911 14.4636 24.0039 17.0798 24.0039 20.3036C24.0039 21.4586 23.5737 22.5683 22.787 23.5023C22.7255 23.5777 22.7317 23.6731 22.8054 23.7383H22.7931Z" fill="black"/>
<path d="M20.4783 21.6486L21.0254 22.1407C21.136 22.2411 21.3388 22.221 21.4126 22.0955C21.7568 21.5431 21.935 20.9355 21.935 20.2978C21.935 18.4047 20.2817 16.7526 18.0075 16.3659C17.3437 16.2504 16.643 16.2504 15.9792 16.3659C13.7051 16.7526 12.0518 18.4097 12.0518 20.2978C12.0518 20.9305 12.23 21.5431 12.5742 22.0955C12.6479 22.216 12.8508 22.2411 12.9614 22.1407L13.5084 21.6486C13.5699 21.5933 13.5822 21.513 13.5515 21.4477C13.3671 21.0861 13.2687 20.6995 13.2687 20.3028C13.2687 19.0374 14.2521 17.8925 15.715 17.4606C16.5324 17.2196 17.4482 17.2196 18.2657 17.4606C19.7285 17.8975 20.7119 19.0374 20.7119 20.3028C20.7119 20.6945 20.6136 21.0861 20.4353 21.4477C20.3984 21.518 20.4169 21.5933 20.4783 21.6486Z" fill="#3F6B68"/>
</g>
<defs>
<clipPath id="clip0_550_35192">
<rect width="35.0462" height="49.4771" fill="white" transform="translate(0 0.583984)"/>
</clipPath>
</defs>
</svg>
