<svg width="1073" height="709" viewBox="0 0 1073 709" fill="none" xmlns="http://www.w3.org/2000/svg">
<path d="M8.94734 631.414C8.94734 633.518 7.00201 635.387 4.81351 635.387C2.62502 635.387 0.679688 633.518 0.679688 631.414C0.679688 629.311 2.62502 627.442 4.81351 627.442C7.00201 627.442 8.94734 629.078 8.94734 631.414Z" fill="url(#paint0_linear_0_1)"/>
<path opacity="0.45" d="M31.5626 631.414C31.5626 633.518 29.6172 635.387 27.4287 635.387C25.2403 635.387 23.2949 633.518 23.2949 631.414C23.2949 629.311 25.2403 627.442 27.4287 627.442C29.6172 627.442 31.5626 629.078 31.5626 631.414Z" fill="url(#paint1_linear_0_1)"/>
<path opacity="0.25" d="M54.1758 631.414C54.1758 633.518 52.2305 635.387 50.042 635.387C47.8535 635.387 45.9082 633.518 45.9082 631.414C45.9082 629.311 47.8535 627.442 50.042 627.442C52.2305 627.442 54.1758 629.078 54.1758 631.414Z" fill="url(#paint2_linear_0_1)"/>
<path d="M184.387 629.212C259.283 629.212 1035.71 629.212 1064.41 629.212C1093.1 629.212 1041.79 643.701 1025.01 659.826C1008.23 675.951 1009.21 682.728 967.382 694.88C877.411 721.287 838.991 669.641 696.009 689.972C635.217 698.619 557.647 715.211 496.37 706.331C444.818 698.852 432.417 665.201 393.267 662.397C333.448 658.19 303.539 662.397 249.07 659.826C202.138 657.723 109.492 629.212 184.387 629.212Z" fill="url(#paint3_linear_0_1)"/>
<path d="M856.256 629.212C853.338 536.203 875.223 423.097 951.577 359.065C963.735 348.783 978.811 335.462 996.076 336.631C1004.1 337.098 1008.23 345.978 1009.45 352.755C1011.64 364.44 1009.45 376.592 1006.53 388.277C989.997 452.308 935.528 564.48 921.667 629.212" fill="#52538C"/>
<path d="M984.646 361.636C933.581 424.966 905.617 504.421 898.322 583.876C896.863 598.599 896.377 613.321 897.35 627.81C897.35 628.511 898.809 628.745 898.566 627.81C897.107 559.105 913.642 488.53 944.767 426.836C956.196 404.167 969.813 382.434 985.376 362.337C985.862 361.636 985.133 361.168 984.646 361.636Z" fill="#52538C"/>
<path d="M921.668 629.212C931.881 568.92 942.58 519.845 978.569 469.367C993.402 448.569 1021.85 423.097 1044.47 425.2C1068.78 427.537 1051.52 462.824 1037.17 488.998C1017.96 524.051 1003.86 562.377 997.293 601.637C999.238 589.718 1007.75 556.301 1033.04 541.344C1040.33 536.904 1058.57 534.334 1058.57 549.056C1058.57 574.529 1032.79 605.376 1026.23 629.212" fill="#52538C"/>
<path d="M1036.69 443.661C1022.34 461.188 1011.88 482.454 1002.16 502.552C989.268 529.192 978.082 556.768 969.814 585.045C965.681 598.833 962.276 613.088 961.061 627.343C961.061 628.044 962.033 627.81 962.033 627.343C965.437 600.235 974.191 573.828 983.918 548.355C993.888 522.182 1005.8 496.476 1019.66 471.704C1025.01 462.123 1030.61 452.542 1037.41 443.895C1037.9 443.661 1036.93 443.194 1036.69 443.661Z" fill="white"/>
<path d="M1043.98 550.926C1023.07 571.023 1013.83 602.104 1008.72 629.212C1008.48 629.914 1009.69 630.147 1009.94 629.446C1016.5 602.338 1024.28 572.192 1044.71 551.627C1045.2 551.16 1044.47 550.458 1043.98 550.926Z" fill="white"/>
<path d="M347.065 629.212C332.232 511.666 342.931 460.487 357.035 428.004C363.6 412.814 372.84 397.858 385.971 387.108C438.738 344.343 437.036 427.537 434.605 452.775C429.012 510.263 413.936 571.724 412.72 629.212" fill="#52538C"/>
<path d="M299.648 629.212C297.946 592.289 280.924 556.301 259.04 526.388C237.155 496.476 206.759 472.405 187.062 441.091C176.363 424.265 159.585 397.624 184.388 383.836C211.865 368.413 252.231 384.537 274.359 402.064C298.432 421.227 314.238 448.101 327.369 474.742C350.713 521.948 355.333 576.865 355.82 629.212" fill="#52538C"/>
<path d="M304.997 629.212C304.997 591.588 285.057 551.861 253.689 522.649C233.02 503.486 208.46 485.492 180.496 477.547C165.906 473.34 125.297 467.031 121.163 490.166C119.704 499.046 127.972 515.638 147.669 530.595C175.146 551.627 251.501 584.11 260.498 629.212" fill="#52538C"/>
<path d="M139.644 491.802C189.736 505.122 236.91 538.073 262.199 582.007C270.467 596.496 276.303 612.387 279.707 628.511C279.951 629.212 280.923 628.979 280.68 628.278C271.197 573.126 228.156 529.192 177.578 504.889C165.662 499.046 153.018 494.372 140.13 490.867C139.4 490.633 139.157 491.568 139.644 491.802Z" fill="#52538C"/>
<path d="M197.518 398.793C223.05 412.113 243.963 433.145 260.741 455.58C283.112 485.492 299.161 519.845 309.131 555.366C315.94 579.202 319.587 603.74 321.533 628.278C321.533 629.446 323.235 629.446 323.235 628.278C319.83 554.431 290.65 475.677 233.993 423.564C223.293 413.515 211.135 404.635 198.004 397.858C197.518 397.858 197.032 398.559 197.518 398.793Z" fill="#52538C"/>
<path d="M405.667 386.407C379.892 445.297 373.813 511.666 372.11 574.762C371.624 592.523 371.624 610.517 372.354 628.278C372.354 629.212 373.813 629.212 373.813 628.278C373.569 564.013 375.272 499.28 390.834 436.417C394.968 419.591 400.318 402.765 406.883 386.641C407.126 386.173 405.911 385.706 405.667 386.407Z" fill="#52538C"/>
<path d="M267.549 629.212C262.929 608.881 258.795 587.849 246.15 570.322C237.883 558.871 221.104 542.98 206.271 543.214C195.085 543.447 192.654 553.73 193.87 562.844C197.274 587.148 211.134 594.392 216.727 620.566C214.052 610.751 197.274 576.398 182.684 589.485C166.635 603.974 190.465 629.212 190.465 629.212" fill="#52538C"/>
<path d="M188.519 596.262C197.273 606.544 204.812 616.827 209.675 629.446C209.918 630.147 210.891 629.913 210.648 629.212C207.243 616.359 198.003 605.376 189.006 595.794C188.763 595.327 188.276 596.028 188.519 596.262Z" fill="#52538C"/>
<path d="M211.621 558.404C231.075 577.8 239.829 604.675 249.555 629.446C249.798 630.147 250.771 629.913 250.528 629.212C247.124 618.229 242.747 607.245 237.883 596.729C231.318 582.708 223.536 568.686 212.351 557.936C211.864 557.469 211.378 558.17 211.621 558.404Z" fill="#52538C"/>
<path d="M696.25 437.819H701.113" stroke="#B3D3F4" stroke-miterlimit="10"/>
<path d="M710.84 437.819H971.271C1013.83 437.819 1048.35 404.635 1048.35 363.739C1048.35 322.843 1013.83 289.659 971.271 289.659H384.268C361.654 289.659 343.416 272.132 343.416 250.399C343.416 228.665 361.654 211.138 384.268 211.138H877.409C897.349 211.138 913.641 195.481 913.641 176.318C913.641 157.156 897.349 141.498 877.409 141.498H426.093C415.15 141.498 406.153 132.852 406.153 122.336C406.153 111.82 415.15 103.173 426.093 103.173H547.676" stroke="#B3D3F4" stroke-miterlimit="10" stroke-dasharray="3.99 3.99"/>
<path d="M552.539 103.64H557.402" stroke="#B3D3F4" stroke-miterlimit="10"/>
<path d="M588.528 41.7123C565.67 37.9732 544.028 52.6958 540.137 74.6628C537.706 88.2169 542.812 101.304 552.296 110.184L546.703 121.167L559.348 115.559C563.968 118.363 569.074 120.233 574.667 121.167C597.525 124.906 619.166 110.184 623.057 88.2168C626.705 66.2499 611.385 45.4513 588.528 41.7123Z" fill="#F3FAFF"/>
<path d="M562.752 100.369L558.375 95.4613C556.672 93.5917 556.916 90.7874 558.861 89.1516L563.724 85.1789C565.67 83.543 568.588 83.7767 570.29 85.6462C570.29 85.6462 572.478 88.9179 575.396 88.4505C578.557 87.7494 585.123 83.0756 588.77 79.3366C591.202 76.766 587.068 72.3258 587.068 72.3258C585.366 70.4563 585.609 67.652 587.555 66.0162L592.418 62.0434C594.363 60.4076 597.281 60.6412 598.983 62.5108L603.36 67.4183C613.573 78.6355 571.262 110.184 562.752 100.369Z" fill="#B3D3F4"/>
<path d="M770.904 102.706C777.226 97.0971 779.657 91.0211 788.168 89.1515C789.87 88.6842 791.816 88.4505 793.275 87.7494C797.409 85.1788 796.679 79.5702 797.409 75.1301C799.354 66.2498 811.269 60.6412 820.023 64.614C823.671 66.2498 827.075 69.2878 831.209 69.0541C839.476 68.5867 838.504 58.7717 843.853 53.3968C849.203 48.2556 859.902 47.5545 866.711 50.8262C871.331 53.1631 875.465 56.2011 878.626 60.1738C882.03 64.3803 881.787 70.6899 884.219 75.1301C886.651 79.5702 892.243 81.4397 894.675 85.8799C896.864 89.6189 897.35 93.5917 895.648 97.5644C892.243 105.51 882.03 111.352 872.547 111.352C857.471 111.352 747.316 111.352 747.316 111.352C747.316 111.352 764.095 109.249 770.904 102.706Z" fill="#F3FAFF"/>
<path d="M471.078 45.685C465.728 40.7775 463.54 35.87 456.488 34.2342C455.029 34.0005 453.327 33.7668 452.111 33.0657C448.707 30.9625 449.193 26.2887 448.464 22.3159C447.005 14.8378 436.792 10.1639 429.254 13.4356C426.092 14.8378 423.418 17.4084 419.77 17.1747C412.961 16.7073 413.691 8.52811 409.071 3.85429C404.694 -0.58585 395.453 -1.05324 389.861 1.75106C385.97 3.62059 382.322 6.42489 379.648 9.69657C376.73 13.2019 376.973 18.5768 374.784 22.5496C372.839 26.2887 367.976 27.9245 366.03 31.6636C364.328 34.9352 363.599 38.2069 365.058 41.4786C367.976 48.2556 376.73 53.1632 384.511 53.1632C397.156 53.1632 490.288 53.1632 490.288 53.1632C490.288 53.1632 476.914 51.0599 471.078 45.685Z" fill="#F3FAFF"/>
<path d="M959.357 155.52L885.678 117.662L905.131 62.2771L994.616 106.912L959.357 155.52Z" fill="#CFE0F5"/>
<path d="M994.616 106.912L905.131 62.2771L969.084 49.1904L994.616 106.912Z" fill="#CFE0F5"/>
<path d="M987.738 98.0263L916.049 62.3525L884.743 120.458L956.432 156.131L987.738 98.0263Z" fill="#FFF4E1"/>
<path d="M905.131 62.2771L874.979 118.363L933.825 114.624L905.131 62.2771Z" fill="#E6F1FC"/>
<path d="M994.616 106.912L964.463 162.998L933.824 114.624L994.616 106.912Z" fill="#E6F1FC"/>
<path d="M964.464 162.998L874.979 118.363L943.065 97.5645L964.464 162.998Z" fill="#E6F1FC"/>
<path d="M964.464 162.998L874.979 118.363L938.931 105.276L964.464 162.998Z" fill="#E6F1FC"/>
<path d="M368.706 178.889L308.887 193.378L290.893 153.651L363.113 135.423L368.706 178.889Z" fill="#CFE0F5"/>
<path d="M363.113 135.423L290.893 153.65L319.1 116.026L363.113 135.423Z" fill="#CFE0F5"/>
<path d="M354.7 133.831L296.873 148.548L309.821 195.537L367.648 180.82L354.7 133.831Z" fill="#FFF4E1"/>
<path d="M290.893 153.65L303.294 198.753L333.69 168.607L290.893 153.65Z" fill="#E6F1FC"/>
<path d="M363.113 135.423L375.514 180.525L333.689 168.607L363.113 135.423Z" fill="#E6F1FC"/>
<path d="M375.515 180.525L303.295 198.753L330.043 154.819L375.515 180.525Z" fill="#E6F1FC"/>
<path d="M375.515 180.525L303.295 198.753L331.502 161.129L375.515 180.525Z" fill="#E6F1FC"/>
<path d="M604.822 100.135L607.011 96.8634C607.011 96.8634 606.281 94.5265 606.281 91.4885C606.281 90.0864 606.768 86.581 607.254 86.3473C607.74 86.1136 607.983 89.3853 608.227 89.1516C608.47 88.9179 610.172 82.6082 611.145 82.6082C611.631 82.6082 609.929 88.9179 609.929 88.9179C609.929 88.9179 611.631 82.1409 612.36 82.3746C613.09 82.6083 611.145 89.1516 611.145 89.1516C611.145 89.1516 612.847 83.0756 613.576 83.0756C614.306 83.3093 612.604 89.3853 612.604 89.3853C612.604 89.3853 614.306 84.0104 614.549 84.2441C615.035 84.7115 614.549 88.4505 612.847 93.5918C612.604 94.5265 611.145 97.5645 611.145 97.7982C611.145 98.0319 609.442 103.407 609.442 103.407" fill="#FC8975"/>
<path d="M608.471 89.8526C608.957 90.7874 609.687 91.7221 609.93 92.8906C610.173 94.2927 609.93 95.2275 609.687 96.6296C609.687 96.8633 609.93 96.8633 609.93 96.8633C611.389 94.2927 610.416 91.9558 608.714 89.8526C608.714 89.3852 608.471 89.6189 608.471 89.8526Z" fill="#CC6658"/>
<path d="M528.225 502.552C528.225 502.552 541.113 507.225 541.356 510.731C541.356 512.834 522.389 512.834 521.417 511.432C519.471 509.095 522.876 503.019 522.876 503.019L528.225 502.552Z" fill="#352E72"/>
<path d="M527.982 492.269L528.226 503.019C528.226 503.019 527.739 504.655 525.794 504.888C523.849 505.122 522.633 503.019 522.633 503.019L522.146 489.698" fill="#FC8975"/>
<path d="M536.736 255.54C536.736 255.54 543.787 296.903 540.14 376.125C537.708 430.341 530.17 495.541 527.252 495.775C524.577 495.775 521.902 495.541 521.902 495.541C521.902 495.541 504.151 417.254 502.935 373.087C500.99 305.082 482.509 289.425 490.534 254.138" fill="url(#paint4_linear_0_1)"/>
<path d="M529.44 491.334L528.953 496.008L521.172 496.242L520.686 491.568L529.44 491.334Z" fill="#75A1E9"/>
<path d="M488.102 503.72C488.102 503.72 500.99 508.394 501.233 511.899C501.233 514.002 482.266 514.002 481.294 512.6C479.348 510.263 482.753 504.187 482.753 504.187L488.102 503.72Z" fill="#352E72"/>
<path d="M487.859 493.204L488.103 503.954C488.103 503.954 487.616 505.59 485.671 505.823C483.726 506.057 482.51 503.954 482.51 503.954L482.023 490.633" fill="#FC8975"/>
<path d="M513.878 256.241C513.878 256.241 510.473 308.821 506.34 369.347C504.637 393.184 490.291 493.438 488.345 496.709C485.67 496.709 481.293 496.943 481.293 496.943C481.293 496.943 470.594 410.243 469.378 366.076C467.433 298.072 459.895 289.892 467.919 254.605" fill="url(#paint5_linear_0_1)"/>
<path d="M489.561 492.269L488.831 496.943L481.05 497.177L480.807 492.503L489.561 492.269Z" fill="#75A1E9"/>
<path d="M512.176 282.648C512.176 282.648 509.501 349.717 504.395 388.978" stroke="#4A578E" stroke-width="0.5" stroke-miterlimit="10"/>
<path d="M521.416 116.26C517.039 108.782 504.881 109.95 498.072 113.222C488.345 118.129 485.914 131.917 476.917 137.993C472.783 140.564 467.919 142.2 464.758 145.705C461.111 149.911 460.138 156.221 462.083 161.362C464.029 166.504 468.163 170.71 473.026 173.748C477.889 176.552 483.482 178.188 488.832 179.357C497.586 181.226 507.069 182.395 515.58 179.59C524.091 176.786 531.629 169.074 531.386 160.194C531.386 152.716 526.279 145.705 527.252 138.227" fill="#081466"/>
<path d="M605.552 97.5645C605.552 97.5645 582.208 129.58 576.858 137.058C568.59 148.509 534.547 150.612 516.31 160.895L503.665 162.297C497.586 163.465 476.917 177.721 474.971 183.329C470.594 196.416 466.217 209.503 465.245 223.29C465.002 227.964 465.245 232.638 465.245 237.312C465.488 244.089 465.731 250.866 465.974 257.409C465.974 257.877 465.974 258.344 466.217 258.578C466.461 259.045 466.947 259.045 467.433 259.279C490.291 264.42 514.121 261.616 537.465 258.812C538.195 258.812 539.167 258.578 539.654 258.11C540.383 257.409 540.383 256.475 540.383 255.306C540.626 251.1 540.14 246.66 540.14 242.453C539.41 223.758 540.14 205.062 542.085 186.601C549.38 182.161 579.047 173.28 589.016 159.96C611.388 130.048 611.388 99.2003 611.388 99.2003L605.552 97.5645Z" fill="url(#paint6_linear_0_1)"/>
<path d="M516.309 160.895L515.822 145.471L508.771 146.406L503.664 162.063C503.664 162.063 506.096 165.335 511.202 164.634C515.822 163.933 516.309 160.895 516.309 160.895Z" fill="#FC8975"/>
<path d="M501.234 139.162C500.991 133.086 502.693 126.776 506.097 123.037C509.501 119.532 515.581 119.064 520.201 119.532C521.66 119.765 523.362 120.233 524.578 121.167C528.955 124.673 528.712 133.086 528.468 137.993C528.225 142.2 526.766 146.64 524.091 149.911C523.119 151.08 522.146 152.015 520.93 152.482C516.553 154.118 510.474 153.183 506.827 150.379C502.936 148.276 501.477 143.602 501.234 139.162Z" fill="#FC8975"/>
<path d="M499.287 144.069C497.585 144.77 495.153 145.471 493.694 143.602C492.722 142.199 493.451 140.096 493.937 138.694C495.153 133.787 496.612 129.113 498.314 124.439C499.287 122.102 500.26 119.531 501.719 117.428C504.88 113.455 513.391 111.586 518.497 112.053C524.09 111.586 533.087 120.466 528.224 130.749C527.494 128.178 526.522 128.412 524.576 126.308C522.631 128.178 520.199 129.113 517.525 129.346C514.12 129.58 510.23 128.879 507.798 131.216C505.123 133.553 505.853 137.759 503.907 140.564C502.691 142.199 500.989 143.368 499.287 144.069Z" fill="#081466"/>
<path d="M504.881 140.33C505.124 138.928 504.152 137.993 503.179 137.993C500.504 137.759 499.775 141.732 500.747 143.368C501.477 144.77 503.422 145.705 504.395 144.069" fill="#FC8975"/>
<path d="M509.259 149.444C508.529 149.444 508.043 149.21 507.313 149.21C505.854 148.977 503.909 148.042 502.45 146.172C501.964 145.471 501.721 144.77 501.721 144.303C501.721 144.069 501.721 144.069 501.964 144.069C502.207 144.069 502.207 144.303 502.207 144.303C502.207 144.77 502.45 145.238 502.937 145.939C504.152 147.574 506.098 148.509 507.557 148.743C509.259 149.21 511.204 149.21 512.906 148.977C513.15 148.977 513.15 148.977 513.15 149.21C513.15 149.444 513.15 149.444 512.906 149.444C511.934 149.444 510.718 149.444 509.259 149.444Z" fill="#081466"/>
<path d="M514.366 148.509C513.879 148.276 513.15 148.276 512.664 148.509C510.718 148.977 512.907 151.314 514.609 150.145C514.852 150.145 514.852 149.911 514.852 149.678C515.095 149.21 514.852 148.743 514.366 148.509Z" fill="#081466"/>
<path d="M496.857 130.281C497.344 126.309 498.803 121.635 501.478 118.597C504.639 114.624 509.259 111.352 513.393 111.352C516.797 111.352 518.742 112.053 518.742 112.053C514.365 112.988 510.718 115.091 507.314 118.597C503.909 122.102 501.964 126.776 501.721 131.683" fill="#75A1E9"/>
<path d="M507.556 136.825C508.043 141.265 504.882 145.471 500.748 145.705C496.371 146.172 492.723 142.901 492.237 138.227C491.751 133.787 494.912 129.58 499.046 129.347C503.179 128.879 507.07 132.385 507.556 136.825Z" fill="#75A1E9"/>
<path d="M503.908 137.526C504.151 140.564 502.206 143.368 499.531 143.602C496.857 143.835 494.182 141.498 493.938 138.46C493.695 135.423 495.641 132.618 498.316 132.385C500.99 132.151 503.422 134.488 503.908 137.526Z" fill="#2D4CBA"/>
<path d="M658.803 124.205L398.129 343.642V645.103H919.477V343.642L658.803 124.205Z" fill="url(#paint7_linear_0_1)"/>
<path d="M892.972 201.323H424.391V614.022H892.972V201.323Z" fill="url(#paint8_linear_0_1)"/>
<path opacity="0.55" d="M658.803 535.035L398.129 343.642V614.023H919.477V343.642L658.803 535.035Z" fill="#C9D3F4"/>
<path d="M658.803 566.35L398.129 343.642V645.103H919.477V343.642L658.803 566.35Z" fill="url(#paint9_linear_0_1)"/>
<path opacity="0.35" d="M658.803 409.075L398.129 645.103H919.477L658.803 409.075Z" fill="#C9D3F4"/>
<path d="M658.803 431.977L398.129 645.103H919.477L658.803 431.977Z" fill="url(#paint10_linear_0_1)"/>
<path d="M829.263 659.826C823.913 633.419 829.506 606.311 840.449 583.643C847.744 568.92 864.279 548.355 882.76 548.589C896.377 548.823 902.213 562.143 902.942 574.061C905.131 605.376 889.811 614.957 889.811 648.842C890.541 635.989 903.429 594.392 923.611 608.648C943.308 622.669 924.098 659.826 924.098 659.826" fill="#52538C"/>
<path d="M918.018 616.593C909.75 629.68 902.212 644.169 901.482 659.826C901.482 660.293 902.455 660.527 902.455 660.06C904.644 644.636 910.723 630.614 918.747 617.06C918.99 616.593 918.261 616.126 918.018 616.593Z" fill="#52538C"/>
<path d="M881.057 567.752C870.358 582.474 865.251 600.702 861.36 617.995C858.199 631.783 856.011 645.805 854.795 659.826C854.795 660.294 855.768 660.527 855.768 660.06C860.145 629.446 863.063 594.393 881.786 568.219C882.273 567.518 881.543 567.284 881.057 567.752Z" fill="white"/>
<path d="M484.698 233.573C484.698 233.573 488.103 235.91 489.075 235.91C490.291 235.91 492.966 235.209 496.127 235.442C497.586 235.676 501.234 236.377 501.477 236.844C501.72 237.312 498.072 237.312 498.072 237.546C498.072 237.779 504.881 240.116 504.638 241.051C504.395 241.518 498.072 239.181 498.072 239.181C498.072 239.181 505.124 241.518 504.638 242.219C504.152 242.92 497.586 240.583 497.586 240.583C497.586 240.583 503.908 242.92 503.665 243.388C503.422 244.089 497.1 242.453 497.1 242.453C497.1 242.453 502.449 243.621 502.206 244.089C501.963 244.323 496.127 243.621 491.021 241.752C486.4 240.116 482.51 237.312 482.51 237.312" fill="#FC8975"/>
<path d="M487.129 188.003C481.293 196.65 467.676 206.465 460.381 212.541C464.758 218.149 488.831 235.442 488.831 235.442L486.643 240.584C486.643 240.584 440.441 232.638 438.982 210.671C438.01 197.584 455.517 178.188 468.892 169.074C481.536 160.661 496.126 159.259 503.908 162.297" fill="url(#paint11_linear_0_1)"/>
<path d="M825.616 283.583C820.51 281.48 813.215 275.637 814.187 272.132C814.43 270.73 818.078 274.703 819.051 273.534C819.78 272.833 819.051 270.029 817.348 268.627C815.403 267.225 811.756 264.654 812.728 263.719C813.701 262.784 822.941 264.888 825.13 267.926C826.346 269.795 827.805 274.002 828.777 278.675L832.668 283.583" fill="#FC8975"/>
<path d="M923.612 664.967C923.612 664.967 907.807 669.641 907.807 673.146C907.807 675.249 931.151 674.548 932.61 673.38C934.798 671.277 930.664 665.434 930.664 665.434L923.612 664.967Z" fill="#352E72"/>
<path d="M923.611 655.386V665.435C923.611 665.435 924.098 667.07 926.529 667.304C928.961 667.538 930.42 665.435 930.42 665.435L930.663 652.815" fill="#FC8975"/>
<path d="M904.401 432.211C904.401 432.211 897.106 471.237 904.158 546.018C909.022 596.963 920.694 658.658 924.098 658.658C927.502 658.658 930.663 658.19 930.663 658.19C930.663 658.19 949.873 583.876 949.873 542.045C949.873 477.78 972.488 462.59 961.302 429.406" fill="url(#paint12_linear_0_1)"/>
<path d="M921.666 654.451L922.395 658.891H932.122L932.365 654.451H921.666Z" fill="#75A1E9"/>
<path d="M972.974 664.967C972.974 664.967 957.168 669.641 957.168 673.146C957.168 675.249 980.512 674.548 981.971 673.38C984.159 671.277 980.026 665.434 980.026 665.434L972.974 664.967Z" fill="#352E72"/>
<path d="M972.975 655.386V665.435C972.975 665.435 973.461 667.07 975.893 667.304C978.324 667.538 979.783 665.435 979.783 665.435L980.026 652.815" fill="#FC8975"/>
<path d="M932.852 432.211C932.852 432.211 938.688 481.753 945.983 538.774C948.901 561.442 969.813 655.386 972.488 658.658C975.892 658.658 981.242 658.658 981.242 658.658C981.242 658.658 991.698 576.632 991.698 534.801C991.698 470.536 1000.94 462.59 989.753 429.406" fill="url(#paint13_linear_0_1)"/>
<path d="M971.029 654.451L971.759 658.891H981.485L981.729 654.451H971.029Z" fill="#75A1E9"/>
<path d="M935.77 457.216C935.77 457.216 941.362 520.546 949.144 557.469" stroke="#4A578E" stroke-width="0.5" stroke-miterlimit="10"/>
<path d="M991.942 423.798C991.942 419.591 995.346 349.25 982.458 333.126C978.811 325.647 965.437 317.235 954.981 313.729C945.497 310.458 939.661 313.028 935.527 313.496C917.533 308.588 876.681 311.86 865.252 306.251C858.93 303.213 829.75 278.676 829.75 278.676L824.4 282.882C824.4 282.882 841.908 317.936 861.605 330.321C875.465 338.968 895.891 343.642 906.834 345.745C906.59 347.614 906.591 349.718 906.347 352.055C905.861 364.674 904.159 386.875 905.861 423.564C906.104 427.07 901.97 431.51 901.97 433.847C901.97 436.183 906.591 443.662 946.227 443.662C979.54 443.662 995.589 438.988 995.589 433.613C995.103 428.238 991.942 428.004 991.942 423.798Z" fill="url(#paint14_linear_0_1)"/>
<g opacity="0.75">
<path d="M907.32 331.49C907.32 331.49 907.563 332.425 907.563 333.827C907.563 335.229 907.563 337.098 907.563 338.734C907.563 340.604 907.32 342.24 907.077 343.642C906.834 345.044 906.591 345.979 906.591 345.979C906.591 345.979 906.348 345.044 906.348 343.642C906.348 342.24 906.348 340.37 906.348 338.734C906.348 336.865 906.591 335.229 906.834 333.827C907.077 332.425 907.32 331.49 907.32 331.49Z" fill="url(#paint15_linear_0_1)"/>
</g>
<path d="M932.852 270.496C931.393 276.105 927.745 291.762 931.15 296.67C934.554 301.577 941.606 302.979 947.199 300.643C952.792 298.306 956.682 293.164 958.384 287.789C960.086 282.181 960.087 276.339 959.843 270.73" fill="#FC8975"/>
<path d="M939.418 291.061L936.986 309.99C936.986 309.99 937.716 315.365 940.877 317.235C948.172 317.001 951.819 310.224 951.819 310.224L949.631 285.92" fill="#FC8975"/>
<path d="M952.306 275.637C948.415 274.235 943.308 274.703 938.445 274.002C935.041 273.534 931.637 273.301 928.475 272.132C922.883 269.795 923.369 261.616 927.989 258.344C929.205 257.41 930.907 256.708 932.366 256.942C934.068 257.41 934.554 259.045 936.013 259.513C936.743 259.746 937.716 259.98 938.445 259.746C939.175 259.746 939.661 259.513 940.147 259.045C940.877 258.344 941.363 257.41 942.093 256.475C942.822 255.774 943.795 255.306 944.768 255.073C946.956 254.605 949.631 254.839 951.333 256.007C952.063 256.475 952.549 256.942 953.278 257.176C954.494 257.643 955.953 257.41 956.926 258.111C960.087 259.746 962.275 264.187 962.519 267.458C962.519 267.926 963.491 268.393 963.734 268.86C966.896 272.366 967.139 277.273 966.166 281.713C965.193 286.154 963.734 290.36 960.087 293.164C958.871 294.099 956.926 294.566 955.224 295.268C949.145 298.072 952.549 280.779 952.306 275.637Z" fill="#352E72"/>
<path d="M953.036 285.453C953.036 284.284 954.982 283.116 956.197 284.05C956.927 284.518 957.413 285.219 957.413 285.92C957.656 287.556 956.197 290.36 954.009 290.827C953.036 291.061 952.307 289.893 952.307 289.192" fill="#FC8975"/>
<path d="M946.227 296.67C946.956 296.67 947.442 296.436 948.172 296.436C949.631 296.202 951.576 295.267 953.035 293.398C953.521 292.697 953.765 291.996 953.765 291.528C953.765 291.295 953.765 291.295 953.522 291.295C953.278 291.295 953.278 291.528 953.278 291.528C953.278 291.996 953.035 292.463 952.549 293.164C951.333 294.8 949.388 295.501 947.929 295.969C946.227 296.436 944.281 296.436 942.579 296.202C942.336 296.202 942.336 296.202 942.336 296.436C942.336 296.67 942.336 296.67 942.579 296.67C943.795 296.67 945.011 296.903 946.227 296.67Z" fill="#081466"/>
<path d="M941.121 295.735C941.607 295.501 942.337 295.501 942.823 295.735C944.768 296.202 942.58 298.539 940.878 297.371C940.634 297.371 940.634 297.137 940.634 297.137C940.391 296.436 940.634 295.969 941.121 295.735Z" fill="#081466"/>
<path d="M958.629 277.974C958.143 274.002 956.684 269.561 954.009 266.523C950.848 262.551 946.228 259.279 942.094 259.279C938.689 259.279 936.744 259.98 936.744 259.98C941.121 260.915 944.769 263.018 948.173 266.29C951.577 269.795 953.523 274.469 953.766 279.143" fill="#75A1E9"/>
<path d="M947.93 284.284C947.444 288.724 950.605 292.697 954.739 293.164C959.116 293.632 962.763 290.36 963.25 285.92C963.736 281.48 960.575 277.507 956.441 277.039C952.307 276.806 948.417 279.844 947.93 284.284Z" fill="#75A1E9"/>
<path d="M951.577 284.985C951.334 288.023 953.279 290.594 955.954 291.061C958.629 291.295 961.304 289.191 961.547 286.154C961.79 283.116 959.845 280.545 957.17 280.078C954.495 279.844 952.063 281.947 951.577 284.985Z" fill="#A2C0ED"/>
<path d="M940.877 418.657H862.091L854.31 373.087C854.066 371.217 855.525 369.348 857.714 369.348H927.746C930.421 369.348 932.609 371.217 933.096 373.788L940.877 418.657Z" fill="#A2C0ED"/>
<path d="M938.445 418.657H859.659L851.878 373.087C851.635 371.217 853.094 369.348 855.282 369.348H925.314C927.989 369.348 930.178 371.217 930.664 373.788L938.445 418.657Z" fill="url(#paint16_linear_0_1)"/>
<path d="M899.295 392.717C898.323 388.978 895.405 386.173 892.487 386.641C889.569 387.108 887.867 390.614 888.839 394.586C889.812 398.325 892.73 401.13 895.648 400.662C898.566 400.195 900.268 396.69 899.295 392.717Z" fill="#ABD1FF"/>
<path opacity="0.75" d="M982.46 333.359C978.812 325.881 969.329 322.843 958.629 319.104L955.711 353.69C956.927 369.348 963.006 392.249 963.006 392.249L930.179 416.086C929.449 416.553 928.963 416.787 928.963 416.787C928.477 416.787 925.316 415.151 923.613 415.385C921.911 415.619 919.966 415.852 919.966 416.32C919.966 416.787 922.641 417.021 922.641 417.488C922.641 417.955 920.938 419.124 920.209 419.124C919.479 419.124 914.616 418.89 914.373 419.124C914.13 419.358 915.346 421.461 916.562 422.629C917.291 423.097 919.236 424.031 920.695 424.031C924.1 424.031 928.963 422.863 929.693 422.396C930.179 421.928 931.638 421.227 932.854 420.526L934.069 422.396C934.069 422.396 978.812 418.89 992.429 413.048C992.429 392.016 992.429 345.745 982.46 333.359Z" fill="url(#paint17_linear_0_1)"/>
<path d="M932.853 414.217C932.853 414.217 929.205 416.32 928.719 416.32C928.233 416.32 925.072 414.918 923.369 415.151C921.667 415.385 919.722 415.385 919.722 416.086C919.722 416.553 922.397 416.553 922.397 417.021C922.397 417.488 920.694 418.423 919.965 418.423C919.236 418.423 914.372 418.189 914.129 418.423C913.886 418.657 915.102 420.526 916.318 421.461C917.047 421.928 918.992 422.629 920.451 422.629C923.856 422.629 928.719 421.695 929.449 421.227C930.664 420.526 935.771 418.423 935.771 418.423" fill="#FC8975"/>
<path d="M954.739 313.729C954.739 313.729 977.839 315.131 988.782 335.463C999.724 355.794 996.32 399.494 989.511 405.804C982.703 412.113 931.881 420.059 931.881 420.059L929.936 415.619L965.924 394.119C965.924 394.119 954.739 358.131 954.739 343.642" fill="url(#paint18_linear_0_1)"/>
<path d="M940.877 317.234C942.579 318.87 943.309 321.207 944.768 324.245C952.306 321.908 954.737 313.729 954.737 313.729L951.576 310.224C951.819 310.457 945.74 316.3 940.877 317.234Z" fill="url(#paint19_linear_0_1)"/>
<path d="M940.877 317.234C939.418 318.637 937.959 320.74 936.986 323.31C935.041 321.441 933.582 314.664 933.825 313.963C934.798 312.561 936.986 309.99 936.986 309.99C936.986 309.99 937.473 313.963 940.877 317.234Z" fill="url(#paint20_linear_0_1)"/>
<path d="M270.954 662.864C270.954 662.864 255.148 667.538 255.148 671.043C255.148 673.146 278.492 672.445 279.951 671.277C282.14 669.174 278.249 662.63 278.249 662.63L270.954 662.864Z" fill="#352E73"/>
<path d="M270.953 653.283V663.331C270.953 663.331 271.439 664.967 273.871 665.201C276.303 665.434 277.762 663.331 277.762 663.331L278.005 650.712" fill="#FC8975"/>
<path d="M276.303 377.059C265.604 390.38 252.959 428.004 252.959 499.28C252.959 549.757 269.981 655.386 269.981 655.386L279.707 656.087C310.833 467.264 300.376 469.134 308.158 435.716C313.021 414.684 303.051 361.636 303.051 361.636" fill="url(#paint21_linear_0_1)"/>
<path opacity="0.35" d="M301.835 495.775C301.835 495.775 295.026 460.02 295.026 452.542C292.108 467.264 292.108 486.193 295.026 499.514C297.215 509.329 299.403 518.91 299.403 518.91L301.835 495.775Z" fill="url(#paint22_linear_0_1)"/>
<path d="M269.494 652.815V656.788C269.494 656.788 279.707 658.424 279.707 657.723C279.707 657.022 280.193 653.049 280.193 653.049L269.494 652.815Z" fill="#75A1E9"/>
<path d="M355.819 662.864C355.819 662.864 371.625 667.538 371.625 671.043C371.625 673.146 348.281 672.445 346.822 671.277C344.634 669.174 348.524 662.63 348.524 662.63L355.819 662.864Z" fill="#352E73"/>
<path d="M354.116 653.283L355.818 663.331C355.818 663.331 355.332 664.967 352.9 665.201C350.469 665.434 349.01 663.331 349.01 663.331L347.064 650.712" fill="#FC8975"/>
<path d="M327.854 371.217C338.31 388.277 357.034 423.33 357.034 494.84C357.034 545.317 355.575 655.619 355.575 655.619L347.308 656.321C320.559 584.344 298.188 492.269 292.838 438.754C290.65 417.254 294.784 361.636 294.784 361.636" fill="url(#paint23_linear_0_1)"/>
<path opacity="0.35" d="M329.071 373.087C319.587 370.282 306.7 367.478 294.541 365.141C294.541 365.608 294.541 366.076 294.541 366.543L276.304 377.059C274.115 379.864 271.927 383.603 269.738 388.277C275.088 390.38 282.869 392.483 293.325 393.418C308.402 394.82 327.369 391.782 337.095 387.575C334.177 381.733 331.502 377.059 329.071 373.087Z" fill="url(#paint24_linear_0_1)"/>
<path d="M357.277 652.114V656.087C357.277 656.087 346.578 657.723 346.578 657.022C346.578 656.32 346.092 652.348 346.092 652.348L357.277 652.114Z" fill="#75A1E9"/>
<path d="M411.504 333.593L414.908 331.723C414.908 331.723 415.395 329.386 416.854 327.049C417.583 325.881 419.528 323.077 420.015 323.077C420.744 323.077 419.285 325.881 419.528 325.881C419.772 325.881 424.392 321.207 425.121 321.908C425.608 322.142 421.231 326.582 421.231 326.582C421.231 326.582 425.851 321.674 426.337 322.142C426.823 322.609 422.203 327.283 422.203 327.283C422.203 327.283 426.58 322.843 427.067 323.31C427.553 323.778 423.176 327.984 423.176 327.984C423.176 327.984 427.067 324.245 427.31 324.712C427.553 325.413 425.364 328.218 421.474 331.723C420.744 332.424 418.313 334.294 418.069 334.294C417.826 334.527 414.179 338.266 414.179 338.266" fill="#FC8975"/>
<path d="M419.528 326.582C419.528 327.75 419.771 328.919 419.284 329.854C419.041 331.022 418.068 331.723 417.339 332.658C417.096 332.892 417.339 333.125 417.582 332.892C420.014 331.49 420.257 329.153 419.771 326.582C419.771 326.348 419.528 326.348 419.528 326.582Z" fill="#CC6658"/>
<path d="M186.332 270.496L183.9 267.458C183.9 267.458 184.387 265.121 184.144 262.317C184.144 261.148 183.414 257.643 182.685 257.409C182.198 257.176 182.198 260.214 181.955 260.214C181.712 260.214 179.523 254.138 178.551 254.371C178.064 254.371 180.253 260.214 180.253 260.214C180.253 260.214 178.064 253.904 177.335 254.138C176.605 254.371 179.037 260.447 179.037 260.447C179.037 260.447 176.849 254.839 176.362 255.072C175.633 255.306 177.821 260.915 177.821 260.915C177.821 260.915 175.876 256.007 175.39 256.241C174.903 256.708 175.876 260.214 177.821 264.887C178.064 265.822 179.767 268.393 179.767 268.627C179.767 268.86 181.712 273.768 181.712 273.768" fill="#FC8975"/>
<path d="M181.711 260.915C180.252 263.018 179.523 265.355 181.225 267.692C181.225 267.925 181.711 267.692 181.468 267.458C180.982 266.29 180.739 265.355 180.739 264.186C180.982 263.018 181.468 262.083 181.954 260.915C181.954 260.915 181.711 260.681 181.711 260.915Z" fill="#CC6658"/>
<path d="M413.935 332.191C413.935 332.191 379.162 344.576 371.137 344.576C364.572 344.576 353.386 327.517 338.067 316.066C328.583 308.821 317.641 304.849 317.641 304.849L288.461 304.148C283.111 304.148 272.169 304.849 261.956 306.251C247.366 308.12 233.992 307.419 227.669 304.849C215.511 299.474 184.872 267.925 184.872 267.925C184.872 267.925 181.954 267.224 179.279 269.795C179.279 271.431 195.085 314.43 215.754 327.517C231.074 337.098 253.202 338.5 267.062 338.5C267.062 341.772 267.062 344.109 267.062 347.381C267.062 351.821 261.713 373.32 268.035 379.63C273.871 385.239 296.485 385.94 305.239 385.94C318.37 385.94 331.745 383.836 334.906 379.63C336.608 377.527 336.365 367.478 335.878 358.598C346.334 364.907 355.818 371.217 367.733 371.217C390.348 371.217 416.853 337.332 416.853 337.332L413.935 332.191Z" fill="url(#paint25_linear_0_1)"/>
<path opacity="0.75" d="M336.608 364.907L336.121 358.598L326.395 349.016L336.608 364.907Z" fill="url(#paint26_linear_0_1)"/>
<path opacity="0.75" d="M267.305 338.5C267.305 337.332 269.25 326.582 269.25 324.946C266.332 331.022 261.955 338.5 261.955 338.5H267.305Z" fill="url(#paint27_linear_0_1)"/>
<path d="M312.536 254.605C320.803 259.512 319.344 269.561 322.749 275.871C325.18 280.311 328.828 284.284 329.314 289.659C329.8 295.501 321.776 298.305 317.399 297.604C309.131 296.436 301.836 300.408 293.326 299.474C287.49 298.773 289.678 295.968 286.031 291.762C283.842 289.191 282.626 285.92 282.383 282.648C282.14 279.376 282.626 275.871 283.113 272.599" fill="#F42A73"/>
<path d="M297.458 288.724L295.756 303.213L288.461 304.381C288.461 304.381 293.567 313.262 301.592 313.262C309.616 313.262 317.398 305.082 317.398 305.082L309.373 302.745L306.455 282.414" fill="#FC8975"/>
<path d="M285.543 265.121C285.057 270.029 284.571 274.936 285.787 279.61C287.002 284.284 289.92 288.958 294.54 290.827C296.729 291.762 298.917 291.996 301.349 291.996C305.24 292.229 309.374 291.762 312.292 289.425C315.939 286.854 317.155 282.181 316.912 277.741C316.669 273.534 314.966 269.328 313.264 265.355C311.562 261.616 310.103 257.877 308.401 254.138" fill="#FC8975"/>
<path d="M266.82 284.284C265.118 286.154 263.173 288.023 262.929 290.594C262.686 292.931 264.388 295.501 266.577 296.436C268.522 297.371 270.468 296.904 272.656 296.904C275.088 296.67 277.276 296.67 279.708 297.137C281.653 297.605 283.599 298.306 285.544 298.773C288.462 299.474 291.38 299.942 294.298 299.474C294.784 299.474 295.271 299.241 295.514 298.773C295.757 298.306 295.514 297.605 295.271 297.137C293.568 293.398 293.325 289.192 293.812 285.219C294.055 283.116 294.298 281.013 294.784 279.143C295.27 277.507 296 275.871 296.73 274.236C298.189 271.198 299.891 268.393 301.35 265.355C302.566 262.317 303.538 257.643 307.915 258.345C310.833 258.812 312.049 263.252 313.751 265.823C316.669 262.785 319.83 260.915 313.751 253.671C310.833 249.932 305.727 250.165 301.107 251.1C298.675 250.866 298.675 249.932 296.243 249.698C287.976 249.231 278.978 254.605 275.331 261.85C271.197 269.795 272.17 277.741 266.82 284.284Z" fill="#F42A73"/>
<path d="M295.271 286.854C294.541 286.854 294.055 286.621 293.325 286.621C291.866 286.387 289.921 285.452 288.462 283.583C287.976 282.882 287.732 282.181 287.732 281.713C287.732 281.479 287.976 281.479 287.976 281.479C288.219 281.479 288.219 281.713 288.219 281.713C288.219 282.181 288.462 282.648 288.948 283.349C290.164 284.985 292.109 285.686 293.568 286.153C295.271 286.621 297.216 286.621 298.918 286.387C299.161 286.387 299.161 286.387 299.161 286.621C299.161 286.854 299.161 286.854 298.918 286.854C297.702 287.088 296.486 287.088 295.271 286.854Z" fill="#081466"/>
<path d="M300.133 285.92C299.647 285.686 298.918 285.686 298.431 285.92C296.486 286.387 298.674 288.724 300.377 287.555C300.62 287.555 300.62 287.322 300.62 287.322C301.106 286.854 300.62 286.153 300.133 285.92Z" fill="#081466"/>
<path d="M282.869 268.159C283.355 264.186 284.814 259.746 287.489 256.708C290.65 252.736 295.271 249.464 299.404 249.464C302.809 249.464 304.754 250.165 304.754 250.165C300.377 251.1 296.73 253.203 293.325 256.475C289.921 259.98 287.976 264.654 287.732 269.328" fill="#081466"/>
<path d="M293.326 274.702C293.812 279.143 290.651 283.115 286.517 283.583C282.14 284.05 278.493 280.778 278.006 276.338C277.52 271.898 280.681 267.925 284.815 267.458C289.192 266.991 293.083 270.262 293.326 274.702Z" fill="#081466"/>
<path d="M289.678 275.403C289.921 278.441 287.976 281.012 285.301 281.479C282.626 281.713 279.951 279.61 279.708 276.572C279.465 273.534 281.41 270.963 284.085 270.496C287.003 270.029 289.435 272.365 289.678 275.403Z" fill="#2D4CBA"/>
<defs>
<linearGradient id="paint0_linear_0_1" x1="4.76756" y1="635.245" x2="4.76756" y2="627.368" gradientUnits="userSpaceOnUse">
<stop stop-color="#5382EC"/>
<stop offset="1" stop-color="#78BFFF"/>
</linearGradient>
<linearGradient id="paint1_linear_0_1" x1="27.4183" y1="635.245" x2="27.4183" y2="627.368" gradientUnits="userSpaceOnUse">
<stop stop-color="#5382EC"/>
<stop offset="1" stop-color="#78BFFF"/>
</linearGradient>
<linearGradient id="paint2_linear_0_1" x1="50.0668" y1="635.245" x2="50.0668" y2="627.368" gradientUnits="userSpaceOnUse">
<stop stop-color="#5382EC"/>
<stop offset="1" stop-color="#78BFFF"/>
</linearGradient>
<linearGradient id="paint3_linear_0_1" x1="614.538" y1="708.869" x2="614.538" y2="629.292" gradientUnits="userSpaceOnUse">
<stop offset="0.00510204" stop-color="#FCF5F1"/>
<stop offset="0.4771" stop-color="#FCEFED"/>
<stop offset="1" stop-color="#FCE1E3"/>
</linearGradient>
<linearGradient id="paint4_linear_0_1" x1="520.688" y1="495.791" x2="514.433" y2="253.277" gradientUnits="userSpaceOnUse">
<stop stop-color="#29225E"/>
<stop offset="1" stop-color="#3F368C"/>
</linearGradient>
<linearGradient id="paint5_linear_0_1" x1="495.421" y1="496.471" x2="489.165" y2="253.942" gradientUnits="userSpaceOnUse">
<stop stop-color="#29225E"/>
<stop offset="1" stop-color="#3F368C"/>
</linearGradient>
<linearGradient id="paint6_linear_0_1" x1="532.554" y1="196.239" x2="646.121" y2="139.821" gradientUnits="userSpaceOnUse">
<stop stop-color="#FCC73C"/>
<stop offset="1" stop-color="#FC7A3C"/>
</linearGradient>
<linearGradient id="paint7_linear_0_1" x1="791.828" y1="715.964" x2="509.445" y2="207.032" gradientUnits="userSpaceOnUse">
<stop stop-color="#B3D3F4"/>
<stop offset="1" stop-color="#D3DCED"/>
</linearGradient>
<linearGradient id="paint8_linear_0_1" x1="658.709" y1="614.066" x2="658.709" y2="201.374" gradientUnits="userSpaceOnUse">
<stop stop-color="#FFD5A7"/>
<stop offset="0.372" stop-color="#FFD7AA"/>
<stop offset="0.6545" stop-color="#FFDEB4"/>
<stop offset="0.9067" stop-color="#FFE9C4"/>
<stop offset="1" stop-color="#FFEECC"/>
</linearGradient>
<linearGradient id="paint9_linear_0_1" x1="791.828" y1="715.964" x2="541.145" y2="264.164" gradientUnits="userSpaceOnUse">
<stop stop-color="#CDE8FF"/>
<stop offset="1" stop-color="#EEE7E9"/>
</linearGradient>
<linearGradient id="paint10_linear_0_1" x1="789.042" y1="770.449" x2="538.73" y2="509.988" gradientUnits="userSpaceOnUse">
<stop stop-color="#CDE8FF"/>
<stop offset="1" stop-color="#EEE7E9"/>
</linearGradient>
<linearGradient id="paint11_linear_0_1" x1="498.462" y1="185.351" x2="433.806" y2="248.891" gradientUnits="userSpaceOnUse">
<stop stop-color="#FCC73C"/>
<stop offset="1" stop-color="#FC7A3C"/>
</linearGradient>
<linearGradient id="paint12_linear_0_1" x1="932.753" y1="658.45" x2="932.753" y2="429.406" gradientUnits="userSpaceOnUse">
<stop stop-color="#29225E"/>
<stop offset="1" stop-color="#3F368C"/>
</linearGradient>
<linearGradient id="paint13_linear_0_1" x1="964.014" y1="658.45" x2="964.014" y2="429.406" gradientUnits="userSpaceOnUse">
<stop stop-color="#29225E"/>
<stop offset="1" stop-color="#3F368C"/>
</linearGradient>
<linearGradient id="paint14_linear_0_1" x1="909.603" y1="350.49" x2="909.603" y2="439.022" gradientUnits="userSpaceOnUse">
<stop stop-color="#FCC73C"/>
<stop offset="1" stop-color="#FC7A3C"/>
</linearGradient>
<linearGradient id="paint15_linear_0_1" x1="905.879" y1="338.752" x2="908.004" y2="338.752" gradientUnits="userSpaceOnUse">
<stop stop-color="#FCC73C"/>
<stop offset="1" stop-color="#FC7A3C"/>
</linearGradient>
<linearGradient id="paint16_linear_0_1" x1="929.049" y1="427.852" x2="863.807" y2="359.965" gradientUnits="userSpaceOnUse">
<stop stop-color="#5789EE"/>
<stop offset="1" stop-color="#78BFFF"/>
</linearGradient>
<linearGradient id="paint17_linear_0_1" x1="914.048" y1="371.54" x2="992.227" y2="371.54" gradientUnits="userSpaceOnUse">
<stop stop-color="#FCC73C"/>
<stop offset="1" stop-color="#FC7A3C"/>
</linearGradient>
<linearGradient id="paint18_linear_0_1" x1="962.964" y1="350.49" x2="962.964" y2="426.185" gradientUnits="userSpaceOnUse">
<stop stop-color="#FCC73C"/>
<stop offset="1" stop-color="#FC7A3C"/>
</linearGradient>
<linearGradient id="paint19_linear_0_1" x1="947.813" y1="324.364" x2="947.813" y2="310.342" gradientUnits="userSpaceOnUse">
<stop stop-color="#FCAE3C"/>
<stop offset="1" stop-color="#FC7A3C"/>
</linearGradient>
<linearGradient id="paint20_linear_0_1" x1="937.302" y1="323.265" x2="937.302" y2="309.956" gradientUnits="userSpaceOnUse">
<stop stop-color="#FCAE3C"/>
<stop offset="1" stop-color="#FC7A3C"/>
</linearGradient>
<linearGradient id="paint21_linear_0_1" x1="281.185" y1="656.239" x2="281.185" y2="361.721" gradientUnits="userSpaceOnUse">
<stop stop-color="#29225E"/>
<stop offset="1" stop-color="#3F368C"/>
</linearGradient>
<linearGradient id="paint22_linear_0_1" x1="297.514" y1="518.79" x2="297.514" y2="452.542" gradientUnits="userSpaceOnUse">
<stop stop-color="#29225E"/>
<stop offset="1" stop-color="#3F368C"/>
</linearGradient>
<linearGradient id="paint23_linear_0_1" x1="324.758" y1="656.239" x2="324.758" y2="361.721" gradientUnits="userSpaceOnUse">
<stop stop-color="#29225E"/>
<stop offset="1" stop-color="#3F368C"/>
</linearGradient>
<linearGradient id="paint24_linear_0_1" x1="303.246" y1="393.73" x2="303.246" y2="365.275" gradientUnits="userSpaceOnUse">
<stop stop-color="#29225E"/>
<stop offset="1" stop-color="#3F368C"/>
</linearGradient>
<linearGradient id="paint25_linear_0_1" x1="298.384" y1="305.35" x2="298.384" y2="387.776" gradientUnits="userSpaceOnUse">
<stop stop-color="#FCC73C"/>
<stop offset="1" stop-color="#FC7A3C"/>
</linearGradient>
<linearGradient id="paint26_linear_0_1" x1="331.497" y1="354.089" x2="331.497" y2="365.092" gradientUnits="userSpaceOnUse">
<stop stop-color="#FCC73C"/>
<stop offset="1" stop-color="#FC7A3C"/>
</linearGradient>
<linearGradient id="paint27_linear_0_1" x1="261.824" y1="331.792" x2="269.203" y2="331.792" gradientUnits="userSpaceOnUse">
<stop stop-color="#FCC73C"/>
<stop offset="1" stop-color="#FC7A3C"/>
</linearGradient>
</defs>
</svg>
