<svg width="239" height="167" viewBox="0 0 239 167" fill="none" xmlns="http://www.w3.org/2000/svg">
<g opacity="0.5">
<path d="M0.539524 157.019C3.06279 149.806 15.5017 146.492 26.6986 146.015C37.9153 145.539 46.1751 135.424 56.9581 133.106C67.7411 130.788 69.6138 121.886 83.0186 122.124C94.1367 122.319 185.566 117.922 190.454 121.973C195.343 126.023 199.069 133.951 210.286 133.951C221.502 133.951 227.199 145.387 236.287 148.875C245.355 152.362 254.699 159.986 248.391 164.123C242.063 168.26 164.019 166.918 129.6 166.354C101.312 165.878 -3.16652 167.632 0.539524 157.019Z" fill="#E5C5EF"/>
<path d="M145.312 155.958C140.483 155.958 136.106 155.546 132.617 154.398C126.013 152.211 114.264 152.535 101.826 152.904C88.2433 153.294 74.188 153.683 65.0017 150.911C47.5952 145.647 28.5721 146.037 28.375 146.037V145.712C28.5524 145.691 47.6346 145.301 65.1003 150.586C74.2471 153.359 88.2827 152.969 101.845 152.579C114.304 152.232 126.073 151.886 132.716 154.095C140.187 156.564 151.877 155.546 163.192 154.571C172.851 153.727 182.846 152.86 190.495 154.095C198.656 155.416 209.163 154.636 219.335 153.9C229.842 153.12 239.777 152.405 245.967 154.095L245.888 154.398C239.738 152.709 229.842 153.445 219.354 154.203C209.182 154.94 198.656 155.719 190.455 154.398C182.846 153.185 172.871 154.052 163.212 154.875C157.101 155.416 150.911 155.958 145.312 155.958Z" fill="#E5C5EF"/>
<path d="M155.307 144.109C154.361 144.109 153.552 144.023 152.922 143.785C150.911 143.07 142.079 143.308 130.902 143.611C113.456 144.066 89.5641 144.694 79.7273 141.77C64.0357 137.092 45.5253 138.391 45.3478 138.413L45.3281 138.088C45.5055 138.066 64.0555 136.767 79.8061 141.445C89.5838 144.369 113.456 143.741 130.882 143.286C142.079 143.005 150.931 142.767 152.981 143.481C155.11 144.239 159.131 143.503 164.217 142.572C171.728 141.207 181.072 139.496 189.864 141.445C196.724 142.962 197.335 142.745 199.385 142.073C201.711 141.315 206.028 139.886 223.849 139.799V140.124C206.087 140.211 201.79 141.619 199.464 142.398C197.355 143.091 196.704 143.308 189.805 141.77C181.072 139.864 171.747 141.532 164.257 142.897C160.669 143.546 157.574 144.109 155.307 144.109Z" fill="#E5C5EF"/>
</g>
<path d="M128.654 26.1916C128.654 26.1916 133.681 22.3361 139.161 26.1916C144.642 30.0471 146.731 37.4549 144.385 43.3898C142.039 49.3247 150.772 51.2957 152.29 58.2703C153.808 65.2449 144.09 62.9056 148.426 67.4326C152.744 71.9595 152.98 79.1724 146.909 81.9449C140.837 84.7174 131.335 71.5913 131.335 71.5913L131.197 52.3571L128.654 26.1916Z" fill="#331832"/>
<path d="M121.439 47.2453L122.741 61.0428L127.432 65.938H135.495L135.022 52.3571L133.662 46.1406L121.439 47.2453Z" fill="#331832"/>
<path d="M99.0247 70.7469C99.0247 70.7469 85.5016 37.9967 91.1 21.7299C96.6985 5.48475 129.639 1.88916 129.639 1.88916L128.515 13.8672C128.515 13.8672 113.198 16.1849 107.127 26.4951C103.539 32.6033 109.709 55.1949 109.709 55.1949L99.0247 70.7469Z" fill="#FFB27D"/>
<path d="M201.828 129.208C201.828 129.208 213.518 132.023 219.747 131.157C223.079 130.702 231.082 128.536 228.894 132.803C227.928 134.688 222.152 136.485 219.057 138.067C216.731 139.258 212.986 142.182 210.601 141.142C207.979 140.016 196.092 135.316 196.092 135.316L201.828 129.208Z" fill="#FFB27D"/>
<path d="M117.084 109.193C117.084 109.193 203.978 121.973 207.566 127.085C211.154 132.196 207.704 140.817 201.83 141.424C195.955 142.03 108.568 136.464 108.568 136.464L106.104 109.193H117.084Z" fill="#5D548C"/>
<path d="M106.596 40.249C106.596 40.249 92.3238 46.877 92.4027 57.6855C92.4027 58.9634 95.4188 63.3604 93.0532 70.0534C89.7808 79.2807 120.021 82.3348 126.546 83.5477C134.017 84.9556 141.094 78.1543 141.094 78.1543C141.094 78.1543 136.934 66.7827 125.087 59.2017C123.983 58.4869 122.78 57.967 121.538 57.3606C119.449 56.3209 116.078 55.1512 113.969 54.2415C111.012 52.9852 106.596 40.249 106.596 40.249Z" fill="white"/>
<path d="M109.276 108.522C109.276 108.522 102.397 112.442 95.5167 108.847C84.4183 103.064 59.4222 94.811 48.9152 113.937C38.6842 132.565 54.0603 149.936 111.11 148.16C111.11 148.16 116.748 145.236 115.368 130.117C114.816 124.139 109.276 108.522 109.276 108.522Z" fill="#5D548C"/>
<path d="M83.8465 117.533C83.0185 113.937 80.1996 111.598 80.1602 111.576L80.2981 111.381C80.3179 111.403 83.2157 113.807 84.0633 117.49L83.8465 117.533Z" fill="#020202"/>
<path d="M123.982 58.5518C120.651 60.8261 117.536 60.7178 114.717 59.6132C111.13 58.2269 113.239 54.0898 113.81 54.1765C115.25 54.3714 115.802 53.6999 116.275 52.4003L116.905 50.6675L116.984 50.4509L117.793 48.1983L119.192 44.3211L122.878 34.1191L122.464 45.664L122.386 47.6351L122.129 54.3714C122.051 56.5374 122.642 58.0536 123.982 58.5518Z" fill="#FFB27D"/>
<path d="M122.227 49.3029C122.227 49.3029 120.019 51.339 116.904 50.6675L116.983 50.4509L117.791 48.1982C119.447 48.6531 122.227 49.3029 122.227 49.3029Z" fill="#331832"/>
<path d="M130.993 45.9984C135.409 41.3801 136.215 34.4328 132.792 30.4813C129.37 26.5297 123.015 27.0702 118.598 31.6886C114.182 36.3069 113.376 43.2542 116.799 47.2057C120.221 51.1573 126.576 50.6167 130.993 45.9984Z" fill="#FFB27D"/>
<path d="M123.944 38.0831C123.904 38.0397 123.885 37.9531 123.904 37.8881C123.924 37.7798 124.042 37.6932 124.16 37.7365C124.22 37.7582 125.757 38.0397 125.915 40.0108C125.935 40.1408 125.856 40.2491 125.738 40.2491C125.619 40.2707 125.54 40.1624 125.501 40.0541C125.126 38.8845 124.082 38.1914 124.042 38.1697C124.003 38.148 123.963 38.1264 123.944 38.0831Z" fill="#080435"/>
<path d="M124.337 41.4403C124.376 41.4836 124.416 41.5486 124.416 41.6136C124.416 41.7436 124.317 41.8302 124.199 41.8302C124.14 41.8302 122.582 41.9385 121.991 40.0974C121.951 39.9891 122.011 39.8591 122.109 39.8158C122.208 39.7725 122.306 39.8375 122.365 39.9458C122.977 40.9855 124.14 41.397 124.199 41.397C124.278 41.397 124.317 41.397 124.337 41.4403Z" fill="#080435"/>
<path d="M119.449 37.3468C119.489 37.3901 119.508 37.4768 119.508 37.5417C119.489 37.6717 119.39 37.7367 119.272 37.715C119.213 37.6934 117.655 37.5634 117.32 35.6573C117.3 35.5273 117.36 35.419 117.478 35.3974C117.596 35.3757 117.675 35.4624 117.714 35.5707C118.188 36.697 119.291 37.2818 119.331 37.2818C119.37 37.2818 119.41 37.3035 119.449 37.3468Z" fill="#080435"/>
<path d="M118.7 33.5346C118.661 33.4913 118.621 33.4263 118.621 33.3613C118.621 33.2314 118.72 33.1447 118.838 33.1447C118.897 33.1447 120.454 33.0364 121.046 34.8992C121.085 35.0075 121.026 35.1375 120.928 35.1808C120.829 35.2241 120.73 35.1591 120.671 35.0508C120.06 34.0111 118.897 33.5996 118.838 33.5996C118.779 33.5779 118.739 33.5563 118.7 33.5346Z" fill="#080435"/>
<path d="M120.394 44.8193H120.374C116.904 44.0611 116.195 41.072 116.175 41.0504C116.155 40.9637 116.195 40.8988 116.274 40.8771C116.352 40.8554 116.412 40.8988 116.431 40.9854C116.431 41.0071 117.121 43.8229 120.413 44.5377C120.492 44.5593 120.532 44.6243 120.512 44.711C120.512 44.7759 120.453 44.8193 120.394 44.8193Z" fill="#080435"/>
<path d="M124.791 30.004C124.791 30.004 128.458 33.1447 127.59 36.5453C127.019 38.7763 126.959 41.2889 129.601 41.8521C132.656 42.5019 127.847 47.1588 128.714 49.4115C129.581 51.6858 133.879 50.7977 133.879 50.7977L137.585 37.1735L136.106 32.1483L132.716 28.5527L124.791 30.004Z" fill="#331832"/>
<path d="M129.955 46.2921C128.556 46.4871 127.353 45.664 127.254 44.4294C127.156 43.1947 128.201 42.0467 129.6 41.8518C131 41.6569 132.202 42.4799 132.301 43.7146C132.4 44.9275 131.355 46.0972 129.955 46.2921Z" fill="#FFB27D"/>
<path d="M125.659 30.8701C125.659 30.8701 120.711 29.4839 116.886 33.6426C116.886 33.6426 116.591 27.1229 123.727 25.3251C126.506 24.632 128.458 24.4587 130.548 26.4298C132.006 27.7944 132.696 28.5308 132.696 28.5308L125.659 30.8701Z" fill="#331832"/>
<path d="M98.2177 56.9927C98.2177 56.9927 87.2968 77.6565 86.1731 110.298C85.8774 118.703 138.669 131.677 132.045 111.468C125.579 91.7789 133.267 78.5229 133.267 78.5229L116.511 65.4401L98.2177 56.9927Z" fill="white"/>
<path d="M126.032 12.5891C127.668 13.6721 131.414 15.0367 133.07 16.0764C133.779 16.5313 136.322 17.8742 136.894 17.1811C137.407 16.5746 135.948 14.4952 135.14 13.5855C142.256 13.1306 151.422 9.72997 137.19 9.90325V9.88159C138.412 9.77329 147.421 9.25344 146.849 7.19572C146.435 5.70117 139.043 6.35098 137.012 6.52426C137.012 6.5026 137.012 6.48094 137.012 6.45928C139.062 6.11272 145.272 5.39793 144.957 3.9467C144.543 2.01894 136.539 3.21025 136.539 3.21025C136.539 3.21025 143.182 2.40882 141.921 0.56771C141.211 -0.471979 137.288 0.156166 134.844 0.56771C134.331 0.65435 133.878 0.740991 133.543 0.784311C133.267 0.827632 133.011 0.892612 132.794 0.979253C128.772 1.95396 126.269 3.27523 126.269 3.27523C126.269 3.27523 123.115 4.29326 123.213 7.95383C123.272 10.2931 125.322 12.1126 126.032 12.5891Z" fill="#FFB27D"/>
<path d="M137.408 68.3208C137.408 68.3208 155.406 87.4251 155.406 98.3635C155.406 109.28 135.042 120.912 135.042 120.912L129.365 111.056C129.365 111.056 142.986 99.9013 142.572 97.6054C141.863 93.5333 122.209 74.6672 122.209 74.6672C122.209 74.6672 127.985 71.3099 137.408 68.3208Z" fill="#FFB27D"/>
<path d="M123.982 58.5522C123.982 58.5522 129.876 60.5666 134.864 64.5521C137.801 66.9131 141.31 71.0502 144.385 76.5519C144.385 76.5519 137.209 85.3242 127.609 86.4939C118.009 87.6852 120.69 74.3642 120.69 74.3642L123.982 58.5522Z" fill="white"/>
<path d="M102.949 82.2051C96.6011 80.299 95.6943 76.4002 96.0885 74.624L96.5617 74.754C96.5222 74.9489 95.6154 79.4542 103.087 81.7069L102.949 82.2051Z" fill="#73A0D1"/>
<path d="M126.092 113.786C127.196 117.706 129.66 123.793 134.865 126.413L133.012 130.724C133.012 130.724 123.254 126.392 120.533 114.674L122.682 112.681C123.865 111.62 125.639 112.204 126.092 113.786Z" fill="#F8A26E"/>
<path d="M132.892 126.565C133.542 126.435 134.922 126.478 135.593 126.37C135.888 126.327 136.854 126.218 136.973 126.522C137.071 126.782 136.361 127.28 136.007 127.475C138.293 128.579 140.915 130.919 136.283 128.948C136.677 129.143 139.575 130.529 139.161 131.114C138.865 131.547 136.499 130.356 135.869 130.031V130.052C136.499 130.442 138.451 131.504 138.195 131.937C137.84 132.5 135.356 131.049 135.356 131.049C135.356 131.049 137.446 132.197 136.835 132.63C136.48 132.868 135.277 132.153 134.508 131.677C134.351 131.59 134.213 131.504 134.114 131.439C134.035 131.395 133.956 131.33 133.897 131.265C132.675 130.421 132.005 129.641 132.005 129.641C132.005 129.641 131.078 128.883 131.512 127.691C131.729 126.933 132.596 126.608 132.892 126.565Z" fill="#F8A26E"/>
<path d="M144.543 132.868C144.543 132.868 146.928 133.107 148.131 132.132C149.333 131.157 151.837 129.316 152.211 130.551C152.606 131.807 151.285 135.944 149.984 136.334C148.663 136.724 145.016 136.334 145.016 136.334L144.543 132.868Z" fill="#E3EEEC"/>
<path d="M123.154 128.081C123.154 128.081 145.489 129.987 147.047 131.46C147.776 132.153 148.348 137.633 144.129 138.153C138.136 138.89 119.153 138.738 117.99 137.005C116.827 135.294 121.853 127.995 123.154 128.081Z" fill="#764678"/>
<path d="M138.826 138.283C138.826 138.283 141.172 138.846 142.473 138.045C143.774 137.244 146.455 135.749 146.711 137.049C146.948 138.348 145.174 142.269 143.833 142.464C142.493 142.659 138.905 141.771 138.905 141.771L138.826 138.283Z" fill="#E3EEEC"/>
<path d="M117.32 130.551C117.32 130.551 139.261 135.532 140.641 137.222C141.291 138.002 141.232 143.525 136.974 143.46C130.942 143.352 112.136 140.579 111.17 138.695C110.204 136.832 116.039 130.291 117.32 130.551Z" fill="#764678"/>
<path d="M107.719 132.63C107.581 131.937 106.458 108.609 113.042 108.912C119.666 109.215 122.839 108.804 123.49 110.082C125.501 114.024 131.375 128.081 129.818 130.377C128.28 132.673 108.429 136.009 107.719 132.63Z" fill="#366F90"/>
<path d="M112.746 109.584C112.746 109.584 101.569 109.41 96.936 101.266L93.2891 103.844C93.2891 103.844 98.4539 113.916 109.375 115.367L112.746 109.584Z" fill="#FFB27D"/>
<path d="M97.0545 103.453C97.0939 102.717 96.8771 101.222 96.8968 100.486C96.9165 100.161 96.8771 99.0781 96.5814 98.9914C96.3251 98.9265 95.9703 99.7495 95.852 100.183C94.5706 97.8435 92.1262 95.2659 94.4918 100.074C94.2552 99.6846 92.6585 96.6955 92.1657 97.2153C91.8108 97.6052 93.1907 100.009 93.5653 100.659C93.5653 100.659 93.5456 100.659 93.5456 100.681C93.1119 100.053 91.9094 98.0384 91.5546 98.385C91.0814 98.8398 92.7176 101.374 92.7176 101.374C92.7176 101.374 91.4166 99.2514 91.1012 99.9662C90.9237 100.378 91.732 101.612 92.2445 102.37C92.3431 102.522 92.4416 102.674 92.5205 102.782C92.5796 102.869 92.6388 102.934 92.6979 102.999C93.6244 104.212 94.3932 104.861 94.3932 104.861C94.3932 104.861 95.1817 105.771 96.2068 105.143C96.8573 104.753 97.0545 103.757 97.0545 103.453Z" fill="#FFB27D"/>
<path d="M115.92 108.825C115.92 108.825 110.164 109.389 108.41 107.894C106.655 106.378 105.689 106.811 105.985 107.894C106.281 108.977 105.867 109.583 105.118 109.843C104.369 110.103 105.137 111.165 105.118 111.944C105.098 112.724 103.067 112.551 103.383 113.699C103.698 114.825 104.171 115.713 103.856 115.887C103.541 116.06 106.005 115.627 106.931 116.233C107.838 116.84 107.937 120.933 107.937 120.933L116.216 115.323L116.61 109.562L115.92 108.825Z" fill="#366F90"/>
<path d="M115.919 106.572C115.919 106.572 116.175 109.15 115.919 109.692C115.663 110.255 116.372 111.186 117.674 111.034C118.994 110.861 118.699 109.54 118.442 108.803C118.186 108.067 117.614 105.403 117.614 105.403L115.919 106.572Z" fill="#FFB27D"/>
<path d="M115.979 107.526C115.979 107.526 117.161 107.937 118.167 107.851L117.891 106.464L115.979 107.526Z" fill="#331832"/>
<path d="M120.631 102.761C120.631 102.761 123.253 98.342 120.374 94.7897C117.496 91.2374 115.426 91.2374 114.007 91.3457C113.14 91.4107 112.154 91.4757 111.366 91.8656C110.538 92.2771 110.321 93.0352 109.651 93.5984C109.335 93.8583 108.231 94.0966 107.936 94.3132C105.905 95.7427 106.792 97.6705 106.221 99.6632C105.117 103.627 107.995 106.183 109.591 106.941C111.168 107.699 113.179 108.349 115.643 107.331C118.107 106.291 120.631 102.761 120.631 102.761Z" fill="#331832"/>
<path d="M116.015 107.511C119.241 107.139 121.6 104.147 121.283 100.828C120.967 97.5084 118.094 95.119 114.868 95.4908C111.641 95.8626 109.282 98.8548 109.599 102.174C109.916 105.493 112.788 107.883 116.015 107.511Z" fill="#FFB27D"/>
<path d="M114.499 101.591C114.539 101.547 114.539 101.504 114.539 101.461C114.519 101.374 114.46 101.309 114.381 101.331C114.342 101.331 113.258 101.396 112.982 102.739C112.962 102.825 113.001 102.912 113.08 102.934C113.159 102.955 113.218 102.89 113.258 102.825C113.612 102.046 114.381 101.677 114.421 101.656C114.46 101.634 114.48 101.612 114.499 101.591Z" fill="#080435"/>
<path d="M114.303 103.692C114.461 104.017 114.776 104.19 114.993 104.06C115.21 103.93 115.249 103.562 115.091 103.237C114.934 102.912 114.618 102.739 114.402 102.869C114.185 102.999 114.145 103.367 114.303 103.692Z" fill="#080435"/>
<path d="M119.31 99.5113C119.35 99.4896 119.389 99.4463 119.389 99.403C119.409 99.3163 119.369 99.2297 119.29 99.208C119.251 99.1864 118.226 98.7965 117.497 99.9228C117.457 99.9878 117.457 100.096 117.536 100.139C117.595 100.183 117.674 100.161 117.733 100.096C118.325 99.5329 119.172 99.4896 119.212 99.5113C119.251 99.5329 119.271 99.5329 119.31 99.5113Z" fill="#080435"/>
<path d="M118.383 101.374C118.422 101.742 118.639 102.024 118.895 102.002C119.151 101.981 119.309 101.656 119.289 101.288C119.25 100.919 119.033 100.638 118.777 100.659C118.521 100.681 118.363 101.006 118.383 101.374Z" fill="#080435"/>
<path d="M109.79 105.533C110.638 105.425 111.229 104.753 111.131 104.039C111.032 103.324 110.263 102.804 109.435 102.912C108.588 103.021 107.996 103.692 108.095 104.407C108.193 105.143 108.942 105.641 109.79 105.533Z" fill="#FFB27D"/>
<path d="M115.053 94.5078C115.053 94.5078 118.326 94.7027 119.725 96.2189C121.144 97.7351 117.636 97.1936 117.103 98.2983C116.551 99.403 116.157 98.3633 114.521 99.1214C112.885 99.8578 113.496 101.699 112.116 101.634C110.736 101.591 108.489 102.522 108.035 102.089C107.582 101.677 109.317 94.4428 115.053 94.5078Z" fill="#331832"/>
<path d="M115.428 104.927C115.428 104.927 117.774 104.342 119.548 102.782C119.548 102.761 119.252 107.504 115.428 104.927Z" fill="white"/>
<path d="M107.581 95.4176C107.581 95.4176 105.965 92.71 104.25 93.7931C102.535 94.8761 102.83 92.8617 101.49 92.905C100.149 92.9483 100.938 95.071 99.8538 95.4176C98.7696 95.7641 98.4344 96.3706 99.085 97.6702C99.7355 98.9698 101.234 97.2154 101.51 99.1431C101.786 101.071 103.047 101.439 103.678 100.464C104.309 99.468 103.934 98.0601 104.861 99.5547C105.787 101.049 107.581 95.4176 107.581 95.4176Z" fill="#331832"/>
<path d="M111.799 94.2913C111.799 94.2913 109.985 91.7354 111.484 90.3059C112.982 88.8763 111.148 88.5297 111.622 87.1651C112.095 85.8006 113.672 87.2951 114.322 86.2987C114.973 85.3024 115.604 85.1508 116.51 86.2338C117.417 87.3384 115.426 88.3131 116.983 89.2445C118.541 90.1759 118.462 91.5838 117.397 91.9304C116.333 92.2553 115.249 91.4105 116.234 92.8618C117.24 94.2697 111.799 94.2913 111.799 94.2913Z" fill="#331832"/>
<path d="M120.336 109.128C120.336 109.128 124.141 109.172 125.777 110.168C128.103 111.576 130.311 113.114 129.778 113.829C129.246 114.543 128.221 113.894 128.103 114.608C127.985 115.323 127.866 116.146 126.348 115.908C124.83 115.67 125.185 114.673 124.83 115.67C124.456 116.645 120.336 109.128 120.336 109.128Z" fill="#366F90"/>
<path d="M140.916 138.283C140.896 138.283 140.896 138.283 140.916 138.283C140.857 138.261 140.817 138.218 140.837 138.175C141.29 135.316 129.305 132.76 129.167 132.716C129.127 132.716 129.088 132.651 129.088 132.608C129.088 132.565 129.127 132.521 129.167 132.521H129.186C129.679 132.63 141.468 135.142 140.995 138.196C140.995 138.261 140.955 138.283 140.916 138.283Z" fill="#331832"/>
<path d="M115.703 136.03C115.703 136.03 123.667 136.81 127.333 139.019C131 141.25 128.792 146.102 121.163 145.582C113.554 145.063 114.185 143.828 114.185 143.828C114.185 143.828 115.821 139.561 115.703 136.03Z" fill="#FFB27D"/>
<path d="M111.11 148.333C54.08 150.088 38.7038 132.738 48.9349 114.11C50.8864 110.536 53.3703 107.915 56.1498 106.074L115.308 129.749C115.328 129.944 115.348 130.117 115.368 130.29C116.728 145.431 111.11 148.333 111.11 148.333Z" fill="#5D548C"/>
<path d="M111.168 148.268L111.05 148.073C117.043 143.351 115.426 131.243 115.288 130.225L76.375 114.587L76.4539 114.37L115.486 130.074L115.505 130.139C115.486 130.225 117.496 143.265 111.168 148.268Z" fill="#020202"/>
<path d="M133.681 110.146C131.828 110.125 128.082 111.034 126.229 111.056C125.421 111.078 122.7 111.316 122.523 112.226C122.365 113.006 124.534 113.959 125.618 114.283C119.881 118.529 113.751 126.37 125.559 118.464V118.486C124.593 119.244 117.299 124.594 118.679 126.002C119.704 127.041 125.598 122.449 127.195 121.215C127.215 121.236 127.215 121.236 127.234 121.258C125.677 122.666 120.808 126.651 121.734 127.691C122.957 129.077 129.107 123.727 129.107 123.727C129.107 123.727 123.923 128.016 125.795 128.861C126.86 129.337 129.856 126.695 131.709 125.005C132.104 124.659 132.439 124.334 132.695 124.117C132.912 123.922 133.089 123.727 133.227 123.532C136.184 120.522 137.682 118.074 137.682 118.074C137.682 118.074 139.87 115.518 138.136 112.486C137.032 110.58 134.489 110.168 133.681 110.146Z" fill="#FFB27D"/>
<path d="M152.093 78.1331C152.073 78.1331 152.053 78.1331 152.034 78.1114C151.974 78.0681 151.974 78.0031 152.014 77.9381C153.236 76.0104 153.67 74.2342 153.335 72.6747C153.019 71.2235 152.034 69.9888 150.378 69.0141C147.46 67.2813 146.672 64.9853 146.652 64.8987C146.632 64.8337 146.652 64.7687 146.711 64.7471C146.77 64.7471 146.829 64.7687 146.849 64.8337C146.849 64.8554 147.638 67.1297 150.476 68.8192C152.172 69.8372 153.216 71.1152 153.532 72.653C153.887 74.2775 153.433 76.1187 152.172 78.1114C152.152 78.1114 152.112 78.1331 152.093 78.1331Z" fill="#331832"/>
</svg>
