<svg width="715" height="359" viewBox="0 0 715 359" fill="none" xmlns="http://www.w3.org/2000/svg">
<path opacity="0.5" d="M570.071 128.898C568.726 135.865 566.554 142.739 563.708 149.404C559.535 159.224 553.965 168.552 547.533 177.011C537.893 189.72 523.339 202.787 525.201 219.838C526.684 233.415 538.738 243.536 544.998 255.829C552.999 271.54 550.585 291.48 539.255 305.17C538.772 305.755 538.255 306.341 537.738 306.907C534.254 310.703 530.099 313.988 527.236 318.218C520.459 328.283 523.132 343.049 533.065 350.414L302.694 347.223L153.614 345.164C163.237 344.296 172.032 337.668 175.101 329C179.033 317.878 174.48 310.948 167.427 305.189C165.565 303.659 163.53 302.224 161.426 300.808C157.322 298.032 152.959 295.351 149.183 292.33C148.596 291.858 148.01 291.367 147.441 290.876C144.906 288.666 142.733 286.155 140.871 283.455C139.026 280.792 137.456 277.941 136.128 274.976C135.094 272.654 134.197 270.293 133.404 267.876C132.99 266.63 132.628 265.384 132.266 264.137C127.903 248.502 127.178 231.734 132.007 216.212C132.697 214.022 133.473 211.869 134.352 209.773C141.336 193.043 154.166 179.013 167.79 166.588C183.103 152.615 198.985 139.434 203.055 118.55C206.021 103.254 201.399 86.7319 207.642 72.3242C215.195 54.8952 236.647 46.3034 256.53 45.5859C276.413 44.8683 295.951 50.1933 315.748 52.1194C332.199 53.7244 352.255 53.2146 365.844 43.2633C371.069 39.43 375.587 34.8037 380.553 30.6683C398.143 16.0907 418.629 19.0175 439.84 24.2103C463.741 30.0829 488.332 35.9744 511.612 43.7165C530.012 49.8345 547.998 59.2194 559.156 74.2691C570.71 89.8664 573.641 110.166 570.02 128.879L570.071 128.898Z" fill="#A2C4E6"/>
<path opacity="0.7" d="M545.014 255.826C552.826 271.159 550.722 290.533 540.047 304.185C539.564 304.808 538.806 305.167 537.978 305.167H168.374C167.771 305.167 167.185 304.96 166.719 304.601C160.752 299.88 153.182 295.877 147.457 290.873C139.49 283.905 135.058 274.048 132.299 264.153C127.936 248.518 127.212 231.75 132.04 216.228C132.558 214.586 133.127 212.962 133.747 211.357C134.11 210.412 135.075 209.789 136.144 209.789H151.958C153.372 209.789 154.51 208.713 154.51 207.391V193.342C154.51 192.02 155.648 190.944 157.062 190.944H178.238C179.652 190.944 180.791 192.02 180.791 193.342V200.895C180.791 202.217 181.929 203.294 183.343 203.294H193.034C194.448 203.294 195.586 202.217 195.586 200.895V173.572C195.586 172.25 196.725 171.174 198.139 171.174H215.952C217.366 171.174 218.505 172.25 218.505 173.572V184.864C218.505 186.186 219.643 187.262 221.057 187.262H227.903C229.317 187.262 230.455 188.338 230.455 189.66V196.137C230.455 197.459 231.593 198.535 233.007 198.535H264.824C266.238 198.535 267.376 197.459 267.376 196.137V185.997C267.376 184.675 268.514 183.599 269.928 183.599H286.621C288.035 183.599 289.173 184.675 289.173 185.997V188.546C289.173 189.868 290.311 190.944 291.725 190.944H371.395C372.809 190.944 373.947 189.868 373.947 188.546V176.952C373.947 175.63 375.085 174.554 376.5 174.554H444.547C445.961 174.554 447.099 173.477 447.099 172.156V159.334C447.099 158.012 448.237 156.936 449.651 156.936H469.172C470.586 156.936 471.724 158.012 471.724 159.334V164.697C471.724 166.019 472.862 167.095 474.276 167.095H480.812C482.226 167.095 483.364 168.171 483.364 169.493V175.97C483.364 177.292 484.502 178.368 485.917 178.368H487.693C489.107 178.368 490.245 177.292 490.245 175.97V148.136C490.245 146.815 491.383 145.738 492.797 145.738H504.196C505.61 145.738 506.748 146.815 506.748 148.136V157.125C506.748 158.447 507.886 159.523 509.3 159.523H516.819C518.233 159.523 519.371 160.599 519.371 161.921V168.058C519.371 169.38 520.509 170.456 521.923 170.456H535.064C536.478 170.456 537.616 169.38 537.616 168.058V151.8C537.616 150.478 538.754 149.402 540.168 149.402H559.844C561.689 149.402 562.914 151.177 562.189 152.763C558.223 161.355 553.188 169.531 547.514 177.009C537.875 189.717 523.32 202.784 525.182 219.835C526.666 233.412 538.719 243.533 544.979 255.826H545.014Z" fill="url(#paint0_linear_0_1)"/>
<path d="M556.138 201.897C559.139 206.844 563.795 209.979 569.106 211.036C571.262 206.372 570.434 200.651 566.657 195.477C562.881 190.303 557.311 186.885 552.258 185.922C552.12 191.171 553.138 196.95 556.138 201.916V201.897Z" fill="#593422"/>
<path d="M544.792 226.239C546.431 230.771 550.621 233.792 556.07 234.869C559.778 230.677 561.002 225.559 558.967 220.895C556.932 216.231 552.259 213.078 546.948 212.039C544.292 216.552 543.154 221.688 544.792 226.239Z" fill="#593422"/>
<path d="M527.291 248.749C528.533 253.167 532.689 256.17 538.155 257.265C542.139 253.148 544.104 248.258 542.828 243.82C541.552 239.383 537.362 236.38 531.895 235.285C527.998 239.421 526.032 244.33 527.291 248.749Z" fill="#593422"/>
<path d="M510.354 271.424C512.182 276.031 516.734 279.128 522.098 280.186C525.064 275.767 526.443 270.706 524.943 266.193C523.46 261.699 519.304 258.697 513.837 257.602C509.992 261.756 508.526 266.798 510.354 271.405V271.424Z" fill="#593422"/>
<path d="M500.68 296.255C504.078 301.315 509.458 304.677 514.562 305.659C515.252 300.56 514.7 294.933 512.01 290.061C509.32 285.208 504.785 282.093 499.439 281.035C496.921 285.586 497.283 291.175 500.68 296.236V296.255Z" fill="#593422"/>
<path d="M580.765 222.464C575.143 224.843 568.918 224.768 564.072 222.785C566.09 218.083 569.832 213.721 574.85 211.153C579.886 208.585 585.404 208.472 590.439 210.492C589.956 215.647 586.37 220.066 580.765 222.445V222.464Z" fill="#593422"/>
<path d="M586.387 193.12C581.593 195.159 576.281 195.083 572.143 193.403C573.867 189.4 577.057 185.661 581.351 183.47C585.645 181.28 590.353 181.186 594.664 182.904C594.25 187.304 591.198 191.08 586.404 193.12H586.387Z" fill="#593422"/>
<path d="M565.641 245.683C559.122 247.798 552.638 247.647 547.861 245.683C550.827 241.265 555.984 237.318 562.278 235.128C568.572 232.937 574.797 233.032 579.626 234.996C577.246 239.584 572.142 243.55 565.623 245.665L565.641 245.683Z" fill="#593422"/>
<path d="M547.568 268.024C541.119 270.158 534.807 270.063 529.996 268.099C532.617 263.586 537.877 259.659 544.464 257.563C551.052 255.467 557.536 255.618 562.295 257.563C559.295 261.962 554.001 265.871 547.551 268.024H547.568Z" fill="#593422"/>
<path d="M533.273 291.478C527.875 293.933 522.167 294.008 517.184 291.988C518.184 286.984 522.219 282.716 528.117 280.394C534.014 278.09 540.343 278.203 545.154 280.167C542.809 284.774 538.653 289.004 533.256 291.478H533.273Z" fill="#593422"/>
<path d="M518.08 326.147C517.615 326.015 517.063 325.448 516.873 324.901C496.594 266.364 582.696 239.399 569.728 183.033C569.607 182.504 569.883 182.183 570.366 182.334C570.849 182.466 571.332 183.014 571.453 183.543C584.42 239.909 498.335 266.873 518.598 325.411C518.787 325.958 518.563 326.298 518.098 326.147H518.08Z" fill="#D5782A"/>
<path d="M571.262 173.686C573.435 178.199 573.349 183.184 571.555 187.074C567.296 185.45 563.33 182.448 561.002 178.426C558.674 174.385 558.553 169.966 560.398 165.906C565.071 166.284 569.089 169.173 571.262 173.667V173.686Z" fill="#593422"/>
<path d="M550.239 296.031C540.1 291.102 521.665 312.175 528.391 299.845C535.133 287.514 558.138 279.281 551.188 267.952C544.256 256.622 531.857 276.468 527.028 265.912C522.2 255.338 543.29 240.892 545.877 226.654C548.481 212.417 527.08 236.039 529.184 220.555C530.546 210.491 525.666 203.07 522.079 199.123C520.182 197.027 516.82 196.744 514.543 198.481C510.267 201.767 504.041 208.244 503.472 218.384C502.593 233.981 486.038 207.129 485.883 221.575C485.728 236.02 503.714 253.789 496.971 263.363C490.211 272.956 481.796 251.335 472.811 261.324C463.827 271.294 484.9 283.266 489.194 296.522C493.47 309.777 479.347 285.947 468.431 289.082C457.515 292.216 475.036 341.274 504.421 343.767C533.805 346.259 560.362 300.921 550.222 296.012L550.239 296.031Z" fill="#E88A3F"/>
<path d="M516.907 214.891C516.752 225.711 516.166 236.493 515.441 247.256L515.183 251.297L514.872 255.338L514.252 263.401L512.82 279.527C512.269 284.89 511.751 290.271 511.165 295.634L510.251 303.678L509.785 307.7L509.285 311.723C507.957 322.448 506.474 333.136 504.577 343.824H504.336L510.389 279.338L516.683 214.891H516.925H516.907Z" fill="#593422"/>
<path d="M508.887 296.693C506.404 295.145 504.179 293.388 502.024 291.538C499.868 289.706 497.833 287.761 495.885 285.76C493.936 283.758 492.056 281.681 490.314 279.51C488.556 277.338 486.883 275.091 485.469 272.636L485.624 272.504L488.59 275.487L491.522 278.49L497.402 284.476L503.231 290.518L506.145 293.54L509.042 296.58L508.887 296.712V296.693Z" fill="#593422"/>
<path d="M513.457 248.898C511.457 247.671 509.732 246.236 508.111 244.725C506.473 243.233 504.956 241.628 503.524 239.966C502.093 238.305 500.748 236.586 499.541 234.755C498.316 232.942 497.178 231.054 496.299 228.977L496.454 228.863L498.644 231.318L500.8 233.792L505.111 238.739L509.37 243.743L511.509 246.236L513.612 248.747L513.457 248.86V248.898Z" fill="#593422"/>
<path d="M505.542 331.589C503.059 330.097 500.834 328.398 498.679 326.604C496.523 324.829 494.488 322.94 492.54 320.995C490.591 319.032 488.711 317.011 486.953 314.877C485.176 312.762 483.504 310.553 482.072 308.136L482.227 308.004L485.194 310.912L488.142 313.839L494.04 319.674L499.886 325.565L502.8 328.511L505.697 331.475L505.542 331.608V331.589Z" fill="#593422"/>
<path d="M509.715 296.619C511.577 294.429 513.647 292.503 515.802 290.671C517.941 288.821 520.165 287.102 522.476 285.46C524.787 283.817 527.149 282.249 529.615 280.814C532.064 279.36 534.599 278.001 537.341 276.887L537.461 277.038L534.047 279.549L530.615 282.023L523.735 286.989L516.82 291.899L513.354 294.353L509.87 296.789L509.749 296.638L509.715 296.619Z" fill="#E88A3F"/>
<path d="M514.302 248.825C515.544 246.918 517.027 245.256 518.579 243.689C520.114 242.102 521.769 240.63 523.494 239.232C525.218 237.854 527.012 236.532 528.909 235.323C530.805 234.115 532.771 232.982 534.961 232.113L535.099 232.264L532.547 234.379L529.978 236.475L524.839 240.667L519.648 244.822L517.044 246.899L514.423 248.957L514.285 248.806L514.302 248.825Z" fill="#593422"/>
<path d="M506.369 331.511C508.232 329.377 510.301 327.489 512.457 325.695C514.595 323.901 516.819 322.22 519.113 320.615C521.406 319.029 523.769 317.518 526.235 316.121C528.684 314.724 531.201 313.402 533.926 312.363L534.047 312.514L530.632 314.95L527.201 317.348L520.337 322.164L513.422 326.922L509.973 329.301L506.507 331.662L506.386 331.511H506.369Z" fill="#E88A3F"/>
<path d="M305.814 272.312V343.047C305.814 344.973 304.521 346.597 302.71 347.221L153.631 345.162C163.253 344.294 172.048 337.666 175.117 328.998C179.049 317.876 174.497 310.946 167.443 305.187C165.581 303.658 163.546 302.222 161.442 300.806C157.338 298.03 152.975 295.349 149.199 292.328C148.612 291.856 148.026 291.365 147.457 290.874C144.922 288.664 142.749 286.153 140.887 283.453C139.042 280.79 137.472 277.939 136.144 274.974C135.11 272.652 134.213 270.291 133.42 267.874H162.839C165.443 267.874 167.547 265.892 167.547 263.437V241.57C167.547 239.116 169.668 237.133 172.255 237.133H209.348C211.952 237.133 214.056 239.116 214.056 241.57V248.066C214.056 250.521 216.177 252.504 218.763 252.504H228.817C231.421 252.504 233.525 254.486 233.525 256.941V263.437C233.525 265.892 235.646 267.874 238.233 267.874H301.02C303.624 267.874 305.728 269.857 305.728 272.312H305.814Z" fill="#E88A3F"/>
<path d="M193.518 217.703V221.574C193.518 222.065 193.087 222.481 192.57 222.481H187.5C186.965 222.481 186.551 222.084 186.551 221.574V217.703C186.551 217.212 186.12 216.797 185.603 216.797H181.171C180.637 216.797 180.223 217.193 180.223 217.703V233.225C180.223 233.716 180.654 234.131 181.171 234.131H185.603C186.138 234.131 186.551 233.735 186.551 233.225V229.354C186.551 228.863 186.982 228.448 187.5 228.448H192.57C193.104 228.448 193.518 228.844 193.518 229.354V233.225C193.518 233.716 193.949 234.131 194.467 234.131H198.898C199.433 234.131 199.847 233.735 199.847 233.225V217.703C199.847 217.212 199.416 216.797 198.898 216.797H194.467C193.932 216.797 193.518 217.193 193.518 217.703Z" fill="#E88A3F"/>
<path d="M184.309 227.918H182.102V240.305H184.309V227.918Z" fill="#E88A3F"/>
<path d="M197.983 227.918H195.775V240.305H197.983V227.918Z" fill="#E88A3F"/>
<path d="M298.036 274.977H238.732C238.322 274.977 237.99 275.34 237.99 275.789V282.643C237.99 283.091 238.322 283.455 238.732 283.455H298.036C298.445 283.455 298.777 283.091 298.777 282.643V275.789C298.777 275.34 298.445 274.977 298.036 274.977Z" fill="#D5782A"/>
<path d="M298.036 292.328H238.732C238.322 292.328 237.99 292.692 237.99 293.14V299.995C237.99 300.443 238.322 300.807 238.732 300.807H298.036C298.445 300.807 298.777 300.443 298.777 299.995V293.14C298.777 292.692 298.445 292.328 298.036 292.328Z" fill="#D5782A"/>
<path d="M298.036 309.664H238.732C238.322 309.664 237.99 310.028 237.99 310.476V317.331C237.99 317.779 238.322 318.143 238.732 318.143H298.036C298.445 318.143 298.777 317.779 298.777 317.331V310.476C298.777 310.028 298.445 309.664 298.036 309.664Z" fill="#D5782A"/>
<path d="M298.036 326.996H238.732C238.322 326.996 237.99 327.36 237.99 327.808V334.663C237.99 335.111 238.322 335.475 238.732 335.475H298.036C298.445 335.475 298.777 335.111 298.777 334.663V327.808C298.777 327.36 298.445 326.996 298.036 326.996Z" fill="#D5782A"/>
<path d="M168.6 277.34V281.079C168.6 282.382 167.48 283.439 166.083 283.439H140.871C139.026 280.777 137.457 277.926 136.129 274.961H166.083C167.48 274.961 168.6 276.018 168.6 277.321V277.34Z" fill="#D5782A"/>
<path d="M168.599 294.692V298.431C168.599 299.733 167.478 300.791 166.081 300.791H161.425C157.321 298.015 152.958 295.334 149.182 292.312H166.081C167.478 292.312 168.599 293.37 168.599 294.673V294.692Z" fill="#D5782A"/>
<path d="M184.551 318.141H221.696C224.093 318.141 226.041 320.274 226.041 322.899V343.312H180.223V322.899C180.223 320.274 182.171 318.141 184.568 318.141H184.551Z" fill="#D5782A"/>
<path d="M181.033 298.582H188C188.448 298.582 188.81 298.979 188.81 299.47V311.196H180.205V299.47C180.205 298.979 180.567 298.582 181.016 298.582H181.033Z" fill="#D5782A"/>
<path d="M193.431 298.582H200.398C200.846 298.582 201.209 298.979 201.209 299.47V311.196H192.604V299.47C192.604 298.979 192.966 298.582 193.414 298.582H193.431Z" fill="#D5782A"/>
<path d="M205.847 298.582H212.814C213.262 298.582 213.625 298.979 213.625 299.47V311.196H205.02V299.47C205.02 298.979 205.382 298.582 205.83 298.582H205.847Z" fill="#D5782A"/>
<path d="M218.246 298.582H225.213C225.661 298.582 226.023 298.979 226.023 299.47V311.196H217.418V299.47C217.418 298.979 217.78 298.582 218.229 298.582H218.246Z" fill="#D5782A"/>
<path d="M181.033 278.922H188C188.448 278.922 188.81 279.318 188.81 279.809V291.536H180.205V279.809C180.205 279.318 180.567 278.922 181.016 278.922H181.033Z" fill="#D5782A"/>
<path d="M193.431 278.922H200.398C200.846 278.922 201.209 279.318 201.209 279.809V291.536H192.604V279.809C192.604 279.318 192.966 278.922 193.414 278.922H193.431Z" fill="#D5782A"/>
<path d="M205.847 278.922H212.814C213.262 278.922 213.625 279.318 213.625 279.809V291.536H205.02V279.809C205.02 279.318 205.382 278.922 205.83 278.922H205.847Z" fill="#D5782A"/>
<path d="M218.246 278.922H225.213C225.661 278.922 226.023 279.318 226.023 279.809V291.536H217.418V279.809C217.418 279.318 217.78 278.922 218.229 278.922H218.246Z" fill="#D5782A"/>
<path d="M181.033 259.266H188C188.448 259.266 188.81 259.662 188.81 260.153V271.879H180.205V260.153C180.205 259.662 180.567 259.266 181.016 259.266H181.033Z" fill="#D5782A"/>
<path d="M193.431 259.266H200.398C200.846 259.266 201.209 259.662 201.209 260.153V271.879H192.604V260.153C192.604 259.662 192.966 259.266 193.414 259.266H193.431Z" fill="#D5782A"/>
<path d="M205.847 259.266H212.814C213.262 259.266 213.625 259.662 213.625 260.153V271.879H205.02V260.153C205.02 259.662 205.382 259.266 205.83 259.266H205.847Z" fill="#D5782A"/>
<path d="M218.246 259.266H225.213C225.661 259.266 226.023 259.662 226.023 260.153V271.879H217.418V260.153C217.418 259.662 217.78 259.266 218.229 259.266H218.246Z" fill="#D5782A"/>
<path d="M176.72 242.141H183.687C184.135 242.141 184.498 242.537 184.498 243.028V254.754H175.893V243.028C175.893 242.537 176.255 242.141 176.703 242.141H176.72Z" fill="#D5782A"/>
<path d="M189.136 242.141H196.103C196.552 242.141 196.914 242.537 196.914 243.028V254.754H188.309V243.028C188.309 242.537 188.671 242.141 189.119 242.141H189.136Z" fill="#D5782A"/>
<path d="M201.535 242.141H208.502C208.95 242.141 209.312 242.537 209.312 243.028V254.754H200.707V243.028C200.707 242.537 201.069 242.141 201.518 242.141H201.535Z" fill="#D5782A"/>
<path d="M513.561 280.469C496.472 300.655 491.057 326.072 496.437 349.468C521.907 349.147 547.016 338.497 564.105 318.311C581.194 298.125 586.609 272.709 581.229 249.312C555.759 249.634 530.65 260.284 513.561 280.469Z" fill="#F3B41F"/>
<path d="M569.605 262.772C564.966 269.72 559.966 276.405 554.827 282.995L552.913 285.469L550.964 287.905L547.049 292.795C544.394 296.024 541.721 299.235 539.048 302.445C536.306 305.617 533.598 308.789 530.839 311.943L526.666 316.626C525.959 317.4 525.287 318.193 524.562 318.967L522.424 321.271C516.75 327.446 510.956 333.526 504.783 339.342L504.559 339.172L536.858 300.802L569.381 262.602L569.605 262.772Z" fill="#875739"/>
<path d="M528.271 311.265C527.115 309.357 526.357 307.394 525.719 305.411C525.098 303.428 524.615 301.408 524.27 299.387C523.925 297.367 523.718 295.309 523.649 293.231C523.615 291.154 523.667 289.058 524.132 286.924L524.356 286.887L524.925 289.927L525.46 292.967L526.529 299.047L527.529 305.147L528.029 308.187L528.495 311.246L528.271 311.284V311.265Z" fill="#875739"/>
<path d="M552.309 282.865C551.326 281.336 550.74 279.769 550.274 278.182C549.826 276.596 549.516 275.01 549.343 273.405C549.171 271.8 549.136 270.176 549.257 268.552C549.395 266.909 549.636 265.267 550.274 263.586H550.499L550.809 265.965L551.085 268.382L551.637 273.197L552.102 278.013L552.344 280.43L552.533 282.847H552.309V282.865Z" fill="#875739"/>
<path d="M510.731 331.996C509.559 330.126 508.783 328.2 508.11 326.255C507.455 324.31 506.955 322.328 506.592 320.326C506.23 318.324 505.989 316.304 505.903 314.265C505.834 312.206 505.868 310.148 506.299 308.014L506.524 307.977L507.127 310.96L507.696 313.962L508.852 319.948L509.921 325.953L510.455 328.956L510.955 331.958L510.731 331.996Z" fill="#875739"/>
<path d="M528.873 311.509C530.994 310.603 533.15 310.074 535.305 309.64C537.461 309.224 539.634 308.96 541.824 308.828C543.996 308.696 546.187 308.677 548.394 308.809C550.601 308.96 552.809 309.205 555.033 309.829V310.036L551.774 310.301L548.497 310.527L541.962 310.981L535.426 311.358L532.149 311.547L528.873 311.698V311.49V311.509Z" fill="#875739"/>
<path d="M552.896 283.128C554.5 282.165 556.138 281.561 557.811 281.07C559.484 280.598 561.156 280.258 562.863 280.069C564.571 279.861 566.295 279.786 568.02 279.842C569.761 279.918 571.52 280.107 573.331 280.654L573.366 280.862L570.813 281.221L568.261 281.542L563.157 282.203L558.035 282.788L555.483 283.071L552.913 283.336L552.879 283.128H552.896Z" fill="#875739"/>
<path d="M511.32 332.224C513.424 331.337 515.562 330.846 517.701 330.449C519.839 330.071 521.995 329.826 524.15 329.732C526.306 329.618 528.461 329.637 530.634 329.807C532.807 329.996 534.98 330.26 537.187 330.921V331.129L533.962 331.337L530.738 331.525L524.271 331.884L517.804 332.167L514.562 332.319L511.32 332.432V332.224Z" fill="#875739"/>
<path d="M401.126 167.438C401.126 167.438 390.744 220.329 401.126 244.895C411.507 269.462 407.04 334.684 407.04 334.684H416.18C416.18 334.684 438.477 269.557 426.51 245.292C423.975 240.156 422.888 234.51 424.009 228.958C426.924 214.588 448.669 187.51 444.53 167.438H401.126Z" fill="#58AD9D"/>
<path d="M315.852 65.4883C315.852 65.4883 289.727 119.852 254.893 148.309L264.808 153.596C264.808 153.596 309.989 130.427 324.285 91.6412" fill="#D5782A"/>
<path d="M412.162 167.438C412.162 167.438 419.267 220.329 429.648 244.895C440.029 269.462 450.29 334.684 450.29 334.684H459.43C459.43 334.684 467 269.557 455.032 245.292C452.497 240.156 451.411 234.51 452.532 228.958C455.446 214.588 459.705 187.51 455.567 167.438H412.162Z" fill="#72C0AF"/>
<path d="M344.375 155.105C344.375 155.105 344.616 161.412 321.577 236.038C319.767 241.911 319.577 248.123 321.129 254.071L342.064 334.701H329.613L298.78 257.583C298.521 256.922 298.297 256.28 298.107 255.601C295.555 246.348 295.227 176.273 308.489 155.105" fill="#724933"/>
<path d="M244.924 343.31C244.804 343.31 244.683 343.31 244.562 343.31C242.2 343.122 240.458 341.177 240.648 338.967C240.768 337.627 252.546 204.237 255.15 182.258C255.668 177.877 256.185 174.308 256.599 171.381C257.168 167.453 257.703 163.733 257.478 162.487C256.961 162.279 255.857 162.034 254.167 161.732C253.047 161.524 252.529 161.769 252.15 162.072C250.098 163.62 249.253 168.511 249.184 170.493C249.115 172.722 247.011 174.346 244.769 174.402C242.407 174.327 240.544 172.476 240.613 170.248C240.648 169.228 241.113 160.07 246.787 155.784C249.287 153.895 252.426 153.234 255.771 153.82C267.48 155.916 266.79 160.769 265.083 172.495C264.669 175.365 264.169 178.859 263.652 183.164C261.048 205.049 249.287 338.306 249.167 339.647C248.977 341.743 247.114 343.348 244.907 343.348L244.924 343.31Z" fill="#593422"/>
<path d="M418.198 49.9883C418.198 49.9883 380.967 72.2324 335.217 69.5888L341.166 83.0524C341.166 83.0524 387.244 85.7338 412.162 71.1183" fill="#72C0AF"/>
<path d="M365.256 103.573C364.497 107.727 363.635 111.976 362.756 116.225C359.738 130.972 356.737 145.607 358.824 155.105H308.453C308.453 155.105 298.537 127.649 305.245 110.768C311.936 93.8862 317.299 84.8224 313.557 77.2692C309.815 69.716 321.783 52.5892 338.562 52.8346C338.562 52.8346 356.686 54.5908 365.256 71.982C368.757 79.082 367.567 90.7894 365.256 103.573Z" fill="#E88A3F"/>
<path d="M358.841 155.105C358.841 155.105 377.483 161.412 354.444 236.038C352.633 241.911 352.444 248.123 353.996 254.071L374.931 334.701H362.48L331.647 257.583C331.388 256.922 331.164 256.28 330.974 255.601C328.422 246.348 309.694 176.273 322.955 155.105" fill="#875739"/>
<path d="M329.594 334.684C329.594 334.684 319.523 336.798 315.505 341.954C314.884 342.747 315.505 343.88 316.557 343.88H343.804C344.666 343.88 345.269 343.068 344.976 342.312L342.062 334.702H329.611L329.594 334.684Z" fill="#3B2218"/>
<path d="M362.5 334.684C362.5 334.684 352.429 336.798 348.411 341.954C347.791 342.747 348.411 343.88 349.463 343.88H376.71C377.572 343.88 378.176 343.068 377.882 342.312L374.968 334.702H362.517L362.5 334.684Z" fill="#593422"/>
<path d="M450.289 334.684C450.289 334.684 436.908 336.798 432.872 341.954C432.252 342.747 432.872 343.88 433.924 343.88H461.171C462.033 343.88 462.637 343.068 462.343 342.312L459.429 334.702H450.307L450.289 334.684Z" fill="#E9E9EB"/>
<path d="M407.057 334.684C407.057 334.684 393.675 336.798 389.64 341.954C389.019 342.747 389.64 343.88 390.692 343.88H417.938C418.801 343.88 419.404 343.068 419.111 342.312L416.197 334.702H407.074L407.057 334.684Z" fill="#CDDBDB"/>
<path d="M308.472 155.105L305.316 161.658L354.826 161.828L352.825 155.105H308.472Z" fill="#593422"/>
<path d="M254.892 148.293C254.892 148.293 242.304 158.452 249.978 162.814C257.651 167.176 260.411 157.904 263.377 159.453C264.773 160.189 263.101 164.098 266.153 164.136C269.188 164.155 266.964 157.772 264.808 153.58C262.67 149.388 254.892 148.293 254.892 148.293Z" fill="#FFE7C7"/>
<path opacity="0.1" d="M365.259 103.573C364.5 107.727 363.638 111.976 362.758 116.224L361.258 115.998L360.051 87.8242L365.259 103.592V103.573Z" fill="black"/>
<path opacity="0.1" d="M357.306 180.126C357.306 180.126 341.666 162.017 335.216 134.184C329.56 109.806 331.198 92.6036 332.767 84.2385C333.405 80.8773 336.509 78.4414 340.131 78.4414H349.84L357.306 180.126Z" fill="black"/>
<path d="M339.27 66.543C339.27 66.543 354.687 61.3502 359.102 76.0412C363.533 90.751 357.429 159.655 369.793 178.614L357.308 180.105C357.308 180.105 318.784 91.2986 339.27 66.543Z" fill="#E88A3F"/>
<path d="M369.792 178.617C369.792 178.617 376.724 197.444 367.809 200.899C362.135 203.09 364.015 190.834 361.98 190.325C359.945 189.815 361.911 193.837 360.376 193.742C356.272 193.497 357.324 180.109 357.324 180.109L369.809 178.617H369.792Z" fill="#FFE7C7"/>
<path d="M460.98 192.342H393.105C393.105 192.342 394.244 182.126 395.934 167.416C396.141 165.566 396.365 163.621 396.589 161.638C397.779 151.328 399.158 139.394 400.555 127.422C401.228 121.738 401.9 116.055 402.573 110.522C405.28 88.0323 407.798 68.2807 408.919 62.8424C411.868 48.3969 424.594 48.3025 424.594 48.3025L437.528 47.9626C471.862 39.3142 460.997 192.342 460.997 192.342H460.98Z" fill="#89CEC0"/>
<path d="M416.009 192.361C415.267 186.621 414.905 180.88 414.577 175.121C414.439 172.251 414.353 169.362 414.25 166.492C414.198 165.057 414.198 163.603 414.181 162.167L414.129 157.843V153.519L414.198 149.195L414.439 140.546C414.457 139.829 414.474 139.111 414.508 138.394L414.629 136.241L414.87 131.917L415.112 127.593L415.422 123.287L415.802 118.982C415.922 117.547 416.043 116.112 416.198 114.677L416.647 110.371C416.802 108.936 416.94 107.501 417.112 106.066C417.199 105.349 417.267 104.631 417.371 103.913L417.664 101.761L418.268 97.4743C418.475 96.0392 418.664 94.623 418.871 93.1879L419.044 92.1116L419.233 91.0352L419.613 88.9015L420.354 84.6339C420.596 83.2177 420.854 81.7826 421.13 80.3663C421.406 78.9501 421.734 77.5339 422.027 76.1177L422.941 71.8879L423.907 67.6581C424.252 66.2608 424.614 64.8445 424.993 63.4472L426.131 59.2552L427.338 55.082L427.649 55.1387L426.045 63.6171C425.786 65.0334 425.51 66.4496 425.252 67.8658L424.562 72.1145C424.114 74.9469 423.631 77.7983 423.2 80.6307L422.044 89.1658L421.751 91.2996L421.613 92.3759L421.492 93.4522L421.009 97.7387L420.527 102.025L420.285 104.159C420.199 104.876 420.147 105.594 420.078 106.312L419.268 114.884C419.113 116.32 419.026 117.755 418.906 119.171L418.578 123.457C417.664 134.9 416.992 146.381 416.612 157.862L416.371 166.473C416.336 169.343 416.267 172.213 416.233 175.083C416.181 180.824 416.181 186.564 416.319 192.305H416.009V192.361Z" fill="#72C0AF"/>
<path d="M418.941 78.3639C418.941 78.3639 433.047 57.4038 444.307 61.577C455.568 65.7312 451.05 87.7677 429.649 97.5113C408.232 107.255 360.068 130.084 360.068 130.084L357.705 118.32L418.958 78.3639H418.941Z" fill="#89CEC0"/>
<path d="M360.065 130.084C360.065 130.084 348.942 141.829 344.39 134.955C339.837 128.063 349.046 125.967 349.443 122.738C349.839 119.509 345.321 120.189 346.597 118.168C347.873 116.148 357.72 118.338 357.72 118.338L360.083 130.102L360.065 130.084Z" fill="#FFE7C7"/>
<path d="M424.596 48.3058V46.1343C424.596 46.1343 408.058 43.4529 408.955 29.8382C409.852 16.2425 422.699 14.5241 430.39 16.2425C446.997 19.9436 437.443 27.6856 437.529 47.9659C437.547 52.9699 424.596 61.7316 424.596 48.3058Z" fill="#FFE7C7"/>
<path d="M322.404 33.708C317.144 27.4766 306.59 28.0431 302.59 35.0676C299.417 40.6569 299.934 48.3234 302.141 52.8553C306.073 60.9184 317.506 52.8553 317.506 52.8553L327.508 61.5793C333.854 67.112 338.579 52.8553 338.579 52.8553L322.404 33.7269V33.708Z" fill="#FFE7C7"/>
<path d="M326.284 154.41H314.816C314.426 154.41 314.109 154.757 314.109 155.184V161.756C314.109 162.183 314.426 162.53 314.816 162.53H326.284C326.675 162.53 326.991 162.183 326.991 161.756V155.184C326.991 154.757 326.675 154.41 326.284 154.41Z" stroke="#AD8545" stroke-width="9.37736" stroke-miterlimit="10"/>
<path d="M326.99 158.469H320.541" stroke="#AD8545" stroke-width="9.37736" stroke-linecap="round" stroke-linejoin="round"/>
<path d="M318.092 39.8256C318.092 39.8256 314.609 37.1631 315.558 33.9153C316.489 30.6674 309.712 32.3669 309.349 29.8554C309.005 27.344 316.489 26.3432 318.092 28.8357C319.696 31.3283 324.904 33.1033 324.301 35.4637C323.697 37.824 321.524 40.411 319.472 39.8068H318.092V39.8256Z" fill="#B6B6B6"/>
<path d="M319.182 54.3056C319.182 54.3056 324.476 49.6226 324.286 43.8633C324.286 43.8633 328.097 49.075 323.182 57.7989" fill="#F0CCA0"/>
<path d="M430.907 32.3326L436.718 28.4805V29.368L428.372 36.2603L429.648 41.6608L436.718 31.8605V32.9368C436.718 32.9368 432.476 41.302 427.51 44.361" fill="#89CEC0"/>
<path d="M435.356 31.1773C435.356 31.1773 435.287 31.1018 435.253 31.0829C434.804 30.8752 432.149 29.5345 432.114 26.1167C432.08 22.9821 427.579 23.2276 426.096 23.3975C425.889 23.4164 425.751 23.2087 425.854 23.0387C426.061 22.7177 426.389 22.2645 426.872 21.9624C427.062 21.8491 426.993 21.547 426.751 21.5281C424.716 21.377 420.543 21.1882 417.939 22.0379C417.715 22.1135 417.508 21.868 417.663 21.6792C417.991 21.2826 418.525 20.7539 419.336 20.3385C419.577 20.2252 419.474 19.8853 419.198 19.9042C416.301 20.0552 410.783 20.0363 408.265 17.9026C408.11 17.7704 408.196 17.5249 408.403 17.506C409.489 17.4116 412.076 17.0528 414.232 15.9576C414.421 15.8632 414.404 15.5988 414.197 15.5233L412.817 15.089C412.611 15.0324 412.593 14.7491 412.783 14.6547C414.335 13.9183 419.319 11.8789 425.544 12.8797C425.716 12.8986 425.872 12.7664 425.837 12.6153L425.734 12.0677C425.699 11.8978 425.854 11.7656 426.027 11.8034C427.769 12.1621 435.184 13.8805 437.288 17.4305C437.391 17.6193 437.684 17.6004 437.753 17.3927L437.839 17.1661C437.908 16.9395 438.253 16.9584 438.322 17.1661C438.512 17.8459 438.736 18.8278 438.805 19.6587C438.805 19.7342 438.857 19.8097 438.926 19.8475C439.357 20.093 440.961 21.056 442.116 22.3401C442.271 22.51 442.116 22.7555 441.875 22.7177L441.254 22.6044C441.081 22.5667 440.926 22.6988 440.961 22.8688C441.219 24.606 442.271 32.7823 439.253 36.6534C439.15 36.7855 438.926 36.7855 438.84 36.6534L435.391 31.1773H435.356Z" fill="#3B2218"/>
<path d="M434.34 32.1178C434.34 32.1178 433.875 27.9258 435.927 27.1516C437.979 26.3774 440.359 32.6654 437.479 34.6293C434.582 36.5931 434.34 32.1178 434.34 32.1178Z" fill="#FFE7C7"/>
<path opacity="0.1" d="M440.169 89.2578C440.169 89.2578 436.772 104.156 401.438 119.98C402.11 114.297 402.076 114.58 402.748 109.047C413.491 104.742 435.047 95.527 440.169 89.2578Z" fill="black"/>
<path d="M552.552 351.681H150.684C148.218 351.681 146.234 349.812 146.234 347.489C146.234 345.185 148.235 343.297 150.684 343.297H552.552C555.018 343.297 557.001 345.166 557.001 347.489C557.001 349.793 555 351.681 552.552 351.681Z" fill="#F3B41F"/>
<path d="M315.973 43.9618C315.973 43.9618 316.128 40.3929 317.939 38.2969L319.18 38.8445C319.18 38.8445 317.266 40.6195 316.835 44.2073" fill="#89CEC0"/>
<path d="M320.492 51.2505C320.492 51.2505 325.113 44.075 321.544 38.8633L321.078 39.5053C321.078 39.5053 323.7 44.226 319.475 51.2505" fill="#89CEC0"/>
<path d="M318.231 40.4133C318.231 40.4133 317.317 37.0332 318.714 36.3534C320.111 35.6736 324.905 38.2984 321.197 42.0938" fill="#FFE7C7"/>
<path d="M311.126 40.5977C310.678 40.5977 310.333 40.9564 310.368 41.3719C310.437 42.2216 310.695 43.5056 311.54 43.5434C312.471 43.5812 312.213 42.0328 312.006 41.1641C311.92 40.8243 311.609 40.5977 311.247 40.5977H311.109H311.126Z" fill="#3B2218"/>
<path d="M301.866 44.4725C302.211 44.4725 302.487 44.1893 302.452 43.8683C302.4 43.1885 302.193 42.1877 301.538 42.1688C300.814 42.1311 301.004 43.3584 301.176 44.0382C301.245 44.3026 301.486 44.4725 301.762 44.4725H301.866Z" fill="#3B2218"/>
<path d="M305.694 40.6737C305.262 40.0694 304.262 40.3149 304.176 41.0325C303.866 43.4495 303.676 47.4715 305.728 47.8492C308.349 48.3402 308.522 44.5636 305.694 40.6737Z" fill="#E07180"/>
<path d="M314.609 40.3365C314.747 40.4687 314.988 40.3365 314.936 40.1666C314.695 39.0147 313.798 36.4278 310.332 35.9557C309.177 35.8046 309.021 37.353 309.694 37.4097C311.384 37.5796 313.677 39.4868 314.591 40.3365H314.609Z" fill="#B6B6B6"/>
<path d="M299.761 40.9201C299.674 41.0334 299.502 40.9768 299.502 40.8446C299.502 40.0138 299.812 38.1255 302.14 37.4079C302.916 37.1624 303.227 38.2199 302.761 38.3521C301.606 38.6542 300.278 40.2592 299.761 40.939V40.9201Z" fill="#B6B6B6"/>
<path d="M300.882 45.8121C302.658 45.2267 307.021 44.1882 315.971 43.9805C316.54 43.9805 317.057 44.2637 317.299 44.7547L320.489 51.2504C320.713 51.7036 320.644 52.2134 320.334 52.61C319.196 54.0451 315.988 57.2552 310.125 57.123C305.693 57.0286 301.882 54.1773 300.606 50.193C300.296 49.2111 300.037 48.1914 299.934 47.2095C299.865 46.5863 300.261 46.0198 300.882 45.8121Z" fill="#89CEC0"/>
<path d="M424.477 27.3069C423.925 27.1559 423.356 27.4769 423.235 28.0056C422.976 29.1008 422.787 30.7625 423.821 31.1024C424.96 31.4801 425.27 29.4596 425.356 28.3078C425.391 27.8734 425.098 27.4769 424.649 27.3447L424.494 27.3069H424.477Z" fill="#3B2218"/>
<path d="M411.439 28.8142C411.87 28.9275 412.319 28.682 412.422 28.2666C412.629 27.4168 412.784 26.095 411.956 25.8307C411.06 25.5285 410.818 27.1147 410.749 28.0211C410.715 28.361 410.956 28.682 411.301 28.7764L411.422 28.8142H411.439Z" fill="#3B2218"/>
<path d="M417.715 25.4768C417.422 24.5893 416.094 24.5138 415.68 25.3824C414.335 28.2715 412.49 33.1811 414.869 34.3896C417.922 35.938 419.646 31.3117 417.697 25.4768H417.715Z" fill="#E07180"/>
<path d="M430.236 27.0054C430.443 27.1565 430.719 26.9677 430.633 26.7411C430.133 25.2871 428.512 22.1147 423.976 22.0392C422.459 22.0203 422.545 24.0408 423.424 24.0219C425.632 23.9653 428.908 26.0802 430.236 27.0243V27.0054Z" fill="#3B2218"/>
<path d="M409.249 23.5304C409.094 23.606 408.921 23.4549 408.99 23.3039C409.49 22.3408 410.922 20.2637 414.077 20.6036C415.147 20.7169 414.871 22.1142 414.267 22.0198C412.732 21.7932 410.249 22.9828 409.232 23.5116L409.249 23.5304Z" fill="#3B2218"/>
<path d="M408.938 29.8359C408.938 29.8359 423.699 32.5929 430.908 32.3285C430.908 32.3285 432.925 42.7897 424.579 46.132C416.232 49.4742 404.282 40.1838 408.938 29.8359Z" fill="#89CEC0"/>
<path d="M424.578 46.1326C424.578 46.1326 429.941 43.9044 433.114 38.7305C433.114 38.7305 435.787 45.3584 425.182 52.8361C425.182 52.8361 424.044 49.0217 424.578 46.1326Z" fill="#F0CCA0"/>
<path d="M428.769 151.479C431.097 155.255 438.219 164.583 453.739 168.813C454.446 169.002 454.826 169.719 454.55 170.362L452.963 174.214C452.722 174.799 452.015 175.12 451.377 174.893C446.859 173.345 430.304 167.019 424.165 155.765C423.941 155.368 423.975 154.896 424.251 154.538L426.665 151.403C427.2 150.723 428.303 150.761 428.752 151.497L428.769 151.479Z" fill="#72C0AF"/>
<path d="M406.436 157.749C404.177 161.884 399.952 165.113 395.934 167.417C396.141 165.566 396.365 163.621 396.589 161.638C400.141 158.957 402.176 156.181 403.107 154.652C403.435 154.123 404.228 154.085 404.608 154.576L406.349 156.842C406.556 157.107 406.574 157.446 406.418 157.73L406.436 157.749Z" fill="#72C0AF"/>
<path d="M477.434 121.156H557.673L539.273 116.568C539.273 116.568 555.69 97.4202 543.584 94.9654C531.478 92.5106 532.03 102.179 532.03 102.179C532.03 102.179 537.203 89.4516 523.166 88.1298C509.129 86.8269 515.941 112.621 515.941 112.621C515.941 112.621 508.819 107.73 503.456 108.769C503.456 108.769 501.214 93.3415 491.022 94.9465C480.814 96.5516 487.039 116.549 487.039 116.549L477.451 121.137L477.434 121.156Z" fill="white"/>
<path d="M232.215 91.9589H274.464L264.772 89.5419C264.772 89.5419 273.412 79.4584 267.049 78.1743C260.668 76.8714 260.961 81.9698 260.961 81.9698C260.961 81.9698 263.686 75.2663 256.288 74.5677C248.89 73.8879 252.477 87.4648 252.477 87.4648C252.477 87.4648 248.718 84.8967 245.907 85.4443C245.907 85.4443 244.734 77.3246 239.354 78.1743C233.991 79.0241 237.25 89.5419 237.25 89.5419L232.197 91.9589H232.215Z" fill="white"/>
<path d="M418.199 33.4825C418.199 33.4825 415.164 34.9931 413.732 33.1992C413.732 33.1992 414.474 36.8059 418.199 33.4825Z" fill="#72C0AF"/>
<path d="M426.338 37.4691C426.338 37.4691 416.267 39.7539 409.973 35.2031C409.973 35.2031 417.595 37.9412 426.338 37.4691Z" fill="#72C0AF"/>
<path d="M424.58 40.2464C424.58 40.2464 416.009 42.7956 410.836 38.4336C410.836 38.4336 417.182 40.945 424.58 40.2464Z" fill="#72C0AF"/>
<path d="M424.131 43.1695C424.131 43.1695 417.181 46.0019 413.232 41.8477C413.232 41.8477 418.199 44.1325 424.131 43.1695Z" fill="#72C0AF"/>
<path d="M308.197 45.457C308.197 45.457 306.196 47.9307 304.334 46.76C304.334 46.76 306.265 49.8568 308.197 45.457Z" fill="#72C0AF"/>
<path d="M316.491 46.2695C316.491 46.2695 308.852 51.9344 301.902 49.9517C301.902 49.9517 309.3 49.8006 316.491 46.2695Z" fill="#72C0AF"/>
<path d="M316.028 49.4609C316.028 49.4609 309.751 54.8426 303.818 52.6333C303.818 52.6333 310.078 52.7277 316.028 49.4609Z" fill="#72C0AF"/>
<path d="M316.698 52.3281C316.698 52.3281 311.887 57.4076 307.041 54.9529C307.041 54.9529 312.042 55.3116 316.698 52.3281Z" fill="#72C0AF"/>
<path d="M2 321.594V37.4056C2 17.8428 16.313 2 33.9714 2H681.368C699.027 2 713.34 17.8428 713.34 37.4056V321.594C713.34 341.157 699.027 357 681.368 357H33.9714C16.313 357 2 341.157 2 321.594V321.594Z" stroke="#79AEDD" stroke-opacity="0.7" stroke-width="2.67925" stroke-miterlimit="10"/>
<defs>
<linearGradient id="paint0_linear_0_1" x1="345.563" y1="187.828" x2="345.563" y2="265.91" gradientUnits="userSpaceOnUse">
<stop stop-color="#F3B41F"/>
<stop offset="1" stop-color="#FFDB86"/>
</linearGradient>
</defs>
</svg>
