<svg width="53" height="39" viewBox="0 0 53 39" fill="none" xmlns="http://www.w3.org/2000/svg">
<g clip-path="url(#clip0_550_51872)">
<path fill-rule="evenodd" clip-rule="evenodd" d="M42.4464 38.2489C39.8786 38.2489 37.8047 35.6018 37.8047 32.3682C37.8047 29.1347 39.8786 26.5713 42.4464 26.5713C45.0142 26.5713 47.0025 29.2184 47.0025 32.3682C47.0025 35.518 44.9286 38.2489 42.4464 38.2489Z" stroke="black" stroke-width="1.26131" stroke-miterlimit="10"/>
<path fill-rule="evenodd" clip-rule="evenodd" d="M52.6451 4.65625H14.425C12.3511 4.65625 10.1981 8.14949 8.04511 11.5589C6.22135 14.5412 3.98279 15.9904 2.15902 16.3339C-0.0795425 16.937 0.17065 25.3727 0.66445 30.5749L3.23221 31.5131C3.4824 27.6764 6.05016 24.602 9.19732 24.602C12.3445 24.602 14.8332 27.668 15.0834 31.5131H36.3102C36.5538 27.6764 39.1282 24.602 42.2753 24.602C45.4225 24.602 47.9112 27.668 48.1614 31.5131H52.553V14.2061L52.6386 4.66463L52.6451 4.65625Z" stroke="black" stroke-width="1.26131" stroke-miterlimit="10"/>
<path fill-rule="evenodd" clip-rule="evenodd" d="M9.03953 37.8188C6.55077 37.8188 4.4834 35.2554 4.4834 32.0219C4.4834 28.7883 6.55736 26.1328 9.03953 26.1328C11.5217 26.1328 13.6812 28.78 13.6812 32.0219C13.6812 35.2638 11.6073 37.8188 9.03953 37.8188Z" stroke="black" stroke-width="1.26131" stroke-miterlimit="10"/>
<path fill-rule="evenodd" clip-rule="evenodd" d="M16.4223 4.57276V2.87222C16.4223 2.01776 15.922 1.24707 15.178 1.24707C14.513 1.24707 13.9336 2.01776 13.9336 2.87222V4.57276H16.4223Z" stroke="black" stroke-width="1.26131" stroke-miterlimit="10"/>
<path fill-rule="evenodd" clip-rule="evenodd" d="M19.896 16.3353H8.53857L13.7597 6.11523H19.896V16.3353Z" stroke="black" stroke-width="1.26131" stroke-miterlimit="10"/>
<path d="M34.0795 7.30273H23.8809V16.8442H34.0795V7.30273Z" stroke="black" stroke-width="1.26131" stroke-miterlimit="10"/>
<path d="M47.8332 7.30273H36.647V16.8442H47.8332V7.30273Z" stroke="black" stroke-width="1.26131" stroke-miterlimit="10"/>
<path fill-rule="evenodd" clip-rule="evenodd" d="M28.1877 18.8955C30.4262 18.8955 32.1644 21.1071 32.1644 23.9217C32.1644 26.7364 30.4262 28.948 28.1877 28.948C25.9491 28.948 24.2109 26.6443 24.2109 23.9217C24.2109 21.1992 26.0347 18.8955 28.1877 18.8955Z" fill="#3F6B68"/>
<path d="M19.4048 17.792H16.0864V18.9061H19.4048V17.792Z" stroke="black" stroke-width="1.26131" stroke-miterlimit="10"/>
<path fill-rule="evenodd" clip-rule="evenodd" d="M27.442 20.9404H29.0156V22.9007H30.5891V24.9447H29.0156V26.9133H27.442V24.9447H25.8618V22.9007H27.442V20.9404Z" fill="white"/>
</g>
<defs>
<clipPath id="clip0_550_51872">
<rect width="52.9749" height="37.8392" fill="white" transform="translate(0 0.828125)"/>
</clipPath>
</defs>
</svg>
