<svg width="53" height="53" viewBox="0 0 53 53" fill="none" xmlns="http://www.w3.org/2000/svg">
<g clip-path="url(#clip0_550_51846)">
<path d="M29.7554 38.4555C38.5508 38.4555 45.6808 31.624 45.6808 23.197C45.6808 14.7699 38.5508 7.93848 29.7554 7.93848C20.9601 7.93848 13.8301 14.7699 13.8301 23.197C13.8301 31.624 20.9601 38.4555 29.7554 38.4555Z" stroke="black" stroke-width="1.76583" stroke-linecap="round" stroke-linejoin="round"/>
<path d="M29.7552 38.4582V45.1273C29.7552 49.1133 25.7927 52.346 20.9069 52.346C14.6699 52.346 9.79206 50.5939 7.31152 37.2686" stroke="black" stroke-width="1.76583" stroke-linecap="round" stroke-linejoin="round"/>
<path d="M7.3118 43.6923C10.9118 43.6923 13.8301 41.3115 13.8301 38.3745C13.8301 35.4375 10.9118 33.0566 7.3118 33.0566C3.71182 33.0566 0.793457 35.4375 0.793457 38.3745C0.793457 41.3115 3.71182 43.6923 7.3118 43.6923Z" fill="white" stroke="black" stroke-width="1.76583" stroke-linecap="round" stroke-linejoin="round"/>
<path d="M7.3137 40.9113C9.03162 40.9113 10.4243 39.7752 10.4243 38.3736C10.4243 36.9721 9.03162 35.8359 7.3137 35.8359C5.59578 35.8359 4.20312 36.9721 4.20312 38.3736C4.20312 39.7752 5.59578 40.9113 7.3137 40.9113Z" fill="black"/>
<path d="M44.337 17.5614L44.3371 17.5606C34.8473 15.5899 24.6643 15.5899 15.1784 17.5607L15.1776 17.5608C14.4616 17.7102 13.8301 17.3815 13.619 17.0001C13.6189 16.9999 13.6188 16.9997 13.6187 16.9995L7.49748 5.85781L7.49712 5.85715C7.38925 5.66121 7.39331 5.46884 7.48435 5.28768C7.58121 5.09491 7.80115 4.878 8.17907 4.75827L8.17936 4.75818C12.2724 3.45996 21.4822 0.837583 29.1312 0.910476L29.1463 0.91062L29.1614 0.910247C37.3834 0.70727 47.0922 3.4288 51.3216 4.75859C51.7022 4.87881 51.924 5.09655 52.0217 5.28995C52.1134 5.47133 52.118 5.66403 52.0101 5.86104C50.9897 7.71836 49.9703 9.57484 48.951 11.4312L48.9472 11.438C47.9292 13.2921 46.9111 15.146 45.8921 17.0008L44.337 17.5614ZM44.337 17.5614C45.054 17.7098 45.6821 17.3824 45.892 17.0011L44.337 17.5614Z" fill="white" stroke="black" stroke-width="1.76583"/>
<path d="M29.7539 4.40625V13.1088" stroke="black" stroke-width="1.76583" stroke-miterlimit="10" stroke-linecap="round"/>
<path d="M35.0851 8.75684H24.418" stroke="black" stroke-width="1.76583" stroke-miterlimit="10" stroke-linecap="round"/>
<path d="M29.7532 24.5418C29.7532 24.5418 30.6012 21.4287 33.8544 21.4287C36.2834 21.4287 37.9556 23.1097 37.9556 25.0688C37.9556 27.3349 35.6732 30.0181 29.7532 32.3489C23.8292 30.0181 21.5508 27.3349 21.5508 25.0688C21.5508 23.1097 23.223 21.4287 25.652 21.4287C28.9052 21.4287 29.7532 24.5418 29.7532 24.5418Z" fill="#3F6B68"/>
</g>
<defs>
<clipPath id="clip0_550_51846">
<rect width="52.9749" height="52.9749" fill="white" transform="translate(0 0.015625)"/>
</clipPath>
</defs>
</svg>
