<svg width="48" height="45" viewBox="0 0 48 45" fill="none" xmlns="http://www.w3.org/2000/svg">
<path d="M19.1436 15.5305C19.2017 15.7763 19.3706 15.9658 19.6081 16.0501C19.8457 16.1343 20.1096 16.0852 20.2996 15.9378L22.2052 14.4352V23.7173H19.8193C19.6293 23.7173 19.4445 23.7946 19.3073 23.928C19.17 24.0614 19.0961 24.2509 19.0961 24.4405V26.7716C19.0961 26.9611 19.1753 27.1507 19.3073 27.2771C19.4392 27.4105 19.6293 27.4877 19.8193 27.4877H29.611C29.8063 27.4877 29.9911 27.4105 30.1178 27.2771C30.255 27.1437 30.3342 26.9611 30.3342 26.7645V24.4335C30.3342 24.2369 30.2603 24.0614 30.123 23.928C29.9858 23.7875 29.8063 23.7173 29.611 23.7173H27.2409V9.69585C27.2409 9.49925 27.167 9.3167 27.0351 9.19032C26.8978 9.04989 26.7184 8.97266 26.5178 8.97266H23.4404C23.2926 8.97266 23.1501 9.01478 23.0287 9.09904L18.8322 11.9988C18.5894 12.1673 18.4733 12.4622 18.5366 12.7501L19.1489 15.5305H19.1436ZM23.4615 9.77308H26.428V24.5177H29.5213V26.6873H19.8932V24.5177H23.0023V12.7782L19.8985 15.2286L19.3284 12.6307L23.4615 9.77308Z" fill="#3F6B68"/>
<path d="M0.0375877 36.9599C0.127323 37.2197 0.364858 37.4093 0.639344 37.4304L6.76247 37.9289L6.9525 43.6021C6.96306 43.8689 7.12669 44.1146 7.37479 44.2199C7.46452 44.255 7.55426 44.2761 7.64399 44.2761C7.81291 44.2761 7.97654 44.2129 8.10851 44.1006L19.5049 33.8355L20.0539 35.331C20.3231 36.0612 20.8615 36.4965 21.5002 36.4965C21.9753 36.4965 22.4398 36.2508 22.804 35.7944L24.831 33.3229C24.9999 33.1193 25.2427 33 25.5014 33C25.6544 33 25.8761 33.0421 26.0873 33.2317L28.4574 35.3802C28.8269 35.7172 29.2386 35.8927 29.6503 35.8927C29.9301 35.8927 30.2362 35.8014 30.5002 35.5978L38.7453 44.7255C38.8772 44.8729 39.0673 44.9572 39.2626 44.9572C39.3312 44.9572 39.4051 44.9431 39.4737 44.9221C39.7324 44.8378 39.9224 44.6131 39.9541 44.3393L40.6033 38.7855L46.7106 38.2238C46.9693 38.2027 47.1962 38.0272 47.2913 37.7885C47.3863 37.5427 47.3335 37.2689 47.1593 37.0723L37.0245 25.8523C37.0245 25.8523 37.0456 25.8032 37.0561 25.7751C37.1723 25.5715 37.3728 25.431 37.6104 25.3749L40.7247 24.6517C41.3846 24.4972 41.8543 24.104 42.0127 23.5774C42.1711 23.0508 41.9916 22.4681 41.5218 21.9766L39.3048 19.6736C39.1359 19.4981 39.0461 19.2664 39.0567 19.0347C39.0673 18.7959 39.1728 18.5783 39.3629 18.4238L41.7857 16.3315C42.2977 15.8891 42.53 15.3274 42.4244 14.7868C42.3189 14.2462 41.886 13.8108 41.242 13.6002L38.2069 12.5891C37.9746 12.5119 37.7899 12.3504 37.6896 12.1327C37.5893 11.9221 37.584 11.6764 37.6737 11.4447L38.8403 8.47467C39.0725 7.88488 39.0409 7.32318 38.7505 6.89488C38.418 6.41042 37.8426 6.17872 37.0878 6.3051L33.9312 6.81765C33.4245 6.90191 32.9864 6.55084 32.9283 6.05233L32.5799 2.87872C32.4691 1.83255 31.767 1.36213 31.123 1.36213C30.7588 1.36213 30.3735 1.50255 30.0198 1.76936L27.4597 3.68617C27.0638 3.98106 26.4937 3.88276 26.2192 3.47553L24.4351 0.821488C24.0762 0.287872 23.5905 0 23.0732 0C22.482 0 21.9594 0.379148 21.6533 1.03213L20.2809 3.91787C20.0697 4.36021 19.526 4.54276 19.0826 4.31106L16.2692 2.79446C15.5513 2.40829 14.7964 2.47851 14.3319 2.95595C14.1208 3.18063 13.8674 3.58787 13.8938 4.26893L14.0205 7.46361C14.0311 7.70935 13.9466 7.93403 13.783 8.10254C13.6193 8.27105 13.3976 8.36233 13.1443 8.36233L9.91377 8.32722C9.24868 8.32722 8.71026 8.59403 8.44106 9.07148C8.16657 9.54892 8.20352 10.1528 8.53607 10.7355L10.1355 13.5019C10.2569 13.7125 10.2886 13.9583 10.2199 14.183C10.1513 14.4076 9.99295 14.5972 9.77653 14.7096L6.92611 16.1559C6.31907 16.4649 5.96013 16.9564 5.93374 17.504C5.91263 18.0517 6.22406 18.5783 6.79415 18.9364L9.49677 20.6495C9.70263 20.7829 9.84515 20.9795 9.88738 21.2112C9.93489 21.4429 9.8821 21.6817 9.73958 21.8853L7.88681 24.4902C7.49619 25.0449 7.40646 25.6487 7.63871 26.1472C7.87097 26.6457 8.39355 26.9617 9.0692 27.0178L10.3572 27.1232L0.227616 36.2227C0.021752 36.4053 -0.0521478 36.7002 0.0375877 36.9599ZM37.2356 31.4623C37.2778 31.4202 37.3201 31.371 37.357 31.3148C37.4731 31.2306 37.584 31.1393 37.6684 31.027C37.964 30.6338 38.0327 30.0931 37.8638 29.5104L37.5787 28.5204L45.2009 36.9599L39.9118 37.4514C39.5846 37.4795 39.3259 37.7393 39.289 38.0623L38.7505 42.6542L31.1653 34.2568L31.7565 31.378C31.7776 31.2727 31.8198 31.1814 31.8726 31.0902C32.0573 30.9919 32.2738 30.9638 32.4849 31.02L35.5834 31.8204C36.2432 31.9959 36.845 31.8625 37.2356 31.4623ZM9.19061 25.6276C8.97947 25.6136 8.88973 25.5504 8.88445 25.5363C8.88445 25.5363 8.88445 25.5223 8.88445 25.5083C8.88973 25.4591 8.91613 25.3678 9.01114 25.2415L10.8639 22.6366C10.9537 22.5102 11.0276 22.3768 11.0909 22.2364C11.2756 21.8221 11.3284 21.3657 11.2387 20.9164C11.1226 20.3195 10.7636 19.8 10.241 19.47L7.53842 17.7568C7.44869 17.7006 7.3959 17.6515 7.35895 17.6093C7.322 17.5672 7.31144 17.5391 7.31144 17.5321C7.31144 17.511 7.36951 17.4198 7.56482 17.3285L9.02698 16.5842L10.41 15.8821C10.9642 15.6013 11.3654 15.1238 11.5396 14.534C11.7085 13.9723 11.6399 13.3825 11.3654 12.863C11.3495 12.8419 11.339 12.8138 11.3284 12.7927L9.72902 10.0264C9.64985 9.88594 9.62873 9.79467 9.62873 9.74552C9.62873 9.73148 9.62873 9.72445 9.62873 9.71743C9.62873 9.71743 9.64457 9.70339 9.6604 9.69637C9.70263 9.67531 9.78709 9.64722 9.94545 9.64722H10.7689L13.1706 9.68935C13.7882 9.68935 14.3583 9.45063 14.7806 9.00829C14.9917 8.79063 15.1501 8.53786 15.2557 8.25701C15.2662 8.22892 15.2662 8.20084 15.2768 8.17276C15.3612 7.91999 15.4088 7.65318 15.3929 7.37233L15.2662 4.17765C15.2557 3.95999 15.3085 3.86872 15.3507 3.85468C15.3824 3.85468 15.4774 3.8617 15.6305 3.94595L17.9425 5.19574L18.4492 5.46957C18.4809 5.49063 18.5178 5.50467 18.5548 5.51872C18.8557 5.65914 19.1882 5.7434 19.5155 5.7434C20.0908 5.7434 20.624 5.51872 21.0251 5.13957C21.2257 4.94999 21.3946 4.72531 21.5161 4.47255L22.8885 1.58681C22.9149 1.53064 22.9413 1.48851 22.9624 1.4534C23.0046 1.39021 23.0416 1.3551 23.0627 1.34106C23.0679 1.34106 23.0785 1.32702 23.0785 1.32702C23.0838 1.32702 23.1049 1.34106 23.1313 1.3551C23.1418 1.36213 23.1577 1.37617 23.1735 1.39021C23.2157 1.42532 23.2633 1.47447 23.316 1.5517L24.5248 3.34914L25.1002 4.20574C25.2374 4.40936 25.4116 4.58489 25.6017 4.73233C25.9817 5.02723 26.4515 5.19574 26.9424 5.19574C27.0849 5.19574 27.2275 5.17467 27.3647 5.15361C27.692 5.09042 28.0034 4.95701 28.2832 4.74638L29.3283 3.95999L30.8433 2.82957C30.9858 2.72425 31.0755 2.70319 31.1125 2.69617H31.1336C31.1336 2.69617 31.2128 2.78744 31.2392 2.99808L31.5875 6.17169C31.6403 6.64212 31.8304 7.06339 32.1207 7.39339C32.2262 7.51978 32.3529 7.6251 32.4849 7.72339C32.9441 8.06041 33.5353 8.2219 34.1529 8.12361L37.3148 7.61105C37.489 7.58297 37.6262 7.61807 37.6368 7.6251C37.6368 7.6251 37.6368 7.63914 37.6421 7.64616C37.6473 7.68829 37.6473 7.78659 37.584 7.94105L36.4121 10.911C36.3858 10.9813 36.3594 11.0515 36.3382 11.1287C36.3382 11.1287 36.333 11.1638 36.3277 11.1779C36.2221 11.5851 36.2327 12.0134 36.3646 12.4066C36.391 12.4908 36.4227 12.5821 36.4649 12.6664C36.5124 12.7717 36.5758 12.863 36.6391 12.9613C36.9083 13.3685 37.3042 13.6774 37.7793 13.8389L40.0438 14.5972L40.8145 14.857C40.9517 14.8991 41.0256 14.9553 41.0626 14.9834C41.0784 14.9974 41.0942 15.0115 41.0942 15.0185C41.0942 15.0325 41.0784 15.0817 41.0203 15.1519C40.9887 15.187 40.957 15.2291 40.8989 15.2783L39.3787 16.5913L38.4761 17.3706C38.0063 17.7778 37.7318 18.3325 37.7001 18.9504C37.6684 19.5612 37.8901 20.144 38.323 20.5934L40.54 22.8964C40.6878 23.0508 40.7089 23.1561 40.7089 23.1702C40.7089 23.1702 40.7036 23.1772 40.6931 23.1842H40.6878C40.6508 23.2193 40.5717 23.2755 40.4133 23.3106L37.2989 24.0408C36.6919 24.1812 36.1904 24.5534 35.879 25.08C35.8104 25.1993 35.7576 25.3187 35.7101 25.4451V25.4591C35.6573 25.5855 35.6256 25.7119 35.6045 25.8453C35.3195 26.3087 35.1875 26.6878 35.3195 27.1232L36.2063 30.1914L33.1553 29.398C33.0286 29.3629 32.9019 29.3489 32.7752 29.3349C32.7119 29.3349 32.6485 29.3208 32.5852 29.3208C32.4691 29.3208 32.3529 29.3349 32.2421 29.3489C32.2157 29.3489 32.1946 29.3489 32.1682 29.3629C32.0679 29.384 31.9729 29.4051 31.8779 29.4402C31.8409 29.4542 31.7987 29.4683 31.7617 29.4823C31.7037 29.5034 31.6456 29.5314 31.5875 29.5595C31.5136 29.5946 31.4397 29.6368 31.3711 29.6859C31.35 29.7 31.3236 29.714 31.3025 29.7351C31.1969 29.8123 31.0966 29.8966 31.0016 29.9949C30.5213 30.3249 30.1887 30.8163 30.0673 31.3921L29.5131 34.0812C29.4814 34.2287 29.5025 34.3691 29.5659 34.5025C29.5659 34.5025 29.5183 34.4744 29.492 34.4604H29.4761C29.4444 34.4253 29.4075 34.3972 29.3653 34.3621L26.9952 32.2136C26.821 32.0521 26.6204 31.9327 26.4093 31.8414C26.1242 31.708 25.8128 31.6378 25.4961 31.6378C25.1108 31.6378 24.7413 31.7431 24.414 31.9257C24.3031 31.9889 24.1976 32.0591 24.0973 32.1434C23.9811 32.2417 23.8703 32.347 23.7753 32.4663L21.7483 34.9378C21.7219 34.9729 21.6955 35.001 21.6691 35.0221C21.6375 35.0502 21.6111 35.0782 21.59 35.0923H21.5741C21.5372 35.1274 21.5055 35.1414 21.4949 35.1414C21.4949 35.1414 21.4791 35.1344 21.4685 35.1204C21.4316 35.0853 21.3735 35.008 21.3207 34.8676L20.5817 32.8525C20.7665 32.6629 20.8351 32.3821 20.7401 32.1293L20.6873 31.9889C20.4709 31.3991 20.0433 30.9427 19.4785 30.697C19.2885 30.6127 19.0879 30.5636 18.882 30.5355C18.7659 30.4934 18.6498 30.4653 18.5284 30.4442H18.5178C18.3964 30.4161 18.2697 30.4091 18.1378 30.4091C17.9847 30.4091 17.8369 30.4231 17.6891 30.4512C17.5413 30.4793 17.3988 30.5285 17.2563 30.5846L14.4322 31.7853C14.4322 31.7853 14.4322 31.7361 14.4375 31.701L14.8651 28.5344C14.9495 27.9095 14.7806 27.3057 14.39 26.8283C14.0311 26.3859 13.519 26.1051 12.9489 26.0278C12.8698 25.9998 12.7959 25.9787 12.7114 25.9576C12.6006 25.9295 12.4844 25.9015 12.3683 25.8944L11.2915 25.8102L9.18005 25.6417L9.19061 25.6276ZM11.9988 27.4812L12.7009 27.397C12.7642 27.4391 12.8275 27.4953 12.875 27.5585C13.0228 27.741 13.0862 27.9797 13.0545 28.2185L12.6322 31.3851C12.5583 31.9397 12.6797 32.4383 12.9859 32.7823C13.2023 33.028 13.4926 33.1825 13.8252 33.2246C14.2475 33.4423 14.7753 33.4423 15.319 33.2106L18.2592 31.9608C18.37 31.9117 18.4862 31.8906 18.6023 31.8906C18.7606 31.9889 18.8873 32.1363 18.9559 32.3259L18.9929 32.4242L8.28798 42.0644L8.12962 37.2619C8.11906 36.9108 7.84458 36.6229 7.49091 36.5948L2.3496 36.1806L11.9988 27.4883V27.4812Z" fill="black"/>
</svg>
