<svg width="51" height="36" viewBox="0 0 51 36" fill="none" xmlns="http://www.w3.org/2000/svg">
<g clip-path="url(#clip0_550_51841)">
<path d="M10.9429 16.4195L14.1254 7.50972H16.9163L22.4288 23.0474L24.4431 17.2423L25.8449 16.4241H31.1175L34.3 7.51426H37.0973L40.2797 16.4241H49.442C50.0608 14.9012 50.4459 13.2557 50.4459 11.5555C50.4459 5.16861 43.9295 0.00454583 35.9291 0.00454583C31.7426 0.00454583 27.8592 1.47285 25.2135 3.70031C22.5867 1.4683 18.7854 0 14.5926 0C6.59226 0 0 5.15952 0 11.551C0 13.2511 0.467268 14.8967 1.08608 16.4195H10.9429Z" fill="#3F6B68"/>
<path d="M39.1165 18.649H48.2787C42.1474 28.618 25.2248 35.064 25.2248 35.064C25.2248 35.064 8.3842 28.618 2.24658 18.649H12.0276L13.4231 17.8262L15.5195 12.0211L21.032 27.5588H23.823L27.0054 18.6444H32.2085L33.604 17.8216L35.6183 12.0166L37.7147 17.8216L39.1102 18.6444L39.1165 18.649Z" stroke="black" stroke-width="1.26131" stroke-miterlimit="10"/>
</g>
<defs>
<clipPath id="clip0_550_51841">
<rect width="50.4523" height="35.3166" fill="white"/>
</clipPath>
</defs>
</svg>
