<svg width="48" height="48" viewBox="0 0 48 48" fill="none" xmlns="http://www.w3.org/2000/svg">
<path d="M47.3381 39.3451V1.5557C47.3381 0.947496 46.8767 0.460938 46.3104 0.460938H1.02772C0.461426 0.460938 0 0.957633 0 1.5557V39.3451C0 39.9533 0.461426 40.4399 1.02772 40.4399H46.3034C46.8697 40.4399 47.3311 39.9432 47.3311 39.3451H47.3381ZM45.2827 38.2503H2.05544V2.66059H45.2757V38.2503H45.2827Z" fill="black"/>
<path d="M6.46327 31.9432H40.8605C41.4268 31.9432 41.8882 31.4465 41.8882 30.8484V6.09476C41.8882 5.48656 41.4268 5 40.8605 5H6.46327C5.89697 5 5.43555 5.4967 5.43555 6.09476V30.8484C5.43555 31.4566 5.89697 31.9432 6.46327 31.9432ZM7.49099 7.18951H39.8328V29.7537H7.49099V7.19965V7.18951Z" fill="#3F6B68"/>
<path d="M23.6655 32.8086C22.442 32.8086 21.4492 33.8628 21.4492 35.1704C21.4492 36.4781 22.442 37.5323 23.6655 37.5323C24.8889 37.5323 25.8747 36.4781 25.8747 35.1704C25.8747 33.8628 24.8819 32.8086 23.6655 32.8086ZM23.6655 36.2145C23.1271 36.2145 22.6867 35.7482 22.6867 35.1704C22.6867 34.5926 23.1271 34.1264 23.6655 34.1264C24.2038 34.1264 24.6442 34.5926 24.6442 35.1704C24.6442 35.7482 24.2038 36.2145 23.6655 36.2145Z" fill="black"/>
<path d="M35.5571 47.7969C36.1234 47.7969 36.5848 47.3002 36.5848 46.7022V42.8604C36.5848 42.2522 36.1234 41.7656 35.5571 41.7656H11.7797C11.2134 41.7656 10.752 42.2623 10.752 42.8604V46.7022C10.752 47.3104 11.2134 47.7969 11.7797 47.7969H35.5571ZM12.8144 43.9551H34.5294V45.5973H12.8074V43.9551H12.8144Z" fill="black"/>
</svg>
