<svg width="49" height="52" viewBox="0 0 49 52" fill="none" xmlns="http://www.w3.org/2000/svg">
<path d="M31.3502 50.2795H5.86186C3.18055 50.2795 1 48.1324 1 45.4959V11.8578C1 9.22134 3.18055 7.07422 5.86186 7.07422H10.7174C10.9456 7.07422 11.1294 7.2568 11.1294 7.47589V8.76854C11.1294 9.15561 11.4463 9.46234 11.833 9.46234H25.3854C25.772 9.46234 26.089 9.14831 26.089 8.76854V7.47589C26.089 7.2568 26.2728 7.07422 26.501 7.07422H31.3565C34.0378 7.07422 36.2184 9.22134 36.2184 11.8578V14.2824C36.2184 14.3554 36.1993 14.4212 36.1613 14.4869L29.7781 25.3685L30.7226 30.4296L35.3246 28.5308L35.4514 28.3117C35.5401 28.151 35.7303 28.0707 35.9141 28.1218C36.0916 28.1656 36.2184 28.3263 36.2184 28.5089V45.4959C36.2184 48.1324 34.0378 50.2795 31.3565 50.2795H31.3502ZM5.86186 7.87756C3.6306 7.87756 1.8177 9.65952 1.8177 11.8578V45.4959C1.8177 47.6869 3.6306 49.4688 5.86186 49.4688H31.3502C33.5814 49.4688 35.3943 47.6869 35.3943 45.4959V29.3706L30.5641 31.3571C30.45 31.4009 30.3233 31.4009 30.2092 31.3425C30.1014 31.2841 30.0254 31.1818 30 31.065L28.9351 25.3685C28.9161 25.2736 28.9351 25.1787 28.9858 25.0983L35.3943 14.1802V11.8651C35.3943 9.67413 33.5814 7.88487 31.3502 7.88487H26.9067V8.77585C26.9067 9.6011 26.2221 10.2803 25.3854 10.2803H11.833C10.9963 10.2803 10.3117 9.6084 10.3117 8.77585V7.88487H5.86186V7.87756Z" fill="#FAFCFC" stroke="black" stroke-width="1.65683" stroke-miterlimit="10"/>
<path d="M25.3842 10.2729H11.8319C10.9951 10.2729 10.3105 9.60103 10.3105 8.76848V6.18317C10.3105 5.35792 10.9951 4.68603 11.8319 4.68603H14.7794C14.9822 2.78722 16.624 1.30469 18.6017 1.30469C20.5794 1.30469 22.2275 2.78722 22.4303 4.68603H25.3842C26.2209 4.68603 26.9055 5.35792 26.9055 6.18317V8.76848C26.9055 9.59373 26.2209 10.2729 25.3842 10.2729ZM11.8319 5.49668C11.4452 5.49668 11.1283 5.80341 11.1283 6.19047V8.77578C11.1283 9.16284 11.4452 9.46958 11.8319 9.46958H25.3842C25.7709 9.46958 26.0878 9.15554 26.0878 8.77578V6.19047C26.0878 5.81071 25.7709 5.49668 25.3842 5.49668H22.0437C21.8155 5.49668 21.6316 5.3141 21.6316 5.09501C21.6316 3.4518 20.2688 2.11533 18.6017 2.11533C16.9346 2.11533 15.5717 3.4518 15.5717 5.09501C15.5717 5.3141 15.3879 5.49668 15.1597 5.49668H11.8192H11.8319Z" fill="#FAFCFC" stroke="black" stroke-width="1.65683" stroke-miterlimit="10"/>
<path d="M29.9345 19.3151H7.27335C7.04515 19.3151 6.86133 19.1325 6.86133 18.9134C6.86133 18.6943 7.04515 18.5117 7.27335 18.5117H29.9345C30.1627 18.5117 30.3466 18.6943 30.3466 18.9134C30.3466 19.1325 30.1627 19.3151 29.9345 19.3151Z" fill="#FAFCFC" stroke="#3F6B68" stroke-width="1.65683" stroke-miterlimit="10"/>
<path d="M30.4036 31.3918C30.3339 31.3918 30.2705 31.3772 30.2071 31.3407C30.0994 31.2823 30.0233 31.18 29.9979 31.0632L28.933 25.3667C28.914 25.2718 28.933 25.1768 28.9837 25.0965L40.7359 5.06405C41.1542 4.34834 41.9402 3.91016 42.7769 3.91016C43.189 3.91016 43.5883 4.0124 43.9433 4.21689L46.8465 5.86739C47.9684 6.50276 48.3551 7.91957 47.7085 9.02234L35.9564 29.0402C35.912 29.1132 35.8423 29.179 35.7599 29.2082L30.5557 31.348C30.505 31.3699 30.4543 31.3772 30.3973 31.3772L30.4036 31.3918ZM29.7697 25.3594L30.7142 30.4205L35.3225 28.5217L47.0049 8.62067C47.4233 7.89766 47.1761 6.97747 46.4408 6.56119L43.5376 4.91068C42.834 4.50901 41.8515 4.77192 41.4458 5.46572L29.7697 25.3594Z" fill="black"/>
<path d="M35.6015 29.253C35.5318 29.253 35.462 29.2384 35.3986 29.2019L29.1359 25.6453C28.9394 25.5357 28.876 25.2874 28.9838 25.0975C29.0979 24.9076 29.3451 24.8419 29.5416 24.9515L35.8043 28.5081C36.0008 28.6176 36.0642 28.8659 35.9565 29.0558C35.8804 29.1873 35.7409 29.2603 35.6015 29.2603V29.253Z" fill="black"/>
<path d="M32.4774 27.4702C32.4077 27.4702 32.338 27.4555 32.2746 27.419C32.0781 27.3095 32.0147 27.0612 32.1225 26.8713L42.8667 8.56237C42.9808 8.37249 43.228 8.30676 43.4245 8.41631C43.621 8.52586 43.6844 8.77416 43.5767 8.96404L32.8324 27.273C32.7563 27.4044 32.6169 27.4775 32.4774 27.4775V27.4702Z" fill="black"/>
<path d="M30.4072 31.3932H7.74601C7.51781 31.3932 7.33398 31.2106 7.33398 30.9915C7.33398 30.7724 7.51781 30.5898 7.74601 30.5898H30.4072C30.6354 30.5898 30.8192 30.7724 30.8192 30.9915C30.8192 31.2106 30.6354 31.3932 30.4072 31.3932Z" fill="#FAFCFC" stroke="#3F6B68" stroke-width="1.65683" stroke-miterlimit="10"/>
<path d="M7.87723 45.6946C7.76947 45.6946 7.66805 45.6581 7.58565 45.5777C7.42718 45.4171 7.42718 45.1687 7.58565 45.0081L12.213 40.4582C12.3334 40.3414 12.5172 40.3049 12.6757 40.3779L17.2016 42.4301L20.6436 39.1875C20.726 39.1072 20.8337 39.0779 20.9478 39.0779L23.496 39.2167L27.6162 35.1635C27.7747 35.0028 28.0346 35.0028 28.1931 35.1635C28.3515 35.3241 28.3515 35.5724 28.1931 35.7331L23.9461 39.9105C23.8637 39.9908 23.7496 40.0273 23.6355 40.0273L21.0809 39.8886L17.5693 43.2042C17.4488 43.3211 17.265 43.3503 17.1129 43.2772L12.587 41.2251L8.16248 45.5777C8.08008 45.6581 7.97865 45.6946 7.87089 45.6946H7.87723Z" fill="#FAFCFC" stroke="black" stroke-width="1.65683" stroke-miterlimit="10"/>
<path d="M28.3608 38.0089C28.1326 38.0089 27.9488 37.8263 27.9488 37.6072V35.4674H25.9648C25.7366 35.4674 25.5527 35.2848 25.5527 35.0657C25.5527 34.8466 25.7366 34.6641 25.9648 34.6641H28.3545C28.5827 34.6641 28.7665 34.8466 28.7665 35.0657V37.6072C28.7665 37.8263 28.5827 38.0089 28.3545 38.0089H28.3608Z" fill="#FAFCFC" stroke="black" stroke-width="1.65683" stroke-miterlimit="10"/>
</svg>
