<svg width="48" height="39" viewBox="0 0 48 39" fill="none" xmlns="http://www.w3.org/2000/svg">
<path d="M35.6429 0.78125L31.6085 4.70256C31.4044 4.678 31.2003 4.65344 31.0041 4.64525C29.5598 4.08039 26.9932 3.67925 23.9791 5.93053L23.9085 5.98783L22.9195 6.95383C19.1911 4.4979 16.2399 6.01239 15.4079 6.54451L11.6952 2.93429L0 14.3053L4.43476 18.6113C4.46616 20.5433 5.17258 22.5245 6.54618 24.5219C7.11132 25.3488 7.77064 26.1019 8.48491 26.8142C9.39541 27.7147 10.3216 28.607 11.2478 29.4993C10.251 30.9156 10.6748 32.078 11.7188 33.1341C12.7941 34.2229 13.7909 34.3539 15.2509 33.9445C15.2666 33.9445 15.2744 33.9445 15.2823 33.9609C16.334 35.4918 17.2995 36.2286 18.3434 36.3104C18.7751 36.7198 19.2068 37.1373 19.6385 37.5384C20.9258 38.75 22.8959 39.0201 24.4579 38.1524C25.1329 37.7758 25.2428 37.4729 25.5882 36.9408C28.2176 39.0856 29.9758 39.1266 32.048 36.114C32.048 36.1058 32.0716 36.0976 32.0794 36.0976C33.5393 36.5069 34.5362 36.3841 35.6115 35.2871C36.7104 34.1738 37.1264 32.9294 35.9019 31.4067C35.8941 31.3986 35.5801 30.9974 35.588 30.9974C36.4671 31.022 37.1578 30.4817 37.5424 29.9987C38.5628 28.7216 38.5 27.379 37.409 26.0528C37.8878 25.5862 38.3666 25.1277 38.8454 24.6529C39.5596 23.9489 40.219 23.1876 40.7841 22.3607C42.1577 20.3632 42.8641 18.3821 42.8955 16.4501L47.3303 12.144L35.6429 0.78125ZM9.19919 25.1605C7.85698 23.777 6.84444 22.2543 6.40489 20.527C6.30285 20.1422 6.24006 19.7492 6.20082 19.3399C6.16942 19.0043 6.16157 18.6686 6.16942 18.3248L1.67187 13.9532L11.3341 4.5552L14.4346 7.56781L14.6386 7.76429L14.6229 7.79703L16.1221 7.91983L16.2163 7.68243C16.805 7.28948 19.2539 5.97146 22.527 8.39465L26.8519 12.6189C27.0717 12.8317 27.1894 13.1182 27.1894 13.4211C27.1894 13.724 27.0717 14.0105 26.8519 14.2152L26.5693 14.4935C26.1141 14.9356 25.3841 14.9274 24.9289 14.4935L20.5019 10.1711L19.4266 10.8997L20.6275 12.2668L21.1456 12.7744C20.6354 13.2656 20.1252 13.765 19.6228 14.2561C19.4972 14.3789 19.4266 14.5099 19.3874 14.6491C19.3638 14.6737 19.3403 14.6982 19.3089 14.7228C16.334 17.6208 13.3435 20.5106 10.3766 23.4086C9.78002 23.9898 9.39541 24.5793 9.19919 25.1605ZM23.5553 36.8835C23.2099 37.2028 22.8645 37.391 22.3465 37.3583C21.6401 37.301 21.1456 36.7771 20.8081 36.4496C20.5961 36.2531 20.392 36.0485 20.1801 35.8438C20.6746 35.59 21.1848 35.2298 21.75 34.7796C22.0953 35.3117 22.2052 35.6228 22.8802 35.9912C23.1785 36.1631 23.5003 36.2859 23.8221 36.3677C23.7672 36.5806 23.6808 36.7689 23.5553 36.8835ZM29.9366 36.3022C29.2694 37.0636 28.5159 37.1291 27.5426 36.2531C27.3935 36.114 27.2443 35.983 27.0952 35.8438C27.3071 35.7046 27.5112 35.5573 27.6996 35.3772C28.2569 34.8532 28.8063 34.3293 29.3558 33.8054C29.4107 33.8627 29.4735 33.92 29.5363 33.9773C30.4468 34.8696 30.5724 35.5818 29.9444 36.3022H29.9366ZM34.5597 33.9527C33.8926 34.8451 32.8643 34.8614 31.946 33.9773C31.4907 33.5352 31.0355 33.0932 30.5802 32.6511C31.3337 31.9389 32.0873 31.2266 32.8408 30.5062C33.2646 30.9156 33.6885 31.3331 34.1123 31.7424C34.9286 32.5365 35.0699 33.2896 34.5676 33.9609L34.5597 33.9527ZM36.4357 28.6888C36.0982 29.5157 35.0778 29.9086 34.2772 29.4829C34.1987 29.442 34.1202 29.3929 34.0495 29.3438C34.7717 28.6479 35.4938 27.9439 36.2159 27.2398C36.5299 27.641 36.6869 28.0912 36.4357 28.697V28.6888ZM41.1844 16.1718C41.1923 16.5156 41.1844 16.8594 41.153 17.1869C41.1138 17.5962 41.0431 17.9892 40.9489 18.3739C40.5015 20.1095 39.489 21.6403 38.1389 23.032C36.3022 24.9067 34.3792 26.7077 32.4954 28.5415C30.5174 30.4653 28.5473 32.3973 26.5536 34.3048C26.2083 34.6322 25.7216 35.1561 25.0152 35.2134C24.505 35.2544 24.1518 35.0579 23.8064 34.7386C23.5003 34.4521 23.3983 33.7399 23.516 33.2978C23.6416 32.8148 24.0811 32.3809 24.4658 31.9962C25.3684 31.0957 26.2868 30.2197 27.1973 29.3274C27.6447 28.8935 28.0842 28.4596 28.5238 28.0176C28.9869 27.5509 30.3448 26.5686 29.5834 25.8727C28.8848 25.2342 27.8801 26.4621 27.4563 26.8796C27.0089 27.3135 26.5693 27.7474 26.1141 28.1731C24.0184 30.1624 21.954 32.1763 19.8112 34.1083C18.8379 34.9842 18.0844 34.9187 17.4172 34.1574C16.7893 33.437 16.907 32.7166 17.8254 31.8324C20.1958 29.5239 22.5741 27.2153 24.9445 24.9067C25.2742 24.5793 25.5646 24.3746 25.6274 23.8752C25.6745 23.5068 25.5332 23.1876 25.1486 23.1302C24.4971 23.032 24.2146 23.2776 23.7907 23.6869C20.9964 26.4048 18.21 29.1227 15.4079 31.8324C14.4895 32.7248 13.4613 32.7002 12.7941 31.8079C12.2917 31.1448 12.433 30.3916 13.2493 29.5894C16.0829 26.8223 18.9243 24.0635 21.7656 21.3129C22.2287 20.8626 22.5977 20.3632 22.0247 19.8393C21.4831 19.3481 21.0121 19.782 20.5961 20.1831C18.4141 22.3116 16.2242 24.4401 14.0343 26.5604C13.7438 26.8387 13.4377 27.1334 13.0767 27.3217C12.2682 27.7556 11.2557 27.3626 10.9181 26.5276C10.5649 25.6762 11.0202 25.1359 11.5696 24.6038C15.2038 21.0836 18.8301 17.5717 22.4328 14.0187L23.9163 15.4677C24.4187 15.9589 25.0858 16.2127 25.753 16.2127C26.4123 16.2127 27.0795 15.9671 27.5819 15.4759L27.8644 15.1976C28.3511 14.7228 28.6258 14.0924 28.6258 13.4129C28.6258 12.7826 28.3825 12.185 27.9508 11.7183L24.6541 8.47651L24.0105 7.84615L24.8896 6.98658C26.2554 5.97964 27.472 5.61944 28.4688 5.57851C30.3055 5.41478 31.9303 6.34803 31.9303 6.34803L32.9036 5.39841L36.004 2.38579L45.6741 11.7838L41.1766 16.1554L41.1844 16.1718Z" fill="#3F6B68"/>
</svg>
