<svg width="98" height="104" viewBox="0 0 98 104" fill="none" xmlns="http://www.w3.org/2000/svg">
<g clip-path="url(#clip0_0_1)">
<path d="M34.5436 63.5122C35.0575 64.9644 35.6608 66.3239 36.5098 67.6216C39.1687 71.6693 42.7884 74.3574 47.5029 75.2843C52.061 76.1804 56.3734 75.4388 60.3506 72.9052C60.4176 72.8743 60.4846 72.8434 60.5517 72.7816C62.4062 74.2647 64.2831 75.7169 66.1376 77.2C67.3665 78.1578 68.5731 79.1157 69.802 80.0735C68.9306 80.9387 67.9474 81.7111 66.942 82.4218C63.6574 84.6773 60.0378 86.0986 56.1276 86.7475C54.5189 87.0256 52.8878 87.1492 51.2567 87.1801H49.5586C49.1564 87.0874 48.7318 87.1183 48.3296 87.0874C45.1792 86.8093 42.1628 86.0677 39.2581 84.77C33.9403 82.3909 29.695 78.714 26.5222 73.7703C25.9636 72.8743 25.4273 71.9783 24.9805 71.0204C25.0475 70.9895 25.1145 70.9277 25.1592 70.8968C28.2873 68.425 31.4155 65.984 34.5212 63.5122H34.5436Z" fill="black"/>
<path d="M24.9802 44.8186C25.3824 43.8916 25.9187 43.0265 26.4549 42.1614C29.4266 37.4649 33.3815 33.8807 38.3418 31.4707C41.023 30.142 43.8607 29.2769 46.81 28.9061C52.2843 28.1955 57.5574 28.8752 62.607 31.1926C65.2436 32.3976 67.6344 34.0352 69.757 36.0436C69.8241 36.1054 69.8688 36.1671 69.9358 36.2289C69.9358 36.2289 69.9358 36.2289 69.9358 36.2598L61.7356 44.5714C61.5792 44.4169 61.4005 44.2624 61.2217 44.1079C58.7863 41.976 55.9486 40.7091 52.7535 40.3384C45.8046 39.5041 39.5036 43.0574 36.1074 48.8044C35.4594 49.9167 34.9455 51.0909 34.4987 52.3268C33.6943 51.7088 32.9123 51.06 32.1079 50.442C30.5438 49.2061 28.9798 47.9702 27.3934 46.7343C26.589 46.0854 25.7623 45.4674 24.9355 44.8186H24.9802Z" fill="black"/>
<path d="M69.7801 80.0733C68.5512 79.1155 67.3447 78.1577 66.1158 77.1998C64.2612 75.7167 62.3844 74.2645 60.5298 72.7814C61.4012 72.1325 62.2279 71.4528 62.9653 70.6494C64.6858 68.7647 65.7806 66.5709 66.2945 64.0373H50.7656V53.0376H77.8909C78.0026 53.3775 78.025 53.7174 78.0696 54.0881C78.3154 56.0038 78.4271 57.8886 78.3601 59.8043C78.1814 64.5316 77.1759 69.0427 74.9862 73.2449C73.6679 75.7476 72.0145 77.9723 69.9812 79.9188C69.9365 79.9497 69.8695 80.0115 69.8248 80.0424L69.7801 80.0733Z" fill="black"/>
<path d="M24.9822 44.819C25.8089 45.4678 26.6132 46.0858 27.44 46.7347C29.004 47.9706 30.5681 49.2065 32.1545 50.4424C32.9589 51.0604 33.7409 51.7092 34.5453 52.3272C34.2325 53.3777 33.9643 54.4592 33.8079 55.5406C33.5845 57.1473 33.6068 58.7231 33.8079 60.3298C33.942 61.4112 34.2325 62.4617 34.5453 63.5123C31.4171 65.9841 28.289 68.425 25.1832 70.8969C25.1162 70.9587 25.0492 70.9896 25.0045 71.0205C24.2895 69.661 23.7309 68.2396 23.2617 66.7565C22.2339 63.5432 21.787 60.268 21.8764 56.9001C22.0104 52.698 23.0383 48.7121 24.8704 44.9426C24.8928 44.8808 24.9375 44.8499 24.9598 44.7881L24.9822 44.819Z" fill="black"/>
</g>
<path d="M84.5581 1H11.4419C5.675 1 1 7.9133 1 16.4413V87.5587C1 96.0867 5.675 103 11.4419 103H84.5581C90.325 103 95 96.0867 95 87.5587V16.4413C95 7.9133 90.325 1 84.5581 1Z" stroke="black" stroke-width="0.75" stroke-miterlimit="10"/>
<defs>
<clipPath id="clip0_0_1">
<rect width="56.4849" height="58.5517" fill="white" transform="translate(21.875 28.6284)"/>
</clipPath>
</defs>
</svg>
