<svg width="97" height="99" viewBox="0 0 97 99" fill="none" xmlns="http://www.w3.org/2000/svg">
<g clip-path="url(#clip0_0_1)">
<path d="M85.5646 1.21094H11.46C5.61516 1.21094 0.876953 7.75893 0.876953 15.8363V83.1958C0.876953 91.2732 5.61516 97.8212 11.46 97.8212H85.5646C91.4095 97.8212 96.1477 91.2732 96.1477 83.1958V15.8363C96.1477 7.75893 91.4095 1.21094 85.5646 1.21094Z" stroke="black" stroke-width="0.75" stroke-miterlimit="10"/>
</g>
<path d="M49.0009 33.5C39.3335 33.5 31.4746 42.5545 31.4746 53.75C31.4746 64.9455 39.3112 74 49.0009 74C58.6906 74 66.5272 64.9455 66.5272 53.75C66.5272 42.5545 58.6906 33.5 49.0009 33.5ZM49.0009 66.8803C42.7272 66.8803 37.6367 60.9987 37.6367 53.75C37.6367 46.5013 42.7272 40.6197 49.0009 40.6197C55.2747 40.6197 60.3651 46.5013 60.3651 53.75C60.3651 60.9987 55.2747 66.8803 49.0009 66.8803Z" fill="black"/>
<path d="M73.0174 32C73.0174 34.4836 70.9814 36.5 68.4735 36.5C65.9657 36.5 63.9297 34.4836 63.9297 32C63.9297 29.5164 65.9657 27.5 68.4735 27.5C70.9814 27.5 73.0174 29.5164 73.0174 32" fill="black"/>
<path d="M49 23.4791C58.8796 23.4791 60.0419 23.5262 63.9404 23.6911C67.5484 23.856 69.5098 24.445 70.8174 24.9398C72.5366 25.5995 73.7716 26.377 75.0792 27.6257C76.3626 28.8743 77.1859 30.0759 77.8397 31.7723C78.3482 33.0445 78.9535 34.9529 79.123 38.4633C79.2925 42.2565 79.341 43.3874 79.341 53C79.341 62.6126 79.2925 63.7435 79.123 67.5366C78.9535 71.0471 78.3482 72.9555 77.8397 74.2278C77.1616 75.9005 76.3626 77.1021 75.0792 78.3743C73.7958 79.6466 72.5609 80.4241 70.8174 81.0602C69.5098 81.555 67.5484 82.144 63.9404 82.3089C60.0419 82.4738 58.8796 82.5209 49 82.5209C39.1204 82.5209 37.9581 82.4738 34.0596 82.3089C30.4516 82.144 28.4902 81.555 27.1826 81.0602C25.4634 80.4005 24.2284 79.623 22.9208 78.3743C21.6374 77.1257 20.8141 75.9241 20.1603 74.2278C19.6518 72.9555 19.0465 71.0471 18.877 67.5366C18.7075 63.7435 18.659 62.6126 18.659 53C18.659 43.3874 18.7075 42.2565 18.877 38.4633C19.0465 34.9529 19.6518 33.0445 20.1603 31.7723C20.8383 30.0995 21.6374 28.8979 22.9208 27.6257C24.2042 26.377 25.4391 25.5759 27.1826 24.9398C28.4902 24.445 30.4516 23.856 34.0596 23.6911C37.9581 23.5262 39.1204 23.4791 49 23.4791ZM49 17C38.9509 17 37.6918 17.0471 33.7448 17.212C29.7978 17.377 27.1099 17.9895 24.7611 18.8848C22.3397 19.8037 20.2572 21.0288 18.199 23.0314C16.1407 25.034 14.8815 27.0366 13.9372 29.4162C13.017 31.7016 12.3874 34.3168 12.2179 38.1571C12.0484 41.9974 12 43.2225 12 53C12 62.7775 12.0484 64.0026 12.2179 67.8429C12.3874 71.6832 13.017 74.2984 13.9372 76.5838C14.8815 78.9398 16.1407 80.966 18.199 82.9686C20.2572 84.9712 22.3154 86.1963 24.7611 87.1152C27.1099 88.0105 29.7978 88.623 33.7448 88.788C37.6918 88.9529 38.9509 89 49 89C59.0491 89 60.3082 88.9529 64.2552 88.788C68.2022 88.623 70.8901 88.0105 73.2389 87.1152C75.6846 86.1963 77.7428 84.9712 79.801 82.9686C81.8593 80.966 83.1185 78.9634 84.0628 76.5838C84.983 74.2984 85.6126 71.6832 85.7821 67.8429C85.9516 64.0026 86 62.7775 86 53C86 43.2225 85.9516 41.9974 85.7821 38.1571C85.6126 34.3168 84.983 31.7016 84.0628 29.4162C83.1185 27.0602 81.8593 25.034 79.801 23.0314C77.7428 21.0288 75.6846 19.8037 73.2389 18.8848C70.8901 17.9895 68.2022 17.377 64.2552 17.212C60.3082 17.0471 59.0491 17 49 17Z" fill="black"/>
<path d="M49.0009 33.5C39.3335 33.5 31.4746 42.5545 31.4746 53.75C31.4746 64.9455 39.3112 74 49.0009 74C58.6906 74 66.5272 64.9455 66.5272 53.75C66.5272 42.5545 58.6906 33.5 49.0009 33.5ZM49.0009 66.8803C42.7272 66.8803 37.6367 60.9987 37.6367 53.75C37.6367 46.5013 42.7272 40.6197 49.0009 40.6197C55.2747 40.6197 60.3651 46.5013 60.3651 53.75C60.3651 60.9987 55.2747 66.8803 49.0009 66.8803Z" fill="black"/>
<defs>
<clipPath id="clip0_0_1">
<rect width="97" height="99" fill="white"/>
</clipPath>
</defs>
</svg>
