<svg width="97" height="104" viewBox="0 0 97 104" fill="none" xmlns="http://www.w3.org/2000/svg">
<g clip-path="url(#clip0_0_1)">
<path d="M33.836 35.0355C33.836 38.4385 31.691 41.2171 27.6748 41.2171C23.9781 41.2171 21.5137 38.4385 21.5137 35.3477C21.5365 31.9448 24.001 28.854 27.6976 28.854C31.3943 28.854 33.8588 31.6326 33.8588 35.0355H33.836Z" fill="black"/>
<path d="M33.8366 44.3076H21.5371V84.4875H33.8366V44.3076Z" fill="black"/>
<path d="M63.3874 44.9321C56.9296 44.9321 53.2329 48.6473 51.704 51.1137H51.4074L50.7913 45.8687H39.7012C39.7012 49.2717 39.9978 53.299 39.9978 57.9196V84.4876H52.2973V62.5401C52.2973 61.2913 52.2973 60.3859 52.594 59.4493C53.5067 57.2952 55.0584 54.5166 58.4357 54.5166C62.7485 54.5166 64.5968 58.2318 64.5968 63.1645V84.4876H76.8963V61.6347C76.8963 50.2083 71.0546 44.9633 63.3646 44.9633L63.3874 44.9321Z" fill="black"/>
</g>
<path d="M85.447 1H11.553C5.72474 1 1 7.9133 1 16.4413V87.5587C1 96.0867 5.72474 103 11.553 103H85.447C91.2753 103 96 96.0867 96 87.5587V16.4413C96 7.9133 91.2753 1 85.447 1Z" stroke="black" stroke-width="0.75" stroke-miterlimit="10"/>
<defs>
<clipPath id="clip0_0_1">
<rect width="55.382" height="55.6337" fill="white" transform="translate(21.5371 28.854)"/>
</clipPath>
</defs>
</svg>
