<svg width="234" height="225" viewBox="0 0 234 225" fill="none" xmlns="http://www.w3.org/2000/svg">
<g clip-path="url(#clip0_307_1200)">
<path d="M75.3826 110.669C73.743 110.669 72.4082 111.703 72.4082 112.976V133.858C71.9138 138.605 67.2997 140.904 65.9897 141.389C51.5706 144.698 50.343 134.088 50.343 134.088V129.531C50.343 129.531 50.3677 102.638 50.3265 101.332C49.6261 93.0711 41.0983 90.936 39.8789 90.5912C28.9534 87.6924 23.433 93.6705 22.4278 94.9105V78.8895C22.4278 77.6167 21.093 76.582 19.4533 76.582C17.8137 76.582 16.4789 77.6167 16.4789 78.8895V123.438C16.4789 124.711 17.8054 125.745 19.4533 125.745C21.1012 125.745 22.4278 124.711 22.4278 123.438V102.556C22.9221 97.8092 27.5362 95.51 28.8463 95.0255C43.2653 91.7162 44.493 102.326 44.493 102.326V110.808C44.493 116.285 44.493 123.98 44.493 129.235V130.541C44.493 133.054 44.5012 134.786 44.5094 135.082C45.2098 143.343 53.7376 145.478 54.957 145.823C65.8825 148.722 71.403 142.744 72.4082 141.504V157.525C72.4082 158.797 73.743 159.832 75.3826 159.832C77.0223 159.832 78.357 158.797 78.357 157.525V112.976C78.357 111.703 77.0223 110.669 75.3826 110.669Z" fill="#0DB04B"/>
<path d="M64.1523 107.458C63.4602 99.2955 55.0312 97.1769 53.8201 96.8403C43.0182 93.9744 37.5636 99.8868 36.5667 101.11V85.27C36.5667 84.0136 35.2484 82.9954 33.6252 82.9954C32.002 82.9954 30.6837 84.0136 30.6837 85.27V129.309C30.6837 130.566 32.002 131.584 33.6252 131.584C35.2484 131.584 36.5667 130.566 36.5667 129.309V108.665C37.0528 103.976 41.6174 101.702 42.911 101.225C57.1653 97.957 58.3847 108.443 58.3847 108.443V116.836C58.3847 120.252 58.3847 124.53 58.3847 128.529C58.3847 129.769 59.6783 130.771 61.285 130.771C62.8917 130.771 64.1853 129.769 64.1853 128.529C64.1853 120.556 64.1853 108.32 64.1688 107.458" fill="#D71921"/>
<path d="M154.011 148.336V140.953L155.379 140.789V141.216C155.742 140.937 156.096 140.789 156.45 140.789C157.2 140.789 157.785 141.052 158.23 141.586C158.667 142.119 158.889 142.735 158.889 143.441C158.889 144.148 158.667 144.772 158.23 145.297C157.793 145.831 157.2 146.094 156.45 146.094C155.964 146.061 155.602 145.913 155.379 145.667V148.336H154.011ZM155.379 142.965V143.827C155.445 144.419 155.783 144.772 156.401 144.878C157.184 144.813 157.62 144.369 157.719 143.556C157.686 142.563 157.25 142.054 156.401 142.021C155.783 142.128 155.445 142.448 155.379 142.973V142.965Z" fill="#D71921"/>
<path d="M161.114 141.38C161.46 140.994 161.88 140.797 162.383 140.797C162.539 140.797 162.696 140.814 162.836 140.838L162.622 142.308C162.465 142.152 162.234 142.07 161.938 142.062C161.608 142.087 161.328 142.349 161.114 142.85V146.11H159.746V140.953L161.114 140.789V141.38Z" fill="#D71921"/>
<path d="M163.47 143.45C163.47 142.67 163.701 142.029 164.154 141.536C164.608 141.044 165.193 140.789 165.909 140.789C166.626 140.789 167.195 141.035 167.615 141.536C168.035 142.029 168.249 142.67 168.249 143.45V143.983H164.888C164.921 144.263 165.036 144.484 165.225 144.649C165.423 144.805 165.646 144.887 165.909 144.887C166.363 144.887 166.766 144.747 167.129 144.46L167.912 145.305C167.557 145.839 166.89 146.102 165.918 146.102C165.201 146.102 164.616 145.856 164.163 145.355C163.709 144.862 163.479 144.222 163.479 143.441M166.601 142.243C166.404 142.078 166.181 142.004 165.918 142.004C165.654 142.004 165.431 142.087 165.234 142.243C165.036 142.399 164.945 142.62 164.945 142.908H166.898C166.898 142.62 166.799 142.399 166.61 142.243H166.601Z" fill="#D71921"/>
<path d="M170.663 142.711V146.11H169.296V140.953L170.663 140.789V141.265C170.968 140.953 171.356 140.797 171.833 140.797C172.451 140.797 172.921 141.003 173.242 141.405C173.597 140.994 174.132 140.797 174.849 140.797C175.467 140.797 175.937 141.003 176.266 141.405C176.588 141.816 176.752 142.284 176.752 142.809V146.102H175.385V143.179C175.385 142.826 175.31 142.555 175.162 142.357C175.014 142.16 174.783 142.062 174.454 142.054C174.182 142.07 173.951 142.267 173.753 142.637C173.737 142.743 173.728 142.858 173.728 142.973V146.102H172.361V143.179C172.361 142.826 172.287 142.555 172.138 142.357C171.99 142.16 171.751 142.062 171.43 142.054C171.133 142.07 170.869 142.292 170.655 142.702" fill="#D71921"/>
<path d="M178.104 138.991C178.235 138.851 178.417 138.728 178.631 138.728C178.862 138.728 179.043 138.851 179.175 138.991C179.306 139.139 179.372 139.311 179.372 139.525C179.372 139.738 179.306 139.911 179.175 140.058C179.043 140.198 178.862 140.272 178.639 140.272C178.417 140.272 178.235 140.198 178.104 140.058C177.972 139.919 177.906 139.738 177.906 139.525C177.906 139.311 177.972 139.13 178.104 138.991ZM179.323 140.797H177.955V146.11H179.323V140.797Z" fill="#D71921"/>
<path d="M183.443 144.222V140.789H184.811V146.102H183.443V145.618C183.113 145.938 182.726 146.094 182.273 146.094C181.655 146.094 181.185 145.889 180.864 145.486C180.542 145.076 180.378 144.608 180.378 144.082V140.789H181.745V143.712C181.745 144.066 181.828 144.345 181.993 144.534C182.157 144.731 182.396 144.829 182.726 144.837C183.006 144.813 183.253 144.607 183.451 144.213" fill="#D71921"/>
<path d="M187.332 142.711V146.11H185.964V140.953L187.332 140.789V141.265C187.637 140.953 188.024 140.797 188.502 140.797C189.12 140.797 189.589 141.003 189.919 141.405C190.273 140.994 190.809 140.797 191.526 140.797C192.144 140.797 192.613 141.003 192.935 141.405C193.264 141.816 193.421 142.284 193.421 142.809V146.102H192.053V143.179C192.053 142.826 191.979 142.555 191.831 142.357C191.682 142.16 191.452 142.062 191.122 142.054C190.85 142.07 190.619 142.267 190.422 142.637C190.405 142.743 190.397 142.858 190.397 142.973V146.102H189.037V143.179C189.037 142.826 188.963 142.555 188.815 142.357C188.667 142.16 188.428 142.062 188.106 142.054C187.81 142.07 187.554 142.292 187.332 142.702" fill="#D71921"/>
<path d="M198.521 145.445C198.035 145.002 197.788 144.427 197.788 143.721V143.187C197.788 142.481 198.035 141.906 198.521 141.463C199.007 141.019 199.576 140.797 200.235 140.797C201.009 140.797 201.66 141.101 202.179 141.701L201.207 142.497C200.919 142.177 200.589 142.021 200.235 142.021C199.913 142.021 199.625 142.16 199.378 142.448C199.139 142.727 199.015 143.072 199.015 143.458C199.015 143.844 199.131 144.181 199.353 144.468C199.584 144.747 199.872 144.895 200.226 144.895C200.581 144.895 200.91 144.739 201.199 144.419L202.171 145.215C201.652 145.815 201.001 146.119 200.218 146.119C199.567 146.119 198.999 145.897 198.513 145.453" fill="#D71921"/>
<path d="M203.242 141.438C203.86 141.011 204.577 140.797 205.384 140.797C205.969 140.797 206.431 140.97 206.769 141.331C207.106 141.684 207.279 142.218 207.279 142.924V146.11H205.912V145.683C205.516 145.963 205.162 146.11 204.841 146.11C204.19 146.11 203.703 145.963 203.382 145.659C203.053 145.355 202.896 144.944 202.896 144.41C202.896 143.918 203.053 143.474 203.357 143.08C203.662 142.694 204.165 142.497 204.849 142.497C205.162 142.497 205.524 142.604 205.92 142.817V142.661C205.92 142.275 205.656 142.062 205.137 142.021C204.552 142.021 204.099 142.128 203.769 142.341L203.234 141.438H203.242ZM205.92 144.517V143.918C205.788 143.647 205.483 143.507 204.997 143.507C204.412 143.581 204.107 143.827 204.066 144.254C204.099 144.673 204.404 144.903 204.997 144.936C205.483 144.936 205.796 144.796 205.92 144.517Z" fill="#D71921"/>
<path d="M209.76 141.38C210.106 140.994 210.534 140.797 211.028 140.797C211.185 140.797 211.342 140.814 211.482 140.838L211.267 142.308C211.111 142.152 210.88 142.07 210.583 142.062C210.254 142.087 209.974 142.349 209.751 142.85V146.11H208.384V140.953L209.751 140.789V141.38H209.76Z" fill="#D71921"/>
<path d="M212.116 143.45C212.116 142.67 212.347 142.029 212.8 141.536C213.253 141.044 213.838 140.789 214.555 140.789C215.272 140.789 215.84 141.035 216.26 141.536C216.681 142.029 216.895 142.67 216.895 143.45V143.983H213.533C213.566 144.263 213.681 144.484 213.871 144.649C214.069 144.805 214.291 144.887 214.555 144.887C215.008 144.887 215.412 144.747 215.774 144.46L216.557 145.305C216.203 145.839 215.535 146.102 214.563 146.102C213.846 146.102 213.261 145.856 212.808 145.355C212.355 144.862 212.124 144.222 212.124 143.441M215.247 142.243C215.049 142.078 214.827 142.004 214.563 142.004C214.299 142.004 214.077 142.087 213.879 142.243C213.681 142.399 213.591 142.62 213.591 142.908H215.535C215.535 142.62 215.436 142.399 215.247 142.243Z" fill="#D71921"/>
<path d="M154.011 160.251V152.86L155.297 152.704V153.131C155.635 152.852 155.972 152.704 156.302 152.704C157.002 152.704 157.563 152.967 157.975 153.501C158.387 154.035 158.593 154.651 158.593 155.357C158.593 156.063 158.387 156.687 157.975 157.213C157.563 157.738 157.002 158.009 156.302 158.009C155.841 157.976 155.503 157.828 155.297 157.582V160.251H154.011ZM155.297 154.88V155.743C155.355 156.342 155.676 156.687 156.261 156.794C156.994 156.728 157.406 156.285 157.497 155.472C157.464 154.478 157.052 153.969 156.261 153.936C155.684 154.043 155.363 154.363 155.297 154.889V154.88Z" fill="#D71921"/>
<path d="M159.26 155.365C159.26 154.585 159.474 153.953 159.903 153.452C160.331 152.959 160.883 152.704 161.551 152.704C162.218 152.704 162.754 152.951 163.157 153.452C163.553 153.953 163.751 154.585 163.751 155.365V155.899H160.595C160.628 156.178 160.735 156.4 160.916 156.564C161.097 156.728 161.312 156.802 161.559 156.802C161.987 156.802 162.366 156.662 162.704 156.375L163.437 157.221C163.1 157.755 162.473 158.017 161.559 158.017C160.891 158.017 160.339 157.771 159.911 157.27C159.482 156.777 159.268 156.137 159.268 155.357M162.201 154.158C162.02 153.994 161.806 153.92 161.559 153.92C161.312 153.92 161.097 154.002 160.916 154.158C160.735 154.314 160.644 154.536 160.644 154.823H162.473C162.473 154.536 162.383 154.322 162.201 154.158Z" fill="#D71921"/>
<path d="M165.942 153.296C166.272 152.91 166.667 152.713 167.137 152.713C167.285 152.713 167.425 152.729 167.565 152.754L167.368 154.224C167.219 154.068 167.005 153.985 166.725 153.977C166.412 154.002 166.156 154.265 165.95 154.766V158.034H164.665V152.877L165.95 152.713V153.304L165.942 153.296Z" fill="#D71921"/>
<path d="M170.993 152.86C171.232 152.984 171.454 153.156 171.66 153.394L170.944 154.33C170.738 154.043 170.474 153.903 170.169 153.903C169.864 153.903 169.65 153.969 169.551 154.1C169.444 154.232 169.444 154.355 169.551 154.462C169.658 154.568 169.856 154.659 170.169 154.733C170.622 154.782 170.993 154.93 171.29 155.184C171.578 155.439 171.726 155.874 171.726 156.498C171.726 156.999 171.553 157.393 171.216 157.664C170.869 157.943 170.474 158.075 170.021 158.075C169.568 158.075 169.222 158.001 168.941 157.861C168.653 157.713 168.406 157.525 168.192 157.286L168.9 156.359C169.106 156.646 169.428 156.81 169.864 156.859C170.219 156.859 170.441 156.794 170.548 156.662C170.647 156.531 170.663 156.4 170.589 156.268C170.515 156.137 170.276 156.046 169.864 155.997C169.493 155.948 169.147 155.817 168.843 155.595C168.529 155.381 168.381 154.971 168.381 154.371C168.381 153.821 168.554 153.402 168.908 153.115C169.263 152.828 169.625 152.68 169.996 152.68C170.425 152.68 170.762 152.737 171.001 152.86" fill="#D71921"/>
<path d="M173.061 157.295C172.616 156.777 172.394 156.129 172.394 155.365C172.394 154.601 172.616 153.953 173.061 153.435C173.506 152.918 174.058 152.663 174.725 152.663C175.393 152.663 175.945 152.918 176.39 153.435C176.835 153.953 177.057 154.593 177.057 155.365C177.057 156.137 176.835 156.786 176.39 157.303C175.945 157.82 175.384 158.075 174.725 158.075C174.066 158.075 173.506 157.812 173.061 157.295ZM174.725 156.786C175.071 156.786 175.352 156.654 175.574 156.375C175.788 156.104 175.904 155.767 175.904 155.365C175.904 154.963 175.796 154.626 175.574 154.355C175.36 154.084 175.071 153.944 174.725 153.944C174.379 153.944 174.099 154.076 173.885 154.355C173.671 154.626 173.555 154.963 173.555 155.365C173.555 155.767 173.662 156.104 173.885 156.375C174.099 156.646 174.388 156.786 174.734 156.786H174.725Z" fill="#D71921"/>
<path d="M179.216 154.642V158.017H177.931V152.86L179.216 152.704V153.189C179.529 152.869 179.892 152.713 180.32 152.713C180.897 152.713 181.342 152.918 181.647 153.32C181.952 153.731 182.108 154.199 182.108 154.724V158.017H180.823V155.094C180.823 154.741 180.749 154.47 180.592 154.273C180.435 154.076 180.205 153.977 179.9 153.961C179.636 153.985 179.406 154.207 179.216 154.634" fill="#D71921"/>
<path d="M183.27 153.345C183.855 152.918 184.522 152.713 185.288 152.713C185.84 152.713 186.269 152.893 186.59 153.246C186.912 153.6 187.068 154.133 187.068 154.839V158.026H185.783V157.599C185.412 157.878 185.074 158.026 184.778 158.026C184.168 158.026 183.706 157.878 183.402 157.574C183.097 157.27 182.94 156.86 182.94 156.326C182.94 155.833 183.08 155.39 183.369 154.995C183.657 154.601 184.127 154.412 184.769 154.412C185.066 154.412 185.404 154.519 185.775 154.733V154.577C185.775 154.191 185.527 153.977 185.041 153.936C184.489 153.936 184.061 154.043 183.756 154.256L183.253 153.353L183.27 153.345ZM185.791 156.424V155.825C185.667 155.554 185.379 155.414 184.918 155.414C184.366 155.488 184.077 155.735 184.044 156.162C184.077 156.58 184.366 156.81 184.918 156.843C185.379 156.843 185.667 156.704 185.791 156.424Z" fill="#D71921"/>
<path d="M189.499 150.052H188.213V158.017H189.499V150.052Z" fill="#D71921"/>
<path d="M196.115 158.017C195.596 158.017 195.184 157.853 194.879 157.508C194.574 157.172 194.418 156.736 194.418 156.211V153.912H193.734V152.713H194.418V151.276L195.703 151.111V152.713H196.387V153.912H195.703V155.997C195.703 156.276 195.753 156.482 195.86 156.597C195.959 156.712 196.09 156.769 196.255 156.769C196.305 156.769 196.42 156.745 196.601 156.703L196.873 157.771C196.651 157.935 196.403 158.017 196.115 158.017Z" fill="#D71921"/>
<path d="M198.051 157.295C197.606 156.777 197.384 156.129 197.384 155.365C197.384 154.601 197.606 153.953 198.051 153.435C198.496 152.918 199.056 152.663 199.716 152.663C200.375 152.663 200.935 152.918 201.38 153.435C201.825 153.953 202.047 154.593 202.047 155.365C202.047 156.137 201.825 156.786 201.38 157.303C200.935 157.82 200.375 158.075 199.716 158.075C199.056 158.075 198.496 157.812 198.051 157.295ZM199.716 156.786C200.062 156.786 200.35 156.654 200.564 156.375C200.778 156.104 200.894 155.767 200.894 155.365C200.894 154.963 200.787 154.626 200.564 154.355C200.35 154.084 200.062 153.944 199.716 153.944C199.369 153.944 199.089 154.076 198.875 154.355C198.661 154.626 198.546 154.963 198.546 155.365C198.546 155.767 198.653 156.104 198.875 156.375C199.089 156.646 199.378 156.786 199.724 156.786H199.716Z" fill="#D71921"/>
<path d="M205.689 156.137V152.704H206.975V158.017H205.689V157.533C205.376 157.853 205.014 158.009 204.585 158.009C204.008 158.009 203.563 157.804 203.259 157.401C202.954 156.991 202.797 156.523 202.797 155.997V152.704H204.082V155.628C204.082 155.981 204.157 156.252 204.313 156.449C204.461 156.646 204.7 156.744 205.005 156.761C205.269 156.736 205.5 156.531 205.689 156.137Z" fill="#D71921"/>
<path d="M208.532 157.352C208.07 156.909 207.848 156.334 207.848 155.628V155.094C207.848 154.388 208.079 153.813 208.532 153.369C208.993 152.926 209.529 152.704 210.138 152.704C210.872 152.704 211.482 153.008 211.968 153.608L211.053 154.404C210.781 154.084 210.468 153.928 210.138 153.928C209.834 153.928 209.562 154.067 209.339 154.355C209.109 154.634 208.993 154.971 208.993 155.365C208.993 155.759 209.1 156.088 209.315 156.375C209.529 156.654 209.801 156.802 210.138 156.802C210.476 156.802 210.781 156.646 211.053 156.326L211.968 157.122C211.482 157.722 210.872 158.026 210.138 158.026C209.529 158.026 208.993 157.804 208.532 157.36" fill="#D71921"/>
<path d="M214.168 154.429V158.017H212.882V150.052H214.168V153.189C214.481 152.869 214.843 152.713 215.264 152.713C215.849 152.713 216.285 152.918 216.59 153.32C216.895 153.731 217.051 154.199 217.051 154.724V158.017H215.766V155.094C215.766 154.741 215.692 154.47 215.535 154.273C215.379 154.076 215.148 153.977 214.843 153.961C214.58 153.985 214.349 154.133 214.159 154.421" fill="#D71921"/>
<path d="M126.574 91.5192C126.673 89.8111 126.805 82.9379 117.437 82.6752C116.11 82.552 109.741 83.0119 107.673 89.1788C107.327 90.1724 104.905 99.583 116.811 101.521C117.981 101.578 122.628 102.063 126.261 98.5894C126.648 98.0721 126.747 97.292 125.619 96.865C124.49 96.4379 123.295 97.5465 123.295 97.5465C123.295 97.5465 119.909 100.371 114.94 98.5566C113.713 98.0721 111.01 97.0456 110.376 93.3504H124.622C124.622 93.3504 126.475 93.5146 126.574 91.5192ZM110.376 91.01C111.199 86.3704 114.339 85.5082 115.748 85.2947C123.559 84.2518 123.674 91.01 123.674 91.01H110.384H110.376Z" fill="#0DB04B"/>
<path d="M102.968 89.0228C102.606 84.802 98.247 83.7098 97.6208 83.5292C92.0345 82.0428 89.2084 85.1058 88.6975 85.7381V77.5428C88.6975 76.8941 88.0136 76.3604 87.1815 76.3604C86.3493 76.3604 85.6654 76.8859 85.6654 77.5428V100.322C85.6654 100.971 86.3493 101.505 87.1815 101.505C88.0136 101.505 88.6975 100.979 88.6975 100.322V89.6468C88.9447 87.2162 91.3094 86.0501 91.9768 85.7956C99.3511 84.104 99.9773 89.5319 99.9773 89.5319V93.8677C99.9773 95.7153 99.9773 98.0474 99.9773 100.199V100.322C99.9773 100.971 100.653 101.505 101.477 101.505C102.301 101.505 102.976 100.979 102.976 100.322V99.4023C102.976 95.2883 102.976 89.4498 102.968 89.0228Z" fill="#0DB04B"/>
<path d="M149.612 99.2956L141.726 90.9032C141.726 90.9032 148.672 85.8941 149.084 85.4917C149.496 85.0811 149.414 84.5556 148.639 83.9972C147.857 83.4388 146.901 84.0136 146.901 84.0136L134.995 92.7344V77.9041C134.995 77.239 134.295 76.697 133.438 76.697C132.581 76.697 131.88 77.239 131.88 77.9041V99.6815V100.347C131.88 100.995 132.581 101.521 133.438 101.521C134.295 101.521 134.995 100.995 134.995 100.347V96.4461V95.6249L139.345 92.3895C139.345 92.3895 146.571 100.371 147.387 101.135C148.203 101.89 149.084 101.546 149.653 101.258C150.782 100.503 149.612 99.3202 149.612 99.3202" fill="#0DB04B"/>
<path d="M85.6819 147.662C86.0445 151.9 90.4114 152.992 91.0458 153.173C96.6486 154.659 99.483 151.588 100.002 150.955V159.175C100.002 159.832 100.686 160.358 101.526 160.358C102.367 160.358 103.051 159.832 103.051 159.175V136.437C103.051 135.797 102.383 135.279 101.551 135.279H101.493C100.669 135.279 99.9938 135.797 99.9938 136.437V147.03C99.7467 149.469 97.5962 150.668 96.6981 150.89C89.2991 152.589 88.6729 147.145 88.6729 147.145V142.793C88.6729 141.019 88.6729 138.49 88.6729 136.421C88.6729 135.78 87.9972 135.255 87.1733 135.255C86.3411 135.255 85.6737 135.772 85.6737 136.421C85.6737 140.559 85.6737 147.219 85.6819 147.662Z" fill="#0DB04B"/>
<path d="M117.074 134.811C107.36 134.17 106.009 142.366 106.066 143.704C106.223 152.532 113.391 153.295 114.841 153.386C125.182 153.903 125.734 146.348 125.849 144.887C125.965 135.025 117.074 134.811 117.074 134.811ZM115.294 151.193C114.297 151.128 109.37 150.553 109.263 143.86C109.313 142.875 109.856 136.708 116.53 137.184C116.53 137.184 122.537 137.209 122.85 144.755C122.768 145.856 122.397 151.579 115.286 151.185L115.294 151.193Z" fill="#0DB04B"/>
<path d="M148.03 138.071V136.265C148.03 135.632 147.395 135.123 146.613 135.123C145.83 135.123 145.195 135.632 145.195 136.265C145.195 137.25 145.195 138.375 145.195 139.525V139.902C145.195 143.08 145.121 145.068 144.956 145.872C143.333 151.177 139.79 151.054 137.714 151.111C133.05 150.996 133.364 145.33 133.364 145.33V138.901V136.256C133.364 135.624 132.713 135.115 131.922 135.115C131.122 135.115 130.48 135.624 130.48 136.256C130.48 136.848 130.48 137.488 130.48 138.153C130.48 140.206 130.471 143.713 130.48 146.858C130.768 152.162 134.624 153.419 137.203 153.46C142.139 153.977 144.734 150.717 145.039 150.307H145.055V152.335C145.055 152.926 145.649 153.452 146.431 153.485C147.28 153.526 147.989 153.008 147.989 152.376V150.142V142.719C147.989 142.719 148.013 140.715 148.021 138.901V138.071H148.03Z" fill="#0DB04B"/>
<path d="M210.369 135.345H152.553C152.265 135.345 152.034 135.164 152.034 134.943V134.819C152.034 134.598 152.265 134.417 152.553 134.417H210.369C210.658 134.417 210.888 134.598 210.888 134.819V134.943C210.888 135.164 210.658 135.345 210.369 135.345Z" fill="#0DB04B"/>
<path d="M97.3407 110.225C91.7543 108.739 88.9282 111.802 88.4174 112.434V104.239C88.4174 103.59 87.7417 103.065 86.9013 103.065C86.0609 103.065 85.3853 103.59 85.3853 104.239V127.018C85.3853 127.667 86.0691 128.201 86.9013 128.201C87.7335 128.201 88.4174 127.675 88.4174 127.018V116.343C88.6646 113.912 91.0293 112.738 91.6967 112.492C99.071 110.8 99.6972 116.228 99.6972 116.228V120.564C99.6972 122.329 99.6972 124.998 99.6972 127.059C99.6972 127.7 100.365 128.225 101.197 128.225C102.029 128.225 102.696 127.708 102.696 127.067C102.696 122.945 102.696 116.162 102.688 115.719C102.326 111.498 97.9669 110.406 97.3407 110.225Z" fill="#D71921"/>
<path d="M117.437 109.708C116.11 109.585 109.741 110.036 107.673 116.212C107.442 117.788 105.242 127.626 116.81 128.554C117.98 128.611 122.628 129.096 126.261 125.622C126.648 125.105 126.747 124.325 125.618 123.898C124.49 123.471 123.295 124.579 123.295 124.579C123.295 124.579 119.909 127.412 114.94 125.589C113.712 125.105 111.01 124.078 110.375 120.383H124.621C124.621 120.383 126.475 120.547 126.574 118.552C126.673 116.844 126.83 110.201 117.437 109.7M110.367 118.043C111.191 113.403 114.33 112.533 115.739 112.328C123.55 111.285 123.666 118.043 123.666 118.043H110.375H110.367Z" fill="#D71921"/>
<path d="M155.396 103.319H154.934C154.226 103.319 153.657 103.763 153.657 104.313V127.215C153.657 127.766 154.226 128.209 154.934 128.209H155.396C156.104 128.209 156.673 127.766 156.673 127.215V104.313C156.673 103.763 156.104 103.319 155.396 103.319Z" fill="#D71921"/>
<path d="M189.993 110.11C184.407 108.624 181.581 111.687 181.07 112.319V104.124C181.07 103.475 180.394 102.95 179.554 102.95C178.713 102.95 178.03 103.475 178.03 104.124V127.067C178.03 127.716 178.713 128.25 179.554 128.25C180.394 128.25 181.07 127.724 181.07 127.067V116.228C181.317 113.797 183.682 112.623 184.349 112.377C191.723 110.685 192.35 116.113 192.35 116.113V120.449C192.35 122.214 192.35 124.998 192.35 127.067C192.35 127.708 193.025 128.225 193.849 128.225C194.673 128.225 195.349 127.708 195.349 127.067C195.349 122.945 195.349 116.047 195.341 115.596C194.978 111.375 190.619 110.283 189.993 110.102" fill="#D71921"/>
<path d="M215.568 110.422C214.728 110.422 214.052 110.948 214.052 111.605V122.14C213.805 124.563 211.44 125.737 210.773 125.992C203.399 127.683 202.773 122.255 202.773 122.255V117.911C202.773 116.146 202.773 113.609 202.773 111.539C202.773 110.899 202.105 110.381 201.273 110.381C200.441 110.381 199.773 110.899 199.773 111.539C199.773 115.661 199.773 122.321 199.782 122.765C200.144 126.985 204.503 128.078 205.129 128.258C210.715 129.744 213.542 126.682 214.052 126.049V134.195C214.052 134.844 214.736 135.378 215.568 135.378C216.401 135.378 217.093 134.852 217.093 134.195V111.605C217.093 110.956 216.409 110.422 215.568 110.422Z" fill="#D71921"/>
<path d="M148.961 115.661C148.911 113.691 148.392 113.214 147.84 112.492C143.44 108.057 134.748 110.685 134.583 110.718C134.41 110.751 132.111 111.309 132.746 112.483C133.38 113.658 135.489 112.828 136.074 112.656C137.763 112.155 139.716 112.237 140.985 112.311C146.135 112.582 145.937 115.883 145.937 115.883V118.979C138.184 114.865 132.671 119.348 132.276 119.882C129.392 123.208 131.732 126.419 134.517 127.618C141.282 129.925 145.929 126 145.929 126C145.929 126 145.929 125.967 145.945 126.123V127.125C145.945 127.774 146.621 128.291 147.461 128.291C148.302 128.291 148.977 127.765 148.977 127.125V124.349C148.977 121.393 148.994 116.942 148.961 115.67M140.919 125.951C139.485 126.09 135.3 126.55 134.097 123.298C133.734 122.37 134.459 119.685 139.691 119.661C139.691 119.661 145.443 119.34 145.805 122.551C145.756 123.257 145.912 125.121 140.911 125.942L140.919 125.951Z" fill="#D71921"/>
<path d="M171.644 126.066C170.408 126.254 169.485 126.139 168.892 125.737C167.837 125.014 167.755 123.405 167.813 122.847V114.783H167.821V112.623H171.561C172.328 112.623 172.995 112.18 173.045 111.588C173.094 110.94 172.435 110.406 171.611 110.406H167.829V107.663C167.829 107.614 167.829 107.565 167.813 107.515C167.813 107.515 167.804 107.45 167.796 107.425C167.755 107.244 167.656 107.072 167.516 106.932H167.508C167.508 106.932 167.475 106.891 167.45 106.867C167.195 106.637 166.832 106.473 166.42 106.456C165.538 106.415 164.813 106.949 164.813 107.622V110.406H163.586C162.819 110.406 162.152 110.849 162.103 111.441C162.045 112.089 162.712 112.623 163.536 112.623H164.813V122.699C164.772 123.208 164.64 125.901 166.89 127.462C167.607 127.962 168.785 128.48 170.589 128.48C171.092 128.48 171.636 128.439 172.237 128.348C173.053 128.225 173.588 127.609 173.424 126.977C173.267 126.345 172.476 125.934 171.652 126.057" fill="#D71921"/>
<path d="M170.457 88.9241C170.408 86.9533 169.889 86.477 169.337 85.7544C164.937 81.3201 156.244 83.9478 156.08 83.9807C155.915 84.0135 153.608 84.5719 154.242 85.7462C154.877 86.9205 156.986 86.0911 157.571 85.9186C159.26 85.4177 161.213 85.4998 162.482 85.5738C167.631 85.8447 167.434 89.1458 167.434 89.1458V92.2416C159.68 88.1276 154.168 92.6112 153.773 93.1449C150.889 96.4707 153.229 99.6814 156.014 100.88C162.778 103.188 167.425 99.2626 167.425 99.2626C167.425 99.2626 167.425 99.2298 167.442 99.3858V100.388C167.442 101.036 168.117 101.554 168.958 101.554C169.798 101.554 170.474 101.028 170.474 100.388V97.6121C170.474 94.6559 170.49 90.2051 170.457 88.9323M162.416 99.2134C160.982 99.353 156.796 99.8128 155.594 96.561C155.231 95.6331 155.956 92.9478 161.188 92.9232C161.188 92.9232 166.939 92.603 167.302 95.8137C167.252 96.5199 167.409 98.384 162.408 99.2051L162.416 99.2134Z" fill="#0DB04B"/>
<path d="M117 224.589C181.39 224.589 233.588 174.405 233.588 112.5C233.588 50.5948 181.39 0.410645 117 0.410645C52.6102 0.410645 0.411987 50.5948 0.411987 112.5C0.411987 174.405 52.6102 224.589 117 224.589Z" stroke="#7AAEDF" stroke-miterlimit="10"/>
</g>
<defs>
<clipPath id="clip0_307_1200">
<rect width="234" height="225" fill="white"/>
</clipPath>
</defs>
</svg>
