<svg width="308" height="23" viewBox="0 0 308 23" fill="none" xmlns="http://www.w3.org/2000/svg">
<path d="M3.69765 18.7397H0V0H3.69765V7.31531C3.96118 6.98625 4.24941 6.6825 4.56235 6.39563C4.87529 6.10875 5.23765 5.85562 5.64941 5.63625C6.06118 5.40844 6.51412 5.23125 7.00823 5.10469C7.50235 4.97813 8.06235 4.91062 8.68824 4.91062C10.5 4.91062 11.9082 5.38312 12.8965 6.31969C13.8847 7.26469 14.3788 8.53031 14.3788 10.1166V18.7397H10.6812V11.0531C10.6812 9.99844 10.3847 9.18 9.79176 8.60625C9.19882 8.0325 8.36706 7.74563 7.28 7.74563C6.19294 7.74563 5.35294 8.04094 4.69412 8.63156C4.03529 9.22219 3.69765 10.0406 3.69765 11.1038V18.7397Z" fill="#7AAEDF"/>
<path d="M23.1824 15.6178C24.0142 16.2085 25.0189 16.5038 26.213 16.5038C27.1271 16.5038 27.9095 16.3688 28.5765 16.0903C29.2436 15.8203 29.9024 15.4153 30.5448 14.8838L32.7024 16.5038C31.9365 17.2716 31.0142 17.8875 29.9601 18.3516C28.8977 18.8156 27.6295 19.0435 26.1553 19.0435C25.0024 19.0435 23.9236 18.8747 22.9271 18.5288C21.9224 18.1913 21.0577 17.7103 20.3165 17.0944C19.5753 16.4785 18.9989 15.736 18.5706 14.8753C18.1424 14.0147 17.9365 13.0444 17.9365 11.9897C17.9365 11.011 18.1259 10.0997 18.513 9.24752C18.9001 8.39533 19.4353 7.64439 20.1353 7.00314C20.8353 6.36189 21.6589 5.85564 22.6059 5.47596C23.553 5.09627 24.6071 4.91064 25.7601 4.91064C27.0365 4.91064 28.1483 5.10471 29.1118 5.50127C30.0753 5.89783 30.8742 6.42096 31.5083 7.09596C32.1424 7.77096 32.6283 8.53877 32.9495 9.43314C33.2706 10.3191 33.4353 11.2556 33.4353 12.2344C33.4353 12.3694 33.4353 12.5044 33.4189 12.6478C33.4106 12.7828 33.3942 12.9263 33.3695 13.0866H21.6012C21.8236 14.2003 22.3506 15.0525 23.1824 15.6431V15.6178ZM29.7953 11.011C29.7377 10.5131 29.6059 10.0491 29.4001 9.61033C29.1942 9.17158 28.9224 8.80033 28.5765 8.47971C28.2306 8.16752 27.8271 7.91439 27.3495 7.72033C26.8718 7.53471 26.3365 7.44189 25.7271 7.44189C24.5906 7.44189 23.6601 7.77096 22.9189 8.42908C22.1777 9.08721 21.733 9.94783 21.5683 11.011H29.7871H29.7953Z" fill="#7AAEDF"/>
<path d="M46.933 18.7397V17.0691C46.3894 17.6175 45.6894 18.0816 44.8412 18.4528C43.993 18.8325 42.9635 19.0181 41.7447 19.0181C40.9788 19.0181 40.2459 18.9253 39.5624 18.7481C38.8706 18.5709 38.2694 18.3009 37.7588 17.955C37.24 17.6006 36.8283 17.1703 36.5153 16.6472C36.2024 16.1241 36.0459 15.525 36.0459 14.8416V14.7909C36.0459 14.0569 36.2106 13.4156 36.5318 12.8672C36.853 12.3188 37.3059 11.8631 37.8824 11.5088C38.4588 11.1459 39.1424 10.8759 39.9494 10.6988C40.7482 10.5216 41.613 10.4288 42.5435 10.4288C43.4741 10.4288 44.3388 10.4794 45.0141 10.5806C45.6894 10.6819 46.34 10.8169 46.9741 10.9941V10.6566C46.9741 9.71157 46.6365 8.99438 45.9612 8.49657C45.2859 7.99876 44.3059 7.75407 43.0377 7.75407C42.1235 7.75407 41.3165 7.83001 40.6083 7.98188C39.9 8.13376 39.1835 8.3447 38.4506 8.59782L37.4459 6.10876C38.3353 5.76282 39.2494 5.49282 40.18 5.29032C41.1106 5.08782 42.2306 4.98657 43.5483 4.98657C45.9365 4.98657 47.7071 5.48438 48.86 6.48845C50.013 7.49251 50.5894 8.89313 50.5894 10.7072V18.7397H46.9494H46.933ZM47.0235 12.9938C46.5541 12.8419 46.0106 12.7069 45.3683 12.6056C44.7259 12.5044 44.0588 12.4538 43.3506 12.4538C42.1977 12.4538 41.3 12.6394 40.6494 13.0191C39.9988 13.3988 39.6777 13.9388 39.6777 14.6391V14.6897C39.6777 15.3394 39.9741 15.8372 40.5753 16.1747C41.1683 16.5206 41.9012 16.6894 42.7741 16.6894C43.3835 16.6894 43.9435 16.6219 44.4541 16.4869C44.973 16.3519 45.4177 16.1578 45.8047 15.9131C46.1918 15.6684 46.4883 15.3647 46.7024 15.0103C46.9165 14.6559 47.0235 14.2678 47.0235 13.8459V13.0022V12.9938Z" fill="#7AAEDF"/>
<path d="M55.1517 18.7397V0H58.8494V18.7397H55.1517Z" fill="#7AAEDF"/>
<path d="M68.0811 14.4957C68.0811 15.0947 68.2541 15.5335 68.6 15.795C68.9458 16.0566 69.4317 16.1916 70.0576 16.1916C70.8482 16.1916 71.6058 16.0397 72.3305 15.7275V18.2672C71.8694 18.4866 71.367 18.6638 70.8482 18.7819C70.3211 18.9 69.7117 18.9591 69.0282 18.9591C68.3447 18.9591 67.7435 18.8916 67.167 18.7566C66.5988 18.6216 66.1047 18.3938 65.6847 18.09C65.2647 17.7863 64.9435 17.3728 64.7211 16.8666C64.4988 16.3603 64.3835 15.7275 64.3835 14.9766V7.83003H62.3494V5.18909H64.3835V1.45972H68.0811V5.18065H72.3882V7.82159H68.0811V14.4957Z" fill="#7AAEDF"/>
<path d="M79.7588 18.7397H76.0612V0H79.7588V7.31531C80.0223 6.98625 80.3106 6.6825 80.6235 6.39563C80.9365 6.10875 81.2988 5.85562 81.7106 5.63625C82.1223 5.40844 82.5753 5.23125 83.0694 5.10469C83.5635 4.97813 84.1235 4.91062 84.7494 4.91062C86.5612 4.91062 87.9694 5.38312 88.9576 6.31969C89.9459 7.26469 90.44 8.53031 90.44 10.1166V18.7397H86.7423V11.0531C86.7423 9.99844 86.4459 9.18 85.8529 8.60625C85.26 8.0325 84.4282 7.74563 83.3412 7.74563C82.2541 7.74563 81.4141 8.04094 80.7553 8.63156C80.0964 9.22219 79.7588 10.0406 79.7588 11.1038V18.7397Z" fill="#7AAEDF"/>
<path d="M102.966 19.1194C102.645 19.8197 102.307 20.4104 101.961 20.8913C101.615 21.3722 101.236 21.7604 100.808 22.0557C100.38 22.3594 99.9188 22.5704 99.4165 22.7138C98.9141 22.8488 98.3376 22.9163 97.687 22.9163C96.9212 22.9163 96.2376 22.8404 95.6364 22.6969C95.0435 22.5535 94.4588 22.351 93.8906 22.0894L95.1341 19.7607C95.48 19.9125 95.8259 20.0391 96.18 20.1319C96.5341 20.2247 96.9047 20.2754 97.2835 20.2754C97.8106 20.2754 98.247 20.1657 98.5847 19.9463C98.9306 19.7269 99.2517 19.3135 99.5565 18.7144L92.8859 5.18066H96.7976L101.352 15.2466L105.511 5.18066H109.332L102.958 19.1194H102.966Z" fill="#7AAEDF"/>
<path d="M130.151 19.1194C129.829 19.8197 129.492 20.4104 129.146 20.8913C128.8 21.3722 128.421 21.7604 127.993 22.0557C127.565 22.3594 127.104 22.5704 126.601 22.7138C126.099 22.8488 125.522 22.9163 124.872 22.9163C124.106 22.9163 123.422 22.8404 122.821 22.6969C122.228 22.5535 121.644 22.351 121.075 22.0894L122.319 19.7607C122.665 19.9125 123.011 20.0391 123.365 20.1319C123.719 20.2247 124.089 20.2754 124.468 20.2754C124.995 20.2754 125.432 20.1657 125.769 19.9463C126.115 19.7269 126.436 19.3135 126.741 18.7144L120.062 5.18066H123.974L128.528 15.2466L132.687 5.18066H136.508L130.134 19.1194H130.151Z" fill="#7AAEDF"/>
<path d="M154.313 14.7065C153.876 15.5587 153.284 16.3096 152.526 16.9508C151.768 17.5921 150.862 18.0983 149.808 18.478C148.754 18.8577 147.609 19.0433 146.382 19.0433C145.155 19.0433 144.044 18.8577 142.998 18.4949C141.952 18.1321 141.054 17.6258 140.296 16.9846C139.539 16.3433 138.946 15.6008 138.518 14.7487C138.089 13.9049 137.884 12.9937 137.884 12.0149C137.884 11.0362 138.098 10.1165 138.534 9.25585C138.971 8.39522 139.564 7.63585 140.321 6.9946C141.079 6.35335 141.976 5.8471 143.022 5.46741C144.06 5.08772 145.205 4.9021 146.432 4.9021C147.659 4.9021 148.804 5.08772 149.841 5.45054C150.879 5.81335 151.785 6.3196 152.542 6.96085C153.3 7.6021 153.893 8.35304 154.313 9.20522C154.741 10.0574 154.947 10.9771 154.947 11.9558C154.947 12.9346 154.733 13.8458 154.296 14.698L154.313 14.7065ZM150.904 10.319C150.665 9.78741 150.327 9.32335 149.891 8.91835C149.454 8.52179 148.944 8.20116 148.351 7.97335C147.758 7.74554 147.099 7.62741 146.374 7.62741C145.649 7.62741 144.991 7.74554 144.398 7.97335C143.805 8.20116 143.294 8.51335 142.874 8.90991C142.454 9.30647 142.133 9.7621 141.911 10.2852C141.688 10.8083 141.581 11.3652 141.581 11.9643C141.581 12.5633 141.705 13.1287 141.944 13.6687C142.182 14.2087 142.52 14.6727 142.956 15.0693C143.385 15.4658 143.904 15.778 144.496 16.0058C145.089 16.2337 145.74 16.3518 146.44 16.3518C147.181 16.3518 147.848 16.2337 148.441 16.0058C149.034 15.778 149.545 15.4658 149.965 15.0693C150.385 14.6727 150.706 14.2171 150.928 13.694C151.151 13.1708 151.258 12.614 151.258 12.0149C151.258 11.4158 151.134 10.8505 150.895 10.319H150.904Z" fill="#7AAEDF"/>
<path d="M169.194 5.18066H172.892V18.7397H169.194V16.6135C168.667 17.2716 168.016 17.8369 167.226 18.3094C166.435 18.7819 165.431 19.0182 164.204 19.0182C162.392 19.0182 160.984 18.5457 159.995 17.6091C159.007 16.6725 158.513 15.3985 158.513 13.8122V5.18066H162.211V12.8672C162.211 13.9304 162.507 14.7404 163.1 15.3141C163.693 15.8879 164.525 16.1747 165.612 16.1747C166.699 16.1747 167.539 15.8794 168.198 15.2888C168.856 14.6982 169.194 13.8797 169.194 12.8166V5.18066Z" fill="#7AAEDF"/>
<path d="M196.412 18.7397V17.0691C195.868 17.6175 195.168 18.0816 194.32 18.4528C193.472 18.8325 192.442 19.0181 191.223 19.0181C190.458 19.0181 189.725 18.9253 189.041 18.7481C188.358 18.5709 187.748 18.3009 187.238 17.955C186.719 17.6006 186.307 17.1703 185.994 16.6472C185.681 16.1241 185.525 15.525 185.525 14.8416V14.7909C185.525 14.0569 185.689 13.4156 186.011 12.8672C186.332 12.3188 186.785 11.8631 187.361 11.5088C187.938 11.1459 188.621 10.8759 189.428 10.6988C190.227 10.5216 191.092 10.4288 192.022 10.4288C192.953 10.4288 193.818 10.4794 194.493 10.5806C195.168 10.6819 195.819 10.8169 196.453 10.9941V10.6566C196.453 9.71157 196.115 8.99438 195.432 8.49657C194.756 7.99876 193.776 7.75407 192.5 7.75407C191.586 7.75407 190.779 7.83001 190.071 7.98188C189.362 8.13376 188.646 8.3447 187.913 8.59782L186.908 6.10876C187.798 5.76282 188.712 5.49282 189.642 5.29032C190.573 5.08782 191.693 4.98657 193.011 4.98657C195.399 4.98657 197.169 5.48438 198.322 6.48845C199.475 7.49251 200.052 8.89313 200.052 10.7072V18.7397H196.412ZM196.502 12.9938C196.033 12.8419 195.489 12.7069 194.847 12.6056C194.205 12.5044 193.538 12.4538 192.829 12.4538C191.676 12.4538 190.779 12.6394 190.128 13.0191C189.478 13.3988 189.156 13.9388 189.156 14.6391V14.6897C189.156 15.3394 189.453 15.8372 190.054 16.1747C190.647 16.5206 191.38 16.6894 192.253 16.6894C192.862 16.6894 193.422 16.6219 193.933 16.4869C194.443 16.3519 194.896 16.1578 195.283 15.9131C195.671 15.6684 195.967 15.3647 196.181 15.0103C196.395 14.6559 196.502 14.2678 196.502 13.8459V13.0022V12.9938Z" fill="#7AAEDF"/>
<path d="M208.723 14.4957C208.723 15.0947 208.896 15.5335 209.242 15.795C209.588 16.0566 210.074 16.1916 210.7 16.1916C211.491 16.1916 212.248 16.0397 212.973 15.7275V18.2672C212.512 18.4866 212.009 18.6638 211.491 18.7819C210.963 18.9 210.362 18.9591 209.671 18.9591C208.979 18.9591 208.386 18.8916 207.809 18.7566C207.241 18.6216 206.747 18.3938 206.327 18.09C205.907 17.7778 205.586 17.3728 205.363 16.8666C205.141 16.3603 205.026 15.7275 205.026 14.9766V7.83003H202.992V5.18909H205.026V1.45972H208.723V5.18065H213.031V7.82159H208.723V14.4957Z" fill="#7AAEDF"/>
<path d="M229.509 18.7397H225.812V0H229.509V7.31531C229.773 6.98625 230.061 6.6825 230.374 6.39563C230.687 6.10875 231.049 5.85562 231.461 5.63625C231.873 5.40844 232.326 5.23125 232.82 5.10469C233.314 4.97813 233.874 4.91062 234.5 4.91062C236.32 4.91062 237.72 5.38312 238.708 6.31969C239.696 7.26469 240.191 8.53031 240.191 10.1166V18.7397H236.493V11.0531C236.493 9.99844 236.196 9.18 235.604 8.60625C235.011 8.0325 234.171 7.74563 233.092 7.74563C232.013 7.74563 231.165 8.04094 230.506 8.63156C229.847 9.22219 229.509 10.0406 229.509 11.1038V18.7397Z" fill="#D71921"/>
<path d="M260.169 14.7065C259.733 15.5587 259.14 16.3096 258.382 16.9508C257.625 17.5921 256.719 18.0983 255.665 18.478C254.611 18.8577 253.466 19.0433 252.239 19.0433C251.012 19.0433 249.9 18.8577 248.854 18.4949C247.808 18.1321 246.911 17.6258 246.153 16.9846C245.395 16.3433 244.802 15.6008 244.382 14.7487C243.954 13.9049 243.748 12.9937 243.748 12.0149C243.748 11.0362 243.962 10.1165 244.399 9.25585C244.835 8.39522 245.428 7.63585 246.186 6.9946C246.944 6.35335 247.849 5.8471 248.887 5.46741C249.925 5.08772 251.069 4.9021 252.297 4.9021C253.524 4.9021 254.668 5.08772 255.714 5.45054C256.752 5.82179 257.658 6.3196 258.415 6.96085C259.173 7.6021 259.766 8.35304 260.186 9.20522C260.614 10.0574 260.82 10.9771 260.82 11.9558C260.82 12.9346 260.606 13.8458 260.169 14.698V14.7065ZM256.76 10.319C256.521 9.78741 256.184 9.32335 255.747 8.91835C255.319 8.52179 254.8 8.20116 254.207 7.97335C253.614 7.74554 252.955 7.62741 252.231 7.62741C251.506 7.62741 250.847 7.74554 250.254 7.97335C249.661 8.20116 249.151 8.51335 248.731 8.90991C248.311 9.30647 247.989 9.7621 247.767 10.2852C247.545 10.8083 247.438 11.3652 247.438 11.9643C247.438 12.5633 247.561 13.1287 247.8 13.6687C248.039 14.2087 248.377 14.6727 248.813 15.0693C249.241 15.4658 249.76 15.778 250.353 16.0058C250.946 16.2337 251.597 16.3518 252.297 16.3518C253.038 16.3518 253.713 16.2337 254.298 16.0058C254.891 15.778 255.401 15.4658 255.821 15.0693C256.241 14.6727 256.562 14.2171 256.785 13.694C257.007 13.1708 257.114 12.614 257.114 12.0149C257.114 11.4158 256.991 10.8505 256.752 10.319H256.76Z" fill="#D71921"/>
<path d="M280.181 5.56022C281.062 5.12147 282.108 4.9021 283.327 4.9021C285.09 4.9021 286.465 5.34929 287.453 6.2521C288.441 7.15491 288.944 8.42897 288.944 10.0912V18.7396H285.246V11.053C285.246 9.98147 284.966 9.16304 284.398 8.59772C283.83 8.03241 283.039 7.75397 282.01 7.75397C280.98 7.75397 280.181 8.04085 279.547 8.6146C278.913 9.18835 278.592 10.0152 278.592 11.1121V18.748H274.894V11.0277C274.894 9.97304 274.614 9.16304 274.046 8.59772C273.478 8.03241 272.687 7.75397 271.658 7.75397C270.628 7.75397 269.805 8.04929 269.179 8.64835C268.553 9.24741 268.24 10.0743 268.24 11.129V18.7396H264.542V5.18054H268.24V7.25616C268.504 6.94397 268.784 6.64866 269.088 6.37866C269.393 6.10866 269.739 5.85554 270.134 5.62772C270.53 5.39991 270.974 5.22272 271.468 5.09616C271.962 4.9696 272.514 4.9021 273.124 4.9021C274.277 4.9021 275.248 5.12147 276.047 5.56022C276.846 5.99897 277.455 6.58116 277.884 7.30679C278.534 6.58116 279.292 5.99897 280.173 5.56022H280.181Z" fill="#D71921"/>
<path d="M297.739 15.6178C298.571 16.2085 299.575 16.5038 300.769 16.5038C301.683 16.5038 302.466 16.3688 303.133 16.0903C303.8 15.8203 304.459 15.4153 305.101 14.8838L307.259 16.5038C306.493 17.2716 305.579 17.8875 304.516 18.3516C303.454 18.8156 302.186 19.0435 300.712 19.0435C299.559 19.0435 298.48 18.8747 297.484 18.5288C296.479 18.1913 295.614 17.7103 294.873 17.0944C294.132 16.4785 293.555 15.736 293.127 14.8753C292.699 14.0147 292.493 13.0444 292.493 11.9897C292.493 11.011 292.682 10.0997 293.069 9.24752C293.456 8.39533 293.992 7.64439 294.692 7.00314C295.392 6.36189 296.215 5.85564 297.162 5.47596C298.118 5.09627 299.164 4.91064 300.316 4.91064C301.593 4.91064 302.705 5.10471 303.668 5.50127C304.632 5.89783 305.431 6.42096 306.065 7.09596C306.699 7.77096 307.185 8.53877 307.506 9.43314C307.827 10.3191 307.992 11.2556 307.992 12.2344C307.992 12.3694 307.992 12.5044 307.975 12.6478C307.967 12.7828 307.951 12.9263 307.926 13.0866H296.158C296.38 14.2003 296.907 15.0525 297.739 15.6431V15.6178ZM304.352 11.011C304.294 10.5131 304.162 10.0491 303.956 9.61033C303.751 9.17158 303.479 8.80033 303.133 8.47971C302.787 8.16752 302.384 7.91439 301.906 7.72033C301.428 7.53471 300.893 7.44189 300.284 7.44189C299.155 7.44189 298.216 7.77096 297.475 8.42908C296.734 9.08721 296.289 9.94783 296.125 11.011H304.343H304.352Z" fill="#D71921"/>
</svg>
