<svg width="260" height="251" viewBox="0 0 260 251" fill="none" xmlns="http://www.w3.org/2000/svg">
<g clip-path="url(#clip0_774_87618)">
<path d="M130 249.636C201.044 249.636 258.637 194.058 258.637 125.5C258.637 56.9415 201.044 1.36401 130 1.36401C58.9562 1.36401 1.36377 56.9415 1.36377 125.5C1.36377 194.058 58.9562 249.636 130 249.636Z" stroke="#60A9EE" stroke-width="3" stroke-miterlimit="10"/>
<path d="M84.0817 123.472C82.2726 123.472 80.7999 124.618 80.7999 126.027V149.154C80.2545 154.41 75.1635 156.957 73.7181 157.493C57.809 161.158 56.4545 149.409 56.4545 149.409V144.361C56.4545 144.361 56.4817 114.578 56.4363 113.132C55.6636 103.983 46.2545 101.619 44.909 101.237C32.8545 98.0264 26.7635 104.647 25.6545 106.02V88.2774C25.6545 86.8678 24.1817 85.7219 22.3726 85.7219C20.5635 85.7219 19.0908 86.8678 19.0908 88.2774V137.613C19.0908 139.023 20.5545 140.169 22.3726 140.169C24.1908 140.169 25.6545 139.023 25.6545 137.613V114.487C26.1999 109.23 31.2908 106.684 32.7363 106.148C48.6454 102.483 49.9999 114.232 49.9999 114.232V123.627C49.9999 129.692 49.9999 138.214 49.9999 144.034V145.48C49.9999 148.263 50.009 150.182 50.0181 150.509C50.7908 159.658 60.1999 162.022 61.5454 162.404C73.5999 165.614 79.6908 158.994 80.7999 157.621V175.363C80.7999 176.773 82.2726 177.919 84.0817 177.919C85.8908 177.919 87.3635 176.773 87.3635 175.363V126.027C87.3635 124.618 85.8908 123.472 84.0817 123.472Z" fill="#0DB04B"/>
<path d="M71.6909 119.916C70.9273 110.876 61.6273 108.53 60.2909 108.157C48.3728 104.983 42.3546 111.531 41.2546 112.886V95.3436C41.2546 93.9521 39.8 92.8245 38.0091 92.8245C36.2182 92.8245 34.7637 93.9521 34.7637 95.3436V144.116C34.7637 145.507 36.2182 146.635 38.0091 146.635C39.8 146.635 41.2546 145.507 41.2546 144.116V121.253C41.7909 116.06 46.8273 113.541 48.2546 113.014C63.9819 109.394 65.3273 121.007 65.3273 121.007V130.302C65.3273 134.085 65.3273 138.823 65.3273 143.252C65.3273 144.625 66.7546 145.735 68.5273 145.735C70.3 145.735 71.7273 144.625 71.7273 143.252C71.7273 134.421 71.7273 120.871 71.7091 119.916" fill="#D71921"/>
<path d="M170.836 165.187V157.011L172.346 156.83V157.302C172.746 156.993 173.136 156.83 173.527 156.83C174.355 156.83 175 157.121 175.491 157.712C175.973 158.303 176.218 158.985 176.218 159.767C176.218 160.549 175.973 161.24 175.491 161.822C175.009 162.413 174.355 162.704 173.527 162.704C172.991 162.668 172.591 162.504 172.346 162.232V165.187H170.836ZM172.346 159.24V160.194C172.418 160.849 172.791 161.24 173.473 161.358C174.336 161.286 174.818 160.795 174.927 159.894C174.891 158.794 174.409 158.23 173.473 158.194C172.791 158.312 172.418 158.667 172.346 159.249V159.24Z" fill="#D71921"/>
<path d="M178.673 157.484C179.054 157.057 179.518 156.839 180.073 156.839C180.245 156.839 180.418 156.857 180.573 156.884L180.336 158.512C180.164 158.339 179.909 158.248 179.582 158.239C179.218 158.266 178.909 158.557 178.673 159.112V162.723H177.164V157.011L178.673 156.83V157.484Z" fill="#D71921"/>
<path d="M181.273 159.776C181.273 158.912 181.527 158.203 182.027 157.657C182.527 157.112 183.173 156.83 183.964 156.83C184.755 156.83 185.382 157.102 185.846 157.657C186.309 158.203 186.546 158.912 186.546 159.776V160.367H182.837C182.873 160.676 183 160.922 183.209 161.104C183.427 161.277 183.673 161.368 183.964 161.368C184.464 161.368 184.909 161.213 185.309 160.895L186.173 161.831C185.782 162.423 185.046 162.714 183.973 162.714C183.182 162.714 182.537 162.441 182.037 161.886C181.537 161.34 181.282 160.631 181.282 159.767M184.727 158.439C184.509 158.257 184.264 158.176 183.973 158.176C183.682 158.176 183.437 158.266 183.218 158.439C183 158.612 182.9 158.858 182.9 159.176H185.055C185.055 158.858 184.946 158.612 184.737 158.439H184.727Z" fill="#D71921"/>
<path d="M189.209 158.958V162.723H187.7V157.011L189.209 156.83V157.357C189.546 157.011 189.973 156.839 190.5 156.839C191.182 156.839 191.7 157.066 192.055 157.512C192.446 157.057 193.037 156.839 193.827 156.839C194.509 156.839 195.027 157.066 195.391 157.512C195.746 157.966 195.927 158.485 195.927 159.067V162.714H194.418V159.476C194.418 159.085 194.337 158.785 194.173 158.567C194.009 158.348 193.755 158.239 193.391 158.23C193.091 158.248 192.837 158.467 192.618 158.876C192.6 158.994 192.591 159.121 192.591 159.249V162.714H191.082V159.476C191.082 159.085 191 158.785 190.837 158.567C190.673 158.348 190.409 158.239 190.055 158.23C189.727 158.248 189.437 158.494 189.2 158.949" fill="#D71921"/>
<path d="M197.418 154.838C197.564 154.683 197.764 154.547 198 154.547C198.255 154.547 198.455 154.683 198.6 154.838C198.746 155.002 198.818 155.193 198.818 155.429C198.818 155.665 198.746 155.856 198.6 156.02C198.455 156.175 198.255 156.257 198.009 156.257C197.764 156.257 197.564 156.175 197.418 156.02C197.273 155.866 197.2 155.665 197.2 155.429C197.2 155.193 197.273 154.992 197.418 154.838ZM198.764 156.839H197.255V162.723H198.764V156.839Z" fill="#D71921"/>
<path d="M203.309 160.631V156.83H204.818V162.714H203.309V162.177C202.945 162.532 202.518 162.704 202.018 162.704C201.336 162.704 200.818 162.477 200.464 162.031C200.109 161.577 199.927 161.058 199.927 160.476V156.83H201.436V160.067C201.436 160.458 201.527 160.767 201.709 160.977C201.891 161.195 202.155 161.304 202.518 161.313C202.827 161.286 203.1 161.058 203.318 160.622" fill="#D71921"/>
<path d="M207.6 158.958V162.723H206.091V157.011L207.6 156.83V157.357C207.936 157.011 208.364 156.839 208.891 156.839C209.573 156.839 210.091 157.066 210.454 157.512C210.845 157.057 211.436 156.839 212.227 156.839C212.909 156.839 213.427 157.066 213.782 157.512C214.145 157.966 214.318 158.485 214.318 159.067V162.714H212.809V159.476C212.809 159.085 212.727 158.785 212.564 158.567C212.4 158.348 212.145 158.239 211.782 158.23C211.482 158.248 211.227 158.467 211.009 158.876C210.991 158.994 210.982 159.121 210.982 159.249V162.714H209.482V159.476C209.482 159.085 209.4 158.785 209.236 158.567C209.073 158.348 208.809 158.239 208.454 158.23C208.127 158.248 207.845 158.494 207.6 158.949" fill="#D71921"/>
<path d="M219.945 161.986C219.409 161.495 219.136 160.858 219.136 160.076V159.485C219.136 158.703 219.409 158.066 219.945 157.575C220.482 157.084 221.109 156.839 221.836 156.839C222.691 156.839 223.409 157.175 223.982 157.839L222.909 158.721C222.591 158.366 222.227 158.194 221.836 158.194C221.482 158.194 221.163 158.348 220.891 158.667C220.627 158.976 220.491 159.358 220.491 159.785C220.491 160.213 220.618 160.585 220.863 160.904C221.118 161.213 221.436 161.377 221.827 161.377C222.218 161.377 222.582 161.204 222.9 160.849L223.973 161.731C223.4 162.395 222.682 162.732 221.818 162.732C221.1 162.732 220.473 162.486 219.936 161.995" fill="#D71921"/>
<path d="M225.155 157.548C225.837 157.075 226.627 156.839 227.518 156.839C228.164 156.839 228.673 157.03 229.046 157.43C229.418 157.821 229.609 158.412 229.609 159.194V162.723H228.1V162.25C227.664 162.559 227.273 162.723 226.918 162.723C226.2 162.723 225.664 162.559 225.309 162.222C224.946 161.886 224.773 161.431 224.773 160.84C224.773 160.294 224.946 159.803 225.282 159.367C225.618 158.939 226.173 158.721 226.927 158.721C227.273 158.721 227.673 158.839 228.109 159.076V158.903C228.109 158.476 227.818 158.239 227.246 158.194C226.6 158.194 226.1 158.312 225.737 158.548L225.146 157.548H225.155ZM228.109 160.958V160.294C227.964 159.994 227.627 159.84 227.091 159.84C226.446 159.922 226.109 160.194 226.064 160.667C226.1 161.131 226.437 161.386 227.091 161.422C227.627 161.422 227.973 161.267 228.109 160.958Z" fill="#D71921"/>
<path d="M232.345 157.484C232.727 157.057 233.2 156.839 233.745 156.839C233.918 156.839 234.091 156.857 234.245 156.884L234.009 158.512C233.836 158.339 233.582 158.248 233.254 158.239C232.891 158.266 232.582 158.557 232.336 159.112V162.723H230.827V157.011L232.336 156.83V157.484H232.345Z" fill="#D71921"/>
<path d="M234.945 159.776C234.945 158.912 235.2 158.203 235.7 157.657C236.2 157.112 236.845 156.83 237.636 156.83C238.427 156.83 239.054 157.102 239.518 157.657C239.982 158.203 240.218 158.912 240.218 159.776V160.367H236.509C236.545 160.676 236.673 160.922 236.882 161.104C237.1 161.277 237.345 161.368 237.636 161.368C238.136 161.368 238.582 161.213 238.982 160.895L239.845 161.831C239.454 162.423 238.718 162.714 237.645 162.714C236.854 162.714 236.209 162.441 235.709 161.886C235.209 161.34 234.954 160.631 234.954 159.767M238.4 158.439C238.182 158.257 237.936 158.176 237.645 158.176C237.354 158.176 237.109 158.266 236.891 158.439C236.673 158.612 236.573 158.858 236.573 159.176H238.718C238.718 158.858 238.609 158.612 238.4 158.439Z" fill="#D71921"/>
<path d="M170.836 178.383V170.198L172.255 170.025V170.498C172.627 170.189 173 170.025 173.364 170.025C174.136 170.025 174.755 170.316 175.209 170.908C175.664 171.499 175.891 172.181 175.891 172.963C175.891 173.745 175.664 174.436 175.209 175.018C174.755 175.6 174.136 175.9 173.364 175.9C172.855 175.864 172.482 175.7 172.255 175.427V178.383H170.836ZM172.255 172.435V173.39C172.318 174.054 172.673 174.436 173.318 174.554C174.127 174.482 174.582 173.99 174.682 173.09C174.646 171.99 174.191 171.426 173.318 171.39C172.682 171.508 172.327 171.862 172.255 172.444V172.435Z" fill="#D71921"/>
<path d="M176.627 172.972C176.627 172.108 176.864 171.408 177.337 170.853C177.809 170.307 178.418 170.025 179.155 170.025C179.891 170.025 180.482 170.298 180.927 170.853C181.364 171.408 181.582 172.108 181.582 172.972V173.563H178.1C178.137 173.872 178.255 174.118 178.455 174.3C178.655 174.482 178.891 174.563 179.164 174.563C179.637 174.563 180.055 174.409 180.427 174.09L181.237 175.027C180.864 175.618 180.173 175.909 179.164 175.909C178.427 175.909 177.818 175.637 177.346 175.082C176.873 174.536 176.637 173.827 176.637 172.963M179.873 171.635C179.673 171.453 179.437 171.371 179.164 171.371C178.891 171.371 178.655 171.462 178.455 171.635C178.255 171.808 178.155 172.053 178.155 172.372H180.173C180.173 172.053 180.073 171.817 179.873 171.635Z" fill="#D71921"/>
<path d="M184 170.68C184.364 170.253 184.8 170.034 185.318 170.034C185.482 170.034 185.636 170.053 185.791 170.08L185.573 171.708C185.409 171.535 185.173 171.444 184.864 171.435C184.518 171.462 184.236 171.753 184.009 172.308V175.927H182.591V170.216L184.009 170.034V170.689L184 170.68Z" fill="#D71921"/>
<path d="M189.573 170.198C189.836 170.335 190.082 170.526 190.309 170.789L189.518 171.826C189.291 171.508 189 171.353 188.664 171.353C188.327 171.353 188.091 171.426 187.982 171.571C187.864 171.717 187.864 171.853 187.982 171.972C188.1 172.09 188.318 172.19 188.664 172.272C189.164 172.326 189.573 172.49 189.9 172.772C190.218 173.054 190.382 173.536 190.382 174.227C190.382 174.782 190.191 175.218 189.818 175.518C189.436 175.827 189 175.973 188.5 175.973C188 175.973 187.618 175.891 187.309 175.737C186.991 175.573 186.718 175.364 186.482 175.1L187.264 174.072C187.491 174.391 187.846 174.572 188.327 174.627C188.718 174.627 188.964 174.554 189.082 174.409C189.191 174.263 189.209 174.118 189.127 173.972C189.046 173.827 188.782 173.727 188.327 173.672C187.918 173.618 187.536 173.472 187.2 173.226C186.855 172.99 186.691 172.535 186.691 171.871C186.691 171.262 186.882 170.798 187.273 170.48C187.664 170.162 188.064 169.998 188.473 169.998C188.946 169.998 189.318 170.062 189.582 170.198" fill="#D71921"/>
<path d="M191.855 175.109C191.364 174.536 191.118 173.817 191.118 172.972C191.118 172.126 191.364 171.408 191.855 170.835C192.345 170.262 192.955 169.98 193.691 169.98C194.427 169.98 195.036 170.262 195.527 170.835C196.018 171.408 196.264 172.117 196.264 172.972C196.264 173.827 196.018 174.545 195.527 175.118C195.036 175.691 194.418 175.973 193.691 175.973C192.964 175.973 192.345 175.682 191.855 175.109ZM193.691 174.545C194.073 174.545 194.382 174.4 194.627 174.09C194.864 173.79 194.991 173.417 194.991 172.972C194.991 172.526 194.873 172.153 194.627 171.853C194.391 171.553 194.073 171.398 193.691 171.398C193.309 171.398 193 171.544 192.764 171.853C192.527 172.153 192.4 172.526 192.4 172.972C192.4 173.417 192.518 173.79 192.764 174.09C193 174.39 193.318 174.545 193.7 174.545H193.691Z" fill="#D71921"/>
<path d="M198.646 172.172V175.909H197.228V170.198L198.646 170.025V170.562C198.991 170.207 199.391 170.034 199.864 170.034C200.5 170.034 200.991 170.262 201.328 170.707C201.664 171.162 201.837 171.681 201.837 172.263V175.909H200.418V172.672C200.418 172.281 200.337 171.981 200.164 171.762C199.991 171.544 199.737 171.435 199.4 171.417C199.109 171.444 198.855 171.69 198.646 172.163" fill="#D71921"/>
<path d="M203.118 170.735C203.763 170.262 204.5 170.034 205.345 170.034C205.954 170.034 206.427 170.234 206.782 170.626C207.136 171.017 207.309 171.608 207.309 172.39V175.918H205.891V175.445C205.482 175.755 205.109 175.918 204.782 175.918C204.109 175.918 203.6 175.755 203.263 175.418C202.927 175.082 202.754 174.627 202.754 174.036C202.754 173.49 202.909 172.999 203.227 172.563C203.545 172.126 204.063 171.917 204.773 171.917C205.1 171.917 205.473 172.035 205.882 172.272V172.099C205.882 171.671 205.609 171.435 205.073 171.389C204.463 171.389 203.991 171.508 203.654 171.744L203.1 170.744L203.118 170.735ZM205.9 174.145V173.481C205.763 173.181 205.445 173.026 204.936 173.026C204.327 173.108 204.009 173.381 203.973 173.854C204.009 174.318 204.327 174.572 204.936 174.609C205.445 174.609 205.763 174.454 205.9 174.145Z" fill="#D71921"/>
<path d="M209.991 167.088H208.573V175.909H209.991V167.088Z" fill="#D71921"/>
<path d="M217.291 175.909C216.718 175.909 216.264 175.727 215.927 175.345C215.591 174.973 215.418 174.491 215.418 173.908V171.362H214.664V170.034H215.418V168.443L216.836 168.261V170.034H217.591V171.362H216.836V173.672C216.836 173.981 216.891 174.209 217.009 174.336C217.118 174.463 217.264 174.527 217.445 174.527C217.5 174.527 217.627 174.5 217.827 174.454L218.127 175.636C217.882 175.818 217.609 175.909 217.291 175.909Z" fill="#D71921"/>
<path d="M219.427 175.109C218.936 174.536 218.691 173.817 218.691 172.972C218.691 172.126 218.936 171.408 219.427 170.835C219.918 170.262 220.536 169.98 221.264 169.98C221.991 169.98 222.609 170.262 223.1 170.835C223.591 171.408 223.836 172.117 223.836 172.972C223.836 173.827 223.591 174.545 223.1 175.118C222.609 175.691 221.991 175.973 221.264 175.973C220.536 175.973 219.918 175.682 219.427 175.109ZM221.264 174.545C221.645 174.545 221.964 174.4 222.2 174.09C222.436 173.79 222.564 173.417 222.564 172.972C222.564 172.526 222.445 172.153 222.2 171.853C221.964 171.553 221.645 171.398 221.264 171.398C220.882 171.398 220.573 171.544 220.336 171.853C220.1 172.153 219.973 172.526 219.973 172.972C219.973 173.417 220.091 173.79 220.336 174.09C220.573 174.39 220.891 174.545 221.273 174.545H221.264Z" fill="#D71921"/>
<path d="M227.854 173.827V170.025H229.273V175.909H227.854V175.373C227.509 175.727 227.109 175.9 226.636 175.9C226 175.9 225.509 175.673 225.173 175.227C224.836 174.773 224.664 174.254 224.664 173.672V170.025H226.082V173.263C226.082 173.654 226.164 173.954 226.336 174.172C226.5 174.391 226.764 174.5 227.1 174.518C227.391 174.491 227.645 174.263 227.854 173.827Z" fill="#D71921"/>
<path d="M230.991 175.173C230.482 174.682 230.236 174.045 230.236 173.263V172.672C230.236 171.89 230.491 171.253 230.991 170.762C231.5 170.271 232.091 170.025 232.764 170.025C233.573 170.025 234.245 170.362 234.782 171.026L233.773 171.908C233.473 171.553 233.127 171.38 232.764 171.38C232.427 171.38 232.127 171.535 231.882 171.853C231.627 172.163 231.5 172.535 231.5 172.972C231.5 173.408 231.618 173.772 231.855 174.09C232.091 174.4 232.391 174.563 232.764 174.563C233.136 174.563 233.473 174.391 233.773 174.036L234.782 174.918C234.245 175.582 233.573 175.918 232.764 175.918C232.091 175.918 231.5 175.673 230.991 175.182" fill="#D71921"/>
<path d="M237.209 171.935V175.909H235.791V167.088H237.209V170.562C237.555 170.207 237.955 170.034 238.418 170.034C239.064 170.034 239.546 170.262 239.882 170.707C240.218 171.162 240.391 171.68 240.391 172.262V175.909H238.973V172.672C238.973 172.281 238.891 171.981 238.718 171.762C238.546 171.544 238.291 171.435 237.955 171.417C237.664 171.444 237.409 171.608 237.2 171.926" fill="#D71921"/>
<path d="M140.564 102.264C140.673 100.373 140.818 92.7609 130.482 92.4698C129.018 92.3334 121.991 92.8427 119.709 99.6724C119.327 100.773 116.655 111.195 129.791 113.341C131.082 113.405 136.209 113.941 140.218 110.094C140.646 109.521 140.755 108.658 139.509 108.185C138.264 107.712 136.946 108.939 136.946 108.939C136.946 108.939 133.209 112.068 127.727 110.058C126.373 109.521 123.391 108.385 122.691 104.292H138.409C138.409 104.292 140.455 104.474 140.564 102.264ZM122.691 101.7C123.6 96.5622 127.064 95.6073 128.618 95.3709C137.236 94.2159 137.364 101.7 137.364 101.7H122.7H122.691Z" fill="#0DB04B"/>
<path d="M114.518 99.4996C114.118 94.8252 109.309 93.6156 108.618 93.4156C102.455 91.7695 99.3363 95.1616 98.7727 95.8619V86.7859C98.7727 86.0674 98.0182 85.4763 97.1 85.4763C96.1818 85.4763 95.4272 86.0583 95.4272 86.7859V112.013C95.4272 112.732 96.1818 113.323 97.1 113.323C98.0182 113.323 98.7727 112.741 98.7727 112.013V100.191C99.0454 97.4989 101.655 96.2075 102.391 95.9256C110.527 94.0522 111.218 100.063 111.218 100.063V104.865C111.218 106.911 111.218 109.494 111.218 111.877V112.013C111.218 112.732 111.964 113.323 112.873 113.323C113.782 113.323 114.527 112.741 114.527 112.013V110.995C114.527 106.438 114.527 99.9725 114.518 99.4996Z" fill="#0DB04B"/>
<path d="M165.982 110.876L157.282 101.582C157.282 101.582 164.945 96.0346 165.4 95.589C165.854 95.1343 165.763 94.5523 164.909 93.9339C164.045 93.3155 162.991 93.9521 162.991 93.9521L149.854 103.61V87.186C149.854 86.4493 149.082 85.8491 148.136 85.8491C147.191 85.8491 146.418 86.4493 146.418 87.186V111.304V112.04C146.418 112.759 147.191 113.341 148.136 113.341C149.082 113.341 149.854 112.759 149.854 112.04V107.721V106.811L154.654 103.228C154.654 103.228 162.627 112.068 163.527 112.913C164.427 113.75 165.4 113.368 166.027 113.05C167.273 112.213 165.982 110.904 165.982 110.904" fill="#0DB04B"/>
<path d="M95.4456 164.441C95.8456 169.134 100.664 170.343 101.364 170.543C107.546 172.19 110.673 168.788 111.246 168.088V177.191C111.246 177.919 112 178.501 112.927 178.501C113.855 178.501 114.609 177.919 114.609 177.191V152.01C114.609 151.3 113.873 150.727 112.955 150.727H112.891C111.982 150.727 111.237 151.3 111.237 152.01V163.741C110.964 166.442 108.591 167.77 107.6 168.015C99.4365 169.898 98.7456 163.868 98.7456 163.868V159.048C98.7456 157.084 98.7456 154.283 98.7456 151.991C98.7456 151.282 98.0002 150.7 97.0911 150.7C96.1729 150.7 95.4365 151.273 95.4365 151.991C95.4365 156.575 95.4365 163.95 95.4456 164.441Z" fill="#0DB04B"/>
<path d="M130.082 150.209C119.364 149.5 117.873 158.576 117.936 160.058C118.109 169.834 126.018 170.68 127.618 170.78C139.027 171.353 139.636 162.986 139.764 161.367C139.891 150.445 130.082 150.209 130.082 150.209ZM128.118 168.352C127.018 168.279 121.582 167.642 121.464 160.231C121.518 159.139 122.118 152.31 129.482 152.837C129.482 152.837 136.109 152.864 136.455 161.222C136.364 162.441 135.955 168.779 128.109 168.343L128.118 168.352Z" fill="#0DB04B"/>
<path d="M164.236 153.819V151.819C164.236 151.118 163.536 150.555 162.673 150.555C161.809 150.555 161.109 151.118 161.109 151.819C161.109 152.91 161.109 154.156 161.109 155.429V155.847C161.109 159.367 161.027 161.568 160.845 162.459C159.055 168.334 155.145 168.197 152.855 168.261C147.709 168.134 148.055 161.859 148.055 161.859V154.738V151.81C148.055 151.109 147.336 150.545 146.464 150.545C145.582 150.545 144.873 151.109 144.873 151.81C144.873 152.464 144.873 153.174 144.873 153.91C144.873 156.184 144.864 160.067 144.873 163.55C145.191 169.425 149.445 170.816 152.291 170.862C157.736 171.435 160.6 167.824 160.936 167.37H160.955V169.616C160.955 170.271 161.609 170.853 162.473 170.889C163.409 170.935 164.191 170.362 164.191 169.661V167.188V158.967C164.191 158.967 164.218 156.748 164.227 154.738V153.819H164.236Z" fill="#0DB04B"/>
<path d="M233.018 150.8H169.227C168.909 150.8 168.654 150.6 168.654 150.354V150.218C168.654 149.973 168.909 149.772 169.227 149.772H233.018C233.336 149.772 233.591 149.973 233.591 150.218V150.354C233.591 150.6 233.336 150.8 233.018 150.8Z" fill="#0DB04B"/>
<path d="M108.309 122.981C102.145 121.335 99.0273 124.727 98.4636 125.427V116.351C98.4636 115.633 97.7182 115.051 96.7909 115.051C95.8636 115.051 95.1182 115.633 95.1182 116.351V141.579C95.1182 142.297 95.8727 142.888 96.7909 142.888C97.7091 142.888 98.4636 142.306 98.4636 141.579V129.756C98.7363 127.064 101.345 125.764 102.082 125.491C110.218 123.618 110.909 129.629 110.909 129.629V134.431C110.909 136.386 110.909 139.341 110.909 141.624C110.909 142.333 111.645 142.915 112.564 142.915C113.482 142.915 114.218 142.342 114.218 141.633C114.218 137.068 114.218 129.556 114.209 129.065C113.809 124.391 109 123.181 108.309 122.981Z" fill="#D71921"/>
<path d="M130.482 122.408C129.018 122.272 121.991 122.772 119.709 129.611C119.455 131.357 117.027 142.252 129.791 143.279C131.082 143.343 136.209 143.879 140.218 140.033C140.646 139.46 140.755 138.596 139.509 138.123C138.264 137.65 136.946 138.878 136.946 138.878C136.946 138.878 133.209 142.015 127.727 139.996C126.373 139.46 123.391 138.323 122.691 134.23H138.409C138.409 134.23 140.455 134.412 140.564 132.202C140.673 130.311 140.846 122.954 130.482 122.399M122.682 131.639C123.591 126.5 127.055 125.536 128.609 125.309C137.227 124.154 137.355 131.639 137.355 131.639H122.691H122.682Z" fill="#D71921"/>
<path d="M172.363 115.333H171.854C171.073 115.333 170.445 115.824 170.445 116.433V141.797C170.445 142.406 171.073 142.897 171.854 142.897H172.363C173.145 142.897 173.773 142.406 173.773 141.797V116.433C173.773 115.824 173.145 115.333 172.363 115.333Z" fill="#D71921"/>
<path d="M210.536 122.853C204.373 121.207 201.255 124.6 200.691 125.3V116.224C200.691 115.505 199.946 114.923 199.018 114.923C198.091 114.923 197.336 115.505 197.336 116.224V141.633C197.336 142.351 198.091 142.943 199.018 142.943C199.946 142.943 200.691 142.361 200.691 141.633V129.629C200.964 126.937 203.573 125.636 204.309 125.363C212.446 123.49 213.136 129.501 213.136 129.501V134.303C213.136 136.258 213.136 139.341 213.136 141.633C213.136 142.342 213.882 142.915 214.791 142.915C215.7 142.915 216.446 142.342 216.446 141.633C216.446 137.068 216.446 129.429 216.436 128.928C216.036 124.254 211.227 123.044 210.536 122.844" fill="#D71921"/>
<path d="M238.754 123.199C237.827 123.199 237.082 123.781 237.082 124.509V136.176C236.809 138.859 234.2 140.16 233.464 140.442C225.327 142.315 224.636 136.304 224.636 136.304V131.493C224.636 129.538 224.636 126.728 224.636 124.436C224.636 123.727 223.9 123.154 222.982 123.154C222.064 123.154 221.327 123.727 221.327 124.436C221.327 129.001 221.327 136.377 221.336 136.868C221.736 141.542 226.545 142.752 227.236 142.952C233.4 144.598 236.518 141.206 237.082 140.505V149.527C237.082 150.245 237.836 150.836 238.754 150.836C239.673 150.836 240.436 150.254 240.436 149.527V124.509C240.436 123.79 239.682 123.199 238.754 123.199Z" fill="#D71921"/>
<path d="M165.263 129.001C165.209 126.819 164.636 126.291 164.027 125.491C159.173 120.58 149.582 123.49 149.4 123.526C149.209 123.563 146.673 124.181 147.373 125.482C148.073 126.782 150.4 125.864 151.045 125.673C152.909 125.118 155.063 125.209 156.463 125.291C162.145 125.591 161.927 129.247 161.927 129.247V132.675C153.373 128.119 147.291 133.084 146.854 133.676C143.673 137.359 146.254 140.915 149.327 142.242C156.791 144.798 161.918 140.451 161.918 140.451C161.918 140.451 161.918 140.414 161.936 140.587V141.697C161.936 142.415 162.682 142.988 163.609 142.988C164.536 142.988 165.282 142.406 165.282 141.697V138.623C165.282 135.349 165.3 130.42 165.263 129.01M156.391 140.396C154.809 140.551 150.191 141.06 148.863 137.459C148.463 136.431 149.263 133.457 155.036 133.43C155.036 133.43 161.382 133.075 161.782 136.631C161.727 137.413 161.9 139.478 156.382 140.387L156.391 140.396Z" fill="#D71921"/>
<path d="M190.291 140.524C188.927 140.733 187.909 140.605 187.255 140.16C186.091 139.36 186 137.577 186.064 136.959V128.028H186.073V125.636H190.2C191.045 125.636 191.782 125.145 191.836 124.491C191.891 123.772 191.164 123.181 190.255 123.181H186.082V120.144C186.082 120.089 186.082 120.034 186.064 119.98C186.064 119.98 186.055 119.907 186.045 119.88C186 119.68 185.891 119.489 185.736 119.334H185.727C185.727 119.334 185.691 119.289 185.664 119.261C185.382 119.007 184.982 118.825 184.527 118.807C183.555 118.761 182.755 119.352 182.755 120.098V123.181H181.4C180.555 123.181 179.818 123.672 179.764 124.327C179.7 125.045 180.436 125.636 181.345 125.636H182.755V136.795C182.709 137.359 182.564 140.342 185.045 142.07C185.836 142.624 187.136 143.197 189.127 143.197C189.682 143.197 190.282 143.152 190.945 143.052C191.845 142.915 192.436 142.233 192.255 141.533C192.082 140.833 191.209 140.378 190.3 140.515" fill="#D71921"/>
<path d="M188.982 99.3905C188.927 97.2079 188.354 96.6805 187.745 95.8802C182.891 90.9693 173.3 93.8795 173.118 93.9158C172.936 93.9522 170.391 94.5706 171.091 95.8711C171.791 97.1716 174.118 96.253 174.764 96.0621C176.627 95.5073 178.782 95.5983 180.182 95.6801C185.864 95.9802 185.645 99.6361 185.645 99.6361V103.065C177.091 98.5084 171.009 103.474 170.573 104.065C167.391 107.748 169.973 111.304 173.045 112.632C180.509 115.187 185.636 110.84 185.636 110.84C185.636 110.84 185.636 110.804 185.654 110.977V112.086C185.654 112.804 186.4 113.377 187.327 113.377C188.254 113.377 189 112.795 189 112.086V109.012C189 105.738 189.018 100.809 188.982 99.3996M180.109 110.786C178.527 110.94 173.909 111.449 172.582 107.848C172.182 106.821 172.982 103.847 178.754 103.819C178.754 103.819 185.1 103.465 185.5 107.021C185.445 107.803 185.618 109.867 180.1 110.776L180.109 110.786Z" fill="#0DB04B"/>
</g>
<defs>
<clipPath id="clip0_774_87618">
<rect width="260" height="251" fill="white"/>
</clipPath>
</defs>
</svg>
