<svg width="222" height="192" viewBox="0 0 222 192" fill="none" xmlns="http://www.w3.org/2000/svg">
<path opacity="0.5" d="M25.2691 128.105C24.0217 122.462 24.0432 115.249 28.9895 112.416C33.011 110.13 37.9357 112.082 42.3013 113.558C46.6669 115.034 52.3873 115.606 55.011 111.773C56.5379 109.559 56.4088 106.607 56.2153 103.893C55.226 90.7985 53.7852 77.7522 51.8497 64.7772C51.14 60.0157 50.3873 55.0638 51.6992 50.4452C53.011 45.8266 57.0325 41.5889 61.7637 41.8032C68.6454 42.1365 74.0648 51.2547 80.5594 48.8739C84.4518 47.4455 85.8282 42.6602 86.8604 38.5654C88.7529 30.9708 91.3766 23.4001 96.1078 17.234C99.8712 12.3536 104.839 8.52058 110.237 5.6399C117.635 1.68789 126.022 -0.549995 134.344 0.116609C142.667 0.783213 150.86 4.54476 156.215 11.068C163.076 19.4243 164.538 31.0899 163.871 41.946C163.527 47.6836 162.86 54.1829 166.581 58.5159C170.903 63.563 178.71 62.9202 185.118 61.4442C191.527 59.9681 198.839 58.2302 204.237 62.0632C206.688 63.8011 208.387 66.4913 209.248 69.3958C211.269 76.1095 209.118 83.3469 206.258 89.7272C203.398 96.1076 199.742 102.274 198.581 109.178C197.42 116.082 199.463 124.224 205.527 127.557C210.129 130.104 216.71 129.938 219.183 134.628C220.215 136.604 220.172 139.008 219.85 141.222C218.108 153.436 209.183 163.649 198.538 169.553C187.893 175.457 175.656 177.624 163.592 178.909C139.441 181.504 115.097 180.957 90.9035 179.385C84.925 179.005 78.9465 178.528 72.9895 178.052C68.1938 177.671 61.6777 178.243 57.226 176.171C50.4088 172.981 43.4626 163.958 39.0325 158.007C32.4303 149.174 27.6562 138.937 25.2691 128.105Z" fill="#E5C5EF"/>
<path d="M217.204 191.956H6.6875L41.3542 151.126H182.537L217.204 191.956Z" fill="#AF90D6"/>
<g opacity="0.28">
<path d="M0 188.194H222" stroke="white" stroke-width="0.5" stroke-miterlimit="10"/>
<path d="M0 184.457H222" stroke="white" stroke-width="0.5" stroke-miterlimit="10"/>
<path d="M0 180.695H222" stroke="white" stroke-width="0.5" stroke-miterlimit="10"/>
<path d="M0 176.933H222" stroke="white" stroke-width="0.5" stroke-miterlimit="10"/>
<path d="M0 173.172H222" stroke="white" stroke-width="0.5" stroke-miterlimit="10"/>
<path d="M0 169.41H222" stroke="white" stroke-width="0.5" stroke-miterlimit="10"/>
<path d="M0 165.649H222" stroke="white" stroke-width="0.5" stroke-miterlimit="10"/>
<path d="M0 161.911H222" stroke="white" stroke-width="0.5" stroke-miterlimit="10"/>
<path d="M0 158.15H222" stroke="white" stroke-width="0.5" stroke-miterlimit="10"/>
<path d="M0 154.388H222" stroke="white" stroke-width="0.5" stroke-miterlimit="10"/>
</g>
<path opacity="0.5" d="M69.0098 149.888C66.6657 150.436 65.1819 153.007 65.2034 155.459C65.2249 157.911 66.4292 160.173 67.8485 162.149C70.5367 165.887 74.0851 168.982 78.1496 171.077C75.1388 175.576 77.0528 182.243 81.3324 185.457C85.6335 188.694 91.5474 188.932 96.6657 187.409C101.784 185.885 106.322 182.814 110.752 179.79C115.375 176.648 122.064 177.386 127.504 176.172C128.494 175.957 129.526 175.719 130.537 175.91C131.633 176.1 132.58 176.767 133.504 177.41C137.569 180.314 141.612 183.314 146.257 185.099C150.881 186.885 156.279 187.337 160.709 185.076C165.784 182.481 168.816 176.315 167.827 170.625C170.816 168.577 174.365 167.387 177.031 164.911C179.698 162.435 181.139 157.888 178.73 155.15C177.633 153.912 176.021 153.317 174.451 152.864C164.859 150.055 154.73 150.127 144.752 149.96C125.913 149.65 107.096 148.436 88.3861 146.317C81.784 145.627 75.5044 148.412 69.0098 149.888Z" fill="#AF90D6"/>
<path d="M139.441 32.5661C140.689 34.9468 141.269 37.6132 141.721 40.2796C142.861 47.0171 143.334 53.8736 144.818 60.5396C145.742 64.7059 147.033 68.7769 147.506 73.0146C148.194 79.3236 146.968 85.7039 145.033 91.7271C143.957 95.084 142.646 98.417 140.581 101.226C138.517 104.059 135.721 106.345 132.603 107.916C126.13 111.178 118.216 111.297 111.656 108.226C105.097 105.178 100 99.0122 98.194 91.8938C96.1295 83.7993 98.1725 75.3001 99.8499 67.1342C101.42 59.5873 102.689 51.9928 103.656 44.3269C104.28 39.4702 104.925 34.2326 108.13 30.5901C112.086 26.0667 118.753 25.3525 124.689 25.7572C126.882 24.4002 129.742 24.5906 132.086 25.6619C135.033 27.0666 137.893 29.6616 139.441 32.5661Z" fill="#664650"/>
<path opacity="0.5" d="M108.258 56.0162C109.291 52.826 110.602 49.5644 113.183 47.4694C116.194 45.0411 120.387 44.7078 124.194 45.3505C127.635 45.9219 131.011 47.2551 133.592 49.612C135.635 51.469 137.097 53.8736 138.473 56.2543C139.828 58.635 141.14 61.0634 141.979 63.6822C142.817 66.301 143.161 69.134 142.559 71.8242C141.592 76.2048 138.151 79.7283 134.172 81.7043C130.194 83.6565 125.699 84.2516 121.269 84.4183C117.936 84.5373 114.516 84.4421 111.441 83.1565C108.688 82.0376 105.205 79.2045 104.645 76.0143C103.979 72.1575 105.377 67.2771 106.215 63.5393C106.774 61.0157 107.463 58.4922 108.258 56.0162Z" fill="#664650"/>
<path d="M104.624 70.9434C100.258 71.3243 95.4412 72.0385 92.624 75.4667C90.4735 78.0617 90.0003 81.6566 89.6562 85.0373C88.8606 93.0127 88.4305 101.036 88.3229 109.059C78.4304 116.082 70.9681 127.509 68.2584 139.461C67.3767 139.604 66.3229 139.842 65.4412 139.984C63.9358 140.223 62.4305 140.484 60.9036 140.484C59.2692 140.484 57.3982 140.294 56.1939 141.413C55.7423 141.841 55.4412 142.389 55.1401 142.937C54.667 143.817 54.1939 144.722 53.9358 145.674C53.8928 145.841 53.8498 146.008 53.8928 146.151C53.9788 146.46 54.3874 146.603 54.6885 146.531C55.0111 146.436 55.2477 146.198 55.4842 145.96C56.3229 145.127 57.1401 144.27 57.9788 143.437C58.8175 144.032 59.7208 144.651 60.667 145.127C59.8713 146.365 58.8175 147.603 57.8068 148.674C57.3552 147.746 56.2584 147.27 55.3337 146.817C55.1186 146.722 54.8606 146.627 54.624 146.698C54.1079 146.841 54.0218 147.579 54.1079 148.127C54.2369 148.936 54.452 149.745 54.9036 150.412C55.3552 151.079 56.1079 151.602 56.9036 151.602C56.9466 151.602 57.0111 151.602 57.0756 151.602C56.1509 152.34 55.2907 153.555 54.667 154.578C54.4735 154.888 54.3014 155.245 54.3014 155.626C54.3014 156.007 54.5595 156.388 54.9251 156.411C55.2046 156.435 55.4412 156.269 55.6563 156.102C56.624 155.364 57.5272 154.555 58.3874 153.674C58.9036 153.15 59.3982 152.626 59.8928 152.079C59.2907 153.412 58.8606 154.983 58.624 156.435C58.5595 156.864 58.5595 157.411 58.9466 157.602C59.3337 157.792 59.7638 157.435 60.0649 157.102C61.5272 155.459 62.8821 153.721 64.0864 151.888C63.7638 153.317 63.6132 154.959 63.8928 156.411C63.9358 156.626 64.0003 156.864 64.1939 156.959C64.495 157.102 64.8175 156.769 64.9896 156.483C66.624 153.793 67.8498 150.841 68.6455 147.793C76.71 140.746 84.495 133.676 92.2154 126.248C96.1724 122.439 100.301 118.201 101.269 112.749C103.785 98.7503 104.344 85.1563 104.624 70.9434Z" fill="#FFD3B6"/>
<path d="M98.9897 71.8005C99.6348 73.8718 100.151 75.9668 100.56 78.1095C100.968 80.2997 101.248 82.5376 100.882 84.7279C100.495 86.9182 99.3768 89.0608 97.5058 90.2036C96.9036 90.5845 96.2155 90.8464 95.6993 91.3463C95.1187 91.8939 94.8176 92.6795 94.6026 93.4652C93.4628 97.3934 93.8929 101.774 95.7424 105.393C95.9789 105.845 96.2155 106.297 96.2585 106.797C96.323 107.583 95.8499 108.297 95.3983 108.916C92.2585 113.32 88.6671 117.653 87.4843 122.962C87.2477 124.058 87.0972 125.2 86.5811 126.2C86.2155 126.914 85.6563 127.533 85.1187 128.129C82.0434 131.533 78.9467 134.914 75.8714 138.318C75.4628 138.77 75.0327 139.223 74.495 139.508C73.6563 139.937 72.6671 139.889 71.7424 140.008C69.1402 140.318 66.7961 142.056 65.5058 144.389C64.237 146.722 63.9789 149.555 64.6241 152.15C64.8821 153.198 65.2907 154.221 65.7639 155.197C67.0112 152.888 68.0004 150.436 68.6671 147.889C76.7316 140.842 84.5166 133.771 92.237 126.343C96.194 122.534 100.323 118.296 101.291 112.844C103.785 98.8456 104.345 85.2278 104.646 71.0149C102.775 71.0863 100.818 71.3244 98.9897 71.8005Z" fill="#FFB9A6"/>
<path d="M59.1621 152.721C60.4739 151.079 62.0868 149.555 63.9148 148.15" stroke="#FFB9A6" stroke-miterlimit="10" stroke-linecap="round" stroke-linejoin="round"/>
<path d="M56.4961 151.793C57.6789 150.579 58.8402 149.365 60.023 148.174" stroke="#FFB9A6" stroke-miterlimit="10" stroke-linecap="round" stroke-linejoin="round"/>
<path opacity="0.15" d="M80.6669 120.463C82.1508 118.32 83.6776 116.13 85.8282 114.725C86.1723 114.511 86.5379 114.297 86.9465 114.368C87.5056 114.463 87.8712 115.058 87.8712 115.654C87.8712 116.225 87.6131 116.773 87.3551 117.296C84.6454 122.582 80.6024 129.628 75.6346 133.081C71.9787 135.628 74.0432 130.866 75.0755 129.081C76.7959 126.081 78.7314 123.272 80.6669 120.463Z" fill="white"/>
<path opacity="0.15" d="M90.7962 94.8935C90.5596 96.5838 90.3231 98.3217 90.5166 100.012C90.9682 100.012 91.2693 99.5359 91.4629 99.1074C93.1188 95.2506 93.2048 90.7748 95.3768 87.2037C96.4091 85.5134 98.108 83.7755 97.8715 81.6328C97.6564 79.7997 96.0865 78.1094 94.4521 79.514C93.0543 80.7282 92.5381 84.9659 92.151 86.7276C91.5489 89.4178 91.1833 92.1557 90.7962 94.8935Z" fill="white"/>
<path opacity="0.15" d="M60.2793 142.627C61.7417 143.103 63.3116 143.175 64.8169 142.818C64.9675 142.794 65.118 142.746 65.1825 142.604C65.3116 142.389 65.161 142.127 64.989 141.961C63.7202 140.675 61.2901 140.937 60.3223 142.485" fill="white"/>
<path d="M63.8926 152.603C64.3227 151.888 64.7528 151.174 65.1829 150.46" stroke="#FFB9A6" stroke-miterlimit="10" stroke-linecap="round" stroke-linejoin="round"/>
<path d="M139.141 70.9434C143.506 71.3243 148.323 72.0385 151.141 75.4667C153.291 78.0617 153.764 81.6566 154.108 85.0373C154.904 93.0127 155.334 101.036 155.442 109.059C165.334 116.082 172.797 127.509 175.506 139.461C176.388 139.604 177.442 139.842 178.323 139.984C179.829 140.223 181.334 140.484 182.861 140.484C184.495 140.484 186.366 140.294 187.571 141.413C188.022 141.841 188.323 142.389 188.624 142.937C189.098 143.817 189.571 144.722 189.829 145.674C189.872 145.841 189.915 146.008 189.872 146.151C189.786 146.46 189.377 146.603 189.076 146.531C188.754 146.436 188.517 146.198 188.28 145.96C187.442 145.127 186.625 144.27 185.786 143.437C184.947 144.032 184.044 144.651 183.098 145.127C183.893 146.365 184.947 147.603 185.958 148.674C186.409 147.746 187.506 147.27 188.431 146.817C188.646 146.722 188.904 146.627 189.141 146.698C189.657 146.841 189.743 147.579 189.657 148.127C189.528 148.936 189.313 149.745 188.861 150.412C188.409 151.079 187.657 151.602 186.861 151.602C186.797 151.602 186.754 151.602 186.689 151.602C187.614 152.34 188.474 153.555 189.098 154.578C189.291 154.888 189.463 155.245 189.463 155.626C189.463 156.007 189.205 156.388 188.84 156.411C188.56 156.435 188.323 156.269 188.108 156.102C187.141 155.364 186.237 154.555 185.377 153.674C184.861 153.15 184.366 152.626 183.872 152.079C184.474 153.412 184.904 154.983 185.141 156.435C185.205 156.864 185.205 157.411 184.818 157.602C184.431 157.792 184.001 157.435 183.7 157.102C182.237 155.459 180.883 153.721 179.678 151.888C180.001 153.317 180.151 154.959 179.872 156.411C179.829 156.626 179.764 156.864 179.571 156.959C179.27 157.102 178.947 156.769 178.775 156.483C177.141 153.793 175.915 150.841 175.119 147.793C167.055 140.746 159.27 133.676 151.549 126.248C147.592 122.439 143.463 118.201 142.495 112.749C140.001 98.7503 139.42 85.1563 139.141 70.9434Z" fill="#FFD3B6"/>
<path d="M144.775 71.8004C144.13 73.8717 143.614 75.9667 143.205 78.1094C142.797 80.2996 142.517 82.5375 142.883 84.7278C143.27 86.918 144.388 89.0607 146.259 90.2034C146.861 90.5844 147.549 90.8462 148.065 91.3462C148.646 91.8938 148.947 92.6794 149.162 93.465C150.302 97.3932 149.872 101.774 148.022 105.392C147.786 105.845 147.549 106.297 147.506 106.797C147.442 107.583 147.915 108.297 148.366 108.916C151.506 113.32 155.098 117.653 156.28 122.962C156.517 124.057 156.668 125.2 157.184 126.2C157.549 126.914 158.108 127.533 158.646 128.128C161.721 131.533 164.818 134.914 167.893 138.318C168.302 138.77 168.732 139.223 169.27 139.508C170.108 139.937 171.098 139.889 172.022 140.008C174.625 140.318 176.969 142.056 178.259 144.389C179.528 146.722 179.786 149.555 179.141 152.15C178.883 153.198 178.474 154.221 178.001 155.197C176.754 152.888 175.764 150.436 175.098 147.888C167.033 140.842 159.248 133.771 151.528 126.343C147.571 122.534 143.442 118.296 142.474 112.844C140.001 98.7503 139.42 85.1563 139.141 70.9434C141.012 71.0862 142.947 71.3243 144.775 71.8004Z" fill="#FFB9A6"/>
<path d="M184.602 152.721C183.29 151.079 181.678 149.555 179.85 148.15" stroke="#FFB9A6" stroke-miterlimit="10" stroke-linecap="round" stroke-linejoin="round"/>
<path d="M187.269 151.793C186.086 150.579 184.925 149.365 183.742 148.174" stroke="#FFB9A6" stroke-miterlimit="10" stroke-linecap="round" stroke-linejoin="round"/>
<path opacity="0.15" d="M163.097 120.463C161.613 118.32 160.086 116.13 157.936 114.725C157.592 114.511 157.226 114.297 156.817 114.368C156.258 114.463 155.893 115.058 155.893 115.654C155.893 116.225 156.151 116.773 156.409 117.296C159.118 122.582 163.161 129.628 168.129 133.081C171.785 135.628 169.721 130.866 168.688 129.081C166.968 126.081 165.032 123.272 163.097 120.463Z" fill="white"/>
<path opacity="0.15" d="M152.969 94.8935C153.205 96.5838 153.442 98.3217 153.248 100.012C152.797 100.012 152.496 99.5359 152.302 99.1074C150.646 95.2506 150.56 90.7748 148.388 87.2037C147.356 85.5134 145.657 83.7755 145.893 81.6328C146.108 79.7997 147.678 78.1094 149.313 79.514C150.711 80.7282 151.227 84.9659 151.614 86.7276C152.216 89.4178 152.582 92.1557 152.969 94.8935Z" fill="white"/>
<path opacity="0.15" d="M183.485 142.627C182.023 143.103 180.453 143.175 178.947 142.818C178.797 142.794 178.646 142.746 178.582 142.604C178.453 142.389 178.603 142.127 178.775 141.961C180.044 140.675 182.474 140.937 183.442 142.485" fill="white"/>
<path d="M179.872 152.603C179.442 151.888 179.012 151.174 178.582 150.46" stroke="#FFB9A6" stroke-miterlimit="10" stroke-linecap="round" stroke-linejoin="round"/>
<path d="M87.0329 139.603C83.7641 139.818 80.4307 140.056 77.377 141.27C74.3232 142.484 71.549 144.912 70.7103 148.126C70.5598 148.674 70.4738 149.269 70.6458 149.817C70.7963 150.317 71.1404 150.745 71.4845 151.126C74.2372 154.15 78.1297 155.792 81.9576 157.054C87.9791 159.054 94.2157 160.387 100.538 161.03C101.958 161.173 103.42 161.268 104.732 160.721C105.85 160.268 106.732 159.387 107.506 158.459C108.861 156.84 110.001 154.769 109.657 152.674C109.398 151.055 108.302 149.722 107.248 148.484C105.054 145.889 102.581 141.389 99.592 139.651C96.1727 137.723 90.7318 139.603 87.0329 139.603Z" fill="#423E68"/>
<path d="M137.506 141.103C144.173 138.985 151.248 138.27 158.194 138.985C161.936 139.365 165.743 140.222 168.883 142.365C172.022 144.484 174.367 148.103 174.216 151.936C174.173 152.793 174.022 153.65 173.592 154.388C173.076 155.293 172.238 155.935 171.377 156.483C167.291 159.078 162.388 159.911 157.614 160.578C153.936 161.078 150.194 161.506 146.517 161.078C143.872 160.768 141.27 159.983 138.883 158.816C136.302 157.554 133.7 155.388 133.592 152.483C133.549 151.126 134.065 149.793 134.625 148.579C135.829 145.96 136.367 143.722 137.506 141.103Z" fill="#423E68"/>
<path d="M115.829 56.9923C116.646 59.6825 117.399 62.7298 115.98 65.1344C114.947 66.8961 112.969 67.8246 111.076 68.5626C108.173 69.7054 105.205 70.6576 102.195 71.3957C103.507 76.919 104.818 82.7517 103.227 88.1798C102.453 90.8462 100.474 93.6079 97.7431 93.5602C96.8829 95.9648 96.4097 98.4169 96.9689 100.893C97.528 103.393 98.6463 105.726 99.9366 107.916C94.4958 112.797 90.7323 119.843 90.1732 127.2C89.5065 136.128 93.399 145.508 100.711 150.507C102.603 151.793 104.625 152.626 106.689 153.602C112.775 156.459 119.593 157.84 126.259 157.149C132.926 156.459 139.442 153.65 144.302 148.984C146.044 147.317 147.571 145.389 148.732 143.246C149.829 141.246 150.56 139.056 151.27 136.89C152.883 131.985 152.281 126.986 151.42 121.891C150.582 116.772 148.474 111.797 144.84 108.154C145.808 105.845 146.474 103.416 147.033 100.964C147.593 98.5122 147.743 95.9172 147.033 93.5126C145.42 93.5364 144.044 92.4651 143.119 91.1081C142.216 89.7511 141.786 88.1322 141.463 86.5133C140.431 81.2519 139.7 79.8711 141.958 70.8243C138.84 70.4434 135.915 69.5863 133.098 68.1579C132.539 67.8722 131.98 67.5627 131.636 67.0389C131.356 66.6342 131.227 66.1581 131.119 65.6819C130.474 62.8965 130.216 60.0158 130.388 57.1589C130.41 56.7066 130.431 56.2304 130.195 55.8495C130.023 55.5638 129.7 55.3734 129.399 55.2305C125.356 53.2545 120.173 55.5638 115.829 56.9923Z" fill="#FFD3B6"/>
<path d="M112.431 112.344C107.85 111.796 103.291 110.63 99.0329 108.797C96.7319 111.035 94.7964 113.677 93.3125 116.534C97.9792 121.319 104.087 124.7 110.56 126.319C119.872 128.652 129.807 127.533 138.818 124.248C142.99 122.724 147.076 120.629 150.474 117.772C149.42 114.415 147.764 111.273 145.399 108.725C143.119 109.392 140.796 109.963 138.495 110.463C129.915 112.344 121.097 113.392 112.431 112.344Z" fill="#FFB9A6"/>
<path d="M121.291 150.912C116.538 149.293 111.355 149.579 106.516 148.293C100.774 146.746 95.8712 143.079 91.7852 138.603C93.5271 143.412 96.5809 147.674 100.753 150.531C102.645 151.816 104.667 152.65 106.731 153.626C112.817 156.483 119.635 157.864 126.301 157.173C132.968 156.483 139.484 153.673 144.344 149.007C146.086 147.341 147.613 145.412 148.774 143.27C149.871 141.27 150.602 139.08 151.312 136.913C151.678 135.794 151.914 134.651 152.086 133.532C151.118 134.556 150.086 135.485 148.968 136.318C140.667 142.555 129.075 144.079 121.291 150.912Z" fill="#FFB9A6"/>
<path d="M130.325 61.468C130.389 61.4204 130.454 61.3728 130.518 61.349C130.411 59.9682 130.389 58.5874 130.454 57.2303C130.475 56.778 130.497 56.3019 130.26 55.9209C130.088 55.6353 129.766 55.4448 129.464 55.302C125.357 53.2783 120.174 55.5638 115.83 57.0161C116.303 58.5874 116.755 60.2777 116.755 61.8728C118.884 64.8249 121.572 64.6582 124.024 64.8249C125.12 64.8963 129.4 62.0632 130.325 61.468Z" fill="#FFB9A6"/>
<path d="M116.625 91.4174C117.786 92.1316 119.141 92.4411 120.496 92.584C123.872 92.9173 127.27 92.1793 130.474 90.9889C132.023 90.4175 133.55 89.7271 134.754 88.5844C136.001 87.4178 136.84 85.8465 137.442 84.2514C139.12 79.8947 139.313 75.1571 139.786 70.4908C138.496 70.229 137.227 69.8718 136.001 69.4195C134.56 73.5382 132.517 77.4426 129.915 80.9422C129.034 82.1326 128.044 83.2991 126.69 83.8705C125.464 84.3705 124.109 84.3229 122.797 84.2276C121.593 84.1324 120.345 84.0134 119.27 83.4658C118.216 82.942 117.378 82.0374 116.625 81.1327C113.743 77.5616 111.915 73.2525 110.238 68.9434C109.055 69.3957 107.851 69.8004 106.625 70.2051C107.636 76.4665 109.894 82.5135 113.313 87.8225C114.195 89.1557 115.206 90.5604 116.625 91.4174Z" fill="#FFB9A6"/>
<path d="M130.646 159.887C126.56 158.721 122.452 157.531 118.366 156.364C106.839 153.055 95.2696 149.746 84.3018 144.865C81.5922 143.651 78.861 142.342 75.9363 141.984C73.0115 141.603 69.7427 142.342 67.8287 144.627C65.5276 147.365 65.8287 151.698 67.7857 154.697C68.8825 156.388 70.4309 157.745 72.0223 158.983C81.4631 166.387 93.2911 170.625 105.205 170.863C108.194 170.934 111.184 170.744 114.173 170.529C121.055 170.029 127.915 169.339 134.753 168.458C139.442 172.482 144.108 176.005 149.377 179.219C150.302 179.79 151.635 180.266 152.302 179.409C153.119 180.028 154.495 179.148 154.947 178.219C155.979 178.695 157.485 177.862 157.614 176.719C158.56 177.505 160.216 176.219 160.28 174.981C160.323 173.743 159.463 172.672 158.56 171.839C154.861 168.482 149.829 167.03 146.13 163.697C144.839 162.53 143.657 161.125 142.001 160.649C140.947 160.364 139.829 160.483 138.753 160.554C136.044 160.697 133.248 160.625 130.646 159.887Z" fill="#FFD3B6"/>
<path d="M130.646 159.887C126.56 158.721 122.452 157.53 118.366 156.364C117.764 156.197 117.183 156.031 116.581 155.84C115.269 157.102 114.022 158.435 112.882 159.864C112.646 160.149 112.409 160.459 112.065 160.625C111.721 160.768 111.312 160.744 110.947 160.721C108.538 160.53 106.108 160.483 103.699 160.554C102.087 160.602 100.431 160.744 98.9683 161.411C97.3769 162.149 96.1296 163.435 94.9468 164.744C93.7425 166.077 92.5812 167.434 91.4199 168.791C95.9145 170.053 100.56 170.767 105.226 170.862C106.173 170.886 107.119 170.862 108.065 170.839C115.699 167.196 123.312 163.577 130.947 159.935C130.839 159.911 130.753 159.911 130.646 159.887Z" fill="#FFB9A6"/>
<path d="M149.699 172.148C151.849 171.505 154 170.767 156.108 169.958C152.839 167.791 149.075 166.315 146.129 163.673C145.032 162.697 144.022 161.53 142.731 160.911C139.806 163.459 136.882 165.982 133.979 168.529C134.237 168.506 134.516 168.458 134.774 168.434C136.989 170.339 139.226 172.124 141.505 173.838C141.656 173.838 141.785 173.815 141.936 173.815C144.559 173.577 147.161 172.91 149.699 172.148Z" fill="#FFB9A6"/>
<path d="M138.279 118.915C142.064 117.844 145.742 116.415 149.376 114.916C148.279 112.416 146.795 110.107 144.881 108.178C145.849 105.869 146.516 103.441 147.075 100.988C147.634 98.5362 147.785 95.9412 147.075 93.5367C145.462 93.5605 144.086 92.4891 143.161 91.1321C142.258 89.7751 141.828 88.1562 141.505 86.5373C140.494 81.3473 140.408 75.8955 141.978 70.8483C140.43 70.6579 138.924 70.3484 137.484 69.9199C136.473 76.3716 134.58 82.7282 130.064 87.2277C129.118 88.18 128.021 89.0371 126.774 89.4894C125.634 89.8942 124.43 89.9418 123.225 89.9418C121.462 89.9656 119.677 89.918 118.021 89.3228C113.828 87.8229 111.548 83.2519 110.236 78.9428C109.311 75.8955 108.645 72.7767 108.236 69.6104C106.236 70.3008 104.236 70.8959 102.193 71.4197C103.505 76.943 104.817 82.7758 103.225 88.2038C102.451 90.8703 100.473 93.6319 97.7416 93.5843C96.8814 95.9888 96.4083 98.441 96.9674 100.917C97.5265 103.417 98.6448 105.75 99.9351 107.94C97.7631 109.892 95.8706 112.178 94.3438 114.678C107.849 121.391 123.785 122.986 138.279 118.915Z" fill="white"/>
<path d="M105.571 152.602C98.3449 150.388 91.2051 147.936 84.3018 144.865C81.5922 143.651 78.861 142.342 75.9363 141.984C73.0115 141.603 69.7427 142.342 67.8287 144.627C65.5276 147.365 65.8287 151.698 67.7857 154.697C68.8825 156.388 70.4309 157.745 72.0223 158.983C78.0438 163.72 85.0545 167.149 92.4094 169.077C95.7857 162.84 100.28 157.245 105.571 152.602Z" fill="#5D548C"/>
<path d="M138.968 45.4935C138.774 44.7793 138.409 44.0888 137.764 43.7317C137.248 43.4461 136.624 43.4937 136.065 43.7317V42.9937C136.065 35.5658 130.151 29.5664 122.86 29.5664C115.57 29.5664 109.656 35.5897 109.656 42.9937V44.4698C108.086 44.3269 106.774 45.5649 106.602 47.16C106.495 48.2075 106.86 49.3265 107.656 49.9931C108.258 50.5168 109.097 50.7311 109.85 50.5882C110.882 56.9686 116.301 61.8253 122.86 61.8253C129.484 61.8253 134.946 56.8496 135.914 50.3978C136 50.3978 136.108 50.4216 136.194 50.4216C137.269 50.374 138.237 49.6359 138.71 48.6837C139.205 47.6837 139.248 46.541 138.968 45.4935Z" fill="#FFD3B6"/>
<path d="M122.947 53.4688C123.721 53.4211 124.732 52.0879 124.732 51.3023C124.732 50.5166 122.431 51.0404 121.678 51.0404C120.904 51.0166 121.657 53.5402 122.947 53.4688Z" fill="#DA6B58"/>
<path d="M122.947 53.4688C123.377 53.445 123.871 53.0164 124.237 52.5165C124.022 51.9689 123.484 51.6118 122.882 51.6118C122.323 51.6118 121.85 51.9213 121.592 52.3736C121.85 52.945 122.323 53.4926 122.947 53.4688Z" fill="#FF8E8A"/>
<path d="M113.463 46.1123C113.828 46.3742 114.173 46.6361 114.538 46.8503C114.904 47.0646 115.291 47.2312 115.699 47.2789C116.108 47.3503 116.538 47.3503 116.947 47.3027C117.355 47.2551 117.785 47.1836 118.194 47.136C117.785 47.2551 117.377 47.3741 116.947 47.4455C116.517 47.5169 116.087 47.5407 115.656 47.4693C115.226 47.3979 114.818 47.2312 114.452 46.9694C114.108 46.7075 113.764 46.4218 113.463 46.1123Z" fill="#222221"/>
<path d="M127.076 46.9933C127.442 47.2552 127.872 47.3028 128.302 47.3266C128.732 47.3505 129.162 47.3981 129.571 47.3028C129.979 47.2076 130.366 46.9933 130.711 46.7315C131.055 46.4696 131.377 46.1363 131.678 45.803C131.399 46.1839 131.119 46.5172 130.775 46.8267C130.431 47.1362 130.044 47.3743 129.592 47.4695C129.141 47.5647 128.711 47.4933 128.28 47.4457C128.065 47.4219 127.85 47.3743 127.635 47.3028C127.442 47.2552 127.248 47.16 127.076 46.9933Z" fill="#222221"/>
<path d="M114.279 42.6127C114.537 42.2317 114.989 41.9937 115.419 41.9222C115.849 41.8508 116.344 41.9222 116.688 42.2079C116.279 42.0651 115.849 42.0175 115.441 42.0889C115.032 42.1603 114.645 42.327 114.279 42.6127Z" fill="#222221"/>
<path d="M127.441 42.3509C127.807 42.0652 128.28 41.9224 128.732 41.9462C129.183 41.97 129.656 42.1128 130.001 42.4461C129.183 42.0652 128.28 42.0176 127.441 42.3509Z" fill="#222221"/>
<path d="M121.828 48.4456C122 47.8743 122.43 47.3981 122.968 47.1362C123.032 47.1124 123.075 47.0886 123.14 47.0886C123.226 47.0886 123.312 47.1839 123.377 47.2553C123.635 47.5648 123.85 47.8743 124.043 48.2314" stroke="#222221" stroke-width="0.5" stroke-miterlimit="10" stroke-linecap="round" stroke-linejoin="round"/>
<path d="M113.29 52.7308C114.81 52.7308 116.042 51.4837 116.042 49.9454C116.042 48.407 114.81 47.1599 113.29 47.1599C111.77 47.1599 110.537 48.407 110.537 49.9454C110.537 51.4837 111.77 52.7308 113.29 52.7308Z" fill="#FFB6B6"/>
<path d="M132.43 52.7308C133.951 52.7308 135.183 51.4837 135.183 49.9454C135.183 48.407 133.951 47.1599 132.43 47.1599C130.91 47.1599 129.678 48.407 129.678 49.9454C129.678 51.4837 130.91 52.7308 132.43 52.7308Z" fill="#FFB6B6"/>
<path d="M116.946 39.8273C120.172 38.018 123.57 36.2801 125.828 33.328C126.172 37.8037 129.376 41.1367 133.247 43.327C134.946 44.2793 136.882 45.0173 138.774 44.9221C138.559 44.4222 138.237 43.9698 137.763 43.7317C137.247 43.4461 136.624 43.4937 136.065 43.7317V42.9937C136.065 35.5658 130.151 29.5664 122.86 29.5664C115.57 29.5664 109.656 35.5897 109.656 42.9937V44.4698C108.086 44.3269 106.774 45.5649 106.602 47.16C106.516 47.9218 106.71 48.7075 107.097 49.3503C109.505 45.9934 114.172 41.3748 116.946 39.8273Z" fill="#FFB9A6"/>
<path d="M136.709 41.8031C133.956 41.3508 131.354 39.8985 129.483 37.8035C127.612 35.6847 126.644 32.9944 126.472 30.1614C122.451 36.7322 112.731 37.8511 108.989 44.5886C108.472 42.184 108.214 39.5414 108.774 37.1369C108.967 36.3036 109.225 35.4466 109.655 34.7086C110.107 33.9229 110.752 33.2325 111.44 32.6373C114.365 29.9947 118.128 28.3282 122.021 27.9235C125.913 27.5188 129.935 28.4234 133.311 30.4233C134.365 31.0422 135.376 31.7803 136.085 32.7802C137.827 35.3037 137.311 38.732 136.709 41.8031Z" fill="#664650"/>
<path d="M170.043 142.913C148.344 142.318 126.538 150.841 110.774 166.053C108.925 165.244 107.032 164.173 105.054 163.839C103.075 163.506 100.946 163.649 99.2045 164.696C97.355 165.792 96.1723 167.744 94.7099 169.339C91.4626 172.839 86.8389 174.6 83.011 177.433C82.0432 178.148 81.054 179.266 81.4196 180.409C81.8497 181.695 83.5916 181.79 84.9249 181.6C84.3443 181.79 84.6024 183.004 85.183 183.218C85.7422 183.433 86.3658 183.147 86.9249 182.885C86.6239 183.314 86.9465 184.171 87.4411 184.266C87.9572 184.361 88.4518 184.076 88.8604 183.742C88.3658 184.171 88.9895 185.314 89.6346 185.433C90.2798 185.552 90.9249 185.099 91.312 184.576C93.0755 184.218 94.5378 183.385 96.0217 182.361C99.9572 179.6 103.893 176.814 107.828 174.053C107.828 174.053 138.774 169.006 147.484 168.672C156.172 168.339 183.269 160.364 179.204 149.007C177.291 142.603 170.043 142.913 170.043 142.913Z" fill="#FFD3B6"/>
<path d="M179.226 149.007C177.29 142.627 170.043 142.913 170.043 142.913C155.484 142.508 140.903 146.222 128.107 153.293C128.817 156.292 130.172 159.149 131.871 161.697C133.763 164.554 136.043 167.101 138.452 169.529C142.236 169.053 145.484 168.72 147.505 168.648C156.193 168.339 183.29 160.363 179.226 149.007Z" fill="#5D548C"/>
<path d="M121.226 145.531C122.057 145.531 122.731 144.945 122.731 144.222C122.731 143.499 122.057 142.913 121.226 142.913C120.395 142.913 119.721 143.499 119.721 144.222C119.721 144.945 120.395 145.531 121.226 145.531Z" fill="#FFB9A6"/>
<path d="M84.3438 181.957C85.2685 181.29 86.2792 180.766 87.3545 180.409" stroke="#FFB9A6" stroke-miterlimit="10" stroke-linecap="round" stroke-linejoin="round"/>
<path d="M86.4961 182.861C87.2918 182.671 88.023 182.266 88.6251 181.695" stroke="#FFB9A6" stroke-miterlimit="10" stroke-linecap="round" stroke-linejoin="round"/>
<path d="M88.4297 184.147C89.1394 183.695 89.849 183.266 90.5587 182.814" stroke="#FFB9A6" stroke-miterlimit="10" stroke-linecap="round" stroke-linejoin="round"/>
<path d="M91.4199 184.575C91.7855 184.29 92.1296 184.004 92.4952 183.695" stroke="#FFB9A6" stroke-miterlimit="10" stroke-linecap="round" stroke-linejoin="round"/>
<path opacity="0.15" d="M119.313 75.9667C120.84 77.6808 123.463 78.5141 125.463 77.4189C126.926 76.6095 127.743 74.9906 128.302 73.3955C128.84 71.8956 129.162 70.1101 128.259 68.8007C127.915 68.3007 127.42 67.9436 126.883 67.6341C124.84 66.4914 122.216 66.5152 120.173 67.6818C118.689 68.5388 117.27 69.1816 117.076 70.7529C116.861 72.3718 118.302 74.8716 119.313 75.9667Z" fill="white"/>
<path opacity="0.15" d="M109.764 130.533C106.818 130.842 103.592 131.533 101.85 133.961C100.173 136.294 100.517 139.913 102.624 141.841C104.689 143.746 107.764 143.889 110.56 143.936C113.571 143.984 116.603 144.032 119.614 144.079C122.087 144.127 124.603 144.151 127.033 143.603C130.603 142.794 133.764 140.746 136.646 138.461C138.839 136.723 142.753 133.485 142.839 130.319C142.947 126.652 136.603 129.438 134.194 129.7C126.065 130.581 117.872 129.724 109.764 130.533Z" fill="white"/>
<path opacity="0.15" d="M101.096 169.601C98.8167 171.72 96.5157 173.815 94.2361 175.933C93.3544 176.743 92.4081 177.862 92.8167 178.981C97.1823 177.862 101.462 175.719 104.86 172.672C108.774 169.148 104.645 166.315 101.096 169.601Z" fill="white"/>
<path opacity="0.15" d="M113.247 167.649C112.946 167.91 112.623 168.196 112.494 168.601C112.344 168.982 112.451 169.482 112.795 169.696C112.967 169.791 113.161 169.791 113.333 169.815C116.602 169.982 131.483 168.458 127.354 162.173C124.258 157.435 115.806 165.387 113.247 167.649Z" fill="white"/>
<path d="M144.926 108.059C138.001 109.916 130.367 109.011 124.152 105.369C123.7 105.107 123.399 104.726 123.012 104.417C120.023 107.083 115.851 107.726 111.915 108.154C108.711 108.511 105.442 108.797 102.259 108.297C101.464 108.178 100.646 107.988 99.8721 107.75C99.9151 107.797 99.9366 107.869 99.9796 107.916C99.571 108.273 99.184 108.654 98.8184 109.059C101.205 110.868 103.894 112.154 107.076 112.868C110.345 113.606 113.743 113.701 117.098 113.773C124.904 113.939 132.797 114.106 140.431 112.44C142.646 111.963 144.603 111.035 146.345 109.797C145.894 109.226 145.421 108.702 144.904 108.178C144.904 108.13 144.904 108.107 144.926 108.059Z" fill="#EAEAEA"/>
<path opacity="0.1" d="M139.441 32.566C138.71 31.1852 137.677 29.8996 136.495 28.7568C136.473 29.4472 136.366 30.1139 136.043 30.709C135.828 31.1138 135.505 31.4709 135.118 31.7566C134.344 32.3279 133.312 32.5898 132.366 32.3517C131.398 32.1137 130.366 31.4233 129.505 31.947C128.344 32.6612 129.011 34.5896 128.258 35.7324C128.215 35.8038 128.15 35.8514 128.086 35.899C128.473 36.5656 128.925 37.2084 129.441 37.8036C130.107 38.5654 130.882 39.232 131.72 39.8034C132.236 39.0178 132.581 38.0893 132.989 37.2084C133.484 36.2085 134.215 35.2324 135.269 34.9705C135.806 34.8277 136.366 34.8991 136.925 34.8991H136.946C138.021 34.8753 139.097 34.5896 140.064 34.0659C139.914 33.5421 139.699 33.066 139.441 32.566Z" fill="white"/>
<path opacity="0.1" d="M120.28 34.1846C119.635 34.6132 118.538 34.7084 118.28 33.9704C118.13 33.5418 118.345 33.0657 118.345 32.6133C118.323 31.8039 117.571 31.1849 116.775 31.0897C115.979 30.9945 115.205 31.3277 114.517 31.7087C113.227 32.4467 111.85 33.4704 110.474 33.5656C110.087 33.5894 109.721 33.5418 109.334 33.399C108.452 33.0419 107.85 32.2086 107.571 31.2801C106.474 32.7086 105.721 34.3275 105.162 36.0654C105.463 36.4463 105.807 36.7796 106.194 37.0653C106.883 37.5415 107.743 37.8271 108.581 37.8509C109.399 37.8748 110.216 37.6605 110.904 37.1843C111.399 36.8272 111.829 36.3273 112.366 36.0416C112.904 35.7559 113.7 35.7797 114.022 36.3035C114.409 36.9225 113.958 37.7795 114.194 38.4699C114.28 38.708 114.452 38.8985 114.667 39.0413C117.528 37.232 120.732 35.7083 123.313 33.6132C123.033 33.3276 122.689 33.1371 122.28 33.1133C121.549 33.0895 120.926 33.7323 120.28 34.1846Z" fill="white"/>
<path opacity="0.1" d="M83.4416 155.864C84.6029 156.388 85.8072 156.816 87.076 156.84C88.3448 156.864 89.6137 156.459 90.6244 155.697C90.9255 155.483 91.205 155.197 91.3556 154.84C91.7642 153.84 90.8395 152.793 89.9792 152.15C87.7642 150.531 79.2911 144.722 76.8395 147.484C73.5706 151.198 81.2266 154.864 83.4416 155.864Z" fill="#E5C5EF"/>
<path opacity="0.1" d="M140.279 156.173C139.57 156.673 138.86 157.221 138.408 157.959C137.957 158.721 137.828 159.721 138.322 160.459C138.688 161.006 139.311 161.292 139.935 161.482C141.957 162.078 144.107 161.721 146.172 161.292C152.516 159.911 158.645 157.507 164.279 154.221C167.053 152.602 168.451 149.912 165.419 147.674C163.161 146.008 161.268 146.508 158.946 147.555C152.58 150.388 146.086 152.031 140.279 156.173Z" fill="#E5C5EF"/>
</svg>
