<svg width="51" height="32" viewBox="0 0 51 32" fill="none" xmlns="http://www.w3.org/2000/svg">
<path d="M43.1423 14.3936C42.2347 13.6151 41.5117 12.6567 41.0428 11.6049C40.8764 11.2346 40.7403 10.8471 40.4801 10.5253C40.0778 10.0271 39.382 9.73645 38.7043 9.78835C37.7211 9.86447 37.2008 10.6499 37.104 10.7952C36.9557 11.0167 36.7198 11.4595 36.8105 12.7467C36.9043 14.0995 36.992 15.3659 38.0115 16.4731C38.3352 16.826 38.8677 17.3866 39.7843 17.6045C40.0203 17.6599 41.2697 17.9609 42.0623 17.2966C42.6704 16.788 42.9638 16.0371 43.0757 15.2932C43.1423 14.8504 43.1574 14.6947 43.3299 14.4144C43.6233 13.9369 44.0589 13.8158 44.7245 13.4802C45.9557 12.8643 46.8089 12.1169 47.4925 11.5184C47.6831 11.3488 47.9796 11.117 48.2852 10.7641C49.0112 9.92675 49.7524 9.06521 50.1003 8.04796C50.7235 6.22453 49.946 4.1935 48.6119 2.71953C48.3729 2.45657 47.8798 2.11057 47.4411 1.80608C46.5578 1.18674 45.871 0.858038 45.632 0.747317C45.632 0.747317 45.2811 0.546636 44.9483 0.456675C42.9396 -0.0969281 40.7766 0.259454 38.7255 0.671197C38.0327 0.809597 37.3399 0.958378 36.6774 1.18328C34.4448 1.93756 32.4421 3.56377 30.2488 4.41148C27.151 5.60519 23.5268 5.82317 20.426 4.63638C19.4912 4.28 18.6199 3.80252 17.7426 3.33887C15.8519 2.33893 13.9127 1.38396 11.8223 0.799217C9.7349 0.214474 7.46599 0.0172526 5.36045 0.543176C4.18364 0.837278 3.07641 1.35628 2.12952 2.05174C1.58801 2.44965 1.08582 2.92021 0.789353 3.49457C0.574563 3.91324 0.471706 4.36996 0.38095 4.82322C0.281118 5.32838 0.141958 5.95119 0.154059 6.74353C0.17221 8.01336 0.544311 8.96487 0.828681 9.66379C1.20986 10.6084 1.38834 11.0824 1.8512 11.5668C2.52885 12.2726 3.48179 12.7259 3.94162 12.9439C4.71003 13.3107 5.23036 13.4837 5.63271 14.0373C5.85053 14.3383 5.94431 14.6324 5.98666 14.8365" fill="#FAFCFC"/>
<path d="M43.1423 14.3936C42.2347 13.6151 41.5117 12.6567 41.0428 11.6049C40.8764 11.2346 40.7403 10.8471 40.4801 10.5253C40.0778 10.0271 39.382 9.73645 38.7043 9.78835C37.7211 9.86447 37.2008 10.6499 37.104 10.7952C36.9557 11.0167 36.7198 11.4595 36.8105 12.7467C36.9043 14.0995 36.992 15.3659 38.0115 16.4731C38.3352 16.826 38.8677 17.3866 39.7843 17.6045C40.0203 17.6599 41.2697 17.9609 42.0623 17.2966C42.6704 16.788 42.9638 16.0371 43.0757 15.2932C43.1423 14.8504 43.1574 14.6947 43.3299 14.4144C43.6233 13.9369 44.0589 13.8158 44.7245 13.4802C45.9557 12.8643 46.8089 12.1169 47.4926 11.5184C47.6831 11.3488 47.9796 11.117 48.2852 10.7641C49.0112 9.92675 49.7524 9.06521 50.1003 8.04796C50.7235 6.22453 49.946 4.1935 48.6119 2.71953C48.3729 2.45657 47.8798 2.11057 47.4411 1.80608C46.5578 1.18674 45.871 0.858038 45.632 0.747317C45.632 0.747317 45.2811 0.546636 44.9483 0.456675C42.9396 -0.0969281 40.7766 0.259454 38.7255 0.671197C38.0327 0.809597 37.3399 0.958378 36.6774 1.18328C34.4448 1.93756 32.4421 3.56377 30.2488 4.41148C27.151 5.60519 23.5268 5.82317 20.426 4.63638C19.4912 4.28 18.6199 3.80252 17.7426 3.33887C15.8519 2.33893 13.9127 1.38396 11.8223 0.799217C9.7349 0.214474 7.46599 0.0172526 5.36045 0.543176C4.18364 0.837278 3.07641 1.35628 2.12952 2.05174C1.58801 2.44965 1.08582 2.92021 0.789353 3.49457C0.574563 3.91324 0.471706 4.36996 0.38095 4.82322C0.281118 5.32838 0.141958 5.95119 0.154059 6.74353C0.17221 8.01336 0.544311 8.96487 0.828681 9.66379C1.20986 10.6084 1.38834 11.0824 1.8512 11.5668C2.52885 12.2726 3.48179 12.7259 3.94162 12.9439C4.71003 13.3107 5.23036 13.4837 5.63271 14.0373C5.85053 14.3383 5.94431 14.6324 5.98666 14.8365" stroke="black" stroke-miterlimit="10"/>
<path d="M40.3408 10.3732L42.0168 10.0203L40.3408 10.3732Z" fill="#FAFCFC"/>
<path d="M40.3408 10.3732L42.0168 10.0203" stroke="black" stroke-miterlimit="10"/>
<path d="M42.0168 10.0168C43.2995 9.90958 44.5429 9.45285 45.5503 8.72279C46.004 8.39409 46.4185 7.99965 46.6635 7.52216C46.9116 7.03776 46.9782 6.49454 47.0205 5.96169C47.0477 5.65029 47.0659 5.32851 46.96 5.03441C46.8541 4.74031 46.6333 4.49464 46.3882 4.28012C45.1177 3.166 43.2148 2.85113 41.4571 2.97916C38.196 3.2179 35.0921 4.87179 33.2619 7.34224C33.1045 7.55676 32.8202 7.93391 32.6054 8.48751C32.1546 9.64662 32.445 10.439 32.4481 11.4112C32.4602 13.6533 30.9536 15.328 30.9929 15.3418C31.0353 15.3591 32.2121 13.0374 32.2121 13.0374" fill="#FAFCFC"/>
<path d="M42.0168 10.0168C43.2995 9.90958 44.5429 9.45285 45.5503 8.72279C46.004 8.39409 46.4185 7.99965 46.6635 7.52216C46.9116 7.03776 46.9782 6.49454 47.0205 5.96169C47.0477 5.65029 47.0659 5.32851 46.96 5.03441C46.8541 4.74031 46.6333 4.49464 46.3882 4.28012C45.1177 3.166 43.2148 2.85113 41.4571 2.97916C38.196 3.2179 35.0921 4.87179 33.2619 7.34224C33.1045 7.55676 32.8202 7.93391 32.6054 8.48751C32.1546 9.64662 32.445 10.439 32.4481 11.4112C32.4602 13.6533 30.9536 15.328 30.9929 15.3418C31.0353 15.3591 32.2121 13.0374 32.2121 13.0374" stroke="black" stroke-miterlimit="10"/>
<path d="M9.02412 10.8852C9.31757 12.1723 8.87286 13.4594 7.85337 14.2033C7.02143 14.8088 6.08059 14.8504 5.71757 14.8504C6.08664 14.8607 6.60698 14.9299 7.01538 15.2552C7.68093 15.7846 7.36631 16.4489 8.03185 17.1167C8.66412 17.7568 9.61404 17.826 9.90143 17.8467C10.21 17.871 11.169 17.9402 11.8315 17.3762C12.0826 17.1651 12.1945 16.9368 12.2792 16.7811C12.8177 15.8053 13.3108 14.795 13.5135 13.7189C13.7162 12.6429 13.6103 11.4872 13.0053 10.5461C12.8147 10.252 12.5666 9.97174 12.2248 9.83333C11.6379 9.59459 10.9542 9.82642 10.3976 10.1171C9.84093 10.4077 9.28732 10.771 8.64597 10.8021C7.91387 10.8402 7.25135 10.4354 6.64933 10.0479C5.86278 9.54269 5.0732 9.03407 4.28664 8.52891C4.06883 8.38705 3.84799 8.24518 3.6695 8.0618C3.53034 7.91994 3.42143 7.75732 3.32765 7.58778C2.83454 6.7124 2.56227 5.45641 3.10076 4.56026C3.59387 3.74024 4.4016 2.95481 5.41807 2.70569C5.8295 2.60535 6.26211 2.59151 6.68866 2.59843C10.8574 2.66071 16.3451 3.85788 17.4493 7.51858C17.8245 8.75727 17.4977 10.0963 17.8033 11.3488C17.9424 11.9197 18.0181 11.9197 18.2359 12.6602C18.7956 14.5701 18.5959 15.1064 18.9256 16.2205C19.3734 17.7222 19.9391 17.4315 21.0614 19.6217C21.7724 21.0092 22.087 22.1891 22.3078 23.0229C22.695 24.5004 22.7858 25.5799 22.8403 26.303C22.9219 27.3514 22.9582 27.8843 22.7525 28.3272C22.5045 28.8565 22.087 29.2233 22.1293 29.8669C22.1293 29.8876 22.1596 30.2405 22.3502 30.5554C22.7767 31.2509 23.9172 31.59 25.1969 31.4446C25.7959 31.4862 26.2406 31.3651 26.4856 31.282C26.6793 31.2163 26.9152 31.1332 27.1542 30.936C27.1542 30.936 27.493 30.6592 27.6655 30.2267C27.9468 29.5174 27.4749 28.6662 27.2419 28.0815C26.9273 27.2926 27.0453 25.9224 27.2873 23.1821C27.3599 22.3413 27.4386 21.7981 27.732 21.158C27.9045 20.7808 28.0073 20.684 28.5761 19.7982C28.7908 19.4591 29.2991 18.6633 29.7166 17.909C30.3004 16.8468 30.2066 16.7395 30.7814 15.5735C31.2715 14.5839 32.1307 13.1584 32.2124 13.0235" fill="#FAFCFC"/>
<path d="M9.02412 10.8852C9.31757 12.1723 8.87286 13.4594 7.85337 14.2033C7.02143 14.8088 6.08059 14.8504 5.71757 14.8504C6.08664 14.8607 6.60698 14.9299 7.01538 15.2552C7.68093 15.7846 7.36631 16.4489 8.03185 17.1167C8.66412 17.7568 9.61404 17.826 9.90143 17.8467C10.21 17.871 11.169 17.9402 11.8315 17.3762C12.0826 17.1651 12.1945 16.9368 12.2792 16.7811C12.8177 15.8053 13.3108 14.795 13.5135 13.7189C13.7162 12.6429 13.6103 11.4872 13.0053 10.5461C12.8147 10.252 12.5666 9.97174 12.2248 9.83333C11.6379 9.59459 10.9542 9.82641 10.3976 10.1171C9.84093 10.4077 9.28732 10.771 8.64597 10.8021C7.91387 10.8402 7.25135 10.4354 6.64933 10.0479C5.86278 9.54269 5.0732 9.03407 4.28664 8.52891C4.06883 8.38705 3.84799 8.24518 3.6695 8.0618C3.53034 7.91994 3.42143 7.75732 3.32765 7.58778C2.83454 6.7124 2.56227 5.45641 3.10076 4.56026C3.59387 3.74024 4.4016 2.95481 5.41807 2.70569C5.8295 2.60535 6.26211 2.59151 6.68866 2.59843C10.8574 2.66071 16.3451 3.85788 17.4493 7.51858C17.8245 8.75727 17.4977 10.0963 17.8033 11.3488C17.9424 11.9197 18.0181 11.9197 18.2359 12.6602C18.7956 14.5701 18.5959 15.1064 18.9256 16.2205C19.3734 17.7222 19.9391 17.4315 21.0614 19.6217C21.7724 21.0092 22.087 22.1891 22.3078 23.0229C22.695 24.5004 22.7858 25.5799 22.8403 26.303C22.9219 27.3514 22.9582 27.8843 22.7525 28.3272C22.5045 28.8565 22.087 29.2233 22.1293 29.8669C22.1293 29.8876 22.1596 30.2405 22.3502 30.5554C22.7767 31.2509 23.9172 31.59 25.1969 31.4446C25.7959 31.4861 26.2406 31.3651 26.4856 31.282C26.6793 31.2163 26.9152 31.1332 27.1542 30.936C27.1542 30.936 27.493 30.6592 27.6655 30.2267C27.9468 29.5174 27.4749 28.6662 27.2419 28.0815C26.9273 27.2926 27.0453 25.9224 27.2873 23.1821C27.3599 22.3413 27.4386 21.7981 27.732 21.158C27.9045 20.7808 28.0073 20.684 28.5761 19.7982C28.7908 19.4591 29.2991 18.6633 29.7166 17.909C30.3004 16.8468 30.2066 16.7395 30.7814 15.5735C31.2715 14.5839 32.1307 13.1584 32.2124 13.0235" stroke="black" stroke-miterlimit="10"/>
<path d="M11.1935 18.7775C13.3655 18.7775 15.1263 16.7637 15.1263 14.2795C15.1263 11.7953 13.3655 9.78149 11.1935 9.78149C9.0215 9.78149 7.26074 11.7953 7.26074 14.2795C7.26074 16.7637 9.0215 18.7775 11.1935 18.7775Z" fill="#11AF4B" stroke="#FCFCFC" stroke-miterlimit="10"/>
<path d="M39.3273 18.4316C41.4993 18.4316 43.2601 16.4178 43.2601 13.9336C43.2601 11.4494 41.4993 9.43555 39.3273 9.43555C37.1553 9.43555 35.3945 11.4494 35.3945 13.9336C35.3945 16.4178 37.1553 18.4316 39.3273 18.4316Z" fill="#11AF4B" stroke="#FCFCFC" stroke-miterlimit="10"/>
</svg>
