<svg width="34" height="49" viewBox="0 0 34 49" fill="none" xmlns="http://www.w3.org/2000/svg">
<path d="M4.07995 46.9183C5.45294 46.7284 6.4812 45.9446 7.34153 45.1699C8.28141 44.3288 9.16825 43.4154 9.48351 42.3693C9.69269 41.6699 9.63966 40.9464 9.58073 40.235C9.52475 39.5175 9.73394 38.8423 9.67502 38.1399C9.58663 37.127 9.45699 36.1171 9.34798 35.1042C9.21539 33.8742 9.07986 32.6322 8.61434 31.4414C7.92785 29.6869 6.52245 27.9988 6.76405 26.187C7.05279 24.0255 6.3604 22.0811 6.83771 19.9347C6.97324 19.3228 7.14707 18.7138 7.43287 18.129C7.91606 17.1372 8.71452 16.2389 9.34503 15.2893C9.84885 14.5296 10.6915 13.164 10.2937 12.3169C9.9284 11.5361 8.17829 11.3884 7.59786 10.6799C7.39162 10.4267 7.32385 10.1313 7.26493 9.8449C6.98797 8.47628 6.86423 7.08957 6.89074 5.70587C6.89369 5.50088 6.90253 5.28986 7.0027 5.09391C7.17064 4.76833 7.58607 4.40658 7.29144 4.12924C7.03217 3.88506 6.47531 3.98454 6.12175 4.1624C5.35276 4.54827 4.87546 5.17229 4.66038 5.82043C4.4453 6.46856 4.46887 7.14082 4.53369 7.80403C4.5985 8.45819 4.70163 9.11538 4.94617 9.74543C5.42937 10.9965 6.46058 12.1661 6.50772 13.4624C6.5254 13.9236 6.39281 14.415 5.93613 14.7436C5.54133 15.027 4.97269 15.1476 4.46592 15.3224C3.76764 15.5636 3.15775 15.9253 2.70697 16.3715C2.36814 16.263 1.97628 16.1092 1.60504 16.1032C1.36639 15.446 1.56674 14.5899 1.68459 13.9176C1.99101 12.127 0.962744 10.4991 1.00105 8.69634C1.01872 7.86733 1.0364 7.0353 1.29568 6.22739C1.51665 5.5461 1.90557 4.89796 2.29153 4.25585C2.76589 3.46603 3.35221 2.60084 4.49538 2.3024C5.26732 2.10042 6.19246 2.22703 6.79941 2.61893C7.19716 2.87517 7.51242 3.252 8.0457 3.3153C8.46702 3.36354 8.87951 3.18869 9.1712 2.96862C9.46288 2.74856 9.66912 2.48026 9.95786 2.2602C10.3792 1.93764 10.9537 1.72963 11.5371 1.56985C14.6248 0.734811 18.2783 1.18097 20.9565 2.54055C21.9582 3.05002 22.8539 3.69514 23.3489 4.49099C23.8409 5.28684 23.8851 6.2485 23.2693 7.00215C23.0425 7.27949 22.7213 7.5508 22.7537 7.87035C22.7655 7.99395 22.8333 8.11151 22.9158 8.22004C23.3872 8.84104 24.4125 9.29926 24.4302 10.0017C23.894 9.86299 23.2841 10.1434 23.0484 10.5081C22.8097 10.8729 22.8451 11.2919 22.8863 11.6928L23.0484 13.3388C23.0602 13.4715 23.0661 13.6192 22.9305 13.7126C22.8451 13.7699 22.7213 13.791 22.6035 13.8061C21.1804 13.9749 19.7662 13.5529 18.4079 13.2152C17.5918 13.0102 16.7315 12.8324 15.8682 12.8987C15.6737 12.9138 15.4704 12.9439 15.3261 13.0374C15.164 13.1429 15.111 13.3057 15.0697 13.4564C14.8576 14.213 14.725 14.9818 14.669 15.7535C12.9307 15.6902 11.1983 15.5395 9.4894 15.3013" fill="#FAFCFC"/>
<path d="M4.07995 46.9183C5.45294 46.7284 6.4812 45.9446 7.34153 45.1699C8.28141 44.3288 9.16825 43.4154 9.48351 42.3693C9.69269 41.6699 9.63966 40.9464 9.58073 40.235C9.52475 39.5175 9.73394 38.8423 9.67502 38.1399C9.58663 37.127 9.45699 36.1171 9.34798 35.1042C9.21539 33.8742 9.07986 32.6322 8.61434 31.4414C7.92785 29.6869 6.52245 27.9988 6.76405 26.187C7.05279 24.0255 6.3604 22.0811 6.83771 19.9347C6.97324 19.3228 7.14707 18.7138 7.43287 18.129C7.91606 17.1372 8.71452 16.2389 9.34503 15.2893C9.84885 14.5296 10.6915 13.164 10.2937 12.3169C9.9284 11.5361 8.17829 11.3884 7.59786 10.6799C7.39162 10.4267 7.32385 10.1313 7.26493 9.8449C6.98797 8.47628 6.86423 7.08957 6.89074 5.70587C6.89369 5.50088 6.90253 5.28986 7.0027 5.09391C7.17064 4.76833 7.58607 4.40658 7.29144 4.12924C7.03217 3.88506 6.47531 3.98454 6.12175 4.1624C5.35276 4.54827 4.87546 5.17229 4.66038 5.82043C4.4453 6.46856 4.46887 7.14082 4.53369 7.80403C4.5985 8.45819 4.70163 9.11538 4.94617 9.74543C5.42937 10.9965 6.46058 12.1661 6.50772 13.4624C6.5254 13.9236 6.39281 14.415 5.93613 14.7436C5.54133 15.027 4.97269 15.1476 4.46592 15.3224C3.76764 15.5636 3.15775 15.9253 2.70697 16.3715C2.36814 16.263 1.97628 16.1092 1.60504 16.1032C1.36639 15.446 1.56674 14.5899 1.68459 13.9176C1.99101 12.127 0.962744 10.4991 1.00105 8.69634C1.01872 7.86733 1.0364 7.0353 1.29568 6.22739C1.51665 5.5461 1.90557 4.89796 2.29153 4.25585C2.76589 3.46603 3.35221 2.60084 4.49538 2.3024C5.26732 2.10042 6.19246 2.22703 6.79941 2.61893C7.19716 2.87517 7.51242 3.252 8.0457 3.3153C8.46702 3.36354 8.87951 3.18869 9.1712 2.96862C9.46288 2.74856 9.66912 2.48026 9.95786 2.2602C10.3792 1.93764 10.9537 1.72963 11.5371 1.56985C14.6248 0.734811 18.2783 1.18097 20.9565 2.54055C21.9582 3.05002 22.8539 3.69514 23.3489 4.49099C23.8409 5.28684 23.8851 6.2485 23.2693 7.00215C23.0425 7.27949 22.7213 7.5508 22.7537 7.87035C22.7655 7.99395 22.8333 8.11151 22.9158 8.22004C23.3872 8.84104 24.4125 9.29926 24.4302 10.0017C23.894 9.86299 23.2841 10.1434 23.0484 10.5081C22.8097 10.8729 22.8451 11.2919 22.8863 11.6928L23.0484 13.3388C23.0602 13.4715 23.0661 13.6192 22.9305 13.7126C22.8451 13.7699 22.7213 13.791 22.6035 13.8061C21.1804 13.9749 19.7662 13.5529 18.4079 13.2152C17.5918 13.0102 16.7315 12.8324 15.8682 12.8987C15.6737 12.9138 15.4704 12.9439 15.3261 13.0374C15.164 13.1429 15.111 13.3057 15.0697 13.4564C14.8576 14.213 14.725 14.9818 14.669 15.7535C12.9307 15.6902 11.1983 15.5395 9.4894 15.3013" stroke="black" stroke-miterlimit="10"/>
<path d="M14.8779 15.8982C14.9781 15.8349 15.1195 15.8047 15.2521 15.8228C15.3906 15.8409 15.5114 15.9012 15.6233 15.9615C17.671 17.0498 19.7217 18.138 21.6515 19.3258C23.2838 20.3296 24.866 21.442 25.7557 22.8317C26.0769 23.3322 26.3038 23.8748 26.2331 24.4204C26.1447 25.1168 25.5731 25.7499 24.8453 26.2292C24.1176 26.7085 23.2366 27.0552 22.3675 27.3988C23.6079 27.845 24.8041 28.3575 25.9414 28.9272C27.3527 29.6327 28.7875 30.1964 29.801 31.1822C30.7527 32.1107 31.342 33.1959 31.9136 34.2661C32.1522 34.7153 32.3909 35.1675 32.5293 35.6347C32.7356 36.3341 32.712 37.0546 32.6914 37.769C32.656 38.8905 32.6177 40.027 32.2141 41.1122C32.0432 41.5765 31.7987 42.0287 31.4746 42.4507C31.1976 42.8094 30.8323 43.0476 30.8205 43.4546C30.7999 44.3167 31.2447 45.1427 30.2666 45.8662C29.7569 46.2431 29.0114 46.4089 28.2955 46.5445C27.8506 46.6289 27.391 46.7073 26.9313 46.6832C26.1123 46.641 25.2843 46.2883 24.5212 46.5023C24.206 46.5897 23.9585 46.7676 23.6845 46.9093C23.272 47.1263 22.7947 47.268 22.3203 47.4037C20.9444 47.7956 19.542 48.1392 18.1159 48.4286C18.0069 48.4497 17.8213 48.4075 17.8891 48.3412" fill="#FAFCFC"/>
<path d="M14.8779 15.8982C14.9781 15.8349 15.1195 15.8047 15.2521 15.8228C15.3906 15.8409 15.5114 15.9012 15.6233 15.9615C17.671 17.0498 19.7217 18.138 21.6515 19.3258C23.2838 20.3296 24.866 21.442 25.7557 22.8317C26.0769 23.3322 26.3038 23.8748 26.2331 24.4204C26.1447 25.1168 25.5731 25.7499 24.8453 26.2292C24.1176 26.7085 23.2366 27.0552 22.3675 27.3988C23.6079 27.845 24.8041 28.3575 25.9414 28.9272C27.3527 29.6327 28.7875 30.1964 29.801 31.1822C30.7527 32.1107 31.342 33.1959 31.9136 34.2661C32.1522 34.7153 32.3909 35.1675 32.5293 35.6347C32.7356 36.3341 32.712 37.0546 32.6914 37.769C32.656 38.8905 32.6177 40.027 32.2141 41.1122C32.0432 41.5765 31.7987 42.0287 31.4746 42.4507C31.1976 42.8094 30.8323 43.0476 30.8205 43.4546C30.7999 44.3167 31.2447 45.1427 30.2666 45.8662C29.7569 46.2431 29.0114 46.4089 28.2955 46.5445C27.8506 46.6289 27.391 46.7073 26.9313 46.6832C26.1123 46.641 25.2843 46.2883 24.5212 46.5023C24.206 46.5897 23.9585 46.7676 23.6845 46.9093C23.272 47.1263 22.7947 47.268 22.3203 47.4037C20.9444 47.7956 19.542 48.1392 18.1159 48.4286C18.0069 48.4497 17.8213 48.4075 17.8891 48.3412" stroke="black" stroke-miterlimit="10"/>
<path d="M30.7648 44.4284C30.585 44.4435 30.4024 44.4344 30.2256 44.4043Z" fill="#FAFCFC"/>
<path d="M30.7648 44.4284C30.585 44.4435 30.4024 44.4344 30.2256 44.4043" stroke="black" stroke-miterlimit="10"/>
<path d="M30.4411 44.4555C30.1494 44.3952 29.8135 44.4073 29.513 44.3862C29.183 44.3621 28.85 44.3681 28.5201 44.3862C28.3197 44.3982 28.1194 44.4163 27.919 44.3982C27.7187 44.3801 27.5183 44.3289 27.3887 44.2234" fill="#FAFCFC"/>
<path d="M30.4411 44.4555C30.1494 44.3952 29.8135 44.4073 29.513 44.3862C29.183 44.3621 28.85 44.3681 28.5201 44.3862C28.3197 44.3982 28.1194 44.4163 27.919 44.3982C27.7187 44.3801 27.5183 44.3289 27.3887 44.2234" stroke="black" stroke-miterlimit="10"/>
<path d="M27.5295 44.2385C27.2202 43.8405 26.6044 43.6144 26.1005 43.3311C25.417 42.9452 24.9161 42.4237 24.4359 41.9082C23.0776 40.4371 21.8343 38.9117 20.7117 37.3441C19.3682 35.466 19.1561 33.5035 18.6699 31.4536C18.5373 30.8929 18.4048 30.3322 18.3635 29.7654C18.3252 29.2198 18.3694 28.6741 18.3547 28.1285C18.3311 27.1548 18.119 26.1901 17.9098 25.2285L17.515 23.4197C17.4001 22.8952 17.2852 22.3646 17.0524 21.8581C16.8874 21.4964 16.6635 21.1467 16.5103 20.7819C16.2834 20.2363 16.0831 19.555 15.3052 19.3952C14.4714 19.2234 13.9705 18.9491 13.1043 19.0033C12.2381 19.0576 11.3778 19.3711 10.9506 19.9017C10.5233 20.4383 10.5911 21.0924 10.5941 21.7074C10.6 22.8047 10.3613 23.896 10.3171 24.9933C10.2051 27.8029 11.3601 30.5492 12.5033 33.2442C13.3901 35.3303 14.2887 37.4375 15.8444 39.3217C16.2127 39.7678 16.6222 40.2049 17.1054 40.5938C17.5975 40.9917 18.1661 41.3414 18.6464 41.7484C19.4271 42.4086 19.9575 43.2045 20.7589 43.8556C21.9521 44.8203 23.7376 45.4564 24.483 46.623" fill="#FAFCFC"/>
<path d="M27.5295 44.2385C27.2202 43.8405 26.6044 43.6144 26.1005 43.3311C25.417 42.9452 24.9161 42.4237 24.4359 41.9082C23.0776 40.4371 21.8343 38.9117 20.7117 37.3441C19.3682 35.466 19.1561 33.5035 18.6699 31.4536C18.5373 30.8929 18.4048 30.3322 18.3635 29.7654C18.3252 29.2198 18.3694 28.6741 18.3547 28.1285C18.3311 27.1548 18.119 26.1901 17.9098 25.2285L17.515 23.4197C17.4001 22.8952 17.2852 22.3646 17.0524 21.8581C16.8874 21.4964 16.6635 21.1467 16.5103 20.7819C16.2834 20.2363 16.0831 19.555 15.3052 19.3952C14.4714 19.2234 13.9705 18.9491 13.1043 19.0033C12.2381 19.0576 11.3778 19.3711 10.9506 19.9017C10.5233 20.4383 10.5911 21.0924 10.5941 21.7074C10.6 22.8047 10.3613 23.896 10.3171 24.9933C10.2051 27.8029 11.3601 30.5492 12.5033 33.2442C13.3901 35.3303 14.2887 37.4375 15.8444 39.3217C16.2127 39.7678 16.6222 40.2049 17.1054 40.5938C17.5975 40.9917 18.1661 41.3414 18.6464 41.7484C19.4271 42.4086 19.9575 43.2045 20.7589 43.8556C21.9521 44.8203 23.7376 45.4564 24.483 46.623" stroke="black" stroke-miterlimit="10"/>
<path d="M28.6879 41.7905C26.5341 43.2254 20.9391 39.4391 23.2254 36.1442C24.074 34.8177 22.4505 34.2178 23.85 32.1106C25.6532 29.702 30.7503 31.7639 28.299 35.5623C28.0427 36.0025 27.6685 35.897 27.8394 36.4336C27.6095 37.6665 25.5383 37.3409 24.8989 36.4938C24.6072 36.4607 24.5572 36.8164 24.8459 36.8978C25.005 36.9882 25.2083 37.1209 25.4116 37.3138C25.6031 37.4977 25.7416 37.6786 25.8388 37.8263C25.8388 37.8263 25.827 38.1609 26.6196 37.4977C26.6756 37.4615 26.8111 37.3862 27.0026 37.3831C27.2088 37.3801 27.3562 37.4615 27.4121 37.4977C27.5153 37.549 27.586 37.6484 27.586 37.7509C27.586 37.8926 27.4711 38.0253 27.3031 38.0464C27.2265 38.0373 27.1352 38.0343 27.0291 38.0433C26.8582 38.0584 26.7227 38.1036 26.6255 38.1428C26.1482 38.4111 25.9066 38.6734 25.774 38.8693C25.7298 38.9326 25.6326 39.0894 25.4646 39.2854C25.332 39.4421 25.2112 39.5597 25.1258 39.6381C25.0757 39.6592 24.5041 39.8792 23.9826 39.5416C23.5642 39.2733 23.4759 38.8392 23.4611 38.7578C23.4258 38.7638 23.3816 38.7759 23.3433 38.8121C23.1871 38.9688 23.3668 39.421 23.5878 39.6893C23.8176 39.9697 24.127 40.0993 24.3038 40.1445C24.9814 40.3133 25.8948 39.7466 26.5341 38.7216C26.5724 38.5257 26.7698 38.4202 27.0409 38.8362C27.0704 38.8573 27.1263 38.8935 27.2 38.9055C27.3532 38.9296 27.4681 38.8482 27.4917 38.8301C27.5418 38.7337 27.5919 38.6312 27.639 38.5227C27.8099 38.1247 27.9042 37.7509 27.9543 37.4254C28.0044 37.1601 28.1222 36.7501 28.4198 36.3401C29.0385 35.493 29.9725 35.2759 30.2288 35.2247C30.2936 35.2247 30.3437 35.279 30.3437 35.3393C30.3437 35.4026 30.2966 35.4538 30.2347 35.4598C28.4345 35.6769 28.3491 37.6424 27.8335 38.9447L27.7716 38.9357L27.7569 39.5506L27.9602 39.5416C28.134 38.9658 29.3862 36.0839 30.2848 38.9115C30.2848 38.9115 30.1846 39.2311 30.659 39.62C30.659 39.62 30.5028 39.7044 31.1009 39.6652C31.2777 39.5778 31.8964 39.1256 31.8169 39.5778C31.5782 39.9275 31.263 39.9968 30.9477 40.1958C30.6649 40.3917 30.1169 40.7987 30.2701 40.1716C30.2701 40.1716 29.672 39.1376 29.6337 39.2432C29.1652 38.794 29.8694 41.3383 28.6938 41.7845L28.6879 41.7905Z" fill="#11AF4B" stroke="#FCFCFC" stroke-miterlimit="10"/>
</svg>
