<svg width="43" height="52" viewBox="0 0 43 52" fill="none" xmlns="http://www.w3.org/2000/svg">
<g clip-path="url(#clip0_550_50292)">
<path d="M36.7022 34.3621C36.7578 34.9607 36.8689 37.095 35.0059 38.7942C32.9911 40.6309 29.0874 41.5828 26.8318 40.2294C25.3318 39.3296 25.1318 37.7568 25.0948 37.4593C25.08 37.3478 24.8688 35.3809 26.6392 33.9197C26.6392 33.9197 29.0466 31.9305 33.2355 32.7559C33.3133 32.7708 33.3911 32.7893 33.3985 32.7893C35.1726 33.176 36.3096 34.0498 36.7059 34.3621C37.5985 35.0611 38.3356 35.9721 38.6133 36.6934C39.6096 39.2998 35.7652 42.6573 32.9504 44.3416C27.4985 47.5987 20.9318 47.5467 17.954 47.5244C12.154 47.4798 8.52806 46.2193 8.1725 46.9072C7.83176 47.5727 10.754 49.5991 14.2873 50.551C15.7281 50.9376 16.8948 51.0455 27.48 50.4468C35.4985 49.9932 32.0689 50.0862 34.4318 49.9858C39.5504 49.7627 40.8096 49.9672 41.8985 49.1641C43.2022 48.2048 42.5356 46.9258 42.543 42.6462C42.5541 35.4999 42.9245 33.7784 41.7059 30.5845C41.1282 29.0675 40.3726 27.2753 38.617 26.171C36.3652 24.7544 34.2318 25.6282 33.1466 24.2562C32.7948 23.81 32.817 23.4642 32.8874 21.7911C32.9355 20.631 33.0763 17.2921 33.08 15.6487C33.0837 13.4512 33.1096 12.347 32.7578 11.3393C31.917 8.92254 30.3615 8.0748 30.5059 6.30868C30.6096 5.03707 31.5355 3.97368 32.6281 3.12594L31.9207 2.81733C21.1096 -0.67401 9.39473 2.81733 9.39473 2.81733L9.52436 3.79149C9.52436 3.79149 11.9688 7.53939 11.391 6.92217C11.3503 6.88127 11.2984 6.8664 11.291 6.8664C11.1947 6.8255 10.3984 7.41297 9.71695 8.6697C9.4688 9.13075 9.17992 9.78515 9.00954 10.6217C9.15769 13.0088 9.23177 15.5297 9.20214 18.1659C9.17621 20.6719 9.0614 23.0738 8.87991 25.3493C8.00213 25.3679 7.12065 25.3828 6.24287 25.4014C5.47991 25.5984 4.13175 26.0335 2.83175 26.9927C1.59841 27.9037 0.95767 28.8779 0.642854 29.4579L0.183594 46.4944C0.968781 49.0302 2.33545 49.9226 3.27249 50.2907C4.60212 50.8112 5.74657 50.5435 8.93547 50.4617C11.2133 50.4022 13.0688 50.4766 14.2762 50.5472" fill="#FAFCFC"/>
<path d="M36.7022 34.3621C36.7578 34.9607 36.8689 37.095 35.0059 38.7942C32.9911 40.6309 29.0874 41.5828 26.8318 40.2294C25.3318 39.3296 25.1318 37.7568 25.0948 37.4593C25.08 37.3478 24.8688 35.3809 26.6392 33.9197C26.6392 33.9197 29.0466 31.9305 33.2355 32.7559C33.3133 32.7708 33.3911 32.7893 33.3985 32.7893C35.1726 33.176 36.3096 34.0498 36.7059 34.3621C37.5985 35.0611 38.3356 35.9721 38.6133 36.6934C39.6096 39.2998 35.7652 42.6573 32.9504 44.3416C27.4985 47.5987 20.9318 47.5467 17.954 47.5244C12.154 47.4798 8.52806 46.2193 8.1725 46.9072C7.83176 47.5727 10.754 49.5991 14.2873 50.551C15.7281 50.9376 16.8948 51.0455 27.48 50.4468C35.4985 49.9932 32.0689 50.0862 34.4318 49.9858C39.5504 49.7627 40.8096 49.9672 41.8985 49.1641C43.2022 48.2048 42.5356 46.9258 42.543 42.6462C42.5541 35.4999 42.9245 33.7784 41.7059 30.5845C41.1282 29.0675 40.3726 27.2753 38.617 26.171C36.3652 24.7544 34.2318 25.6282 33.1466 24.2562C32.7948 23.81 32.817 23.4642 32.8874 21.7911C32.9355 20.631 33.0763 17.2921 33.08 15.6487C33.0837 13.4512 33.1096 12.347 32.7578 11.3393C31.917 8.92254 30.3615 8.0748 30.5059 6.30868C30.6096 5.03707 31.5355 3.97368 32.6281 3.12594L31.9207 2.81733C21.1096 -0.67401 9.39473 2.81733 9.39473 2.81733L9.52436 3.79149C9.52436 3.79149 11.9688 7.53939 11.391 6.92217C11.3503 6.88127 11.2984 6.8664 11.291 6.8664C11.1947 6.8255 10.3984 7.41297 9.71695 8.6697C9.4688 9.13075 9.17992 9.78515 9.00954 10.6217C9.15769 13.0088 9.23177 15.5297 9.20214 18.1659C9.17621 20.6719 9.0614 23.0738 8.87991 25.3493C8.00213 25.3679 7.12065 25.3828 6.24287 25.4014C5.47991 25.5984 4.13175 26.0335 2.83175 26.9927C1.59841 27.9037 0.95767 28.8779 0.642854 29.4579L0.183594 46.4945C0.968781 49.0302 2.33545 49.9226 3.27249 50.2907C4.60212 50.8112 5.74657 50.5435 8.93547 50.4617C11.2133 50.4022 13.0688 50.4766 14.2762 50.5472" stroke="black" stroke-width="1.53162" stroke-miterlimit="10"/>
<path d="M24.8072 36.3555C23.896 36.4335 22.5553 36.56 20.9442 36.7607C17.8479 37.1474 15.8108 37.404 13.4405 38.0918C11.9367 38.5269 10.3219 38.9879 8.53674 40.0364C6.73303 41.0961 4.32932 42.509 4.56265 44.2826C4.78487 46.0041 7.35525 47.0228 7.84414 47.2088" fill="#FAFCFC"/>
<path d="M24.8072 36.3555C23.896 36.4335 22.5553 36.56 20.9442 36.7607C17.8479 37.1474 15.8108 37.404 13.4405 38.0918C11.9367 38.5269 10.3219 38.9879 8.53674 40.0364C6.73303 41.0961 4.32932 42.509 4.56265 44.2826C4.78487 46.0041 7.35525 47.0228 7.84414 47.2088" stroke="black" stroke-width="1.53162" stroke-miterlimit="10"/>
<path d="M34.0623 32.7266C34.0809 32.47 34.0994 32.1242 34.1105 31.7227C34.1327 30.8675 34.0883 30.6816 33.9068 30.544C33.6846 30.3767 33.2883 30.306 32.9809 30.4101C32.8068 30.4696 32.7031 30.5663 32.6401 30.6295C32.4809 30.7857 32.3994 30.979 32.3475 31.5182C32.3253 31.745 32.3105 32.0424 32.3253 32.3994" fill="#FAFCFC"/>
<path d="M34.0623 32.7266C34.0809 32.47 34.0994 32.1242 34.1105 31.7227C34.1327 30.8675 34.0883 30.6816 33.9068 30.544C33.6846 30.3767 33.2883 30.306 32.9809 30.4101C32.8068 30.4696 32.7031 30.5663 32.6401 30.6295C32.4809 30.7857 32.3994 30.979 32.3475 31.5182C32.3253 31.745 32.3105 32.0424 32.3253 32.3994" stroke="black" stroke-width="2.04216" stroke-miterlimit="10"/>
<path d="M11.3833 6.92189C11.3833 6.92189 13.9574 8.76981 13.7648 9.48741C13.7648 9.48741 20.2648 5.99607 28.3759 9.48741C28.3759 9.48741 30.3241 6.24147 30.5204 6.92189" fill="#3F6B68"/>
<path d="M11.3833 6.92189C11.3833 6.92189 13.9574 8.76981 13.7648 9.48741C13.7648 9.48741 20.2648 5.99607 28.3759 9.48741C28.3759 9.48741 30.3241 6.24147 30.5204 6.92189" stroke="#FCFCFC" stroke-width="2.04216" stroke-miterlimit="10"/>
<path d="M18.2945 20.4244C18.1093 20.35 14.4501 18.7921 14.176 15.4979C13.9834 13.2038 15.5093 10.9989 18.0834 9.85742C18.113 10.1623 18.1908 10.43 18.2982 10.6643C19.413 13.0996 24.2242 13.5347 24.8093 13.583C24.8093 13.583 30.5686 16.0816 28.5093 17.8775C28.5093 17.8775 25.2501 21.2461 23.876 21.1792L19.2982 20.562L18.2982 20.4281L18.2945 20.4244Z" fill="#FAFCFC" stroke="black" stroke-width="1.53162" stroke-miterlimit="10"/>
<path d="M19.1079 20.8848C19.1079 20.8848 20.0745 24.0154 14.9893 25.1978L13.7042 25.2313L8.87451 25.354" fill="#FAFCFC"/>
<path d="M19.1079 20.8848C19.1079 20.8848 20.0745 24.0154 14.9893 25.1978L13.7042 25.2313L8.87451 25.354" stroke="black" stroke-width="1.53162" stroke-miterlimit="10"/>
<path d="M13.7886 25.4869C14.4034 26.2231 15.1812 27.0448 16.1552 27.8888C17.3108 28.889 18.459 29.6735 19.4627 30.2759C19.4627 30.2759 21.9405 31.9713 23.7738 29.1195C23.7738 29.1195 27.0553 26.9109 27.796 25.0407C29.6923 24.9626 31.5849 24.8808 33.4812 24.8027" fill="#FAFCFC"/>
<path d="M13.7886 25.4869C14.4034 26.2231 15.1812 27.0448 16.1552 27.8888C17.3108 28.889 18.459 29.6735 19.4627 30.2759C19.4627 30.2759 21.9405 31.9713 23.7738 29.1195C23.7738 29.1195 27.0553 26.9109 27.796 25.0407C29.6923 24.9626 31.5849 24.8808 33.4812 24.8027" stroke="black" stroke-width="1.53162" stroke-miterlimit="10"/>
<path d="M25.2837 20.8848C25.2837 20.8848 28.9985 24.5657 28.9467 24.8372L25.2837 20.8848Z" fill="#FAFCFC"/>
<path d="M25.2837 20.8848C25.2837 20.8848 28.9985 24.5657 28.9467 24.8372" stroke="black" stroke-width="1.53162" stroke-miterlimit="10"/>
<path d="M0.961426 34.9468C0.961426 34.9468 5.97996 37.1554 8.87626 35.6124C8.87626 35.6124 9.90589 34.6048 9.7133 31.541L10.1763 39.2041" fill="#FAFCFC"/>
<path d="M0.961426 34.9468C0.961426 34.9468 5.97996 37.1554 8.87626 35.6124C8.87626 35.6124 9.90589 34.6048 9.7133 31.541L10.1763 39.2041" stroke="black" stroke-width="1.53162" stroke-miterlimit="10"/>
<path d="M38.6733 36.8848H42.5956" stroke="black" stroke-width="1.53162" stroke-miterlimit="10"/>
<path d="M28.4849 9.48877C26.9442 8.84553 24.2071 7.93459 20.7071 8.00151C17.596 8.061 15.1478 8.86784 13.67 9.48877L9.22559 2.7961C11.296 1.78476 15.5145 0.0744131 21.0775 0.193394C26.4849 0.308657 30.5331 2.10081 32.559 3.16792C31.1997 5.27611 29.8442 7.38058 28.4849 9.48877Z" fill="#3F6B68" stroke="#FCFCFC" stroke-width="1.53162" stroke-miterlimit="10"/>
</g>
<defs>
<clipPath id="clip0_550_50292">
<rect width="42.8853" height="51.0539" fill="white"/>
</clipPath>
</defs>
</svg>
