<svg width="45" height="56" viewBox="0 0 45 56" fill="none" xmlns="http://www.w3.org/2000/svg">
<path d="M5.14831 53.0894C6.99755 52.8741 8.3825 51.9856 9.54125 51.1073C10.8071 50.1539 12.0016 49.1184 12.4262 47.9326C12.708 47.1397 12.6365 46.3195 12.5572 45.513C12.4818 44.6997 12.7635 43.9342 12.6842 43.1379C12.5651 41.9897 12.3905 40.8449 12.2437 39.6966C12.0651 38.3023 11.8826 36.8943 11.2556 35.5445C10.3309 33.5555 8.43805 31.6418 8.76346 29.5879C9.15235 27.1377 8.21979 24.9334 8.86266 22.5002C9.04521 21.8065 9.27934 21.1162 9.66427 20.4532C10.3151 19.3289 11.3905 18.3105 12.2397 17.234C12.9183 16.3728 14.0532 14.8247 13.5175 13.8645C13.0254 12.9793 10.6683 12.8119 9.88649 12.0088C9.60871 11.7217 9.51744 11.3868 9.43807 11.0622C9.06505 9.51068 8.89838 7.93867 8.93409 6.37008C8.93806 6.1377 8.94997 5.89848 9.08489 5.67635C9.31108 5.30727 9.87062 4.89718 9.47379 4.58278C9.12457 4.30597 8.37456 4.41875 7.89836 4.62037C6.86263 5.0578 6.21976 5.7652 5.93007 6.49995C5.64038 7.23469 5.67213 7.99677 5.75943 8.7486C5.84674 9.49018 5.98563 10.2352 6.315 10.9494C6.9658 12.3676 8.35472 13.6936 8.41821 15.1631C8.44202 15.6859 8.26345 16.243 7.64836 16.6155C7.1166 16.9367 6.35071 17.0734 5.66816 17.2716C4.72767 17.545 3.90622 17.9551 3.29907 18.4609C2.84271 18.3378 2.31492 18.1635 1.81492 18.1567C1.49348 17.4117 1.76333 16.4412 1.92206 15.6791C2.33477 13.6492 0.949821 11.8038 1.00141 9.76015C1.02522 8.82036 1.04903 7.87716 1.39824 6.96129C1.69587 6.18896 2.21969 5.45422 2.73954 4.72631C3.37844 3.83095 4.16813 2.85016 5.70784 2.51184C6.74755 2.28287 7.9936 2.4264 8.81108 2.87066C9.3468 3.16114 9.77141 3.58832 10.4897 3.66008C11.0571 3.71476 11.6127 3.51655 12.0056 3.26708C12.3984 3.01761 12.6762 2.71346 13.0651 2.46399C13.6326 2.09833 14.4064 1.86253 15.1921 1.6814C19.351 0.734782 24.2717 1.24056 27.8789 2.78181C29.2281 3.35935 30.4345 4.09067 31.1012 4.99287C31.7639 5.89506 31.8234 6.98522 30.994 7.83957C30.6885 8.15397 30.2559 8.46154 30.2996 8.82378C30.3154 8.9639 30.4067 9.09717 30.5178 9.2202C31.1528 9.92418 32.5337 10.4436 32.5575 11.2399C31.8353 11.0827 31.0139 11.4005 30.6964 11.814C30.375 12.2275 30.4226 12.7025 30.4781 13.157L30.6964 15.023C30.7123 15.1733 30.7202 15.3408 30.5377 15.4467C30.4226 15.5116 30.2559 15.5356 30.0972 15.5526C28.1805 15.744 26.2757 15.2656 24.4463 14.8828C23.3471 14.6505 22.1883 14.4488 21.0256 14.524C20.7637 14.5411 20.4899 14.5753 20.2954 14.6812C20.0772 14.8008 20.0057 14.9854 19.9502 15.1562C19.6644 16.014 19.4859 16.8854 19.4105 17.7603C17.0692 17.6885 14.7358 17.5177 12.4342 17.2477" fill="#FAFCFC"/>
<path d="M5.14831 53.0894C6.99755 52.8741 8.3825 51.9856 9.54125 51.1073C10.8071 50.1539 12.0016 49.1184 12.4262 47.9326C12.708 47.1397 12.6365 46.3195 12.5572 45.513C12.4818 44.6997 12.7635 43.9342 12.6842 43.1379C12.5651 41.9897 12.3905 40.8449 12.2437 39.6966C12.0651 38.3023 11.8826 36.8943 11.2556 35.5445C10.3309 33.5555 8.43805 31.6418 8.76346 29.5879C9.15235 27.1377 8.21979 24.9334 8.86266 22.5002C9.04521 21.8065 9.27934 21.1162 9.66427 20.4532C10.3151 19.3289 11.3905 18.3105 12.2397 17.234C12.9183 16.3728 14.0532 14.8247 13.5175 13.8645C13.0254 12.9793 10.6683 12.8119 9.88649 12.0088C9.60871 11.7217 9.51744 11.3868 9.43807 11.0622C9.06505 9.51068 8.89838 7.93867 8.93409 6.37008C8.93806 6.1377 8.94997 5.89848 9.08489 5.67635C9.31108 5.30727 9.87062 4.89718 9.47379 4.58278C9.12457 4.30597 8.37456 4.41875 7.89836 4.62037C6.86263 5.0578 6.21976 5.7652 5.93007 6.49995C5.64038 7.23469 5.67213 7.99677 5.75943 8.7486C5.84674 9.49018 5.98563 10.2352 6.315 10.9494C6.9658 12.3676 8.35472 13.6936 8.41821 15.1631C8.44202 15.6859 8.26345 16.243 7.64836 16.6155C7.1166 16.9367 6.35071 17.0734 5.66816 17.2716C4.72767 17.545 3.90622 17.9551 3.29907 18.4609C2.84271 18.3378 2.31492 18.1635 1.81492 18.1567C1.49348 17.4117 1.76333 16.4412 1.92206 15.6791C2.33477 13.6492 0.949821 11.8038 1.00141 9.76015C1.02522 8.82036 1.04903 7.87716 1.39824 6.96129C1.69587 6.18896 2.21969 5.45422 2.73954 4.72631C3.37844 3.83095 4.16813 2.85016 5.70784 2.51184C6.74755 2.28287 7.9936 2.4264 8.81108 2.87066C9.3468 3.16114 9.77141 3.58832 10.4897 3.66008C11.0571 3.71476 11.6127 3.51655 12.0056 3.26708C12.3984 3.01761 12.6762 2.71346 13.0651 2.46399C13.6326 2.09833 14.4064 1.86253 15.1921 1.6814C19.351 0.734782 24.2717 1.24056 27.8789 2.78181C29.2281 3.35935 30.4345 4.09067 31.1012 4.99287C31.7639 5.89506 31.8234 6.98522 30.994 7.83957C30.6885 8.15397 30.2559 8.46154 30.2996 8.82378C30.3154 8.9639 30.4067 9.09717 30.5178 9.2202C31.1528 9.92418 32.5337 10.4436 32.5575 11.2399C31.8353 11.0827 31.0139 11.4005 30.6964 11.814C30.375 12.2275 30.4226 12.7025 30.4781 13.157L30.6964 15.023C30.7123 15.1733 30.7202 15.3408 30.5377 15.4467C30.4226 15.5116 30.2559 15.5356 30.0972 15.5526C28.1805 15.744 26.2757 15.2656 24.4463 14.8828C23.3471 14.6505 22.1883 14.4488 21.0256 14.524C20.7637 14.5411 20.4899 14.5753 20.2954 14.6812C20.0772 14.8008 20.0057 14.9854 19.9502 15.1562C19.6644 16.014 19.4859 16.8854 19.4105 17.7603C17.0692 17.6885 14.7358 17.5177 12.4342 17.2477" stroke="black" stroke-width="1.53162" stroke-miterlimit="10"/>
<path d="M19.6914 17.9234C19.8263 17.8516 20.0168 17.8174 20.1954 17.8379C20.3819 17.8584 20.5446 17.9268 20.6954 17.9951C23.4534 19.2288 26.2153 20.4625 28.8146 21.8089C31.013 22.9469 33.144 24.208 34.3425 25.7834C34.775 26.3507 35.0806 26.9658 34.9853 27.5844C34.8663 28.3738 34.0964 29.0914 33.1163 29.6348C32.1361 30.1782 30.9495 30.5712 29.7789 30.9608C31.4496 31.4665 33.0607 32.0475 34.5925 32.6934C36.4933 33.493 38.4259 34.1321 39.791 35.2496C41.0728 36.3022 41.8664 37.5324 42.6363 38.7456C42.9577 39.2548 43.2791 39.7674 43.4657 40.2971C43.7434 41.0899 43.7117 41.9067 43.6839 42.7166C43.6363 43.9879 43.5847 45.2763 43.041 46.5065C42.8109 47.0328 42.4815 47.5454 42.045 48.0239C41.672 48.4305 41.1799 48.7005 41.164 49.1619C41.1362 50.1392 41.7355 51.0756 40.418 51.8958C39.7315 52.323 38.7275 52.5109 37.7632 52.6647C37.1639 52.7604 36.5449 52.8492 35.9258 52.8219C34.8226 52.774 33.7075 52.3742 32.6797 52.6168C32.2551 52.716 31.9218 52.9176 31.5527 53.0782C30.9972 53.3242 30.3543 53.4849 29.7154 53.6386C27.8622 54.0829 25.9733 54.4725 24.0526 54.8006C23.9058 54.8245 23.6558 54.7766 23.747 54.7015" fill="#FAFCFC"/>
<path d="M19.6914 17.9234C19.8263 17.8516 20.0168 17.8174 20.1954 17.8379C20.3819 17.8584 20.5446 17.9268 20.6954 17.9951C23.4534 19.2288 26.2153 20.4625 28.8146 21.8089C31.013 22.9469 33.144 24.208 34.3425 25.7834C34.775 26.3507 35.0806 26.9658 34.9853 27.5844C34.8663 28.3738 34.0964 29.0914 33.1163 29.6348C32.1361 30.1782 30.9495 30.5712 29.7789 30.9608C31.4496 31.4665 33.0607 32.0475 34.5925 32.6934C36.4933 33.493 38.4259 34.1321 39.791 35.2496C41.0728 36.3022 41.8664 37.5324 42.6363 38.7456C42.9577 39.2548 43.2791 39.7674 43.4657 40.2971C43.7434 41.0899 43.7117 41.9067 43.6839 42.7166C43.6363 43.9879 43.5847 45.2763 43.041 46.5065C42.8109 47.0328 42.4815 47.5454 42.045 48.0239C41.672 48.4305 41.1799 48.7005 41.164 49.1619C41.1362 50.1392 41.7355 51.0756 40.418 51.8958C39.7315 52.323 38.7275 52.5109 37.7632 52.6647C37.1639 52.7604 36.5449 52.8492 35.9258 52.8219C34.8226 52.774 33.7075 52.3742 32.6797 52.6168C32.2551 52.7159 31.9218 52.9176 31.5527 53.0782C30.9972 53.3242 30.3543 53.4849 29.7154 53.6386C27.8622 54.0829 25.9733 54.4725 24.0526 54.8006C23.9058 54.8245 23.6558 54.7766 23.747 54.7015" stroke="black" stroke-width="1.53162" stroke-miterlimit="10"/>
<path d="M41.0895 50.2656C40.8474 50.2827 40.6014 50.2725 40.3633 50.2383L41.0895 50.2656Z" fill="#FAFCFC"/>
<path d="M41.0895 50.2656C40.8474 50.2827 40.6014 50.2725 40.3633 50.2383" stroke="black" stroke-width="1.53162" stroke-miterlimit="10"/>
<path d="M40.6542 50.2983C40.2613 50.2299 39.8089 50.2436 39.4041 50.2197C38.9597 50.1924 38.5113 50.1992 38.0668 50.2197C37.797 50.2334 37.5271 50.2539 37.2573 50.2334C36.9874 50.2129 36.7176 50.1548 36.543 50.0352" fill="#FAFCFC"/>
<path d="M40.6542 50.2983C40.2613 50.2299 39.8089 50.2436 39.4041 50.2197C38.9597 50.1924 38.5113 50.1992 38.0668 50.2197C37.797 50.2334 37.5271 50.2539 37.2573 50.2334C36.9874 50.2129 36.7176 50.1548 36.543 50.0352" stroke="black" stroke-width="1.53162" stroke-miterlimit="10"/>
<path d="M36.7341 50.0525C36.3175 49.6014 35.4881 49.3451 34.8095 49.0239C33.8888 48.5865 33.2142 47.9952 32.5674 47.4109C30.738 45.7432 29.0634 44.014 27.5514 42.2369C25.7419 40.1079 25.4561 37.8831 24.8014 35.5593C24.6228 34.9237 24.4442 34.288 24.3887 33.6456C24.3371 33.027 24.3966 32.4085 24.3768 31.7899C24.345 30.6861 24.0593 29.5925 23.7775 28.5024L23.2458 26.4519C23.091 25.8573 22.9363 25.2558 22.6228 24.6817C22.4005 24.2716 22.0989 23.8752 21.8926 23.4617C21.587 22.8431 21.3172 22.0708 20.2695 21.8897C19.1465 21.6949 18.4719 21.3839 17.3052 21.4454C16.1385 21.5069 14.9798 21.8623 14.4044 22.4638C13.8289 23.0721 13.9202 23.8137 13.9242 24.5108C13.9321 25.7548 13.6107 26.9919 13.5512 28.2358C13.4004 31.4208 14.956 34.5341 16.4957 37.5892C17.6901 39.9541 18.9005 42.3428 20.9957 44.4787C21.4918 44.9845 22.0434 45.48 22.6942 45.9209C23.3569 46.372 24.1228 46.7684 24.7696 47.2297C25.8212 47.9782 26.5355 48.8803 27.6149 49.6185C29.2221 50.7121 31.6269 51.4331 32.6309 52.7557" fill="#FAFCFC"/>
<path d="M36.7341 50.0525C36.3175 49.6014 35.4881 49.3451 34.8095 49.0239C33.8888 48.5865 33.2142 47.9952 32.5674 47.4109C30.738 45.7432 29.0634 44.014 27.5514 42.2369C25.7419 40.1079 25.4561 37.8831 24.8014 35.5593C24.6228 34.9237 24.4442 34.288 24.3887 33.6456C24.3371 33.027 24.3966 32.4085 24.3768 31.7899C24.345 30.6861 24.0593 29.5925 23.7775 28.5024L23.2458 26.4519C23.091 25.8573 22.9363 25.2558 22.6228 24.6817C22.4005 24.2716 22.0989 23.8752 21.8926 23.4617C21.587 22.8431 21.3172 22.0708 20.2695 21.8897C19.1465 21.6949 18.4719 21.3839 17.3052 21.4454C16.1385 21.5069 14.9798 21.8623 14.4044 22.4638C13.8289 23.0721 13.9202 23.8137 13.9242 24.5108C13.9321 25.7548 13.6107 26.9919 13.5512 28.2358C13.4004 31.4208 14.956 34.5341 16.4957 37.5892C17.6901 39.9541 18.9005 42.3428 20.9957 44.4787C21.4918 44.9845 22.0434 45.48 22.6942 45.9209C23.3569 46.372 24.1228 46.7684 24.7696 47.2297C25.8212 47.9782 26.5355 48.8803 27.6149 49.6185C29.2221 50.7121 31.6269 51.4331 32.6309 52.7557" stroke="black" stroke-width="1.53162" stroke-miterlimit="10"/>
</svg>
