<?xml version="1.0" standalone="no"?>
<!DOCTYPE svg PUBLIC "-//W3C//DTD SVG 20010904//EN"
 "http://www.w3.org/TR/2001/REC-SVG-20010904/DTD/svg10.dtd">
<svg version="1.0" xmlns="http://www.w3.org/2000/svg"
 width="1440.000000pt" height="207.000000pt" viewBox="0 0 1440.000000 207.000000"
 preserveAspectRatio="xMidYMid meet">

<g transform="translate(0.000000,207.000000) scale(0.100000,-0.100000)"
fill="#000000" stroke="none">
<path d="M3953 1908 c-30 -14 -73 -102 -73 -149 0 -26 7 -44 26 -63 32 -31 54
-34 54 -6 0 12 6 28 13 37 30 39 80 83 93 83 25 0 16 54 -14 83 -29 28 -62 33
-99 15z"/>
<path d="M1477 1809 l-78 -40 7 -72 c4 -40 7 -72 8 -73 0 -1 38 16 84 37 81
38 82 39 82 76 0 49 -11 113 -19 113 -3 -1 -41 -19 -84 -41z"/>
<path d="M1883 1835 c-43 -18 -42 -35 2 -35 38 0 43 -7 19 -25 -13 -9 -14 -16
-5 -33 10 -18 15 -20 31 -10 15 10 22 9 38 -5 23 -21 42 -6 42 36 0 41 -15 63
-51 76 -39 13 -36 13 -76 -4z"/>
<path d="M11380 1840 c0 -5 5 -10 10 -10 6 0 10 5 10 10 0 6 -4 10 -10 10 -5
0 -10 -4 -10 -10z"/>
<path d="M11476 1814 c-3 -9 -2 -12 5 -9 5 4 18 1 27 -6 13 -11 12 -8 -2 9
-23 26 -22 26 -30 6z"/>
<path d="M11366 1803 c-6 -14 -5 -15 5 -6 7 7 10 15 7 18 -3 3 -9 -2 -12 -12z"/>
<path d="M11780 1792 c-20 -16 -21 -21 -11 -41 12 -21 14 -21 30 -7 17 16 56
12 46 -4 -3 -4 3 -7 13 -6 12 1 17 -6 15 -25 -1 -23 2 -26 20 -21 28 7 37 20
37 57 0 28 -4 31 -58 48 -69 21 -65 21 -92 -1z"/>
<path d="M11410 1795 c0 -5 5 -17 10 -25 5 -8 10 -10 10 -5 0 6 -5 17 -10 25
-5 8 -10 11 -10 5z"/>
<path d="M11455 1771 c-3 -12 -11 -21 -16 -21 -5 0 -9 -4 -9 -10 0 -5 4 -10 8
-10 10 0 35 50 28 57 -2 2 -7 -5 -11 -16z"/>
<path d="M4054 1749 c-7 -12 25 -89 37 -89 5 0 6 -13 3 -30 -7 -34 5 -39 29
-12 15 16 13 22 -19 80 -37 66 -39 68 -50 51z"/>
<path d="M11825 1700 c-3 -5 -1 -10 4 -10 6 0 11 5 11 10 0 6 -2 10 -4 10 -3
0 -8 -4 -11 -10z"/>
<path d="M3852 1692 c-9 -6 -12 -33 -10 -98 l3 -89 35 0 35 0 3 74 c4 96 -22
140 -66 113z"/>
<path d="M1595 1661 c-18 -7 -18 -9 10 -23 18 -9 44 -14 64 -10 l34 5 -34 18
c-38 20 -45 21 -74 10z"/>
<path d="M12345 1647 c14 -22 16 -39 11 -85 -4 -39 -3 -52 4 -42 5 8 10 38 10
66 0 40 -5 55 -22 70 l-21 19 18 -28z"/>
<path d="M10478 1644 c-35 -19 -48 -43 -48 -93 0 -48 11 -57 47 -38 25 14 28
13 38 -7 7 -13 20 -21 37 -21 14 -1 33 -7 42 -14 18 -15 18 -15 105 34 24 14
46 23 48 21 2 -2 -1 -15 -7 -30 -16 -43 -13 -47 24 -41 57 11 76 0 76 -45 0
-29 5 -40 19 -45 24 -7 101 -90 101 -107 0 -7 -9 -27 -19 -45 l-20 -31 30 -11
c25 -9 41 -6 89 13 33 13 72 27 89 31 26 5 30 11 33 43 3 36 4 37 48 40 31 2
48 -1 56 -12 9 -12 12 4 18 78 3 52 2 105 -3 118 -13 35 -50 62 -114 86 -71
27 -70 26 -62 3 3 -11 -2 -28 -14 -42 -16 -20 -28 -24 -74 -23 -63 0 -82 12
-91 54 -5 28 -8 30 -54 30 -27 0 -69 -7 -93 -15 -34 -12 -44 -13 -51 -3 -4 7
-8 16 -8 20 0 3 -15 16 -34 27 -40 25 -93 27 -124 5 -28 -19 -41 -10 -24 16
11 18 10 20 -10 20 -13 -1 -35 -7 -50 -16z"/>
<path d="M2113 1546 c-12 -20 -170 -97 -187 -90 -7 3 -16 2 -19 -3 -3 -5 -7
-67 -8 -138 l-2 -129 28 -18 c28 -16 30 -16 96 18 38 19 73 34 78 34 6 0 11
-33 13 -72 2 -60 6 -73 21 -76 16 -3 17 13 17 236 0 202 -2 241 -15 246 -8 3
-18 -1 -22 -8z m-18 -56 c-3 -5 -12 -10 -18 -10 -7 0 -6 4 3 10 19 12 23 12
15 0z m-105 -50 c-19 -11 -39 -19 -45 -19 -5 0 6 8 25 19 19 11 40 19 45 19 6
0 -6 -8 -25 -19z m90 5 c-14 -8 -29 -14 -35 -14 -5 0 1 6 15 14 14 8 30 14 35
14 6 0 -1 -6 -15 -14z m-14 -40 c-11 -8 -25 -15 -30 -15 -6 1 0 7 14 15 32 19
40 18 16 0z m-51 -25 c-3 -5 -12 -10 -18 -10 -7 0 -6 4 3 10 19 12 23 12 15 0z
m95 -45 c0 -42 -3 -55 -15 -55 -8 0 -15 -4 -15 -8 0 -10 -82 -56 -117 -67 -22
-6 -23 -4 -23 52 l0 59 73 36 c39 20 78 37 85 37 8 1 12 -16 12 -54z"/>
<path d="M11761 1534 c-12 -15 -21 -32 -21 -38 0 -6 6 -2 12 9 6 11 18 28 26
38 8 9 12 17 9 17 -3 0 -15 -12 -26 -26z"/>
<path d="M3948 1538 c6 -6 18 -8 28 -6 14 3 12 5 -9 10 -19 3 -25 2 -19 -4z"/>
<path d="M11877 1524 c-10 -11 -8 -24 4 -24 5 0 7 5 4 10 -3 6 3 10 15 10 12
0 18 -4 15 -10 -3 -5 -1 -10 5 -10 7 0 10 6 8 13 -5 14 -40 21 -51 11z"/>
<path d="M2727 1499 c-25 -15 -39 -55 -31 -96 6 -33 7 -33 30 -18 30 19 31 19
37 -6 4 -13 12 -19 25 -17 10 2 27 -3 36 -11 14 -12 20 -11 39 8 13 11 27 21
32 21 5 0 17 8 28 18 19 17 20 16 13 -20 -7 -37 -7 -37 31 -40 36 -3 38 -5 41
-40 2 -25 9 -39 21 -43 10 -3 31 -24 46 -46 24 -34 26 -43 17 -65 -28 -60 -3
-72 77 -37 29 13 60 23 67 23 9 0 14 12 14 34 0 27 5 35 23 40 12 3 32 3 43 0
17 -5 22 0 28 26 11 58 6 124 -12 153 -9 15 -40 39 -69 52 l-52 24 -3 -32 c-4
-38 -36 -53 -91 -43 -32 6 -37 11 -43 41 -5 30 -10 35 -34 35 -15 0 -45 -6
-68 -14 -39 -14 -40 -14 -60 14 -27 36 -72 47 -112 27 -24 -13 -30 -13 -30 -2
0 7 6 16 13 18 6 3 1 6 -13 6 -14 0 -33 -4 -43 -10z"/>
<path d="M11795 1460 l-7 -50 -80 0 -80 0 7 -32 c3 -18 16 -77 27 -130 l21
-98 84 0 83 0 -6 28 c-10 47 -12 50 -36 54 -31 4 -37 44 -8 53 13 4 19 13 16
23 -3 9 -7 35 -11 57 -4 29 -3 35 4 20 7 -14 9 1 8 52 -1 40 -5 73 -9 73 -3 0
-9 -22 -13 -50z"/>
<path d="M990 1480 c-24 -24 -26 -57 -4 -88 15 -22 15 -23 -2 -20 -10 2 -20
-4 -22 -13 -5 -27 30 -59 73 -66 22 -3 51 -15 65 -27 22 -19 22 -18 -2 10 -32
35 -35 61 -10 80 16 13 14 17 -28 55 -40 36 -43 42 -27 51 14 8 16 13 6 24
-15 19 -25 18 -49 -6z"/>
<path d="M1697 1453 c-14 -14 -6 -19 23 -15 17 2 30 8 30 13 0 10 -43 12 -53
2z"/>
<path d="M1830 1405 c-10 -12 -10 -15 4 -15 9 0 16 7 16 15 0 8 -2 15 -4 15
-2 0 -9 -7 -16 -15z"/>
<path d="M1590 1345 c0 -8 30 -30 70 -50 81 -41 111 -46 79 -14 -16 16 -20 29
-15 50 l6 29 -70 0 c-55 0 -70 -3 -70 -15z"/>
<path d="M3855 1340 c-18 -6 -17 -9 12 -23 18 -10 42 -17 55 -16 23 0 23 0 -2
10 -14 5 -30 16 -35 23 -6 8 -18 10 -30 6z"/>
<path d="M1411 1303 c-35 -21 -69 -50 -76 -64 -13 -24 -12 -28 18 -57 39 -37
78 -54 181 -77 108 -23 152 -40 188 -70 16 -13 68 -37 116 -51 48 -15 104 -36
124 -48 l38 -22 -82 -38 c-66 -30 -86 -35 -107 -27 -23 8 -147 67 -803 384
-98 47 -178 80 -178 74 0 -7 76 -48 168 -92 92 -44 250 -120 352 -169 102 -48
253 -121 335 -160 l150 -72 193 93 c105 51 192 97 192 102 0 10 -41 -5 -120
-43 -25 -12 -53 -21 -62 -18 -10 2 -18 -1 -18 -7 0 -28 -60 -2 -73 31 -6 18 0
26 37 52 19 13 17 15 -25 36 -24 13 -75 44 -114 70 -93 62 -121 81 -164 108
-40 24 -192 102 -201 102 -3 0 -34 -17 -69 -37z"/>
<path d="M10846 1313 c9 -38 14 -42 14 -10 0 14 -5 29 -10 32 -7 4 -8 -3 -4
-22z"/>
<path d="M12340 1300 c0 -16 5 -30 10 -30 6 0 10 14 10 30 0 17 -4 30 -10 30
-5 0 -10 -13 -10 -30z"/>
<path d="M4144 1286 c11 -9 24 -16 30 -16 12 0 7 5 -24 19 -24 11 -24 11 -6
-3z"/>
<path d="M10764 1229 c27 -30 52 -56 54 -59 3 -3 -1 6 -8 20 -16 32 -50 69
-75 82 -11 6 2 -13 29 -43z"/>
<path d="M1238 1253 c6 -2 18 -2 25 0 6 3 1 5 -13 5 -14 0 -19 -2 -12 -5z"/>
<path d="M1150 1226 c27 -31 107 -86 124 -86 6 0 -9 12 -34 26 -25 14 -61 40
-80 57 -33 30 -33 30 -10 3z"/>
<path d="M4240 1243 c8 -3 22 -11 30 -17 13 -10 13 -9 1 7 -7 9 -21 17 -30 16
-13 0 -14 -1 -1 -6z"/>
<path d="M3012 1210 c0 -14 2 -19 5 -12 2 6 2 18 0 25 -3 6 -5 1 -5 -13z"/>
<path d="M4123 1213 c15 -2 37 -2 50 0 12 2 0 4 -28 4 -27 0 -38 -2 -22 -4z"/>
<path d="M2939 1157 c20 -22 30 -40 26 -48 -5 -8 -4 -10 3 -5 7 4 12 2 12 -5
0 -7 3 -10 6 -6 10 9 -35 76 -59 88 -16 8 -12 1 12 -24z"/>
<path d="M3950 1136 l0 -45 36 21 c35 20 35 22 18 35 -50 38 -54 37 -54 -11z"/>
<path d="M10757 1116 c10 -13 19 -23 21 -21 5 5 -22 45 -31 45 -4 0 0 -11 10
-24z"/>
<path d="M11060 1104 c-52 -7 -118 -13 -147 -13 -42 -1 -55 -5 -67 -23 -25
-36 -20 -73 12 -88 40 -19 237 -25 287 -8 l40 13 3 68 c3 59 1 67 -15 66 -10
-1 -61 -7 -113 -15z"/>
<path d="M1408 1073 c6 -2 18 -2 25 0 6 3 1 5 -13 5 -14 0 -19 -2 -12 -5z"/>
<path d="M2940 1051 c5 -11 15 -23 21 -27 6 -3 3 5 -6 20 -20 30 -30 35 -15 7z"/>
<path d="M12320 1033 c-2 -106 -48 -693 -56 -705 -5 -8 -1 -5 9 5 9 11 17 35
17 56 0 34 16 273 24 371 10 115 18 310 12 310 -3 0 -6 -17 -6 -37z"/>
<path d="M783 1043 c-31 -6 -29 -23 2 -23 16 0 25 6 25 15 0 8 -1 14 -2 14 -2
-1 -13 -4 -25 -6z"/>
<path d="M3120 1027 c-102 -11 -122 -22 -117 -67 3 -37 40 -50 140 -50 117 0
127 6 127 75 0 63 15 59 -150 42z"/>
<path d="M3920 920 c0 -28 5 -50 10 -50 24 0 70 32 70 48 0 16 -49 52 -71 52
-5 0 -9 -22 -9 -50z"/>
<path d="M10691 903 c-77 -53 -189 -65 -246 -27 -23 15 -24 15 -29 -8 -3 -12
-8 -87 -11 -164 -7 -157 -8 -154 61 -154 58 0 70 13 84 85 7 36 15 63 19 60 3
-4 8 -32 11 -63 l5 -57 55 -3 c30 -1 61 2 69 7 10 6 16 50 21 167 5 88 5 164
2 170 -5 7 -19 2 -41 -13z"/>
<path d="M2915 871 c-11 -18 -80 -50 -123 -57 -27 -4 -49 -1 -71 10 -39 21
-38 24 -44 -136 -5 -138 -5 -138 53 -138 36 0 47 14 55 73 9 62 25 61 25 -2 0
-46 2 -50 28 -56 16 -3 40 -1 54 4 25 9 26 11 33 156 7 140 5 169 -10 146z"/>
<path d="M11925 860 c-27 -5 -74 -9 -102 -9 -44 -1 -53 -4 -53 -18 0 -43 77
-461 105 -575 6 -22 13 -28 34 -28 49 0 50 4 35 160 -8 80 -21 188 -30 241 -8
53 -14 117 -12 142 l3 47 53 -125 c30 -69 73 -168 97 -220 l44 -95 46 0 c25 0
45 2 45 4 0 16 -79 227 -110 296 -21 47 -42 109 -46 138 -7 58 -6 58 -109 42z"/>
<path d="M400 776 c0 -22 8 -42 25 -58 23 -23 23 -27 9 -38 -17 -15 -48 -70
-42 -76 3 -2 24 16 49 41 24 25 50 45 57 45 6 0 12 9 12 19 0 14 -10 21 -37
28 -28 6 -38 14 -39 30 -3 50 -34 59 -34 9z"/>
<path d="M2242 704 c8 -8 22 -12 31 -8 27 10 20 21 -15 22 -27 1 -29 -1 -16
-14z"/>
<path d="M1833 515 c5 -14 49 -13 54 1 2 7 -8 11 -27 10 -16 -1 -28 -5 -27
-11z"/>
<path d="M406 440 c8 -31 49 -86 77 -105 12 -7 43 -19 70 -25 39 -8 57 -7 104
9 l56 19 78 -68 c42 -38 87 -74 99 -80 12 -6 19 -14 17 -17 -9 -8 -50 17 -89
55 -28 27 -41 33 -49 25 -17 -17 -4 -41 32 -61 17 -9 56 -32 88 -50 43 -26 59
-31 71 -23 8 6 25 15 37 20 32 14 36 29 20 64 -9 18 -29 67 -46 110 -17 43
-39 89 -48 103 -16 26 -17 26 -32 5 -31 -40 -114 -62 -291 -77 -56 -5 -71 -2
-110 18 -27 15 -54 40 -68 64 -16 26 -21 31 -16 14z"/>
<path d="M11919 202 c-30 -13 -80 -62 -74 -72 4 -6 20 -4 43 6 20 9 47 20 60
25 19 7 21 12 12 29 -11 21 -16 23 -41 12z"/>
</g>
</svg>
