<svg width="43" height="64" viewBox="0 0 43 64" fill="none" xmlns="http://www.w3.org/2000/svg">
<g clip-path="url(#clip0_550_50306)">
<path d="M10.5851 16.62C10.2766 15.4943 9.16669 14.6484 9.2909 13.4985C9.43916 12.1104 9.47121 10.2838 9.42313 8.79902C9.4071 8.32942 9.67155 7.88053 9.79577 7.42129C9.89594 7.05182 9.99611 6.68235 10.1604 6.32669C10.3968 5.8122 10.7574 5.34605 11.106 4.87644C11.8112 3.92342 12.296 3.02219 13.3579 2.29707C14.3395 1.62374 15.3813 0.926236 16.6274 0.725963C17.1003 0.649998 17.5811 0.649998 18.0619 0.653451C18.6509 0.656904 19.2599 0.670716 19.8009 0.867535C20.4981 1.11615 21.031 1.64446 21.7482 1.84818C22.2571 1.99321 22.806 1.95868 23.3389 1.9276L25.3463 1.80329C25.6268 1.78603 25.9153 1.76876 26.1758 1.84818C26.4843 1.94141 26.7207 2.15204 26.9411 2.35577C28.3635 3.67481 29.7699 5.16304 30.0063 6.93096" fill="#FAFCFC"/>
<path d="M10.5851 16.62C10.2766 15.4943 9.16669 14.6484 9.2909 13.4985C9.43916 12.1104 9.47121 10.2838 9.42313 8.79902C9.4071 8.32942 9.67155 7.88053 9.79577 7.42129C9.89594 7.05182 9.99611 6.68235 10.1604 6.32669C10.3968 5.8122 10.7574 5.34605 11.106 4.87644C11.8112 3.92342 12.296 3.02219 13.3579 2.29707C14.3395 1.62374 15.3813 0.926236 16.6274 0.725963C17.1003 0.649998 17.5811 0.649998 18.0619 0.653451C18.6509 0.656904 19.2599 0.670716 19.8009 0.867535C20.4981 1.11615 21.031 1.64446 21.7482 1.84818C22.2571 1.99321 22.806 1.95868 23.3389 1.9276L25.3463 1.80329C25.6268 1.78603 25.9153 1.76876 26.1758 1.84818C26.4843 1.94141 26.7207 2.15204 26.9411 2.35577C28.3635 3.67481 29.7699 5.16304 30.0063 6.93096" stroke="black" stroke-width="1.53162" stroke-miterlimit="10"/>
<path d="M30.179 6.68555C30.4114 8.69518 30.5155 10.7186 30.4915 12.7386C30.4875 13.1668 30.4755 13.5984 30.3433 14.0093C30.2311 14.3615 30.0347 14.6895 29.8184 15.0072C29.5459 15.4078 29.2454 15.791 28.9128 16.1571C28.7045 16.3884 28.4841 16.6129 28.2316 16.8097C27.7548 17.186 27.1578 17.4726 26.5087 17.5521C25.5991 17.666 24.6936 17.3794 23.8361 17.0963C23.7039 17.0514 23.5677 17.0065 23.4755 16.9133C23.2551 16.6888 23.4395 16.347 23.6839 16.1467C23.9323 15.9464 24.2528 15.7807 24.365 15.5079C24.4372 15.3318 24.4091 15.1384 24.4612 14.9589C24.5133 14.7793 24.7096 14.5963 24.922 14.6447C25.0903 14.6826 25.1784 14.8415 25.2025 14.9865C25.2265 15.1315 25.2145 15.2869 25.2946 15.4181C25.4789 15.7289 25.9998 15.7289 26.4085 15.6806C26.5287 15.6667 26.657 15.6495 26.7571 15.5942C26.8974 15.5148 26.9695 15.3767 27.0176 15.2386C27.1778 14.7621 27.1097 14.2579 27.0616 13.7641C26.9495 12.6454 26.9254 11.5163 26.9935 10.394" fill="#FAFCFC"/>
<path d="M30.179 6.68555C30.4114 8.69518 30.5155 10.7186 30.4915 12.7386C30.4875 13.1668 30.4755 13.5984 30.3433 14.0093C30.2311 14.3615 30.0347 14.6895 29.8184 15.0072C29.5459 15.4078 29.2454 15.791 28.9128 16.1571C28.7045 16.3884 28.4841 16.6129 28.2316 16.8097C27.7548 17.186 27.1578 17.4726 26.5087 17.5521C25.5991 17.666 24.6936 17.3794 23.8361 17.0963C23.7039 17.0514 23.5677 17.0065 23.4755 16.9133C23.2551 16.6888 23.4395 16.347 23.6839 16.1467C23.9323 15.9464 24.2528 15.7807 24.365 15.5079C24.4372 15.3318 24.4091 15.1384 24.4612 14.9589C24.5133 14.7793 24.7096 14.5963 24.922 14.6447C25.0903 14.6826 25.1784 14.8415 25.2025 14.9865C25.2265 15.1315 25.2145 15.2869 25.2946 15.4181C25.4789 15.7289 25.9998 15.7289 26.4085 15.6806C26.5287 15.6667 26.657 15.6495 26.7571 15.5942C26.8974 15.5148 26.9695 15.3767 27.0176 15.2386C27.1778 14.7621 27.1097 14.2579 27.0616 13.7641C26.9495 12.6454 26.9254 11.5163 26.9935 10.394" stroke="black" stroke-width="1.53162" stroke-miterlimit="10"/>
<path d="M10.5859 16.4844C10.6701 16.588 10.7662 16.6881 10.8704 16.7779L10.5859 16.4844Z" fill="#FAFCFC"/>
<path d="M10.5859 16.4844C10.6701 16.588 10.7662 16.6881 10.8704 16.7779" stroke="black" stroke-width="2.04216" stroke-miterlimit="10"/>
<path d="M12.0007 17.7129C11.6481 18.11 11.011 18.2274 10.43 18.3103C9.2159 18.4795 7.99381 18.6107 6.80779 18.88C5.62176 19.1493 4.45977 19.5706 3.5422 20.2543C3.24169 20.4787 2.96923 20.7273 2.71679 20.9863C1.99957 21.708 1.39854 22.5091 0.925732 23.362C-0.580843 26.0864 0.761452 29.2804 0.693335 32.2845C0.66128 33.6484 0.689328 35.0158 0.713369 36.3831L0.765458 39.2836C0.785493 40.3541 0.841589 41.5177 1.65498 42.343C2.09573 42.7919 2.70878 43.0854 3.30981 43.372" fill="#FAFCFC"/>
<path d="M12.0007 17.7129C11.6481 18.11 11.011 18.2274 10.43 18.3103C9.2159 18.4795 7.99381 18.6107 6.80779 18.88C5.62176 19.1493 4.45977 19.5706 3.5422 20.2543C3.24169 20.4787 2.96923 20.7273 2.71679 20.9863C1.99957 21.708 1.39854 22.5091 0.925732 23.362C-0.580843 26.0864 0.761452 29.2804 0.693335 32.2845C0.66128 33.6484 0.689328 35.0158 0.713369 36.3831L0.765458 39.2836C0.785493 40.3541 0.841589 41.5177 1.65498 42.343C2.09573 42.7919 2.70878 43.0854 3.30981 43.372" stroke="black" stroke-width="1.53162" stroke-miterlimit="10"/>
<path d="M3.80209 43.6347C3.36534 44.0145 2.77233 44.6119 2.29952 45.4475C1.82672 46.2866 1.68648 47.1049 1.42202 48.7106C1.20565 50.0365 1.09346 50.696 1.10148 51.656C1.10949 53.0233 1.34189 54.111 1.51017 54.7567C1.63839 55.2436 1.84675 56.0309 2.33558 57.0115C2.44377 57.2256 2.84045 58.006 3.48956 58.8658C5.15641 61.0619 7.57254 62.5501 7.64867 62.4845C7.7248 62.4154 5.22052 61.0964 3.48956 58.8658C-0.934004 53.158 1.45007 43.7383 5.43288 42.6609C6.38651 42.402 7.12377 42.7093 11.363 42.2984C13.0699 42.1326 13.5227 42.0152 13.7791 41.9634C15.3899 41.6527 16.8724 40.9828 18.2227 40.1852C18.5473 39.9952 18.8839 39.7881 19.2765 39.7397C19.9777 39.6534 20.5988 40.0781 21.2519 40.3129C21.865 40.5305 22.5421 40.5823 23.2033 40.6306C25.0224 40.7618 26.9136 40.8861 28.6245 40.3474C29.4059 40.1023 30.2192 39.5912 30.1912 38.8903C29.2376 38.0167 28.1197 37.226 26.8415 36.7149C26.3406 36.5146 25.8237 36.3454 25.3028 36.1763C24.6217 35.9553 23.9365 35.7308 23.2153 35.6341C22.6303 35.5547 22.0333 35.5651 21.4362 35.572L19.2926 35.5996C18.1466 35.6134 16.9966 35.6307 15.8547 35.7343C13.6469 35.9345 11.4792 36.4663 9.49182 37.3019C9.50784 37.0084 9.4237 36.7218 9.35158 36.4352C8.95089 34.8054 9.68014 33.2999 10.0608 31.6667C12.1363 32.7785 14.877 32.965 17.1369 32.1466C17.9262 31.86 18.6635 31.4595 19.4809 31.235C20.5988 30.9277 21.8449 30.9657 22.9308 31.3421C23.8243 31.6529 24.6097 32.1777 25.5473 32.3711C25.9279 32.447 26.3246 32.4678 26.7133 32.4298C27.2462 32.3745 27.2942 32.3469 27.2942 31.9118C27.2942 31.7806 27.5266 31.6701 27.6749 31.6287C27.8272 31.5872 27.9874 31.5976 28.1477 31.6114C28.4282 31.6356 28.7367 31.677 28.909 31.8635C28.9931 31.9567 29.0292 32.0741 29.0733 32.1846C29.2255 32.599 29.4579 32.8648 29.8065 33.3517C30.0149 33.6418 30.1391 33.8662 30.7722 35.0817C32.7516 38.9041 33.7413 40.8171 34.0017 41.5594C34.5426 43.1029 35.2518 45.2058 34.9113 47.9198C34.767 49.0662 34.5106 50.9308 33.028 52.8645C31.9222 54.3113 30.636 55.1331 29.7064 55.7201C26.0762 58.0025 22.1855 58.6137 22.1775 58.5964C22.1775 58.5861 23.1552 58.3098 27.4505 57.1289C27.751 57.9266 28.1838 59.1213 28.6365 60.5957C29.0452 61.9216 29.506 63.5929 29.4419 63.6067C29.3898 63.6171 29.1334 62.4707 28.3841 60.6993C27.5707 58.7691 26.9256 57.892 27.4465 57.1289C27.6308 56.8561 27.8792 56.7215 28.3681 56.4832C31.5655 54.9087 33.2644 54.6324 34.9553 53.3134C35.0555 53.2374 35.5203 52.8783 36.0131 52.3189C37.2633 50.9067 38.1047 49.2009 38.1488 47.4433C38.2049 45.1678 38.2089 43.4379 37.9885 42.219C37.6039 40.0988 36.8025 37.9027 36.538 37.1845C36.518 37.1293 36.51 37.1086 36.0853 35.9518C35.8529 35.3199 35.6004 34.6915 35.3841 34.0561C35.1477 33.3655 34.8472 32.6853 34.4905 32.0327C34.4505 31.9602 34.4104 31.8877 34.3343 31.8428C34.2221 31.7737 34.0859 31.7772 34.0498 31.7806C33.5489 31.791 33.1923 31.5734 31.7138 31.6667C30.5158 31.7426 29.1053 31.9878 29.1214 32.0879C29.1334 32.1743 30.2112 32.1777 34.739 31.8462" fill="#FAFCFC"/>
<path d="M3.80209 43.6347C3.36534 44.0145 2.77233 44.6119 2.29952 45.4475C1.82672 46.2866 1.68648 47.1049 1.42202 48.7106C1.20565 50.0365 1.09346 50.696 1.10148 51.656C1.10949 53.0233 1.34189 54.111 1.51017 54.7567C1.63839 55.2436 1.84675 56.0309 2.33558 57.0115C2.44377 57.2256 2.84045 58.006 3.48956 58.8658C5.15641 61.0619 7.57254 62.5501 7.64867 62.4845C7.7248 62.4154 5.22052 61.0964 3.48956 58.8658C-0.934004 53.158 1.45007 43.7383 5.43288 42.6609C6.38651 42.402 7.12377 42.7093 11.363 42.2984C13.0699 42.1326 13.5227 42.0152 13.7791 41.9634C15.3899 41.6527 16.8724 40.9828 18.2227 40.1852C18.5473 39.9952 18.8839 39.7881 19.2765 39.7397C19.9777 39.6534 20.5988 40.0781 21.2519 40.3129C21.865 40.5305 22.5421 40.5823 23.2033 40.6306C25.0224 40.7618 26.9136 40.8861 28.6245 40.3474C29.4059 40.1023 30.2192 39.5912 30.1912 38.8903C29.2376 38.0167 28.1197 37.226 26.8415 36.7149C26.3406 36.5146 25.8237 36.3454 25.3028 36.1763C24.6217 35.9553 23.9365 35.7308 23.2153 35.6341C22.6303 35.5547 22.0333 35.5651 21.4362 35.572L19.2926 35.5996C18.1466 35.6134 16.9966 35.6307 15.8547 35.7343C13.6469 35.9345 11.4792 36.4663 9.49182 37.3019C9.50784 37.0084 9.4237 36.7218 9.35158 36.4352C8.95089 34.8054 9.68014 33.2999 10.0608 31.6667C12.1363 32.7785 14.877 32.965 17.1369 32.1466C17.9262 31.86 18.6635 31.4595 19.4809 31.235C20.5988 30.9277 21.8449 30.9657 22.9308 31.3421C23.8243 31.6529 24.6097 32.1777 25.5473 32.3711C25.9279 32.447 26.3246 32.4678 26.7133 32.4298C27.2462 32.3745 27.2942 32.3469 27.2942 31.9118C27.2942 31.7806 27.5266 31.6701 27.6749 31.6287C27.8272 31.5872 27.9874 31.5976 28.1477 31.6114C28.4282 31.6356 28.7367 31.677 28.909 31.8635C28.9931 31.9567 29.0292 32.0741 29.0733 32.1846C29.2255 32.599 29.4579 32.8648 29.8065 33.3517C30.0149 33.6418 30.1391 33.8662 30.7722 35.0817C32.7516 38.9041 33.7413 40.8171 34.0017 41.5594C34.5426 43.1029 35.2518 45.2058 34.9113 47.9198C34.767 49.0662 34.5106 50.9308 33.028 52.8645C31.9222 54.3113 30.636 55.1331 29.7064 55.7201C26.0762 58.0025 22.1855 58.6137 22.1775 58.5964C22.1775 58.5861 23.1552 58.3098 27.4505 57.1289C27.751 57.9266 28.1838 59.1213 28.6365 60.5957C29.0452 61.9217 29.506 63.5929 29.4419 63.6067C29.3898 63.6171 29.1334 62.4707 28.3841 60.6993C27.5707 58.7691 26.9256 57.892 27.4465 57.1289C27.6308 56.8561 27.8792 56.7215 28.3681 56.4832C31.5655 54.9087 33.2644 54.6324 34.9553 53.3134C35.0555 53.2374 35.5203 52.8783 36.0131 52.3189C37.2633 50.9067 38.1047 49.2009 38.1488 47.4433C38.2049 45.1678 38.2089 43.4379 37.9885 42.219C37.6039 40.0988 36.8025 37.9027 36.538 37.1845C36.518 37.1293 36.51 37.1086 36.0853 35.9518C35.8529 35.3199 35.6004 34.6915 35.3841 34.0561C35.1477 33.3655 34.8472 32.6853 34.4905 32.0327C34.4505 31.9602 34.4104 31.8877 34.3343 31.8428C34.2221 31.7737 34.0859 31.7772 34.0498 31.7806C33.5489 31.791 33.1923 31.5734 31.7138 31.6667C30.5158 31.7426 29.1053 31.9878 29.1214 32.0879C29.1334 32.1743 30.2112 32.1777 34.739 31.8462" stroke="black" stroke-width="1.53162" stroke-miterlimit="10"/>
<path d="M27.7808 21.7949C29.4436 23.8425 30.289 26.3529 30.1448 28.8286C30.1208 29.2499 30.0687 29.6712 29.9284 30.0786C29.68 30.8072 29.1631 31.446 28.6543 32.071" fill="#FAFCFC"/>
<path d="M27.7808 21.7949C29.4436 23.8425 30.289 26.3529 30.1448 28.8286C30.1208 29.2499 30.0687 29.6712 29.9284 30.0786C29.68 30.8072 29.1631 31.446 28.6543 32.071" stroke="black" stroke-width="1.53162" stroke-miterlimit="10"/>
<path d="M11.9283 17.684C12.9019 17.3801 13.6111 16.5549 13.6432 15.6847C13.6512 15.4534 13.6031 15.1944 13.3948 15.0425C13.0302 14.7766 12.4331 14.97 12.0044 14.7869C11.5476 14.597 11.4635 14.086 11.4394 13.6578C11.4194 13.3056 11.3994 12.9431 11.5035 12.6012C11.5837 12.3353 11.7399 12.0902 11.9122 11.8554C12.361 11.2442 12.938 10.7021 13.6071 10.2601C14.124 9.91825 14.701 9.63165 15.1778 9.24837C15.3822 9.08608 15.5665 8.90307 15.7869 8.7546C16.0954 8.54742 16.464 8.41275 16.8286 8.28154C17.7943 7.93279 18.772 7.57713 19.5653 6.99703C20.3547 6.41693 20.9397 5.57095 20.8555 4.6939C20.8195 4.32443 20.7153 3.86863 21.0759 3.658C21.2001 3.58549 21.3604 3.56132 21.5126 3.56477C22.314 3.58549 22.871 4.21738 23.2877 4.79403C24.654 6.68626 25.8681 8.65446 26.9219 10.6814" fill="#FAFCFC"/>
<path d="M11.9283 17.684C12.9019 17.3801 13.6111 16.5549 13.6432 15.6847C13.6512 15.4534 13.6031 15.1944 13.3948 15.0425C13.0302 14.7766 12.4331 14.97 12.0044 14.7869C11.5476 14.597 11.4635 14.086 11.4394 13.6578C11.4194 13.3056 11.3994 12.9431 11.5035 12.6012C11.5837 12.3353 11.7399 12.0902 11.9122 11.8554C12.361 11.2442 12.938 10.7021 13.6071 10.2601C14.124 9.91825 14.701 9.63165 15.1778 9.24837C15.3822 9.08608 15.5665 8.90307 15.7869 8.7546C16.0954 8.54742 16.464 8.41275 16.8286 8.28154C17.7943 7.93279 18.772 7.57713 19.5653 6.99703C20.3547 6.41693 20.9397 5.57095 20.8555 4.6939C20.8195 4.32443 20.7153 3.86863 21.0759 3.658C21.2001 3.58549 21.3604 3.56132 21.5126 3.56477C22.314 3.58549 22.871 4.21738 23.2877 4.79403C24.654 6.68626 25.8681 8.65446 26.9219 10.6814" stroke="black" stroke-width="1.53162" stroke-miterlimit="10"/>
<path d="M10.5576 16.677C10.81 16.6597 11.0224 16.8289 11.1987 16.9843L11.8879 17.6024C11.8879 17.6024 19.0802 22.402 19.1683 24.9952H21.0115C21.0115 24.9952 20.3423 21.5595 24.1048 18.9629L25.4391 17.5126" fill="#FAFCFC"/>
<path d="M10.5576 16.677C10.81 16.6597 11.0224 16.8289 11.1987 16.9843L11.8879 17.6024C11.8879 17.6024 19.0802 22.402 19.1683 24.9952H21.0115C21.0115 24.9952 20.3423 21.5595 24.1048 18.9629L25.4391 17.5126" stroke="black" stroke-width="1.53162" stroke-miterlimit="10"/>
<path d="M9.76576 34.3568C9.76576 34.3568 1.33535 34.8161 0.678223 32.9238L9.76576 34.3568Z" fill="#FAFCFC"/>
<path d="M9.76576 34.3568C9.76576 34.3568 1.33535 34.8161 0.678223 32.9238" stroke="black" stroke-width="1.53162" stroke-miterlimit="10"/>
<path d="M10.4735 31.6642C10.4735 31.6642 6.79519 26.1222 7.54848 25L10.4735 31.6642Z" fill="#FAFCFC"/>
<path d="M10.4735 31.6642C10.4735 31.6642 6.79519 26.1222 7.54848 25" stroke="black" stroke-width="1.53162" stroke-miterlimit="10"/>
<path d="M13.5894 15.3008C13.5894 15.3008 19.1949 20.1142 24.3718 15.508L13.5894 15.3008Z" fill="#FAFCFC"/>
<path d="M13.5894 15.3008C13.5894 15.3008 19.1949 20.1142 24.3718 15.508" stroke="black" stroke-width="1.53162" stroke-miterlimit="10"/>
<path d="M28.2871 17.0293L29.7937 17.9858C29.7937 17.9858 34.6019 19.2599 34.4336 21.7979L34.7381 31.8426" fill="#FAFCFC"/>
<path d="M28.2871 17.0293L29.7937 17.9858C29.7937 17.9858 34.6019 19.2599 34.4336 21.7979L34.7381 31.8426" stroke="black" stroke-width="1.53162" stroke-miterlimit="10"/>
<path d="M26.7372 46.7185C26.7372 44.9298 25.0503 43.4727 22.9748 43.4727C21.4522 43.4727 20.1379 44.2565 19.5449 45.3787C18.9519 44.2565 17.6377 43.4727 16.1151 43.4727C14.0395 43.4727 12.3486 44.9298 12.3486 46.7185C12.3486 47.0948 12.4248 47.4574 12.561 47.7958C12.7173 48.1791 12.9577 48.5313 13.2582 48.8317C13.3864 48.9594 13.5266 49.0803 13.6789 49.1908L19.4207 54.1044C19.4568 54.1354 19.5009 54.1493 19.5489 54.1493C19.597 54.1493 19.6411 54.1354 19.6772 54.1044L25.6313 49.0043C26.016 48.6694 26.3205 48.2654 26.5088 47.813C26.6531 47.4712 26.7332 47.0983 26.7332 46.7115L26.7372 46.7185Z" fill="#3F6B68"/>
</g>
<defs>
<clipPath id="clip0_550_50306">
<rect width="42.8853" height="63.3069" fill="white" transform="translate(0 0.476562)"/>
</clipPath>
</defs>
</svg>
