<svg width="82" height="105" viewBox="0 0 82 105" fill="none" xmlns="http://www.w3.org/2000/svg">
<path d="M42.3993 1C44.2393 8.91 62.3793 8.34 65.8993 19.5C68.7293 24.63 66.0293 29.38 60.8993 32.5C70.6493 35.25 87.5893 56.95 78.4893 71.64C68.8393 86.31 58.5093 81.73 58.4893 103.64C51.6793 101.08 35.5393 100.82 28.0993 103.5C19.2093 99.05 10.6893 94.66 17.8993 76.93C22.8193 68.89 30.4193 61.96 29.8993 51.5C29.0893 40.52 19.0693 31.68 17.8993 21.5C17.8993 21.5 16.8293 3.5 21.3693 1C27.8393 1.69 36.2293 1.66 42.3993 1V1Z" stroke="black" stroke-miterlimit="10"/>
<path d="M5.57031 36.6401L18.4903 43.6401" stroke="black" stroke-miterlimit="10"/>
<path d="M0 53.6401H21.93" stroke="black" stroke-miterlimit="10"/>
<path d="M5.49023 69.6401L18.4902 62.6401" stroke="black" stroke-miterlimit="10"/>
<path d="M32.4902 34.6401C46.5502 46.7101 35.3402 69.0001 30.4902 72.6401" stroke="black" stroke-miterlimit="10"/>
</svg>
