<svg width="61" height="100" viewBox="0 0 61 100" fill="none" xmlns="http://www.w3.org/2000/svg">
<path d="M23.5896 1C13.9396 11.49 32.3296 14.74 22.5396 27.16" stroke="#000202" stroke-miterlimit="10"/>
<path d="M34.5096 1C24.8596 11.49 43.2496 14.74 33.4596 27.16" stroke="#000202" stroke-miterlimit="10"/>
<path d="M45.4295 1C35.7795 11.49 54.1695 14.74 44.3795 27.16" stroke="#000202" stroke-miterlimit="10"/>
<path d="M43.68 71.5001L49.14 93.1701C49.14 93.1701 49.14 103.28 38.22 97.5001L30.94 75.2101L20.02 64.2701C20.12 65.7401 21.1 76.0501 20.93 77.2301L12.74 96.0601C12.74 96.0601 3.64 103.28 0 93.1701L7.28 75.8301L3.64001 52.7101C5.39001 41.3501 24.02 28.8101 38.22 32.4801C32.04 37.1401 34.91 45.8801 40.04 48.3701L41.86 71.4901C41.86 71.4901 40.04 77.2701 34.58 74.3801C31.73 74.6201 29.85 42.8501 29.12 41.1501H27.3V49.8201L24.57 53.6001L29.12 57.0401C29.73 59.0601 29.96 74.2101 32.53 75.1001C37.1 79.2901 44.28 76.5901 43.68 71.4901V71.5001Z" fill="black"/>
<path d="M40.0391 48.3801C43.0291 49.8701 50.3991 50.5101 53.1491 49.8201C53.6291 57.5301 54.1091 65.2301 54.5891 72.9401C55.0891 74.9201 53.4491 76.8801 50.9491 77.2701C48.4491 77.6601 45.9891 76.3601 45.4891 74.3801C44.8791 65.7101 44.2791 57.0401 43.6691 48.3701" fill="black"/>
<path d="M60.0605 39.7098C60.2905 50.9498 37.9905 50.9498 38.2205 39.7098C37.9905 28.4698 60.2905 28.4698 60.0605 39.7098Z" fill="black"/>
</svg>
