<svg width="98" height="62" viewBox="0 0 98 62" fill="none" xmlns="http://www.w3.org/2000/svg">
<path d="M83.1181 28.2561C81.3845 26.764 80.0034 24.9271 79.1076 22.9111C78.7898 22.2015 78.5298 21.4588 78.0328 20.8421C77.2642 19.8871 75.9351 19.3301 74.6406 19.4296C72.7625 19.5755 71.7686 21.0808 71.5836 21.3593C71.3005 21.7838 70.8497 22.6326 71.0231 25.0995C71.2022 27.6924 71.3698 30.1195 73.3173 32.2416C73.9356 32.918 74.9527 33.9923 76.7037 34.4101C77.1544 34.5162 79.5411 35.0932 81.0551 33.8199C82.2166 32.8451 82.7772 31.406 82.991 29.9803C83.1181 29.1314 83.147 28.833 83.4764 28.2959C84.037 27.3807 84.8691 27.1486 86.1404 26.5054C88.4924 25.325 90.122 23.8926 91.428 22.7453C91.7921 22.4204 92.3584 21.9761 92.9421 21.2997C94.329 19.6948 95.7448 18.0436 96.4094 16.0939C97.5998 12.5991 96.1146 8.70646 93.5662 5.88144C93.1097 5.37745 92.1677 4.7143 91.3298 4.13073C89.6424 2.94369 88.3306 2.3137 87.8741 2.10149C87.8741 2.10149 87.2037 1.71686 86.5681 1.54445C82.731 0.483407 78.5991 1.16645 74.6811 1.9556C73.3577 2.22086 72.0344 2.50601 70.7688 2.93706C66.5041 4.38272 62.6785 7.49952 58.4889 9.12424C52.5714 11.4121 45.6484 11.8299 39.7251 9.55529C37.9395 8.87224 36.2752 7.9571 34.5993 7.06848C30.9876 5.15198 27.2834 3.32169 23.2902 2.20096C19.3029 1.08024 14.9688 0.702246 10.9467 1.71023C8.69877 2.27391 6.58373 3.26863 4.77497 4.60156C3.74056 5.36418 2.78128 6.26607 2.21496 7.3669C1.80466 8.16931 1.60818 9.04466 1.43482 9.91339C1.24412 10.8816 0.978296 12.0753 1.00141 13.5939C1.03608 16.0276 1.74688 17.8513 2.29008 19.1908C3.01821 21.0012 3.35916 21.9098 4.24332 22.8382C5.53777 24.191 7.35809 25.0597 8.23647 25.4775C9.70428 26.1804 10.6982 26.512 11.4668 27.573C11.8829 28.15 12.062 28.7137 12.1429 29.1049" fill="#FAFCFC"/>
<path d="M83.1181 28.2561C81.3845 26.764 80.0034 24.9271 79.1076 22.9111C78.7898 22.2015 78.5298 21.4588 78.0328 20.8421C77.2642 19.8871 75.9351 19.3301 74.6406 19.4296C72.7625 19.5755 71.7686 21.0808 71.5836 21.3593C71.3005 21.7838 70.8497 22.6326 71.0231 25.0995C71.2022 27.6924 71.3698 30.1195 73.3173 32.2416C73.9356 32.918 74.9527 33.9923 76.7037 34.4101C77.1544 34.5162 79.5411 35.0932 81.0551 33.8199C82.2166 32.8451 82.7772 31.4061 82.991 29.9803C83.1181 29.1314 83.147 28.833 83.4764 28.2959C84.037 27.3807 84.8691 27.1486 86.1404 26.5054C88.4924 25.325 90.122 23.8926 91.428 22.7453C91.7921 22.4204 92.3584 21.9761 92.9421 21.2997C94.329 19.6948 95.7448 18.0436 96.4094 16.0939C97.5998 12.5991 96.1146 8.70646 93.5662 5.88144C93.1097 5.37745 92.1677 4.7143 91.3298 4.13073C89.6424 2.94369 88.3306 2.3137 87.8741 2.10149C87.8741 2.10149 87.2037 1.71686 86.5681 1.54445C82.731 0.483407 78.5991 1.16645 74.6811 1.9556C73.3577 2.22086 72.0344 2.50601 70.7688 2.93706C66.5041 4.38272 62.6785 7.49952 58.4889 9.12424C52.5714 11.4121 45.6484 11.8299 39.7251 9.55529C37.9395 8.87224 36.2752 7.9571 34.5993 7.06848C30.9876 5.15198 27.2834 3.32169 23.2902 2.20096C19.3029 1.08024 14.9688 0.702246 10.9467 1.71023C8.69877 2.27391 6.58373 3.26863 4.77497 4.60156C3.74056 5.36418 2.78128 6.26607 2.21496 7.3669C1.80466 8.16931 1.60818 9.04466 1.43482 9.91339C1.24412 10.8816 0.978296 12.0753 1.00141 13.5939C1.03608 16.0276 1.74688 17.8513 2.29008 19.1908C3.01821 21.0012 3.35916 21.9098 4.24332 22.8382C5.53777 24.191 7.35809 25.0597 8.23647 25.4775C9.70428 26.1804 10.6982 26.512 11.4668 27.573C11.8829 28.15 12.062 28.7137 12.1429 29.1049" stroke="black" stroke-miterlimit="10"/>
<path d="M80.9695 19.8669C83.4198 19.6613 85.7948 18.786 87.7192 17.3867C88.586 16.7567 89.3777 16.0007 89.8458 15.0856C90.3196 14.1572 90.4468 13.116 90.5277 12.0948C90.5797 11.498 90.6144 10.8812 90.4121 10.3175C90.2098 9.75387 89.788 9.28304 89.3199 8.87188C86.8928 6.73654 83.2579 6.13308 79.9005 6.37844C73.6709 6.83601 67.7419 10.0059 64.2457 14.7408C63.9452 15.1519 63.402 15.8747 62.9917 16.9358C62.1307 19.1573 62.6854 20.6759 62.6912 22.5394C62.7143 26.8366 59.8365 30.0462 59.9116 30.0728C59.9925 30.1059 62.2405 25.6562 62.2405 25.6562" fill="#FAFCFC"/>
<path d="M80.9695 19.8669C83.4198 19.6613 85.7948 18.786 87.7192 17.3867C88.586 16.7567 89.3777 16.0007 89.8458 15.0856C90.3196 14.1572 90.4468 13.116 90.5277 12.0948C90.5797 11.498 90.6144 10.8812 90.4121 10.3175C90.2098 9.75387 89.788 9.28304 89.3199 8.87188C86.8928 6.73654 83.2579 6.13308 79.9005 6.37844C73.6709 6.83601 67.7419 10.0059 64.2457 14.7408C63.9452 15.1519 63.402 15.8747 62.9917 16.9358C62.1307 19.1573 62.6854 20.6759 62.6912 22.5394C62.7143 26.8366 59.8365 30.0462 59.9116 30.0728C59.9925 30.1059 62.2405 25.6562 62.2405 25.6562" stroke="black" stroke-miterlimit="10"/>
<path d="M17.945 21.5323C18.5055 23.9992 17.656 26.4661 15.7086 27.8919C14.1194 29.0524 12.3222 29.132 11.6288 29.132C12.3338 29.1519 13.3277 29.2845 14.1079 29.9079C15.3792 30.9225 14.7782 32.1957 16.0495 33.4756C17.2573 34.7024 19.0719 34.8351 19.6208 34.8748C20.2103 34.9213 22.0422 35.0539 23.3077 33.973C23.7874 33.5684 24.0012 33.1308 24.163 32.8323C25.1916 30.9623 26.1335 29.0259 26.5207 26.9635C26.9079 24.9011 26.7056 22.6862 25.5499 20.8824C25.1858 20.3187 24.712 19.7816 24.059 19.5163C22.9379 19.0587 21.6319 19.503 20.5686 20.0601C19.5053 20.6171 18.4477 21.3134 17.2226 21.3731C15.8242 21.4461 14.5586 20.6702 13.4086 19.9275C11.9061 18.9593 10.3979 17.9844 8.89539 17.0162C8.47932 16.7443 8.05747 16.4725 7.71652 16.121C7.4507 15.8491 7.24266 15.5374 7.06352 15.2125C6.12157 13.5347 5.60148 11.1275 6.63011 9.40992C7.57205 7.83825 9.11499 6.3329 11.0567 5.85544C11.8426 5.66312 12.6689 5.6366 13.4838 5.64986C21.4469 5.76923 31.9297 8.06372 34.0389 15.0798C34.7555 17.4539 34.1314 20.0203 34.7151 22.4209C34.9809 23.5151 35.1254 23.5151 35.5414 24.9342C36.6105 28.5948 36.2291 29.6227 36.859 31.758C37.7143 34.6361 38.7949 34.0791 40.9388 38.2768C42.2968 40.936 42.8978 43.1974 43.3197 44.7956C44.0594 47.6272 44.2327 49.6962 44.3368 51.0822C44.4928 53.0916 44.5621 54.1128 44.1692 54.9616C43.6953 55.9763 42.8978 56.6792 42.9787 57.9127C42.9787 57.9524 43.0365 58.6289 43.4006 59.2323C44.2154 60.5652 46.394 61.2151 48.8384 60.9366C49.9826 61.0162 50.8321 60.7841 51.3002 60.6249C51.6701 60.4989 52.1208 60.3398 52.5773 59.9618C52.5773 59.9618 53.2245 59.4313 53.5539 58.6023C54.0914 57.2429 53.1899 55.6115 52.7449 54.4908C52.1439 52.9788 52.3693 50.3527 52.8316 45.1006C52.9703 43.4892 53.1205 42.448 53.6811 41.2212C54.0105 40.4984 54.2069 40.3127 55.2934 38.615C55.7036 37.9651 56.6745 36.4399 57.472 34.9942C58.5873 32.9583 58.4081 32.7528 59.5061 30.518C60.4423 28.6213 62.0834 25.8892 62.2395 25.6305" fill="#FAFCFC"/>
<path d="M17.945 21.5323C18.5055 23.9992 17.656 26.4661 15.7086 27.8919C14.1194 29.0524 12.3222 29.132 11.6288 29.132C12.3338 29.1519 13.3277 29.2845 14.1079 29.9079C15.3792 30.9225 14.7782 32.1957 16.0495 33.4756C17.2573 34.7024 19.0719 34.8351 19.6208 34.8748C20.2103 34.9213 22.0422 35.0539 23.3077 33.973C23.7874 33.5684 24.0012 33.1308 24.163 32.8323C25.1916 30.9623 26.1335 29.0259 26.5207 26.9635C26.9079 24.9011 26.7056 22.6862 25.5499 20.8824C25.1858 20.3187 24.712 19.7816 24.059 19.5163C22.9379 19.0587 21.6319 19.503 20.5686 20.0601C19.5053 20.6171 18.4477 21.3134 17.2226 21.3731C15.8242 21.4461 14.5586 20.6702 13.4086 19.9275C11.9061 18.9593 10.3979 17.9844 8.89539 17.0162C8.47932 16.7443 8.05747 16.4725 7.71652 16.121C7.4507 15.8491 7.24266 15.5374 7.06352 15.2125C6.12157 13.5347 5.60148 11.1275 6.63011 9.40992C7.57205 7.83825 9.11499 6.3329 11.0567 5.85544C11.8426 5.66312 12.6689 5.6366 13.4838 5.64986C21.4469 5.76923 31.9297 8.06372 34.0389 15.0798C34.7555 17.4539 34.1314 20.0203 34.7151 22.4209C34.9809 23.5151 35.1254 23.5151 35.5414 24.9342C36.6105 28.5948 36.2291 29.6227 36.859 31.758C37.7143 34.6361 38.7949 34.0791 40.9388 38.2768C42.2968 40.936 42.8978 43.1974 43.3197 44.7956C44.0594 47.6272 44.2327 49.6962 44.3368 51.0822C44.4928 53.0916 44.5621 54.1128 44.1692 54.9616C43.6953 55.9763 42.8978 56.6792 42.9787 57.9127C42.9787 57.9524 43.0365 58.6289 43.4006 59.2323C44.2154 60.5652 46.394 61.2151 48.8384 60.9366C49.9826 61.0162 50.8321 60.7841 51.3002 60.6249C51.6701 60.4989 52.1208 60.3398 52.5773 59.9618C52.5773 59.9618 53.2245 59.4313 53.5539 58.6023C54.0914 57.2429 53.1899 55.6115 52.7449 54.4908C52.1439 52.9788 52.3693 50.3528 52.8316 45.1006C52.9703 43.4892 53.1205 42.448 53.6811 41.2212C54.0105 40.4984 54.2069 40.3127 55.2934 38.615C55.7036 37.9651 56.6745 36.4399 57.472 34.9942C58.5873 32.9583 58.4081 32.7528 59.5061 30.518C60.4423 28.6213 62.0834 25.8892 62.2395 25.6305" stroke="black" stroke-miterlimit="10"/>
<path d="M20.8034 36.8388C25.2426 36.8388 28.8412 32.6404 28.8412 27.4614C28.8412 22.2824 25.2426 18.084 20.8034 18.084C16.3643 18.084 12.7656 22.2824 12.7656 27.4614C12.7656 32.6404 16.3643 36.8388 20.8034 36.8388Z" fill="black" stroke="#FCFCFC" stroke-miterlimit="10"/>
<path d="M77.8816 35.3259C82.0306 35.3259 85.394 31.4661 85.394 26.7049C85.394 21.9437 82.0306 18.084 77.8816 18.084C73.7326 18.084 70.3691 21.9437 70.3691 26.7049C70.3691 31.4661 73.7326 35.3259 77.8816 35.3259Z" fill="black" stroke="#FCFCFC" stroke-miterlimit="10"/>
</svg>
