<svg width="702" height="405" viewBox="0 0 702 405" fill="none" xmlns="http://www.w3.org/2000/svg">
<path d="M640.957 0H60.4199V405H640.957V0Z" fill="white"/>
<path opacity="0.5" d="M273.597 43.5507C273.597 43.5507 404.381 64.1963 392.216 101.268C380.033 138.321 457.302 88.1007 488.132 101.475C510.088 110.988 501.316 139.941 511.92 151.601C536.268 178.35 561.176 144.669 592.159 164.881C623.141 185.094 587.493 369.736 574.886 369.717H113.188C113.188 369.717 78.9984 319.064 110.727 287.342C142.456 255.639 120.67 241.134 116.819 228.89C112.39 214.819 96.5426 174.658 141.693 157.064C174.423 144.311 175.305 99.7609 173.965 91.6798C173.965 91.6798 161.307 27.7275 273.58 43.5696L273.597 43.5507Z" fill="#A2C4E6"/>
<path d="M227.87 128.562L219.488 139.865C219.488 139.865 231.654 148.963 242.598 154.313C243.599 149.604 246.076 142.219 246.84 137.435C237.796 132.368 227.853 128.562 227.853 128.562H227.87Z" fill="#C5DBF0"/>
<path d="M200.18 127.602L201.707 153.164C201.707 153.164 195.785 147.833 184.841 153.164C183.84 148.454 181.363 141.07 180.6 136.286C189.643 131.218 200.18 127.602 200.18 127.602Z" fill="#C5DBF0"/>
<path d="M339.753 139.113H334.205V144.124H329.691V150.284H334.205V155.294H339.753V150.284H344.266V144.124H339.753V139.113ZM343.52 144.953V149.455H339.006V154.466H334.951V149.455H330.438V144.953H334.951V139.942H339.006V144.953H343.52Z" fill="#76BBBF"/>
<path d="M254.119 63.3672H251.184V66.0044H248.809V69.2632H251.184V71.9004H254.119V69.2632H256.495V66.0044H254.119V63.3672ZM256.105 66.4565V68.8488H253.729V71.486H251.574V68.8488H249.199V66.4565H251.574V63.8193H253.729V66.4565H256.105Z" fill="#76BBBF"/>
<path d="M166.737 285.816H163.207V289H160.34V292.918H163.207V296.102H166.737V292.918H169.604V289H166.737V285.816ZM169.129 289.527V292.391H166.261V295.574H163.682V292.391H160.815V289.527H163.682V286.344H166.261V289.527H169.129Z" fill="#76BBBF"/>
<path d="M493.953 186.77H490.424V189.953H487.557V193.871H490.424V197.055H493.953V193.871H496.821V189.953H493.953V186.77ZM496.346 190.48V193.344H493.478V196.527H490.899V193.344H488.032V190.48H490.899V187.297H493.478V190.48H496.346Z" fill="#76BBBF"/>
<path d="M215.517 38.8242C212.972 38.8242 210.902 41.1224 210.902 43.9479C210.902 46.7735 212.972 49.0717 215.517 49.0717C218.063 49.0717 220.133 46.7735 220.133 43.9479C220.133 41.1224 218.063 38.8242 215.517 38.8242ZM215.517 47.7719C213.617 47.7719 212.073 46.0577 212.073 43.9479C212.073 41.8382 213.617 40.124 215.517 40.124C217.418 40.124 218.962 41.8382 218.962 43.9479C218.962 46.0577 217.418 47.7719 215.517 47.7719Z" fill="#76BBBF"/>
<path d="M502.113 274.984C499.568 274.984 497.498 277.283 497.498 280.108C497.498 282.934 499.568 285.232 502.113 285.232C504.658 285.232 506.728 282.934 506.728 280.108C506.728 277.283 504.658 274.984 502.113 274.984ZM502.113 283.932C500.213 283.932 498.669 282.218 498.669 280.108C498.669 277.998 500.213 276.284 502.113 276.284C504.013 276.284 505.558 277.998 505.558 280.108C505.558 282.218 504.013 283.932 502.113 283.932Z" fill="#76BBBF"/>
<path d="M317.68 74.293C315.134 74.293 313.064 76.5911 313.064 79.4167C313.064 82.2423 315.134 84.5404 317.68 84.5404C320.225 84.5404 322.295 82.2423 322.295 79.4167C322.295 76.5911 320.225 74.293 317.68 74.293ZM317.68 83.2406C315.779 83.2406 314.235 81.5265 314.235 79.4167C314.235 77.3069 315.779 75.5927 317.68 75.5927C319.58 75.5927 321.124 77.3069 321.124 79.4167C321.124 81.5265 319.58 83.2406 317.68 83.2406Z" fill="#76BBBF"/>
<path d="M467.415 111.309C466.024 111.309 464.887 112.571 464.887 114.115C464.887 115.66 466.024 116.922 467.415 116.922C468.806 116.922 469.943 115.66 469.943 114.115C469.943 112.571 468.806 111.309 467.415 111.309ZM467.415 116.225C466.38 116.225 465.515 115.283 465.515 114.115C465.515 112.947 466.363 112.006 467.415 112.006C468.467 112.006 469.315 112.947 469.315 114.115C469.315 115.283 468.467 116.225 467.415 116.225Z" fill="#76BBBF"/>
<path d="M113.562 310.211H111.221V312.321H109.32V314.92H111.221V317.03H113.562V314.92H115.462V312.321H113.562V310.211ZM115.14 312.66V314.562H113.24V316.672H111.526V314.562H109.626V312.66H111.526V310.55H113.24V312.66H115.14Z" fill="#76BBBF"/>
<path d="M468.332 295.199H461.902V301.001H456.676V308.14H461.902V313.942H468.332V308.14H473.558V301.001H468.332V295.199ZM472.693 301.962V307.18H467.467V312.982H462.767V307.18H457.541V301.962H462.767V296.16H467.467V301.962H472.693Z" fill="#76BBBF"/>
<path d="M153.706 188.43H148.158V193.44H143.645V199.6H148.158V204.611H153.706V199.6H158.219V193.44H153.706V188.43ZM157.473 194.269V198.771H152.96V203.782H148.904V198.771H144.391V194.269H148.904V189.259H152.96V194.269H157.473Z" fill="#76BBBF"/>
<path d="M522.136 190.914C520.269 190.914 518.742 192.609 518.742 194.682C518.742 196.754 520.269 198.449 522.136 198.449C524.002 198.449 525.529 196.754 525.529 194.682C525.529 192.609 524.002 190.914 522.136 190.914ZM522.136 197.507C520.744 197.507 519.608 196.245 519.608 194.7C519.608 193.156 520.744 191.894 522.136 191.894C523.527 191.894 524.664 193.156 524.664 194.7C524.664 196.245 523.527 197.507 522.136 197.507Z" fill="#76BBBF"/>
<path d="M487.556 342.5C485.961 342.5 484.654 343.951 484.654 345.721C484.654 347.492 485.961 348.942 487.556 348.942C489.151 348.942 490.457 347.492 490.457 345.721C490.457 343.951 489.151 342.5 487.556 342.5ZM487.556 348.114C486.368 348.114 485.384 347.04 485.384 345.702C485.384 344.365 486.351 343.291 487.556 343.291C488.76 343.291 489.728 344.365 489.728 345.702C489.728 347.04 488.76 348.114 487.556 348.114Z" fill="#76BBBF"/>
<path d="M161.478 330.742C159.883 330.742 158.576 332.193 158.576 333.963C158.576 335.734 159.883 337.185 161.478 337.185C163.073 337.185 164.379 335.734 164.379 333.963C164.379 332.193 163.073 330.742 161.478 330.742ZM161.478 336.356C160.29 336.356 159.306 335.282 159.306 333.945C159.306 332.607 160.273 331.533 161.478 331.533C162.682 331.533 163.649 332.607 163.649 333.945C163.649 335.282 162.682 336.356 161.478 336.356Z" fill="#76BBBF"/>
<path d="M123.353 235.953C121.758 235.953 120.451 237.404 120.451 239.174C120.451 240.945 121.758 242.395 123.353 242.395C124.948 242.395 126.254 240.945 126.254 239.174C126.254 237.404 124.948 235.953 123.353 235.953ZM123.353 241.567C122.165 241.567 121.181 240.493 121.181 239.155C121.181 237.818 122.148 236.744 123.353 236.744C124.557 236.744 125.524 237.818 125.524 239.155C125.524 240.493 124.557 241.567 123.353 241.567Z" fill="#76BBBF"/>
<path d="M121.435 165.977C119.569 165.977 118.059 167.653 118.059 169.725C118.059 171.797 119.569 173.474 121.435 173.474C123.301 173.474 124.812 171.797 124.812 169.725C124.812 167.653 123.301 165.977 121.435 165.977ZM121.435 172.532C120.044 172.532 118.907 171.27 118.907 169.725C118.907 168.181 120.044 166.918 121.435 166.918C122.826 166.918 123.963 168.181 123.963 169.725C123.963 171.27 122.826 172.532 121.435 172.532Z" fill="#76BBBF"/>
<path d="M573.734 181.609C573.734 181.609 572.037 197.149 569.916 204.213C567.795 211.277 565.776 218.021 567.354 234.974C568.932 251.928 569.899 253.341 570.255 257.73C570.612 262.119 570.052 280.655 570.9 283.706C571.748 286.758 565.946 307.95 565.521 317.048C565.097 326.147 563.536 339.483 565.521 345.304L566.658 344.513C566.658 344.513 563.689 330.385 568.219 313.431C572.75 296.478 570.764 294.293 578.4 283.688C586.035 273.101 586.595 251.118 586.595 251.118C586.595 251.118 590.277 226.159 586.595 215.177C582.913 204.194 582.642 193.212 573.734 181.59V181.609Z" fill="#296754"/>
<path d="M554.595 165.445C554.595 165.445 556.834 174.45 555.782 180.666C554.73 186.863 553.424 190.876 554.595 196.753C555.782 202.63 558.412 217.963 553.271 227.721C548.147 237.479 553.441 259.368 549.844 267.844C546.247 276.321 546.874 281.257 551.116 292.088C555.358 302.919 563.265 317.198 561.144 340.273L557.886 335.884C557.886 335.884 558.768 317.217 554.578 307.949C550.387 298.681 541.343 285.664 541.055 277.979C540.766 270.293 533.843 271.235 534.692 259.142C535.54 247.067 532.859 243.921 535.54 232.77C535.54 232.77 535.964 232.148 535.116 223.822C534.268 215.496 541.479 197.148 545.296 190.405C549.114 183.661 554.391 173.15 554.578 165.445H554.595Z" fill="#296754"/>
<path d="M546.008 217.078C546.008 217.078 543.175 231.206 545.296 238.892C547.416 246.577 549.962 252.549 549.826 264.152C549.69 275.756 557.885 280.164 557.75 286.587C557.614 293.03 559.446 299.924 561.007 305.104C562.568 310.285 560.295 330.064 561.72 339.162C563.128 348.26 564.553 347.79 564.553 347.79C564.553 347.79 562.433 335.866 562.992 331.477C563.552 327.087 564.825 312.168 564.553 306.687C564.265 301.186 566.539 296.797 566.81 287.228C567.099 277.659 568.931 269.031 565.113 256.938C561.296 244.863 562.008 230.415 546.025 217.078H546.008Z" fill="#3C8F7C"/>
<path d="M566.387 338.335C566.387 338.335 564.945 322.192 576.822 316.314C588.699 310.437 596.708 310.569 602.222 296.441C607.736 282.313 607.736 263.024 609.637 259.011C609.637 259.011 604.547 258.07 599.456 268.185C594.366 278.301 590.922 285.836 587.969 291.732C585.034 297.609 580.792 295.97 577.178 300.435C574.158 304.183 571.375 312.905 570.306 317.332C569.967 318.763 569.458 320.157 568.796 321.438C568.203 322.606 567.49 324.056 567.066 325.074C566.217 327.108 565.42 338.731 565.42 338.731L566.353 338.335H566.387Z" fill="#3C8F7C"/>
<path d="M561.279 337.204C561.279 337.204 560.295 317.199 554.781 309.193C549.266 301.188 538.237 297.74 536.965 291.938C535.692 286.137 537.101 268.712 529.041 258.992C529.041 258.992 530.178 269.824 529.041 272.725C527.904 275.625 518.301 289.113 523.951 300.415C529.601 311.718 542.327 310.305 546.28 312.81C550.233 315.315 554.204 313.903 554.899 316.257C555.612 318.612 558.853 326.938 559.99 335.867L561.262 337.204H561.279Z" fill="#3C8F7C"/>
<path d="M562.467 323.169L562.942 301.506C562.942 301.506 561.992 284.552 560.295 270.745C558.599 256.937 546.026 217.059 546.026 217.059C546.026 217.059 543.192 231.187 545.313 238.872C547.434 246.558 549.979 252.529 549.843 264.133C549.708 275.737 557.903 280.144 557.767 286.568C557.631 293.01 559.464 299.905 561.025 305.085C562.586 310.265 560.312 330.044 561.738 339.143C562.518 344.134 563.282 346.244 563.825 347.13C560.652 339.858 562.484 323.15 562.484 323.15L562.467 323.169Z" fill="#317F6B"/>
<path d="M589.122 300.886C584.032 304.032 579.06 305.351 574.14 312.961C569.219 320.59 567.064 327.635 567.064 327.635C567.064 327.635 565.826 334.416 565.503 337.882C565.469 338.41 565.436 338.711 565.436 338.711L566.369 338.316C566.369 338.316 564.927 322.172 576.804 316.295C588.681 310.418 596.689 310.55 602.204 296.422C607.718 282.294 607.718 263.005 609.618 258.992C609.618 258.992 602.679 270.276 598.997 279.374C595.315 288.472 594.195 297.74 589.105 300.867L589.122 300.886Z" fill="#317F6B"/>
<path d="M529.059 272.724C527.922 275.625 518.318 289.112 523.969 300.415C529.619 311.717 542.344 310.304 546.298 312.809C550.251 315.315 554.221 313.902 554.917 316.257C555.63 318.611 558.87 326.937 560.007 335.866L560.567 336.45C560.262 332.909 559.685 327.559 558.887 323.622C557.564 317.236 555.918 314.995 552.66 310.605C549.403 306.216 535.269 299.944 530.925 295.536C526.565 291.147 532.164 279.223 532.741 274.212C533.301 269.22 529.059 258.973 529.059 258.973C529.059 258.973 530.196 269.804 529.059 272.705V272.724Z" fill="#317F6B"/>
<path d="M565.131 322.039H548.673C547.553 322.039 546.721 323.753 546.976 325.524L552.965 366.608C553.152 367.889 553.848 368.793 554.662 368.793H574.429C575.243 368.793 575.939 367.889 576.126 366.608L582.115 325.524C582.37 323.734 581.538 322.039 580.418 322.039H565.114H565.131Z" fill="#82B2D8"/>
<g style="mix-blend-mode:multiply" opacity="0.5">
<path d="M550.946 352.668H578.161L580.316 337.918H548.791L550.946 352.668Z" fill="#8EA3C9"/>
</g>
<path d="M331.762 241.417L330.456 241.229C330.473 241.04 332.695 221.582 330.201 204.082C328.555 192.554 331.677 188.993 333.662 187.901C336.089 186.582 338.888 187.618 340.297 189.257C342.842 192.233 345.522 196.924 346.558 198.807C348.763 202.801 349.781 205.174 349.578 205.853L348.322 205.382C348.288 205.495 348.305 205.57 348.305 205.589C348.169 204.421 343.3 194.889 339.346 190.255C338.244 188.974 336.038 188.221 334.239 189.201C332.559 190.124 329.98 193.25 331.491 203.837C334.019 221.525 331.779 241.191 331.745 241.398L331.762 241.417Z" fill="#57597B"/>
<path d="M305.445 175.335C305.445 175.335 311.57 185.526 313.623 199.654C315.676 213.801 316.694 238.233 316.694 238.233C316.694 238.233 307.447 238.025 306.802 235.746C306.158 233.467 305.326 214.441 305.445 212.652C305.564 210.862 305.445 175.316 305.445 175.316V175.335Z" fill="#89C9DF"/>
<path d="M425.115 176.656H432.089C432.089 176.656 434.379 183.061 433.989 183.4C433.599 183.739 431.834 187.224 431.037 186.056C430.239 184.888 425.115 176.656 425.115 176.656Z" fill="#82B2D8"/>
<path d="M438.91 79.418H369.938C366.227 79.418 363.219 82.7577 363.219 86.8775V149.869C363.219 153.989 366.227 157.329 369.938 157.329H438.91C442.621 157.329 445.629 153.989 445.629 149.869V86.8775C445.629 82.7577 442.621 79.418 438.91 79.418Z" fill="#82B2D8"/>
<path d="M410.269 155.031H395.609V176.656H410.269V155.031Z" fill="#82B2D8"/>
<path d="M366.24 176.656H424.998C428.663 176.656 431.649 179.953 431.649 184.04V215.216H359.605V184.04C359.605 179.972 362.575 176.656 366.257 176.656H366.24Z" fill="#C5DBF0"/>
<g style="mix-blend-mode:multiply" opacity="0.5">
<path d="M431.631 203.969H359.588V207.303H431.631V203.969Z" fill="#8EA3C9"/>
</g>
<path d="M431.648 176.656V207.304H378.896V369.323H444.238V182.91C444.238 179.463 441.727 176.675 438.622 176.675H431.648V176.656Z" fill="#82B2D8"/>
<path d="M368.885 208.097C368.885 209.585 367.799 210.772 366.476 210.772C365.152 210.772 364.066 209.566 364.066 208.097C364.066 206.627 365.152 205.422 366.476 205.422C367.799 205.422 368.885 206.627 368.885 208.097Z" fill="#57597B"/>
<path d="M376.317 208.097C376.317 209.585 375.231 210.772 373.907 210.772C372.584 210.772 371.498 209.566 371.498 208.097C371.498 206.627 372.584 205.422 373.907 205.422C375.231 205.422 376.317 206.627 376.317 208.097Z" fill="#57597B"/>
<path d="M383.733 208.097C383.733 209.585 382.647 210.772 381.323 210.772C380 210.772 378.914 209.566 378.914 208.097C378.914 206.627 380 205.422 381.323 205.422C382.647 205.422 383.733 206.627 383.733 208.097Z" fill="#57597B"/>
<path d="M391.147 208.097C391.147 209.585 390.061 210.772 388.738 210.772C387.414 210.772 386.328 209.566 386.328 208.097C386.328 206.627 387.414 205.422 388.738 205.422C390.061 205.422 391.147 206.627 391.147 208.097Z" fill="#57597B"/>
<path d="M398.563 208.097C398.563 209.585 397.477 210.772 396.154 210.772C394.83 210.772 393.744 209.566 393.744 208.097C393.744 206.627 394.83 205.422 396.154 205.422C397.477 205.422 398.563 206.627 398.563 208.097Z" fill="#57597B"/>
<path d="M405.977 208.097C405.977 209.585 404.891 210.772 403.568 210.772C402.244 210.772 401.158 209.566 401.158 208.097C401.158 206.627 402.244 205.422 403.568 205.422C404.891 205.422 405.977 206.627 405.977 208.097Z" fill="#57597B"/>
<path d="M413.391 208.097C413.391 209.585 412.305 210.772 410.982 210.772C409.658 210.772 408.572 209.566 408.572 208.097C408.572 206.627 409.658 205.422 410.982 205.422C412.305 205.422 413.391 206.627 413.391 208.097Z" fill="#57597B"/>
<path d="M420.807 208.097C420.807 209.585 419.721 210.772 418.398 210.772C417.074 210.772 415.988 209.566 415.988 208.097C415.988 206.627 417.074 205.422 418.398 205.422C419.721 205.422 420.807 206.627 420.807 208.097Z" fill="#57597B"/>
<path d="M424.929 207.305H359.588V369.324H424.929V207.305Z" fill="#C5DBF0"/>
<path d="M421.197 183.211H370.024C369.396 183.211 368.887 183.776 368.887 184.473V195.078C368.887 195.775 369.396 196.34 370.024 196.34H421.197C421.825 196.34 422.334 195.775 422.334 195.078V184.473C422.334 183.776 421.825 183.211 421.197 183.211Z" fill="#57597B"/>
<path d="M367.58 214.934H383.292C384.242 214.934 385.023 215.8 385.023 216.855V233.055C385.023 234.11 384.242 234.976 383.292 234.976H367.58C366.63 234.976 365.85 234.11 365.85 233.055V216.855C365.85 215.8 366.63 214.934 367.58 214.934Z" fill="#57597B"/>
<path d="M417.701 214.934H391.13C390.455 214.934 389.908 215.541 389.908 216.29V227.686C389.908 228.435 390.455 229.043 391.13 229.043H417.701C418.375 229.043 418.922 228.435 418.922 227.686V216.29C418.922 215.541 418.375 214.934 417.701 214.934Z" fill="#57597B"/>
<path d="M406.927 155.031H392.268V176.656H406.927V155.031Z" fill="#C5DBF0"/>
<path d="M435.296 79.418H366.29C362.589 79.418 359.588 82.7492 359.588 86.8586V149.888C359.588 153.997 362.589 157.329 366.29 157.329H435.296C438.998 157.329 441.998 153.997 441.998 149.888V86.8586C441.998 82.7492 438.998 79.418 435.296 79.418Z" fill="#C5DBF0"/>
<g style="mix-blend-mode:multiply" opacity="0.5">
<path d="M410.287 157.309H392.268V163.845H410.287V157.309Z" fill="#8EA3C9"/>
</g>
<g style="mix-blend-mode:multiply" opacity="0.5">
<path d="M410.287 175.109H392.268V176.673H410.287V175.109Z" fill="#8EA3C9"/>
</g>
<path d="M435.296 79.418H366.29C362.589 79.418 359.588 82.7492 359.588 86.8586V149.888C359.588 153.997 362.589 157.329 366.29 157.329H435.296C438.998 157.329 441.998 153.997 441.998 149.888V86.8586C441.998 82.7492 438.998 79.418 435.296 79.418Z" fill="#C5DBF0"/>
<path d="M431.021 84.2578H370.584C367.341 84.2578 364.713 87.1759 364.713 90.7755V145.969C364.713 149.568 367.341 152.486 370.584 152.486H431.021C434.264 152.486 436.892 149.568 436.892 145.969V90.7755C436.892 87.1759 434.264 84.2578 431.021 84.2578Z" fill="#57597B"/>
<path d="M382.918 218.098H367.223C367.167 218.098 367.121 218.148 367.121 218.211V219.228C367.121 219.29 367.167 219.341 367.223 219.341H382.918C382.974 219.341 383.02 219.29 383.02 219.228V218.211C383.02 218.148 382.974 218.098 382.918 218.098Z" fill="#312F3D"/>
<path d="M382.918 222.223H367.223C367.167 222.223 367.121 222.273 367.121 222.336V223.353C367.121 223.415 367.167 223.466 367.223 223.466H382.918C382.974 223.466 383.02 223.415 383.02 223.353V222.336C383.02 222.273 382.974 222.223 382.918 222.223Z" fill="#312F3D"/>
<path d="M373.111 226.328H367.223C367.167 226.328 367.121 226.379 367.121 226.441V227.458C367.121 227.521 367.167 227.571 367.223 227.571H373.111C373.167 227.571 373.212 227.521 373.212 227.458V226.441C373.212 226.379 373.167 226.328 373.111 226.328Z" fill="#312F3D"/>
<path d="M393.031 222.658C393.031 223.11 392.709 223.468 392.302 223.468C391.895 223.468 391.572 223.11 391.572 222.658C391.572 222.206 391.895 221.848 392.302 221.848C392.709 221.848 393.031 222.206 393.031 222.658Z" fill="#C5DBF0"/>
<path d="M406.808 240.664H370.667C368.381 240.664 366.527 242.722 366.527 245.26V284.046C366.527 286.585 368.381 288.642 370.667 288.642H406.808C409.094 288.642 410.948 286.585 410.948 284.046V245.26C410.948 242.722 409.094 240.664 406.808 240.664Z" fill="#57597B"/>
<path d="M407.146 252.211H370.242C370.186 252.211 370.141 252.262 370.141 252.324V253.341C370.141 253.404 370.186 253.454 370.242 253.454H407.146C407.203 253.454 407.248 253.404 407.248 253.341V252.324C407.248 252.262 407.203 252.211 407.146 252.211Z" fill="#312F3D"/>
<path d="M407.146 263.891H370.242C370.186 263.891 370.141 263.941 370.141 264.004V265.021C370.141 265.083 370.186 265.134 370.242 265.134H407.146C407.203 265.134 407.248 265.083 407.248 265.021V264.004C407.248 263.941 407.203 263.891 407.146 263.891Z" fill="#312F3D"/>
<path d="M407.146 267.902H370.242C370.186 267.902 370.141 267.953 370.141 268.015V269.033C370.141 269.095 370.186 269.146 370.242 269.146H407.146C407.203 269.146 407.248 269.095 407.248 269.033V268.015C407.248 267.953 407.203 267.902 407.146 267.902Z" fill="#312F3D"/>
<path d="M407.146 271.914H370.242C370.186 271.914 370.141 271.965 370.141 272.027V273.044C370.141 273.107 370.186 273.157 370.242 273.157H407.146C407.203 273.157 407.248 273.107 407.248 273.044V272.027C407.248 271.965 407.203 271.914 407.146 271.914Z" fill="#312F3D"/>
<path d="M407.146 275.926H370.242C370.186 275.926 370.141 275.976 370.141 276.039V277.056C370.141 277.118 370.186 277.169 370.242 277.169H407.146C407.203 277.169 407.248 277.118 407.248 277.056V276.039C407.248 275.976 407.203 275.926 407.146 275.926Z" fill="#312F3D"/>
<path d="M406.96 256.996H370.429C370.27 256.996 370.141 257.139 370.141 257.316V260.029C370.141 260.206 370.27 260.349 370.429 260.349H406.96C407.119 260.349 407.248 260.206 407.248 260.029V257.316C407.248 257.139 407.119 256.996 406.96 256.996Z" fill="#312F3D"/>
<path d="M371.668 246.634C371.668 247.086 371.346 247.444 370.939 247.444C370.531 247.444 370.209 247.086 370.209 246.634C370.209 246.182 370.531 245.824 370.939 245.824C371.346 245.824 371.668 246.182 371.668 246.634Z" fill="#C5DBF0"/>
<path d="M374.908 246.634C374.908 247.086 374.586 247.444 374.179 247.444C373.772 247.444 373.449 247.086 373.449 246.634C373.449 246.182 373.772 245.824 374.179 245.824C374.586 245.824 374.908 246.182 374.908 246.634Z" fill="#C5DBF0"/>
<path d="M378.133 246.634C378.133 247.086 377.811 247.444 377.403 247.444C376.996 247.444 376.674 247.086 376.674 246.634C376.674 246.182 376.996 245.824 377.403 245.824C377.811 245.824 378.133 246.182 378.133 246.634Z" fill="#C5DBF0"/>
<path d="M381.373 246.634C381.373 247.086 381.051 247.444 380.644 247.444C380.236 247.444 379.914 247.086 379.914 246.634C379.914 246.182 380.236 245.824 380.644 245.824C381.051 245.824 381.373 246.182 381.373 246.634Z" fill="#C5DBF0"/>
<path d="M384.598 246.634C384.598 247.086 384.276 247.444 383.868 247.444C383.461 247.444 383.139 247.086 383.139 246.634C383.139 246.182 383.461 245.824 383.868 245.824C384.276 245.824 384.598 246.182 384.598 246.634Z" fill="#C5DBF0"/>
<path d="M387.838 246.634C387.838 247.086 387.516 247.444 387.108 247.444C386.701 247.444 386.379 247.086 386.379 246.634C386.379 246.182 386.701 245.824 387.108 245.824C387.516 245.824 387.838 246.182 387.838 246.634Z" fill="#C5DBF0"/>
<path d="M391.078 246.634C391.078 247.086 390.756 247.444 390.349 247.444C389.942 247.444 389.619 247.086 389.619 246.634C389.619 246.182 389.942 245.824 390.349 245.824C390.756 245.824 391.078 246.182 391.078 246.634Z" fill="#C5DBF0"/>
<path d="M394.303 246.634C394.303 247.086 393.981 247.444 393.573 247.444C393.166 247.444 392.844 247.086 392.844 246.634C392.844 246.182 393.166 245.824 393.573 245.824C393.981 245.824 394.303 246.182 394.303 246.634Z" fill="#C5DBF0"/>
<path d="M397.543 246.634C397.543 247.086 397.221 247.444 396.814 247.444C396.406 247.444 396.084 247.086 396.084 246.634C396.084 246.182 396.406 245.824 396.814 245.824C397.221 245.824 397.543 246.182 397.543 246.634Z" fill="#C5DBF0"/>
<path d="M400.768 246.634C400.768 247.086 400.445 247.444 400.038 247.444C399.631 247.444 399.309 247.086 399.309 246.634C399.309 246.182 399.631 245.824 400.038 245.824C400.445 245.824 400.768 246.182 400.768 246.634Z" fill="#C5DBF0"/>
<path d="M404.008 246.634C404.008 247.086 403.686 247.444 403.278 247.444C402.871 247.444 402.549 247.086 402.549 246.634C402.549 246.182 402.871 245.824 403.278 245.824C403.686 245.824 404.008 246.182 404.008 246.634Z" fill="#C5DBF0"/>
<path d="M407.248 246.634C407.248 247.086 406.926 247.444 406.519 247.444C406.111 247.444 405.789 247.086 405.789 246.634C405.789 246.182 406.111 245.824 406.519 245.824C406.926 245.824 407.248 246.182 407.248 246.634Z" fill="#C5DBF0"/>
<path d="M396.051 222.658C396.051 223.11 395.729 223.468 395.321 223.468C394.914 223.468 394.592 223.11 394.592 222.658C394.592 222.206 394.914 221.848 395.321 221.848C395.729 221.848 396.051 222.206 396.051 222.658Z" fill="#C5DBF0"/>
<path d="M411.203 222.658C411.203 223.11 410.881 223.468 410.474 223.468C410.067 223.468 409.744 223.11 409.744 222.658C409.744 222.206 410.067 221.848 410.474 221.848C410.881 221.848 411.203 222.206 411.203 222.658Z" fill="#C5DBF0"/>
<path d="M414.223 222.658C414.223 223.11 413.9 223.468 413.493 223.468C413.086 223.468 412.764 223.11 412.764 222.658C412.764 222.206 413.086 221.848 413.493 221.848C413.9 221.848 414.223 222.206 414.223 222.658Z" fill="#C5DBF0"/>
<path d="M417.26 222.658C417.26 223.11 416.938 223.468 416.53 223.468C416.123 223.468 415.801 223.11 415.801 222.658C415.801 222.206 416.123 221.848 416.53 221.848C416.938 221.848 417.26 222.206 417.26 222.658Z" fill="#C5DBF0"/>
<path opacity="0.2" d="M376.572 90.5312H367.189V91.2471H376.572V90.5312Z" fill="#C5DBF0"/>
<path opacity="0.2" d="M376.572 92.5859H367.189V93.3018H376.572V92.5859Z" fill="#C5DBF0"/>
<path opacity="0.2" d="M376.572 94.6367H367.189V95.3525H376.572V94.6367Z" fill="#C5DBF0"/>
<path opacity="0.2" d="M376.572 96.7109H367.189V97.4268H376.572V96.7109Z" fill="#C5DBF0"/>
<path opacity="0.2" d="M376.572 98.7656H367.189V99.4815H376.572V98.7656Z" fill="#C5DBF0"/>
<path opacity="0.5" d="M429.985 143.426H371.074V144.839H429.985V143.426Z" fill="#C5DBF0"/>
<path opacity="0.2" d="M429.985 147.195H371.074V147.892H429.985V147.195Z" fill="#C5DBF0"/>
<path opacity="0.2" d="M414.597 103.812C410.457 107.825 395.458 107.825 391.318 103.812L383.92 128.565C383.92 128.565 389.451 132.841 402.957 132.746C416.48 132.841 421.995 128.565 421.995 128.565L414.597 103.812Z" fill="#C5DDF9"/>
<path d="M369.905 267.17C369.905 267.17 360.081 279.508 357.57 281.467C355.058 283.426 331.016 332.139 331.016 332.139L339.584 339.015C339.584 339.015 361.082 309.535 371.16 293.768C379.695 280.431 376.556 281.279 381.561 273.16C384.327 268.696 383.699 262.649 380.051 259.032C379.593 258.58 379.101 258.109 378.575 257.619C371.143 250.8 320.224 243.152 320.224 243.152L287.664 246.656C287.664 246.656 314.269 267.189 315.27 267.735C316.271 268.281 352.021 274.027 352.751 274.027C353.48 274.027 369.888 267.189 369.888 267.189L369.905 267.17Z" fill="#89C9DF"/>
<path d="M304.121 124.983C299.523 122.798 294.365 120.576 289.648 122.44C286.679 123.608 284.388 126.227 282.216 128.77C279.841 131.558 277.313 134.722 277.245 138.565C277.228 140.129 277.618 141.654 278.059 143.142C278.907 146.025 279.959 148.907 281.639 151.299C284.371 155.179 288.562 157.478 292.838 158.815C296.621 159.983 297.555 159.569 301.474 159.38C304.121 159.248 308.312 154.577 310.043 152.335C312.774 148.775 312.537 133.347 309.652 129.467C308.889 128.431 307.803 127.432 306.581 126.509C305.801 125.906 304.986 125.36 304.138 124.87L304.087 125.002L304.121 124.983Z" fill="#13375B"/>
<path d="M294.129 168.311C294.129 168.311 280.487 167.2 275.668 171.645C270.849 176.072 276.703 215.461 276.703 221.978C276.703 228.515 273.395 246.956 273.395 246.956C273.395 246.956 305.395 253.116 310.485 243.321C310.485 243.321 311.927 205.985 311.724 201.295C311.503 196.604 306.769 177.39 305.446 175.337C304.139 173.284 294.129 168.33 294.129 168.33V168.311Z" fill="#95D8ED"/>
<path d="M290.989 152.357C290.989 152.357 290.938 152.696 290.836 153.299C290.361 156.143 288.512 165.543 287.273 168.124C285.763 171.251 292.431 181.215 298.845 179.991C300.745 179.633 297.233 170.836 297.402 169.894C297.725 168.105 298.166 165.675 298.607 163.188C298.862 161.775 299.116 160.363 299.354 159.006C300.032 155.201 300.592 152.074 300.592 152.074L290.989 152.338V152.357Z" fill="#F7A48F"/>
<path d="M290.837 153.28C290.939 152.696 290.99 152.338 290.99 152.338L300.594 152.074C300.594 152.074 300.034 155.182 299.355 159.006C299.117 160.344 298.863 161.757 298.608 163.151C297.132 162.906 295.571 162.114 294.027 160.626C292.33 159.006 291.228 157.047 290.549 154.956C290.668 154.297 290.769 153.713 290.837 153.28Z" fill="#F37458"/>
<path d="M297.454 127.566C297.454 127.566 292.924 127.001 290.09 131.014C287.257 135.045 284.186 147.515 291.244 154.278C298.302 161.059 305.259 153.392 306.294 145.254C307.329 137.117 307.736 127.265 297.454 127.548V127.566Z" fill="#F7A48F"/>
<path d="M297.963 126.227C297.963 126.227 291.906 138.076 287.579 138.622C283.253 139.168 282.676 145.46 282.676 145.46C282.676 145.46 284.22 130.955 288.513 128.149C292.788 125.342 297.946 126.208 297.946 126.208L297.963 126.227Z" fill="#13375B"/>
<path d="M398.596 342.968C398.596 342.968 406.536 355.25 405.824 359.15C405.45 361.24 403.788 363.953 404.738 365.912C405.688 367.871 406.791 368.361 406.791 368.361L431.529 368.794C432.87 368.813 431.987 367.871 430.902 366.986C429.12 365.554 427.695 364.593 422.011 361.579C421.637 361.391 420.297 360.449 419.805 360.11C418.566 359.281 417.328 357.982 416.259 356.682C414.477 354.516 406.672 336.809 406.672 336.809L398.596 342.968Z" fill="#F8A491"/>
<path d="M419.805 360.13C413.255 361.976 408.419 360.714 405.722 359.527C405.026 361.694 404.093 364.425 404.585 365.989C405.179 367.91 406.044 368.343 406.791 368.362C412.763 368.532 428.695 368.776 433.243 368.833C433.887 368.833 434.227 368.023 433.82 367.495C432.683 366.007 420.28 360.45 419.788 360.13H419.805Z" fill="#F37458"/>
<path d="M284.372 246.957C284.372 246.957 278.79 265.398 287.172 274.007C295.553 282.616 345.336 281.655 361.709 281.655C361.709 281.655 368.411 301.867 369.158 305.145C369.904 308.423 402.431 350.769 402.431 350.769L411.373 344.477C411.373 344.477 376.369 269.637 373.637 266.359C370.905 263.081 331.931 249.971 322.243 246.957C312.555 243.943 284.389 246.957 284.389 246.957H284.372Z" fill="#C5E6F2"/>
<path d="M282.183 271.369C282.183 271.369 336.156 272.386 341.789 271.369C347.422 270.352 349.849 278.169 348.169 282.276C346.489 286.383 341.874 287.965 335.07 288.342C328.266 288.718 271.663 290.489 270.068 288.813C268.762 287.437 257.903 219.284 251.659 195.474C250.403 190.708 252.88 185.735 257.156 184.341L257.767 184.153C262.026 182.759 265.894 185.641 267.184 190.369L282.183 271.388V271.369Z" fill="#F8CC7F"/>
<path d="M337.886 214.216L308.295 206.304C308.295 206.304 297.826 190.858 287.764 177.559C284.659 180.799 282.878 185.847 279.756 189.049L301.932 217.173C302.73 218.191 303.883 218.793 305.105 218.812L337.292 218.567L337.886 214.197V214.216Z" fill="#F7A48F"/>
<path d="M289.054 141.637C289.461 143.728 288.698 145.687 287.357 146.007C286.017 146.327 284.609 144.877 284.201 142.786C283.794 140.695 284.558 138.736 285.898 138.415C287.239 138.095 288.647 139.546 289.054 141.637Z" fill="#F7A48F"/>
<path d="M287.273 168.121L283.354 169.892L290.87 176.56L289.801 177.558L299.71 183.775L287.273 168.121Z" fill="#C5E6F2"/>
<path d="M297.387 169.895L300.441 171.703L298.914 173.342L300.848 174.001L299.711 183.778L297.387 169.895Z" fill="#C5E6F2"/>
<path d="M295.74 178.782C295.74 178.782 297.149 179.498 298.811 178.387L299.711 183.774L295.74 178.782Z" fill="#13375B"/>
<path d="M339.074 338.598C339.074 338.598 330.692 349.637 330.624 350.748C330.557 351.859 331.015 364.028 332.168 365.14C333.322 366.251 336.716 367.042 335.63 368.304C334.798 369.246 328.453 369.058 324.262 368.794C323.04 368.719 321.496 357.944 321.004 356.362C320.291 354.063 318.578 348.883 319.222 347.282C319.528 346.51 321.038 344.89 323.142 343.402C325.365 341.819 331.439 332.457 331.439 332.457L339.091 338.598H339.074Z" fill="#F58D81"/>
<path d="M323.279 343.328C323.279 343.328 329.794 363.54 332.356 364.52C333.035 364.784 336.292 365.443 336.903 367.025C337.09 367.496 336.903 369.097 336.903 369.097H323.312C323.312 369.097 321.599 360.187 320.92 356.288C320.92 356.288 317.323 346.738 317.713 345.852C318.12 344.986 323.279 343.347 323.279 343.347V343.328Z" fill="#F37458"/>
<path d="M184.909 257.542C187.913 262.458 215.892 257.862 215.892 257.862L212.159 267.601C202.81 270.332 193.715 272.932 193.715 272.932L185.69 274.344C182.466 276.285 177.97 275.305 177.919 269.202C177.868 262.986 170.708 254.245 171.624 248.801C172.54 243.376 173.202 240.569 173.202 240.569H173.304C174.763 240.174 176.239 241.078 176.731 242.641L177.63 245.448C177.63 245.448 180.752 250.741 184.909 257.542Z" fill="#F7A48F"/>
<path d="M364.118 255.732C364.118 255.732 279.248 198.731 271.052 201.312C262.857 203.873 214.127 266.338 214.127 266.338C214.127 266.338 238.526 265.302 239.425 265.339C240.121 265.377 259.175 246.728 262.484 243.187L270.56 229.285C270.56 229.285 309.076 275.191 332.729 279.298C362.167 284.403 364.135 255.732 364.135 255.732H364.118Z" fill="#13375B"/>
<path d="M356.126 252.778C356.126 252.778 358.502 240.797 343.978 243.623C336.97 244.979 264.027 243.585 264.027 243.585L193.969 259.823L193.172 275.363C193.172 275.363 241.172 274.685 248.994 274.12C256.816 273.555 269.898 272.952 269.898 272.952L327.604 283.652C341.246 286.063 359.774 273.593 359.774 257.28L356.126 252.778Z" fill="#34548A"/>
<path d="M440.505 237.481C440.505 237.481 443.881 244.677 438.588 250.573C433.294 256.45 403.686 273.366 388.449 278.678C373.212 283.99 353.14 288.813 353.14 288.813C331.388 268.242 345.267 245.317 345.267 245.317C345.267 245.317 391.367 228.326 402.719 226.141C426.439 221.582 435.72 223.315 435.72 223.315L440.522 237.481H440.505Z" fill="#F48B80"/>
<path d="M434.262 223.128C434.262 223.128 425.982 218.909 418.38 218.362C410.762 217.816 408.302 221.847 402.719 226.161C397.12 230.456 392.437 234.581 397.51 235.014C402.584 235.448 425.489 226.99 425.489 226.99L434.262 223.147V223.128Z" fill="#F9E0B2"/>
<path d="M374.924 276.721C391.414 276.027 404.275 260.624 403.65 242.316C403.025 224.009 389.151 209.73 372.661 210.424C356.171 211.117 343.309 226.521 343.934 244.828C344.559 263.136 358.433 277.414 374.924 276.721Z" fill="#F48B80"/>
<path d="M451.687 230.718L438.028 239.779C438.028 239.779 425.981 237.801 425.506 231.773C425.116 226.706 432.904 223.409 432.904 223.409C432.904 223.409 442.05 222.128 445.901 219.529C449.753 216.929 451.704 230.756 451.704 230.756L451.687 230.718Z" fill="#F7A48F"/>
<path d="M445.885 219.509C449.737 216.91 451.688 230.736 451.688 230.736L450.551 231.489C449.601 231.489 448.752 231.358 448.023 231.037C444.256 229.455 440.998 225.801 439.488 222.052C441.847 221.43 444.324 220.583 445.902 219.509H445.885Z" fill="#F27458"/>
<path d="M471.726 223.445C471.98 223.747 456.184 233.825 449.855 231.15C443.509 228.494 438.623 219.942 441.015 214.987C443.679 209.506 461.698 201.556 469.13 206.793C476.562 212.03 471.726 223.445 471.726 223.445Z" fill="#F7A48F"/>
<path d="M448.43 219.34L446.818 211.805C446.818 211.805 444.273 212.652 444.9 215.987C445.664 220.055 448.43 219.321 448.43 219.321V219.34Z" fill="white"/>
<path d="M296.927 287.477H292.396V361.149H296.927V287.477Z" fill="#13375B"/>
<path d="M271.732 364.426H316.814C318.884 364.426 320.581 366.291 320.581 368.608C320.581 369.003 320.292 369.342 319.919 369.342H268.627C268.27 369.342 267.965 369.022 267.965 368.608C267.965 366.31 269.645 364.426 271.732 364.426Z" fill="#13375B"/>
<path d="M292.04 361.129H297.555C299.183 361.129 300.507 362.598 300.507 364.407C300.507 366.215 299.183 367.684 297.555 367.684H292.04C290.411 367.684 289.088 366.215 289.088 364.407C289.088 362.598 290.411 361.129 292.04 361.129Z" fill="#13375B"/>
<path d="M402.701 226.14C402.701 226.14 400.971 222.957 392.402 217.645C392.402 217.645 389.874 251.25 383.443 261.648L389.501 281.634L425.488 246.465L402.701 226.121V226.14Z" fill="#F9E0B2"/>
<path d="M440.506 237.482L435.704 223.317C435.704 223.317 435.229 223.222 434.228 223.147H434.245C434.245 223.147 425.965 218.909 418.364 218.362C410.745 217.816 408.285 221.847 402.703 226.161L425.49 246.505L395.373 275.929C413.036 273.442 434.025 255.66 438.589 250.574C443.883 244.697 440.506 237.482 440.506 237.482Z" fill="#F9E0B2"/>
<path d="M343.893 243.586C343.893 243.586 350.731 266.888 358.061 272.953H339.906C339.906 272.953 336.971 264.815 336.971 263.949C336.971 263.082 339.991 249.67 339.991 249.67L343.893 243.605V243.586Z" fill="#34548A"/>
<path d="M464.09 205.156C464.09 205.156 458.05 215.121 461.036 221.375C464.022 227.629 469.978 212.352 469.978 212.352L466.398 207.36L464.09 205.156Z" fill="#13375B"/>
<path d="M331.879 242.493C331.879 242.493 325.839 240.025 325.483 240.534C325.245 240.873 324.566 241.495 329.691 244.377C334.798 247.259 331.879 242.493 331.879 242.493Z" fill="#F48B80"/>
<path d="M321.92 245.207C321.75 244.454 322.989 243.757 323.922 243.229C324.957 242.646 330.217 242.25 331.082 242.288C331.948 242.325 338.277 245.98 340.533 247.901C342.79 249.823 344.588 250.105 344.588 250.105C351.766 251.198 372.856 256.962 380.865 259.279C380.865 259.279 404.517 250.143 405.043 250.067C405.569 249.992 411.983 268.66 411.983 268.66L380.271 272.973C380.271 272.973 380.152 273.011 380.084 272.992C377.861 272.634 335.545 253.891 333.763 253.138C331.982 252.384 329.352 248.994 328.673 248.391C328.011 247.788 326.383 247.43 325.161 247.562C323.939 247.694 320.512 247.807 320.088 247.298C319.68 246.809 321.869 245.207 321.869 245.207H321.92Z" fill="#F8A491"/>
<path d="M412.204 272.913C428.238 264.21 447.241 252.041 444.323 237.913C443.169 232.338 431.156 228.815 400.225 250.29C403.143 256.977 407.673 266.64 412.204 272.913Z" fill="#F8CC7F"/>
<path d="M467.058 213.932C467.058 213.932 464.429 217.964 460.798 221.618C457.166 225.272 448.903 222.503 444.797 227.552C440.691 232.6 418.294 223.087 411.049 238.082C403.804 253.076 419.024 259.97 419.024 259.97L470.689 217.643L474.643 217.248C474.643 217.248 477.273 202.988 464.106 205.173C464.106 205.173 468.059 211.389 467.075 213.951L467.058 213.932Z" fill="#13375B"/>
<path d="M402.99 291.844H131.563C131.189 291.844 130.885 292.181 130.885 292.597V298.964C130.885 299.38 131.189 299.718 131.563 299.718H402.99C403.365 299.718 403.669 299.38 403.669 298.964V292.597C403.669 292.181 403.365 291.844 402.99 291.844Z" fill="#13375B"/>
<path d="M414.159 285.27L475.407 234.972C475.816 234.636 476.386 234.731 476.688 235.185L479.816 239.88C480.119 240.334 480.034 240.967 479.625 241.303L418.376 291.6C417.967 291.936 417.397 291.842 417.095 291.388L413.967 286.693C413.664 286.238 413.749 285.606 414.159 285.27Z" fill="#13375B"/>
<path d="M483.415 220.49C480.225 215.705 474.168 214.707 469.858 218.229L408.453 268.619C405.043 271.407 400.92 272.914 396.695 272.914H131.122C125.777 272.914 121.434 277.736 121.434 283.67C121.434 289.603 125.777 294.426 131.122 294.426H401.259C406.502 294.426 411.609 292.561 415.834 289.114L481.396 235.503C485.705 231.961 486.605 225.237 483.432 220.452L483.415 220.49Z" fill="#F37458"/>
<path d="M143.644 296.047H137.977V369.342H143.644V296.047Z" fill="#13375B"/>
<path d="M396.56 296.047H390.893V369.342H396.56V296.047Z" fill="#13375B"/>
<path d="M440.266 269.599C442.37 274.61 443.558 280.186 443.558 286.063C443.558 307.631 427.761 325.169 408.334 325.169C402.548 325.169 397.084 323.605 392.266 320.836V324.924C397.169 327.429 402.599 328.842 408.334 328.842C429.577 328.842 446.866 309.647 446.866 286.063C446.866 279.583 445.56 273.442 443.219 267.941C442.2 268.563 441.199 269.128 440.266 269.599Z" fill="#13375B"/>
<path d="M457.779 219.606C455.59 219.285 453.69 220.152 453.52 221.546C453.35 222.94 454.979 224.334 457.168 224.673C459.357 224.993 461.257 224.127 461.427 222.733C461.596 221.339 459.968 219.945 457.779 219.606Z" fill="#F7A48F"/>
<path d="M348.967 220.47C348.967 220.47 347.814 223.314 351.105 223.973C354.397 224.633 359.589 220.583 359.589 220.583C359.589 220.583 363.712 217.625 360.929 214.706C358.147 211.786 348.967 220.47 348.967 220.47Z" fill="#57597B"/>
<path d="M348.83 215.197C348.83 215.197 347.744 218.211 348.525 220.415C349.288 222.619 352.292 221.847 354.073 221.056C355.855 220.283 360.504 218.004 360.911 215.894C361.318 213.803 359.91 212.579 356.72 211.298C353.53 210.017 351.358 201.39 348.83 202.52C346.302 203.65 346.981 205.797 347.218 206.645C347.456 207.493 349.424 211.675 348.83 215.197Z" fill="#E7F0F9"/>
<path d="M358.638 211.202C358.824 210.599 357.857 209.959 357.145 209.469C356.347 208.923 352.139 208.207 351.443 208.188C350.748 208.15 345.42 210.599 343.486 211.955C341.552 213.33 340.075 213.406 340.075 213.406C339.498 213.444 338.616 213.519 337.938 213.557L339.532 219.095C344.487 217.607 348.101 216.778 348.576 216.646C350.052 216.175 352.394 213.67 352.971 213.236C353.547 212.803 354.871 212.634 355.838 212.822C356.805 213.029 359.571 213.349 359.927 212.991C360.283 212.634 358.621 211.183 358.621 211.183L358.638 211.202Z" fill="#F8A491"/>
<path d="M309.228 205.249C308.244 203.46 294.636 185.658 292.142 182.418C287.103 175.788 281.147 169.006 278.433 169.798C273.241 171.323 270.984 180.968 274.021 186.751C275.209 189.011 278.11 192.365 281.181 195.586C281.181 195.586 300.999 219.603 303.205 219.66C305.411 219.697 340.669 219.264 340.669 219.264L341.704 212.558C341.704 212.558 310.314 207.227 309.211 205.249H309.228Z" fill="#C5E6F2"/>
<path d="M592.991 368.324H95.3047V371.602H592.991V368.324Z" fill="#F8CC7F"/>
<path d="M669.089 23.7539H32.8138C15.2435 23.7539 1 39.5671 1 59.0737V342.574C1 362.08 15.2435 377.894 32.8138 377.894H669.089C686.659 377.894 700.903 362.08 700.903 342.574V59.0737C700.903 39.5671 686.659 23.7539 669.089 23.7539Z" stroke="#79AEDD" stroke-opacity="0.7" stroke-width="2" stroke-miterlimit="10"/>
</svg>
