<svg width="103" height="88" viewBox="0 0 103 88" fill="none" xmlns="http://www.w3.org/2000/svg">
<path d="M21.4492 38.8698C21.4492 38.8698 17.9092 46.1098 18.0992 49.1098C18.0992 49.1098 44.0092 62.4698 48.4592 69.1998C52.1592 65.7798 56.4292 62.1798 61.2992 58.5998C67.9292 53.7398 74.2992 49.9198 80.0192 46.9198C79.7292 45.0998 79.3092 43.0698 78.6692 40.8798C78.1192 38.9998 77.4992 37.2998 76.8692 35.7998C62.3792 47.9298 38.3492 50.2498 21.4492 38.8698Z" fill="#000202" stroke="black" stroke-miterlimit="10"/>
<path d="M24.3295 3.34C25.6295 6.85 27.3195 12.8 27.0195 20.28C26.6795 28.93 23.8395 35.45 22.0195 38.92C25.3495 41.07 35.3695 46.93 49.3095 46.21C63.4895 45.48 72.9695 38.41 76.0195 35.92C74.4995 33.17 71.8595 27.52 71.7095 19.93C71.5395 11.18 74.7695 4.74 76.3495 2C65.8795 7.81 35.8295 8.88 24.3295 3.35V3.34Z" stroke="black" stroke-miterlimit="10"/>
<path d="M80.7008 55.7598C80.7108 61.4598 79.7208 71.8798 72.3208 84.2598C72.3208 84.2598 50.7908 86.9598 46.6708 85.2198C48.9808 76.7298 49.5008 69.4998 49.2708 63.6798C49.0808 65.3298 48.8708 67.1198 48.6308 69.0598C48.3408 71.4698 47.6608 77.1498 46.6708 85.2198C40.9308 86.6998 30.7308 87.1998 23.6508 85.6998C21.1408 81.2598 17.6108 73.5898 16.9608 63.7098C16.6208 58.5198 17.2108 54.7698 18.1008 49.1098C18.9808 43.5398 19.4508 40.7298 21.0208 39.9198C24.6608 38.0298 28.6308 45.2798 39.0208 46.9198C44.4608 47.7798 45.9308 46.1998 48.0208 47.9198C48.5408 48.3498 48.9508 48.9098 49.2408 49.6298C51.9308 46.3098 56.8808 48.4798 64.0208 44.9198C71.1008 41.3898 72.0808 36.3198 75.0208 36.9198C79.2508 37.7798 80.6908 48.9298 80.7008 55.7598V55.7598Z" stroke="black" stroke-miterlimit="10"/>
<path d="M92.2605 10.6699L80.4805 20.6699L89.2605 30.6699" stroke="black" stroke-miterlimit="10"/>
<path d="M102.26 21.6699L80.4805 20.6699" stroke="black" stroke-miterlimit="10"/>
<path d="M13.3809 9.12988L22.3609 19.0399L12.3809 28.1299" stroke="black" stroke-miterlimit="10"/>
<path d="M1 18.6299L22.36 19.0399" stroke="black" stroke-miterlimit="10"/>
<path d="M52.0192 28.2602C52.2792 31.4902 47.1892 31.8202 47.0292 28.5802C46.7692 25.3502 51.8592 25.0202 52.0192 28.2602Z" stroke="black" stroke-miterlimit="10"/>
</svg>
