<svg width="15" height="14" viewBox="0 0 15 14" fill="none" xmlns="http://www.w3.org/2000/svg">
<path d="M0.93275 12.2599C0.578928 12.6137 0.56208 13.2455 0.941174 13.6162C1.31184 13.9869 1.94367 13.9784 2.29749 13.6246L7.45318 8.4605L12.6173 13.6246C12.9795 13.9869 13.6029 13.9869 13.9736 13.6162C14.3359 13.2371 14.3443 12.6221 13.9736 12.2599L8.81792 7.09576L13.9736 1.94007C14.3443 1.57782 14.3443 0.954423 13.9736 0.583753C13.5945 0.221506 12.9795 0.213082 12.6173 0.575328L7.45318 5.73944L2.29749 0.575328C1.94367 0.221506 1.30342 0.204658 0.941174 0.583753C0.570504 0.954423 0.578928 1.58625 0.93275 1.94007L6.09686 7.09576L0.93275 12.2599Z" fill="#6699FF"/>
</svg>
